<?xml version="1.0" encoding="utf-8"?>
<svg  viewBox="0 0 341 290" version="1.1" xmlns:xlink="http://www.w3.org/1999/xlink" xmlns="http://www.w3.org/2000/svg">
  <defs>
    <filter filterUnits="userSpaceOnUse" color-interpolation-filters="sRGB" id="filter_1">
      <feFlood flood-opacity="0" result="BackgroundImageFix" />
      <feColorMatrix in="SourceAlpha" type="matrix" values="0 0 0 0 0 0 0 0 0 0 0 0 0 0 0 0 0 0 128 0" />
      <feOffset dx="0" dy="2" />
      <feGaussianBlur stdDeviation="2" />
      <feColorMatrix type="matrix" values="0 0 0 0 0.39215687 0 0 0 0 0.39215687 0 0 0 0 0.39215687 0 0 0 0.49803922 0" />
      <feBlend mode="normal" in2="BackgroundImageFix" result="effect0_dropShadow" />
      <feBlend mode="normal" in="SourceGraphic" in2="effect0_dropShadow" result="shape" />
    </filter>
  </defs>
  <g id="Group">
    <g filter="url(#filter_1)">
      <g id="Group" transform="translate(42.99994 0)">
        <path d="M152.987 0.886383C153.134 1.40346 153.725 5.68773 154.39 10.3413C155.572 19.7962 154.981 41.2914 153.356 45.4279C150.254 53.4794 148.111 63.8945 147.077 75.787C145.6 92.9241 144.418 95.9526 135.185 107.106L129.423 113.902L130.31 136.579C130.753 148.989 131.491 160.29 131.935 161.694C132.304 163.097 133.486 165.535 134.52 167.086C136.293 169.745 136.588 169.893 140.134 169.893C143.384 169.893 144.123 170.188 146.043 172.257C148.629 175.138 148.85 177.649 146.56 178.831C144.64 179.865 129.128 179.348 127.059 178.166C125.213 177.132 119.894 161.472 115.167 143.301C112.951 134.585 110.957 127.272 110.735 127.05C110.366 126.681 108.962 128.232 103.274 135.545C99.8027 139.977 99.8027 139.977 99.3595 147.068C98.9902 152.904 98.6208 154.75 96.848 158C94.7798 161.694 91.4557 165.239 87.6147 167.751C85.8419 168.933 85.9896 168.933 91.3819 168.563C96.9219 168.268 96.9219 168.268 98.9163 170.632C101.058 173.143 101.502 175.655 100.024 177.132C99.3595 177.797 91.5296 178.018 69.5174 178.018C42.3344 178.018 39.3798 177.871 33.9875 176.541C25.7144 174.473 16.8504 169.893 11.532 164.944C3.92377 157.927 -0.951416 145.665 0.15657 136.284C1.63391 124.022 7.98643 113.902 18.4755 107.033C20.9131 105.408 23.0552 104.152 23.2768 104.152C23.5723 104.152 22.3904 107.033 20.6176 110.578C12.4923 127.272 12.64 144.261 20.987 152.387C23.4984 154.75 28.2259 157.631 30.5896 158.222C31.2544 158.37 32.3624 155.711 34.0614 149.949C44.1811 115.232 64.0512 87.0886 89.4613 71.4289C97.7344 66.3321 106.894 57.7636 110.144 52.2236C111.252 50.2292 113.837 43.4335 115.832 37.081C119.23 26.2226 119.451 25.0408 119.673 16.2506C119.894 6.57411 121.076 0 122.701 0C124.105 0 128.685 5.53999 131.418 10.489C133.707 14.5517 133.855 14.6256 137.401 14.921C140.577 15.1426 141.168 14.921 142.128 13.296C148.924 2.28986 152.174 -1.47733 152.987 0.886383L152.987 0.886383Z" id="Shape" fill="#002E82" stroke="none" />
        <path d="M180.641 63.1497C180.863 63.4451 181.454 66.3259 181.897 69.5022C182.636 74.0819 182.636 75.8547 181.971 78.2923C181.454 79.9174 180.937 84.2755 180.863 87.9688L180.715 94.6168L183.522 98.1624C186.403 101.856 188.324 103.111 195.045 105.918C201.398 108.578 206.864 112.197 212.552 117.515C222.45 126.675 228.729 138.641 232.865 156.369C234.786 164.495 242.837 169.518 252.735 168.853C263.594 168.04 270.094 161.318 270.094 150.829C270.02 144.994 268.1 139.823 263.963 134.726C261.304 131.402 261.304 131.402 262.855 129.26C264.48 126.897 266.475 127.266 269.799 130.59C275.191 135.982 277.924 143.147 277.998 152.307C278.072 159.546 276.447 164.273 272.384 168.853C265.81 176.166 253.548 178.899 239.809 176.166C226.587 173.432 222.967 173.728 219.643 177.569L218.092 179.342L200.512 179.342C187.807 179.342 182.71 179.12 182.045 178.455C180.641 177.052 181.011 174.984 183.005 173.063C184.63 171.364 185.369 171.216 191.131 171.216C194.602 171.216 197.409 170.995 197.409 170.773C197.409 170.552 196.153 168.853 194.528 166.932C192.977 165.012 190.687 161.688 189.505 159.546L187.289 155.705L182.71 166.194C180.198 172.029 177.539 177.347 176.948 178.012C175.619 179.563 168.01 179.859 165.573 178.603C162.913 177.126 164.465 172.251 167.936 171.069C168.749 170.773 168.971 168.188 168.971 158.216C168.971 141.596 168.453 139.528 161.953 132.437C154.936 124.681 153.459 121.43 153.532 113.97C153.606 110.72 153.902 105.697 154.197 102.742C154.714 97.9408 154.567 97.2022 153.015 95.06C151.686 93.1395 151.169 91.0712 150.652 84.8664C149.691 74.3035 149.691 67.1385 150.799 64.5531C151.612 62.6326 151.76 62.5587 153.311 63.519C154.197 64.1838 156.561 66.6953 158.629 69.1329C162.323 73.6387 162.323 73.6387 165.942 73.491C169.488 73.3433 169.783 73.1217 172.885 69.2806C176.283 65.0702 180.051 62.1155 180.641 63.1497L180.641 63.1497ZM177.54 150.829L177.613 155.335L178.647 150.903C179.977 144.846 179.977 144.181 178.574 145.363C177.761 146.028 177.466 147.579 177.54 150.829L177.54 150.829Z" id="Shape" fill="#CB6120" fill-rule="evenodd" stroke="none" />
      </g>
    </g>
    <g id="ÁGILVET" transform="translate(0 179)">
      <path d="M16.1983 72.5488L0 72.5488L27.4238 17.2744L47.9268 17.2744L57 72.5488L40.8018 72.5488L39.3731 61.9726L21.1524 61.9726L16.1983 72.5488L16.1983 72.5488ZM26.4219 50.747L37.8701 50.747L35.4024 32.4892L34.9756 32.4892L26.4219 50.747L26.4219 50.747ZM33.5654 12.0976L40.8018 0L53.5488 0L43.3994 12.0976L33.5654 12.0976L33.5654 12.0976ZM101.746 35.5136C101.622 33.6334 100.966 32.1738 99.7787 31.1347C98.6036 30.0957 96.8471 29.5761 94.5092 29.5761C90.7117 29.5761 87.4646 30.9183 84.7679 33.6025C82.0837 36.2868 80.3457 40.0225 79.5541 44.8095C78.75 49.6585 79.0655 53.4437 80.5004 56.165C81.9477 58.8864 84.601 60.247 88.4603 60.247C91.8496 60.247 94.5586 59.5358 96.5873 58.1133C98.6283 56.6908 99.8591 54.7735 100.28 52.3613L90.2972 52.3613L92.0228 41.6738L116.534 41.6738L115.291 49.3369C114.462 54.3714 112.687 58.6761 109.966 62.2509C107.244 65.8259 103.855 68.5658 99.7972 70.4707C95.7523 72.3633 91.3116 73.3095 86.475 73.3095C81.1065 73.3095 76.5791 72.1653 72.8929 69.8769C69.2067 67.5885 66.572 64.3353 64.9887 60.1172C63.4177 55.8868 63.1084 50.8522 64.0609 45.0136C64.8278 40.4492 66.2009 36.4043 68.1801 32.8789C70.1716 29.3535 72.6023 26.3724 75.472 23.9355C78.3542 21.4987 81.5333 19.6556 85.0092 18.4062C88.4851 17.1445 92.0847 16.5136 95.808 16.5136C100.162 16.5136 103.96 17.3301 107.201 18.9629C110.454 20.5957 112.94 22.8408 114.66 25.6982C116.392 28.5433 117.14 31.8151 116.905 35.5136L101.746 35.5136L101.746 35.5136ZM142.605 17.2744L133.439 72.5488L118.428 72.5488L127.594 17.2744L142.605 17.2744L142.605 17.2744ZM140.559 72.5488L149.725 17.2744L164.736 17.2744L157.611 60.4511L179.951 60.4511L177.91 72.5488L140.559 72.5488L140.559 72.5488Z" id="ÁGIL-VET" fill="#002E82" fill-rule="evenodd" stroke="none" />
      <path d="M201.767 17.2744L206.628 56.2392L207.055 56.2392L224.868 17.2744L241.808 17.2744L214.403 72.5488L193.881 72.5488L184.808 17.2744L201.767 17.2744L201.767 17.2744ZM237.934 72.5488L247.1 17.2744L286.937 17.2744L284.896 29.372L260.069 29.372L258.548 38.872L281.333 38.872L279.274 50.9511L256.507 50.9511L254.985 60.4511L279.7 60.4511L277.659 72.5488L237.934 72.5488L237.934 72.5488ZM290.821 29.372L292.881 17.2744L340.919 17.2744L338.86 29.372L322.235 29.372L315.11 72.5488L300.321 72.5488L307.446 29.372L290.821 29.372L290.821 29.372Z" id="ÁGIL-VET#1" fill="#CB6120" fill-rule="evenodd" stroke="none" />
    </g>
    <g id="Gestión-Integral-para-Clínicas" transform="translate(43 262)">
      <g transform="translate(0, 6)" id="Gestión-Integral-para-Clínicas-Veterinarias">
        <path d="M6.68848 18.2241Q5.43604 18.2241 4.34619 17.7803Q3.26074 17.3364 2.44336 16.5366Q1.62598 15.7368 1.16895 14.6821Q0.711914 13.623 0.711914 12.3882Q0.711914 11.1489 1.17334 10.0898Q1.63916 9.02637 2.45654 8.22656Q3.27393 7.42676 4.34619 6.97852Q5.42285 6.52588 6.67529 6.52588Q7.84863 6.52588 8.87256 6.92578Q9.90088 7.32568 10.6875 8.05078L10.1646 10.1997Q9.63721 9.35156 8.73633 8.80664Q7.83545 8.26172 6.67529 8.26172Q5.52393 8.26172 4.60986 8.80664Q3.7002 9.35156 3.15967 10.2876Q2.62354 11.2236 2.62354 12.3882Q2.62354 13.5483 3.15527 14.48Q3.68701 15.4116 4.60547 15.9653Q5.52393 16.5146 6.66211 16.5146Q7.27295 16.5146 7.80469 16.3784Q8.33643 16.2378 8.77588 15.9873L8.77588 13.4253L6.08643 13.4253L6.08643 11.8521L10.4854 11.8521L10.4854 17.0508Q9.7251 17.6265 8.74072 17.9253Q7.76074 18.2241 6.68848 18.2241ZM16.3755 18.2021Q15.1494 18.2021 14.2046 17.6792Q13.2642 17.1519 12.7236 16.2378Q12.1875 15.3237 12.1875 14.1768Q12.1875 13.0737 12.7061 12.1992Q13.2246 11.3247 14.1035 10.8149Q14.9868 10.3008 16.0635 10.3008Q17.1357 10.3008 18.0059 10.8018Q18.876 11.2983 19.3813 12.1553Q19.8867 13.0122 19.8867 14.1021L19.8867 14.748L15.1494 14.748Q14.8374 14.748 14.5254 14.7173Q14.2134 14.6865 13.9014 14.6382Q14.0508 15.5127 14.7319 16.0884Q15.4131 16.6641 16.4019 16.6641Q17.1138 16.6641 17.707 16.3564Q18.3003 16.0488 18.6606 15.561L19.0869 17.3145Q18.5376 17.7363 17.8345 17.9692Q17.1357 18.2021 16.3755 18.2021ZM13.8618 13.5264Q14.5122 13.3989 15.1494 13.3989L17.061 13.3989Q17.373 13.3989 17.6587 13.4253Q17.9487 13.4517 18.2256 13.4868Q18.0498 12.7134 17.4478 12.2388Q16.8501 11.7642 16.0503 11.7642Q15.2505 11.7642 14.6484 12.2651Q14.0508 12.7617 13.8618 13.5264ZM23.5874 18.2021Q22.9238 18.2021 22.2031 17.9648Q21.4868 17.7231 21.0254 17.2617L21.4868 15.4995Q21.8384 16.0356 22.436 16.4004Q23.0381 16.7607 23.6885 16.7607Q24.2246 16.7607 24.4751 16.5234Q24.7256 16.2861 24.7256 15.9521Q24.7256 15.561 24.4619 15.3896Q24.1982 15.2139 23.9609 15.126L22.9238 14.7261Q22.6118 14.5986 22.1943 14.3745Q21.7769 14.1504 21.4692 13.7241Q21.1616 13.2979 21.1616 12.6123Q21.1616 11.9883 21.4692 11.4653Q21.7769 10.938 22.3438 10.6216Q22.9106 10.3008 23.7104 10.3008Q24.4004 10.3008 25.0552 10.5381Q25.7144 10.7754 26.0879 11.1753L25.6484 12.8979Q25.2881 12.3486 24.7432 12.0454Q24.1982 11.7378 23.6621 11.7378Q23.2007 11.7378 22.9634 11.9619Q22.7261 12.186 22.7261 12.4761Q22.7261 12.7134 22.8887 12.9067Q23.0513 13.1001 23.4116 13.2363L24.4004 13.6143Q24.752 13.7373 25.1958 13.9746Q25.6396 14.2119 25.9604 14.6514Q26.2856 15.0864 26.2856 15.8379Q26.2856 16.8882 25.5298 17.5474Q24.7739 18.2021 23.5874 18.2021ZM28.7646 18L28.7646 11.9268L27.2134 11.9268L27.2134 10.4985L28.7998 10.4985L28.7998 7.99805L30.4873 7.99805L30.4873 10.4985L32.1616 10.4985L32.1616 11.9268L30.5269 11.9268L30.5269 18L28.7646 18ZM33.5239 18L33.5239 10.4985L35.2861 10.4985L35.2861 18L33.5239 18ZM34.4116 9.27686Q33.9854 9.27686 33.6865 8.97803Q33.3877 8.6748 33.3877 8.24854Q33.3877 7.80029 33.6865 7.50586Q33.9854 7.21143 34.4116 7.21143Q34.8599 7.21143 35.1543 7.51465Q35.4487 7.81348 35.4487 8.24854Q35.4487 8.6748 35.1499 8.97803Q34.8511 9.27686 34.4116 9.27686ZM40.874 18.2021Q39.7754 18.2021 38.8613 17.6704Q37.9517 17.1387 37.4111 16.2378Q36.875 15.3369 36.875 14.2515Q36.875 13.1484 37.4111 12.2563Q37.9517 11.3643 38.8613 10.8325Q39.7754 10.3008 40.874 10.3008Q41.9858 10.3008 42.8911 10.8325Q43.8008 11.3643 44.3369 12.2563Q44.873 13.1484 44.873 14.2515Q44.873 15.3369 44.3369 16.2378Q43.8008 17.1387 42.8911 17.6704Q41.9858 18.2021 40.874 18.2021ZM40.874 16.5894Q41.5244 16.5894 42.043 16.2729Q42.5615 15.9521 42.8735 15.4292Q43.1855 14.9019 43.1855 14.2515Q43.1855 13.6011 42.8735 13.0781Q42.5615 12.5508 42.0342 12.2344Q41.5112 11.9136 40.874 11.9136Q40.2368 11.9136 39.7095 12.2344Q39.1865 12.5508 38.8789 13.0781Q38.5757 13.6011 38.5757 14.2515Q38.5757 14.9019 38.8789 15.4292Q39.1865 15.9521 39.7051 16.2729Q40.2236 16.5894 40.874 16.5894ZM40.127 9.44824L41.2651 7.04883L43.2383 7.04883L41.5508 9.44824L40.127 9.44824ZM46.4482 18L46.4482 10.4985L48.0479 10.4985L48.0479 11.5137Q48.4609 10.9248 49.0806 10.6128Q49.7002 10.3008 50.4253 10.3008Q51.2251 10.3008 51.9106 10.6875Q52.6006 11.0742 53.0225 11.8125Q53.4487 12.5508 53.4487 13.6011L53.4487 18L51.6865 18L51.6865 13.8384Q51.6865 13.0737 51.2339 12.4937Q50.7856 11.9136 49.9507 11.9136Q49.2739 11.9136 48.7422 12.3882Q48.2104 12.8628 48.2104 13.7988L48.2104 18L46.4482 18ZM59.561 18L59.561 6.75L61.4375 6.75L61.4375 18L59.561 18ZM63.9482 18L63.9482 10.4985L65.5479 10.4985L65.5479 11.5137Q65.9609 10.9248 66.5806 10.6128Q67.2002 10.3008 67.9253 10.3008Q68.7251 10.3008 69.4106 10.6875Q70.1006 11.0742 70.5225 11.8125Q70.9487 12.5508 70.9487 13.6011L70.9487 18L69.1865 18L69.1865 13.8384Q69.1865 13.0737 68.7339 12.4937Q68.2856 11.9136 67.4507 11.9136Q66.7739 11.9136 66.2422 12.3882Q65.7104 12.8628 65.7104 13.7988L65.7104 18L63.9482 18ZM73.4521 18L73.4521 11.9268L71.9009 11.9268L71.9009 10.4985L73.4873 10.4985L73.4873 7.99805L75.1748 7.99805L75.1748 10.4985L76.8491 10.4985L76.8491 11.9268L75.2144 11.9268L75.2144 18L73.4521 18ZM81.563 18.2021Q80.3369 18.2021 79.3921 17.6792Q78.4517 17.1519 77.9111 16.2378Q77.375 15.3237 77.375 14.1768Q77.375 13.0737 77.8936 12.1992Q78.4121 11.3247 79.291 10.8149Q80.1743 10.3008 81.251 10.3008Q82.3232 10.3008 83.1934 10.8018Q84.0635 11.2983 84.5688 12.1553Q85.0742 13.0122 85.0742 14.1021L85.0742 14.748L80.3369 14.748Q80.0249 14.748 79.7129 14.7173Q79.4009 14.6865 79.0889 14.6382Q79.2383 15.5127 79.9194 16.0884Q80.6006 16.6641 81.5894 16.6641Q82.3013 16.6641 82.8945 16.3564Q83.4878 16.0488 83.8481 15.561L84.2744 17.3145Q83.7251 17.7363 83.022 17.9692Q82.3232 18.2021 81.563 18.2021ZM79.0493 13.5264Q79.6997 13.3989 80.3369 13.3989L82.2485 13.3989Q82.5605 13.3989 82.8462 13.4253Q83.1362 13.4517 83.4131 13.4868Q83.2373 12.7134 82.6353 12.2388Q82.0376 11.7642 81.2378 11.7642Q80.438 11.7642 79.8359 12.2651Q79.2383 12.7617 79.0493 13.5264ZM89.7373 21.9507Q88.8628 21.9507 88.1113 21.6914Q87.3643 21.4365 86.8018 21.0015L87.25 19.1646Q87.6367 19.7007 88.2739 20.0435Q88.9111 20.3862 89.7241 20.3862Q90.937 20.3862 91.6445 19.6787Q92.3521 18.9756 92.3521 17.8506L92.3521 17.1387Q91.8862 17.6001 91.249 17.877Q90.6118 18.1494 89.8735 18.1494Q88.8364 18.1494 87.9839 17.6177Q87.1357 17.0859 86.6304 16.207Q86.125 15.3237 86.125 14.2515Q86.125 13.1748 86.6304 12.2871Q87.1357 11.3994 87.9839 10.8765Q88.8364 10.3491 89.8735 10.3491Q90.625 10.3491 91.2622 10.6216Q91.8994 10.8896 92.3608 11.373L92.3608 10.4985L93.9253 10.4985L93.9253 18.0483Q93.9253 19.2744 93.3408 20.1489Q92.7607 21.0234 91.7983 21.4849Q90.8359 21.9507 89.7373 21.9507ZM90.0889 16.5762Q90.7261 16.5762 91.2358 16.2642Q91.75 15.9521 92.0532 15.4292Q92.3608 14.9019 92.3608 14.2515Q92.3608 13.6011 92.0532 13.0781Q91.75 12.5508 91.2358 12.2344Q90.7261 11.9136 90.0889 11.9136Q89.4604 11.9136 88.9419 12.2344Q88.4233 12.5508 88.1157 13.0781Q87.8125 13.6011 87.8125 14.2515Q87.8125 14.8887 88.1157 15.4204Q88.4233 15.9521 88.9375 16.2642Q89.4517 16.5762 90.0889 16.5762ZM95.9482 18L95.9482 10.4985L97.5479 10.4985L97.5479 11.8257Q97.9521 11.1753 98.5762 10.8018Q99.2002 10.4238 100.062 10.4238L100.461 12.063Q100.224 11.9883 99.9253 11.9883Q98.9233 11.9883 98.3169 12.6255Q97.7104 13.2627 97.7104 14.4492L97.7104 18L95.9482 18ZM104.686 18.1494Q103.649 18.1494 102.796 17.6177Q101.948 17.0859 101.443 16.207Q100.938 15.3237 100.938 14.2515Q100.938 13.1748 101.443 12.2871Q101.948 11.3994 102.796 10.8765Q103.649 10.3491 104.686 10.3491Q105.438 10.3491 106.075 10.6216Q106.712 10.8896 107.173 11.373L107.173 10.4985L108.738 10.4985L108.738 18L107.173 18L107.173 17.1255Q106.712 17.6001 106.075 17.877Q105.438 18.1494 104.686 18.1494ZM104.901 16.5762Q105.539 16.5762 106.048 16.2642Q106.562 15.9521 106.866 15.4292Q107.173 14.9019 107.173 14.2515Q107.173 13.6011 106.866 13.0781Q106.562 12.5508 106.048 12.2344Q105.539 11.9136 104.901 11.9136Q104.273 11.9136 103.754 12.2344Q103.236 12.5508 102.928 13.0781Q102.625 13.6011 102.625 14.2515Q102.625 14.8887 102.928 15.4204Q103.236 15.9521 103.75 16.2642Q104.264 16.5762 104.901 16.5762ZM110.774 18L110.774 5.99854L112.536 5.99854L112.536 18L110.774 18ZM118.323 21.7485L118.323 10.4985L119.888 10.4985L119.888 11.3643Q120.362 10.8896 121 10.6216Q121.637 10.3491 122.375 10.3491Q123.412 10.3491 124.26 10.8765Q125.113 11.3994 125.618 12.2871Q126.124 13.1748 126.124 14.2515Q126.124 15.3237 125.618 16.207Q125.113 17.0859 124.26 17.6177Q123.412 18.1494 122.375 18.1494Q121.711 18.1494 121.131 17.9253Q120.551 17.7012 120.085 17.3145L120.085 21.7485L118.323 21.7485ZM122.164 16.5762Q122.801 16.5762 123.311 16.2642Q123.825 15.9521 124.128 15.4292Q124.436 14.9019 124.436 14.2515Q124.436 13.6011 124.128 13.0781Q123.825 12.5508 123.311 12.2344Q122.801 11.9136 122.164 11.9136Q121.536 11.9136 121.017 12.2344Q120.499 12.5508 120.191 13.0781Q119.888 13.6011 119.888 14.2515Q119.888 14.8887 120.191 15.4204Q120.499 15.9521 121.013 16.2642Q121.527 16.5762 122.164 16.5762ZM130.999 18.1494Q129.961 18.1494 129.109 17.6177Q128.261 17.0859 127.755 16.207Q127.25 15.3237 127.25 14.2515Q127.25 13.1748 127.755 12.2871Q128.261 11.3994 129.109 10.8765Q129.961 10.3491 130.999 10.3491Q131.75 10.3491 132.387 10.6216Q133.024 10.8896 133.486 11.373L133.486 10.4985L135.05 10.4985L135.05 18L133.486 18L133.486 17.1255Q133.024 17.6001 132.387 17.877Q131.75 18.1494 130.999 18.1494ZM131.214 16.5762Q131.851 16.5762 132.361 16.2642Q132.875 15.9521 133.178 15.4292Q133.486 14.9019 133.486 14.2515Q133.486 13.6011 133.178 13.0781Q132.875 12.5508 132.361 12.2344Q131.851 11.9136 131.214 11.9136Q130.585 11.9136 130.067 12.2344Q129.548 12.5508 129.241 13.0781Q128.938 13.6011 128.938 14.2515Q128.938 14.8887 129.241 15.4204Q129.548 15.9521 130.062 16.2642Q130.577 16.5762 131.214 16.5762ZM137.073 18L137.073 10.4985L138.673 10.4985L138.673 11.8257Q139.077 11.1753 139.701 10.8018Q140.325 10.4238 141.187 10.4238L141.586 12.063Q141.349 11.9883 141.05 11.9883Q140.048 11.9883 139.442 12.6255Q138.835 13.2627 138.835 14.4492L138.835 18L137.073 18ZM145.811 18.1494Q144.774 18.1494 143.921 17.6177Q143.073 17.0859 142.568 16.207Q142.062 15.3237 142.062 14.2515Q142.062 13.1748 142.568 12.2871Q143.073 11.3994 143.921 10.8765Q144.774 10.3491 145.811 10.3491Q146.562 10.3491 147.2 10.6216Q147.837 10.8896 148.298 11.373L148.298 10.4985L149.863 10.4985L149.863 18L148.298 18L148.298 17.1255Q147.837 17.6001 147.2 17.877Q146.562 18.1494 145.811 18.1494ZM146.026 16.5762Q146.664 16.5762 147.173 16.2642Q147.688 15.9521 147.991 15.4292Q148.298 14.9019 148.298 14.2515Q148.298 13.6011 147.991 13.0781Q147.688 12.5508 147.173 12.2344Q146.664 11.9136 146.026 11.9136Q145.398 11.9136 144.879 12.2344Q144.361 12.5508 144.053 13.0781Q143.75 13.6011 143.75 14.2515Q143.75 14.8887 144.053 15.4204Q144.361 15.9521 144.875 16.2642Q145.389 16.5762 146.026 16.5762ZM161.252 18.2241Q160.026 18.2241 158.954 17.7715Q157.886 17.3145 157.073 16.5146Q156.264 15.7104 155.798 14.6514Q155.337 13.5879 155.337 12.375Q155.337 11.1621 155.798 10.103Q156.264 9.03955 157.073 8.23975Q157.886 7.43555 158.954 6.98291Q160.026 6.52588 161.252 6.52588Q162.412 6.52588 163.432 6.92578Q164.451 7.32568 165.238 8.05078L164.71 10.2261Q164.188 9.37354 163.3 8.83301Q162.412 8.28809 161.287 8.28809Q160.162 8.28809 159.257 8.8374Q158.352 9.38672 157.82 10.314Q157.288 11.2368 157.288 12.375Q157.288 13.5 157.82 14.4316Q158.352 15.3633 159.257 15.9126Q160.162 16.4619 161.287 16.4619Q162.412 16.4619 163.3 15.9126Q164.188 15.3633 164.71 14.5239L165.238 16.6992Q164.438 17.3979 163.423 17.811Q162.412 18.2241 161.252 18.2241ZM166.711 18L166.711 5.99854L168.474 5.99854L168.474 18L166.711 18ZM170.524 18L170.524 10.4985L172.286 10.4985L172.286 18L170.524 18ZM170.665 9.44824L171.803 7.04883L173.776 7.04883L172.088 9.44824L170.665 9.44824ZM174.323 18L174.323 10.4985L175.923 10.4985L175.923 11.5137Q176.336 10.9248 176.956 10.6128Q177.575 10.3008 178.3 10.3008Q179.1 10.3008 179.786 10.6875Q180.476 11.0742 180.897 11.8125Q181.324 12.5508 181.324 13.6011L181.324 18L179.562 18L179.562 13.8384Q179.562 13.0737 179.109 12.4937Q178.661 11.9136 177.826 11.9136Q177.149 11.9136 176.617 12.3882Q176.085 12.8628 176.085 13.7988L176.085 18L174.323 18ZM183.211 18L183.211 10.4985L184.974 10.4985L184.974 18L183.211 18ZM184.099 9.27686Q183.673 9.27686 183.374 8.97803Q183.075 8.6748 183.075 8.24854Q183.075 7.80029 183.374 7.50586Q183.673 7.21143 184.099 7.21143Q184.547 7.21143 184.842 7.51465Q185.136 7.81348 185.136 8.24854Q185.136 8.6748 184.837 8.97803Q184.539 9.27686 184.099 9.27686ZM190.575 18.2021Q189.476 18.2021 188.562 17.6704Q187.648 17.1387 187.103 16.2378Q186.562 15.3369 186.562 14.2515Q186.562 13.1484 187.103 12.2563Q187.648 11.3643 188.562 10.8325Q189.476 10.3008 190.575 10.3008Q191.375 10.3008 192.073 10.5688Q192.776 10.8369 193.312 11.3247L192.825 13.2891Q192.513 12.7134 191.937 12.3135Q191.361 11.9136 190.614 11.9136Q189.964 11.9136 189.432 12.2256Q188.9 12.5376 188.593 13.0693Q188.29 13.6011 188.29 14.2515Q188.29 14.8887 188.593 15.4204Q188.9 15.9521 189.432 16.2729Q189.964 16.5894 190.614 16.5894Q191.361 16.5894 191.937 16.1895Q192.513 15.7896 192.825 15.2139L193.312 17.1606Q192.776 17.6484 192.073 17.9253Q191.375 18.2021 190.575 18.2021ZM197.999 18.1494Q196.961 18.1494 196.109 17.6177Q195.261 17.0859 194.755 16.207Q194.25 15.3237 194.25 14.2515Q194.25 13.1748 194.755 12.2871Q195.261 11.3994 196.109 10.8765Q196.961 10.3491 197.999 10.3491Q198.75 10.3491 199.387 10.6216Q200.024 10.8896 200.486 11.373L200.486 10.4985L202.05 10.4985L202.05 18L200.486 18L200.486 17.1255Q200.024 17.6001 199.387 17.877Q198.75 18.1494 197.999 18.1494ZM198.214 16.5762Q198.851 16.5762 199.361 16.2642Q199.875 15.9521 200.178 15.4292Q200.486 14.9019 200.486 14.2515Q200.486 13.6011 200.178 13.0781Q199.875 12.5508 199.361 12.2344Q198.851 11.9136 198.214 11.9136Q197.585 11.9136 197.067 12.2344Q196.548 12.5508 196.241 13.0781Q195.938 13.6011 195.938 14.2515Q195.938 14.8887 196.241 15.4204Q196.548 15.9521 197.062 16.2642Q197.577 16.5762 198.214 16.5762ZM206.275 18.2021Q205.611 18.2021 204.891 17.9648Q204.174 17.7231 203.713 17.2617L204.174 15.4995Q204.526 16.0356 205.124 16.4004Q205.726 16.7607 206.376 16.7607Q206.912 16.7607 207.163 16.5234Q207.413 16.2861 207.413 15.9521Q207.413 15.561 207.149 15.3896Q206.886 15.2139 206.648 15.126L205.611 14.7261Q205.299 14.5986 204.882 14.3745Q204.464 14.1504 204.157 13.7241Q203.849 13.2979 203.849 12.6123Q203.849 11.9883 204.157 11.4653Q204.464 10.938 205.031 10.6216Q205.598 10.3008 206.398 10.3008Q207.088 10.3008 207.743 10.5381Q208.402 10.7754 208.775 11.1753L208.336 12.8979Q207.976 12.3486 207.431 12.0454Q206.886 11.7378 206.35 11.7378Q205.888 11.7378 205.651 11.9619Q205.414 12.186 205.414 12.4761Q205.414 12.7134 205.576 12.9067Q205.739 13.1001 206.099 13.2363L207.088 13.6143Q207.439 13.7373 207.883 13.9746Q208.327 14.2119 208.648 14.6514Q208.973 15.0864 208.973 15.8379Q208.973 16.8882 208.217 17.5474Q207.461 18.2021 206.275 18.2021ZM218.05 18.3735L213.427 6.75L215.36 6.75L217.61 12.4497Q217.751 12.8013 217.874 13.1309Q218.001 13.4604 218.125 13.8867Q218.239 13.4736 218.362 13.1484Q218.489 12.8232 218.625 12.4497L220.862 6.75L222.699 6.75L218.076 18.3735L218.05 18.3735ZM226.438 18.2021Q225.212 18.2021 224.267 17.6792Q223.327 17.1519 222.786 16.2378Q222.25 15.3237 222.25 14.1768Q222.25 13.0737 222.769 12.1992Q223.287 11.3247 224.166 10.8149Q225.049 10.3008 226.126 10.3008Q227.198 10.3008 228.068 10.8018Q228.938 11.2983 229.444 12.1553Q229.949 13.0122 229.949 14.1021L229.949 14.748L225.212 14.748Q224.9 14.748 224.588 14.7173Q224.276 14.6865 223.964 14.6382Q224.113 15.5127 224.794 16.0884Q225.476 16.6641 226.464 16.6641Q227.176 16.6641 227.77 16.3564Q228.363 16.0488 228.723 15.561L229.149 17.3145Q228.6 17.7363 227.897 17.9692Q227.198 18.2021 226.438 18.2021ZM223.924 13.5264Q224.575 13.3989 225.212 13.3989L227.124 13.3989Q227.436 13.3989 227.721 13.4253Q228.011 13.4517 228.288 13.4868Q228.112 12.7134 227.51 12.2388Q226.913 11.7642 226.113 11.7642Q225.313 11.7642 224.711 12.2651Q224.113 12.7617 223.924 13.5264ZM232.327 18L232.327 11.9268L230.776 11.9268L230.776 10.4985L232.362 10.4985L232.362 7.99805L234.05 7.99805L234.05 10.4985L235.724 10.4985L235.724 11.9268L234.089 11.9268L234.089 18L232.327 18ZM240.438 18.2021Q239.212 18.2021 238.267 17.6792Q237.327 17.1519 236.786 16.2378Q236.25 15.3237 236.25 14.1768Q236.25 13.0737 236.769 12.1992Q237.287 11.3247 238.166 10.8149Q239.049 10.3008 240.126 10.3008Q241.198 10.3008 242.068 10.8018Q242.938 11.2983 243.444 12.1553Q243.949 13.0122 243.949 14.1021L243.949 14.748L239.212 14.748Q238.9 14.748 238.588 14.7173Q238.276 14.6865 237.964 14.6382Q238.113 15.5127 238.794 16.0884Q239.476 16.6641 240.464 16.6641Q241.176 16.6641 241.77 16.3564Q242.363 16.0488 242.723 15.561L243.149 17.3145Q242.6 17.7363 241.897 17.9692Q241.198 18.2021 240.438 18.2021ZM237.924 13.5264Q238.575 13.3989 239.212 13.3989L241.124 13.3989Q241.436 13.3989 241.721 13.4253Q242.011 13.4517 242.288 13.4868Q242.112 12.7134 241.51 12.2388Q240.913 11.7642 240.113 11.7642Q239.313 11.7642 238.711 12.2651Q238.113 12.7617 237.924 13.5264ZM245.448 18L245.448 10.4985L247.048 10.4985L247.048 11.8257Q247.452 11.1753 248.076 10.8018Q248.7 10.4238 249.562 10.4238L249.961 12.063Q249.724 11.9883 249.425 11.9883Q248.423 11.9883 247.817 12.6255Q247.21 13.2627 247.21 14.4492L247.21 18L245.448 18ZM251.149 18L251.149 10.4985L252.911 10.4985L252.911 18L251.149 18ZM252.037 9.27686Q251.61 9.27686 251.312 8.97803Q251.013 8.6748 251.013 8.24854Q251.013 7.80029 251.312 7.50586Q251.61 7.21143 252.037 7.21143Q252.485 7.21143 252.779 7.51465Q253.074 7.81348 253.074 8.24854Q253.074 8.6748 252.775 8.97803Q252.476 9.27686 252.037 9.27686ZM254.948 18L254.948 10.4985L256.548 10.4985L256.548 11.5137Q256.961 10.9248 257.581 10.6128Q258.2 10.3008 258.925 10.3008Q259.725 10.3008 260.411 10.6875Q261.101 11.0742 261.522 11.8125Q261.949 12.5508 261.949 13.6011L261.949 18L260.187 18L260.187 13.8384Q260.187 13.0737 259.734 12.4937Q259.286 11.9136 258.451 11.9136Q257.774 11.9136 257.242 12.3882Q256.71 12.8628 256.71 13.7988L256.71 18L254.948 18ZM267.124 18.1494Q266.086 18.1494 265.234 17.6177Q264.386 17.0859 263.88 16.207Q263.375 15.3237 263.375 14.2515Q263.375 13.1748 263.88 12.2871Q264.386 11.3994 265.234 10.8765Q266.086 10.3491 267.124 10.3491Q267.875 10.3491 268.512 10.6216Q269.149 10.8896 269.611 11.373L269.611 10.4985L271.175 10.4985L271.175 18L269.611 18L269.611 17.1255Q269.149 17.6001 268.512 17.877Q267.875 18.1494 267.124 18.1494ZM267.339 16.5762Q267.976 16.5762 268.486 16.2642Q269 15.9521 269.303 15.4292Q269.611 14.9019 269.611 14.2515Q269.611 13.6011 269.303 13.0781Q269 12.5508 268.486 12.2344Q267.976 11.9136 267.339 11.9136Q266.71 11.9136 266.192 12.2344Q265.673 12.5508 265.366 13.0781Q265.062 13.6011 265.062 14.2515Q265.062 14.8887 265.366 15.4204Q265.673 15.9521 266.188 16.2642Q266.702 16.5762 267.339 16.5762ZM273.198 18L273.198 10.4985L274.798 10.4985L274.798 11.8257Q275.202 11.1753 275.826 10.8018Q276.45 10.4238 277.312 10.4238L277.711 12.063Q277.474 11.9883 277.175 11.9883Q276.173 11.9883 275.567 12.6255Q274.96 13.2627 274.96 14.4492L274.96 18L273.198 18ZM278.899 18L278.899 10.4985L280.661 10.4985L280.661 18L278.899 18ZM279.787 9.27686Q279.36 9.27686 279.062 8.97803Q278.763 8.6748 278.763 8.24854Q278.763 7.80029 279.062 7.50586Q279.36 7.21143 279.787 7.21143Q280.235 7.21143 280.529 7.51465Q280.824 7.81348 280.824 8.24854Q280.824 8.6748 280.525 8.97803Q280.226 9.27686 279.787 9.27686ZM285.999 18.1494Q284.961 18.1494 284.109 17.6177Q283.261 17.0859 282.755 16.207Q282.25 15.3237 282.25 14.2515Q282.25 13.1748 282.755 12.2871Q283.261 11.3994 284.109 10.8765Q284.961 10.3491 285.999 10.3491Q286.75 10.3491 287.387 10.6216Q288.024 10.8896 288.486 11.373L288.486 10.4985L290.05 10.4985L290.05 18L288.486 18L288.486 17.1255Q288.024 17.6001 287.387 17.877Q286.75 18.1494 285.999 18.1494ZM286.214 16.5762Q286.851 16.5762 287.361 16.2642Q287.875 15.9521 288.178 15.4292Q288.486 14.9019 288.486 14.2515Q288.486 13.6011 288.178 13.0781Q287.875 12.5508 287.361 12.2344Q286.851 11.9136 286.214 11.9136Q285.585 11.9136 285.067 12.2344Q284.548 12.5508 284.241 13.0781Q283.938 13.6011 283.938 14.2515Q283.938 14.8887 284.241 15.4204Q284.548 15.9521 285.062 16.2642Q285.577 16.5762 286.214 16.5762ZM294.275 18.2021Q293.611 18.2021 292.891 17.9648Q292.174 17.7231 291.713 17.2617L292.174 15.4995Q292.526 16.0356 293.124 16.4004Q293.726 16.7607 294.376 16.7607Q294.912 16.7607 295.163 16.5234Q295.413 16.2861 295.413 15.9521Q295.413 15.561 295.149 15.3896Q294.886 15.2139 294.648 15.126L293.611 14.7261Q293.299 14.5986 292.882 14.3745Q292.464 14.1504 292.157 13.7241Q291.849 13.2979 291.849 12.6123Q291.849 11.9883 292.157 11.4653Q292.464 10.938 293.031 10.6216Q293.598 10.3008 294.398 10.3008Q295.088 10.3008 295.743 10.5381Q296.402 10.7754 296.775 11.1753L296.336 12.8979Q295.976 12.3486 295.431 12.0454Q294.886 11.7378 294.35 11.7378Q293.888 11.7378 293.651 11.9619Q293.414 12.186 293.414 12.4761Q293.414 12.7134 293.576 12.9067Q293.739 13.1001 294.099 13.2363L295.088 13.6143Q295.439 13.7373 295.883 13.9746Q296.327 14.2119 296.648 14.6514Q296.973 15.0864 296.973 15.8379Q296.973 16.8882 296.217 17.5474Q295.461 18.2021 294.275 18.2021Z" />
      </g>
    </g>
  </g>
</svg>
