<?xml version="1.0" encoding="utf-8"?>
<svg width="360px" height="263.3866px" viewBox="0 0 360 263.3866" version="1.1" xmlns:xlink="http://www.w3.org/1999/xlink" xmlns="http://www.w3.org/2000/svg">
  <defs>
    <filter filterUnits="userSpaceOnUse" color-interpolation-filters="sRGB" id="filter_1">
      <feFlood flood-opacity="0" result="BackgroundImageFix" />
      <feColorMatrix in="SourceAlpha" type="matrix" values="0 0 0 0 0 0 0 0 0 0 0 0 0 0 0 0 0 0 128 0" />
      <feOffset dx="0" dy="2" />
      <feGaussianBlur stdDeviation="2" />
      <feColorMatrix type="matrix" values="0 0 0 0 0.39215687 0 0 0 0 0.39215687 0 0 0 0 0.39215687 0 0 0 0.49803922 0" />
      <feBlend mode="normal" in2="BackgroundImageFix" result="effect0_dropShadow" />
      <feBlend mode="normal" in="SourceGraphic" in2="effect0_dropShadow" result="shape" />
    </filter>
    <path d="M0 0L360 0L360 81L0 81L0 0Z" id="path_1" />
    <clipPath id="clip_1">
      <use xlink:href="#path_1" clip-rule="evenodd" fill-rule="evenodd" />
    </clipPath>
  </defs>
  <g id="Group">
    <g filter="url(#filter_1)">
      <g id="Group" transform="translate(40.99994 0)">
        <path d="M152.987 0.886383C153.134 1.40346 153.725 5.68773 154.39 10.3413C155.572 19.7962 154.981 41.2914 153.356 45.4279C150.254 53.4794 148.111 63.8945 147.077 75.787C145.6 92.9241 144.418 95.9526 135.185 107.106L129.423 113.902L130.31 136.579C130.753 148.989 131.491 160.29 131.935 161.694C132.304 163.097 133.486 165.535 134.52 167.086C136.293 169.745 136.588 169.893 140.134 169.893C143.384 169.893 144.123 170.188 146.043 172.257C148.629 175.138 148.85 177.649 146.56 178.831C144.64 179.865 129.128 179.348 127.059 178.166C125.213 177.132 119.894 161.472 115.167 143.301C112.951 134.585 110.957 127.272 110.735 127.05C110.366 126.681 108.962 128.232 103.274 135.545C99.8027 139.977 99.8027 139.977 99.3595 147.068C98.9902 152.904 98.6208 154.75 96.848 158C94.7798 161.694 91.4557 165.239 87.6147 167.751C85.8419 168.933 85.9896 168.933 91.3819 168.563C96.9219 168.268 96.9219 168.268 98.9163 170.632C101.058 173.143 101.502 175.655 100.024 177.132C99.3595 177.797 91.5296 178.018 69.5174 178.018C42.3344 178.018 39.3798 177.871 33.9875 176.541C25.7144 174.473 16.8504 169.893 11.532 164.944C3.92377 157.927 -0.951416 145.665 0.15657 136.284C1.63391 124.022 7.98643 113.902 18.4755 107.033C20.9131 105.408 23.0552 104.152 23.2768 104.152C23.5723 104.152 22.3904 107.033 20.6176 110.578C12.4923 127.272 12.64 144.261 20.987 152.387C23.4984 154.75 28.2259 157.631 30.5896 158.222C31.2544 158.37 32.3624 155.711 34.0614 149.949C44.1811 115.232 64.0512 87.0886 89.4613 71.4289C97.7344 66.3321 106.894 57.7636 110.144 52.2236C111.252 50.2292 113.837 43.4335 115.832 37.081C119.23 26.2226 119.451 25.0408 119.673 16.2506C119.894 6.57411 121.076 0 122.701 0C124.105 0 128.685 5.53999 131.418 10.489C133.707 14.5517 133.855 14.6256 137.401 14.921C140.577 15.1426 141.168 14.921 142.128 13.296C148.924 2.28986 152.174 -1.47733 152.987 0.886383L152.987 0.886383Z" id="Shape" fill="#002E82" stroke="none" />
        <path d="M180.641 63.1497C180.863 63.4452 181.454 66.326 181.897 69.5023C182.636 74.082 182.636 75.8548 181.971 78.2924C181.454 79.9175 180.937 84.2756 180.863 87.9689L180.715 94.6169L183.522 98.1625C186.403 101.856 188.324 103.112 195.045 105.919C201.398 108.578 206.864 112.197 212.552 117.516C222.45 126.675 228.729 138.641 232.865 156.369C234.786 164.495 242.837 169.518 252.735 168.853C263.594 168.04 270.094 161.318 270.094 150.829C270.02 144.994 268.1 139.823 263.963 134.726C261.304 131.402 261.304 131.402 262.855 129.26C264.48 126.897 266.475 127.266 269.799 130.59C275.191 135.982 277.924 143.147 277.998 152.307C278.072 159.546 276.447 164.273 272.384 168.853C265.81 176.166 253.548 178.899 239.809 176.166C226.587 173.433 222.967 173.728 219.643 177.569L218.092 179.342L200.512 179.342C187.807 179.342 182.71 179.12 182.045 178.456C180.641 177.052 181.011 174.984 183.005 173.063C184.63 171.364 185.369 171.217 191.131 171.217C194.602 171.217 197.409 170.995 197.409 170.773C197.409 170.552 196.153 168.853 194.528 166.932C192.977 165.012 190.687 161.688 189.505 159.546L187.289 155.705L182.71 166.194C180.198 172.029 177.539 177.348 176.948 178.012C175.619 179.564 168.01 179.859 165.573 178.603C162.913 177.126 164.465 172.251 167.936 171.069C168.749 170.773 168.971 168.188 168.971 158.216C168.971 141.596 168.453 139.528 161.953 132.437C154.936 124.681 153.459 121.43 153.532 113.97C153.606 110.72 153.902 105.697 154.197 102.742C154.714 97.9409 154.567 97.2023 153.015 95.0601C151.686 93.1396 151.169 91.0713 150.652 84.8665C149.691 74.3036 149.691 67.1385 150.799 64.5532C151.612 62.6327 151.76 62.5588 153.311 63.5191C154.197 64.1839 156.561 66.6954 158.629 69.1329C162.323 73.6388 162.323 73.6388 165.942 73.4911C169.488 73.3433 169.783 73.1217 172.885 69.2807C176.283 65.0703 180.051 62.1156 180.641 63.1497L180.641 63.1497ZM177.54 150.829L177.613 155.335L178.647 150.903C179.977 144.846 179.977 144.181 178.574 145.363C177.761 146.028 177.466 147.579 177.54 150.829L177.54 150.829Z" id="Shape" fill="#CB6120" fill-rule="evenodd" stroke="none" />
      </g>
    </g>
    <g id="ÁGILVET" clip-path="url(#clip_1)" transform="translate(0 178.3866)">
      <g transform="translate(0, 18.352272)" id="ÁGIL-VET" fill="#002E82">
        <path d="M14.4727 73.625L-1.72559 73.625L25.6982 18.3506L46.2012 18.3506L55.2744 73.625L39.0762 73.625L37.6475 63.0488L19.4268 63.0488L14.4727 73.625ZM24.6963 51.8232L36.1445 51.8232L33.6768 33.5654L33.25 33.5654L24.6963 51.8232ZM31.8398 13.1738L39.0762 1.07617L51.8232 1.07617L41.6738 13.1738L31.8398 13.1738ZM100.02 36.5898Q99.8343 33.7695 98.0531 32.2109Q96.2904 30.6523 92.7836 30.6523Q87.0873 30.6523 83.0423 34.6787Q79.016 38.7051 77.8285 45.8857Q76.6224 53.1592 78.7748 57.2412Q80.9457 61.3232 86.7347 61.3232Q91.8187 61.3232 94.8617 59.1895Q97.9232 57.0557 98.5541 53.4375L88.5716 53.4375L90.2972 42.75L114.808 42.75L113.565 50.4131Q112.322 57.9648 108.24 63.3271Q104.158 68.6895 98.0716 71.5469Q92.0043 74.3857 84.7494 74.3857Q76.6966 74.3857 71.1673 70.9531Q65.638 67.5205 63.2631 61.1934Q60.9066 54.8477 62.3353 46.0898Q63.4857 39.2432 66.4545 33.9551Q69.4418 28.667 73.7464 25.0117Q78.0697 21.3564 83.2836 19.4824Q88.4974 17.5898 94.0824 17.5898Q100.614 17.5898 105.475 20.0391Q110.355 22.4883 112.934 26.7744Q115.532 31.042 115.179 36.5898L100.02 36.5898ZM140.879 18.3506L131.713 73.625L116.702 73.625L125.868 18.3506L140.879 18.3506ZM138.833 73.625L147.999 18.3506L163.01 18.3506L155.885 61.5273L178.225 61.5273L176.184 73.625L138.833 73.625Z" />
      </g>
      <g transform="translate(175.64204, 18.352272)" id="ÁGIL-VET" fill="#CB6120">
        <path d="M24.3994 18.3506L29.2607 57.3154L29.6875 57.3154L47.5 18.3506L64.4404 18.3506L37.0352 73.625L16.5137 73.625L7.44043 18.3506L24.3994 18.3506ZM60.5659 73.625L69.7319 18.3506L109.569 18.3506L107.528 30.4482L82.7016 30.4482L81.1801 39.9482L103.965 39.9482L101.906 52.0273L79.1391 52.0273L77.6176 61.5273L102.332 61.5273L100.291 73.625L60.5659 73.625ZM113.453 30.4482L115.513 18.3506L163.551 18.3506L161.492 30.4482L144.867 30.4482L137.742 73.625L122.953 73.625L130.078 30.4482L113.453 30.4482Z" />
      </g>
    </g>
  </g>
</svg>