<?xml version="1.0" encoding="utf-8"?>
<svg  viewBox="0 0 1588 279.85278" version="1.1" xmlns:xlink="http://www.w3.org/1999/xlink" xmlns="http://www.w3.org/2000/svg">
  <g id="Group">
    <path d="M551.342 204.971L551.342 153.517L580.813 124.225L580.813 0.000183105L576.219 0.000183105L576.219 122.335L546.749 151.628L546.749 204.97C544.714 205.852 543.289 207.864 543.289 210.211C543.289 212.559 544.714 214.571 546.749 215.454L546.749 215.932L549.045 215.932L549.045 215.933L549.046 215.932L551.342 215.932L551.342 215.452C553.377 214.569 554.802 212.559 554.802 210.211C554.802 207.866 553.377 205.853 551.342 204.971" id="path14" fill="#CC6424" stroke="none" />
    <path d="M747.383 112.319L747.383 17.9015L729.373 0.000183105L722.878 0.000183105L742.79 19.7909L742.79 112.317C740.755 113.2 739.33 115.212 739.33 117.559C739.33 119.907 740.755 121.919 742.79 122.801L742.79 123.28L747.383 123.28L747.383 122.8C749.417 121.919 750.842 119.907 750.842 117.559C750.842 115.213 749.417 113.201 747.383 112.319" id="path16" fill="#CC6424" stroke="none" />
    <path d="M650.373 140.87L635.544 140.87L635.544 71.9535L650.373 86.6922L650.373 140.87ZM708.12 235.227L708.12 137.633L654.965 84.8015L654.965 45.6775L700.894 45.6775L700.894 0.000183105L696.301 0.000183105L696.301 41.1122L650.373 41.1122L650.373 80.2375L635.543 65.4988L635.543 26.3801L662.085 0.00012207L655.59 0.00012207L630.951 24.4894L630.951 60.9334L592.963 23.1761L592.963 0.00012207L588.37 0.00012207L588.37 25.0655L630.951 67.3881L630.951 140.869L608.087 140.869L583.439 165.365L583.439 244.7C581.405 245.583 579.981 247.595 579.981 249.941C579.981 252.288 581.405 254.3 583.439 255.183L583.439 255.663L585.735 255.663L585.737 255.663L585.738 255.663L588.033 255.663L588.033 255.183C590.067 254.301 591.493 252.288 591.493 249.941C591.493 247.595 590.067 245.581 588.033 244.7L588.033 167.257L609.99 145.433L630.951 145.433L630.951 189.753C628.917 190.635 627.49 192.647 627.49 194.995C627.49 197.341 628.917 199.353 630.951 200.236L630.951 200.716L633.246 200.716L633.246 200.716L633.247 200.716L635.543 200.716L635.543 200.235C637.578 199.353 639.003 197.341 639.003 194.995C639.003 192.648 637.578 190.636 635.543 189.753L635.543 145.434L654.965 145.434L654.965 91.2575L703.526 139.525L703.526 235.227C701.493 236.109 700.067 238.121 700.067 240.468C700.067 242.815 701.493 244.827 703.526 245.709L703.526 246.189L705.822 246.189L705.823 246.189L705.826 246.189L708.119 246.189L708.119 245.709C710.154 244.828 711.579 242.815 711.579 240.468C711.579 238.121 710.154 236.109 708.119 235.227" id="path18" fill="#CC6424" fill-rule="evenodd" stroke="none" />
    <path d="M772.174 166.928L772.174 103.355L793.701 81.9614L793.701 75.5054L767.582 101.465L767.582 166.928C765.548 167.81 764.122 169.822 764.122 172.168C764.122 174.516 765.548 176.528 767.582 177.41L767.582 177.89L769.878 177.89L769.878 177.89L769.88 177.89L772.174 177.89L772.174 177.41C774.209 176.528 775.634 174.516 775.634 172.168C775.634 169.821 774.209 167.81 772.174 166.928" id="path20" fill="#CC6424" stroke="none" />
    <path d="M530.812 151.12L530.812 67.0161L568.815 29.2414L568.815 6.10352e-05L564.224 6.10352e-05L564.224 27.3521L526.218 65.1254L526.218 151.12C524.185 152.003 522.76 154.015 522.76 156.361C522.76 158.708 524.185 160.72 526.218 161.603L526.218 162.083L528.513 162.083L528.514 162.083L528.517 162.083L530.812 162.083L530.812 161.603C532.846 160.72 534.271 158.708 534.271 156.361C534.271 154.015 532.846 152.001 530.812 151.12" id="path22" fill="#CC6424" stroke="none" />
    <path d="M512.381 136.227L512.381 0.00012207L507.789 0.00012207L507.789 134.337L470.047 171.849L470.047 244.7C468.013 245.583 466.587 247.595 466.587 249.941C466.587 252.288 468.013 254.301 470.047 255.183L470.047 255.663L472.342 255.663L472.343 255.663L472.343 255.663L474.641 255.663L474.641 255.183C476.674 254.3 478.099 252.288 478.099 249.941C478.099 247.595 476.674 245.583 474.641 244.7L474.641 173.74L512.381 136.227" id="path24" fill="#CC6424" stroke="none" />
    <path d="M455.989 131.928L455.989 98.2362L480.441 98.2362L480.441 0.000183105L475.849 0.000183105L475.849 93.6708L455.989 93.6708L455.989 18.7335L437.141 0.00012207L430.646 0.00012207L451.396 20.6241L451.396 93.6708L395.132 93.6708L395.132 0.00012207L390.538 0.00012207L390.538 93.6708L347.25 93.6708L347.25 163.027L419.802 235.139L419.802 267.525C417.768 268.407 416.344 270.419 416.344 272.767C416.344 275.113 417.768 277.125 419.802 278.007L419.802 278.488L424.396 278.488L424.396 278.008C426.43 277.125 427.856 275.113 427.856 272.767C427.856 270.419 426.43 268.407 424.396 267.524L424.396 233.249L351.844 161.136L351.844 98.2361L390.538 98.2361L390.538 142.58C388.505 143.463 387.08 145.475 387.08 147.821C387.08 150.168 388.505 152.18 390.538 153.063L390.538 153.543L392.834 153.543L392.836 153.543L392.837 153.543L395.132 153.543L395.132 153.063C397.166 152.181 398.592 150.168 398.592 147.821C398.592 145.475 397.166 143.461 395.132 142.58L395.132 98.2361L451.396 98.2361L451.396 131.928C449.361 132.811 447.937 134.823 447.937 137.169C447.937 139.516 449.361 141.528 451.396 142.411L451.396 142.891L453.692 142.891L453.693 142.891L453.693 142.891L455.989 142.891L455.989 142.411C458.024 141.529 459.449 139.516 459.449 137.169C459.449 134.823 458.024 132.809 455.989 131.928" id="path26" fill="#CC6424" stroke="none" />
    <path d="M96.8375 0.000183105L96.8375 32.4322C94.8031 33.3149 93.3781 35.3269 93.3781 37.6735C93.3781 40.0202 94.8031 42.0322 96.8375 42.9149L96.8375 43.3949L99.1318 43.3949L99.1343 43.3949L99.137 43.3949L101.431 43.3949L101.431 42.9149C103.465 42.0322 104.891 40.0202 104.891 37.6735C104.891 35.3269 103.465 33.3149 101.431 32.4322L101.431 0.000183105L96.8375 0.000183105" id="path28" fill="#CC6424" stroke="none" />
    <path d="M270.786 142.58L270.786 30.1001L245.525 4.99213L245.525 0.00012207L240.932 0.00012207L240.932 6.88144L266.193 31.9894L266.193 142.58C264.158 143.463 262.733 145.475 262.733 147.821C262.733 150.168 264.158 152.18 266.193 153.063L266.193 153.543L268.489 153.543L268.49 153.543L268.49 153.543L270.786 153.543L270.786 153.063C272.821 152.18 274.246 150.168 274.246 147.821C274.246 145.475 272.821 143.463 270.786 142.58" id="path30" fill="#CC6424" stroke="none" />
    <path d="M236.338 45.6774L236.338 81.0774L204.57 112.652L204.57 45.6774L236.338 45.6774ZM204.57 30.8494L235.608 6.10352e-05L229.113 6.10352e-05L199.978 28.9587L199.978 41.112L178.161 41.112L178.161 6.10352e-05L173.568 6.10352e-05L173.568 41.1121L146.01 41.1121L146.01 16.5308L161.746 0.88945L161.746 0.00012207L156.146 0.00012207L146.01 10.0748L146.01 0.00012207L141.417 0.00012207L141.417 14.6401L116.71 39.1974L116.71 79.7401L54.5333 79.7401L54.5333 19.4361L72.6182 1.46146L72.6182 47.7267C70.5838 48.6094 69.1583 50.6214 69.1583 52.9681C69.1583 55.3148 70.5838 57.3268 72.6182 58.2094L72.6182 58.6895L74.9119 58.6895L74.9146 58.6895L74.9171 58.6895L77.2109 58.6895L77.2109 58.2094C79.2453 57.3268 80.6709 55.3148 80.6709 52.9681C80.6709 50.6214 79.2453 48.6094 77.2109 47.7267L77.2109 6.10352e-05L67.5927 6.10352e-05L49.9401 17.5454L49.9401 84.3041L116.71 84.3041L116.71 131.928C114.676 132.811 113.25 134.823 113.25 137.169C113.25 139.516 114.676 141.528 116.71 142.411L116.71 142.891L119.006 142.891L119.007 142.891L119.008 142.891L121.304 142.891L121.304 142.411C123.338 141.528 124.763 139.516 124.763 137.169C124.763 134.823 123.338 132.811 121.304 131.928L121.304 84.3041L152.134 84.3041L152.134 124.32C150.1 125.201 148.674 127.213 148.674 129.561C148.674 131.908 150.1 133.92 152.134 134.803L152.134 135.283L154.43 135.283L154.43 135.283L154.432 135.283L156.728 135.283L156.728 134.803C158.762 133.92 160.186 131.908 160.186 129.561C160.186 127.213 158.762 125.201 156.728 124.32L156.728 79.7401L121.304 79.7401L121.304 41.0868L141.417 21.0948L141.417 45.6774L173.568 45.6774L173.568 60.4081C171.534 61.2894 170.109 63.3027 170.109 65.6494C170.109 67.9961 171.534 70.0081 173.568 70.8907L173.568 71.3708L175.864 71.3708L175.865 71.3708L175.865 71.3708L178.161 71.3708L178.161 70.8907C180.196 70.0081 181.621 67.9961 181.621 65.6494C181.621 63.3027 180.196 61.2894 178.161 60.4081L178.161 45.6774L199.978 45.6774L199.978 117.217L178.926 138.141L178.926 204.971C176.892 205.852 175.468 207.864 175.468 210.211C175.468 212.559 176.892 214.571 178.926 215.453L178.926 215.932L181.222 215.932L181.222 215.933L181.224 215.932L183.52 215.932L183.52 215.453C185.554 214.571 186.98 212.559 186.98 210.211C186.98 207.864 185.554 205.852 183.52 204.971L183.52 140.032L199.978 123.673L199.978 151.12C197.943 152.003 196.518 154.015 196.518 156.361C196.518 158.708 197.943 160.72 199.978 161.603L199.978 162.083L202.271 162.083L202.274 162.083L202.277 162.083L204.57 162.083L204.57 161.603C206.605 160.72 208.03 158.708 208.03 156.361C208.03 154.015 206.605 152.003 204.57 151.12L204.57 119.108L240.931 82.9668L240.931 41.1121L204.57 41.1121L204.57 30.8494" id="path32" fill="#CC6424" fill-rule="evenodd" stroke="none" />
    <path d="M32.3338 62.6775L32.3338 0.000137329L27.7406 0.000137329L27.7406 60.7868L4.33178 84.0548L4.33178 124.319C2.29741 125.201 0.871887 127.213 0.871887 129.561C0.871887 131.908 2.29741 133.92 4.33178 134.803L4.33178 135.283L6.6271 135.283L6.62814 135.283L6.62866 135.283L8.92501 135.283L8.92501 134.801C10.9594 133.92 12.3844 131.908 12.3844 129.561C12.3844 127.215 10.9594 125.201 8.925 124.32L8.925 85.9455L32.3338 62.6775" id="path34" fill="#CC6424" stroke="none" />
    <path d="M44.0838 103.188L44.0838 0L39.4906 0L39.4906 103.188C37.4562 104.071 36.0313 106.083 36.0313 108.429C36.0313 110.776 37.4562 112.789 39.4906 113.671L39.4906 114.151L44.0838 114.151L44.0838 113.671C46.1177 112.788 47.5433 110.776 47.5433 108.429C47.5433 106.083 46.1177 104.071 44.0838 103.188" id="path36" fill="#CC6424" stroke="none" />
    <path d="M335.745 52.5335L335.745 0.00012207L331.152 0.00012207L331.152 50.6428L315.094 66.6028L315.094 0.00012207L310.501 0.00012207L310.501 71.1682L289.536 92.0068L289.536 180.623C287.501 181.506 286.074 183.518 286.074 185.864C286.074 188.211 287.501 190.223 289.536 191.106L289.536 191.586L291.83 191.586L291.83 191.586L291.832 191.586L294.128 191.586L294.128 191.106C296.162 190.223 297.588 188.211 297.588 185.864C297.588 183.518 296.162 181.506 294.128 180.623L294.128 93.8975L310.501 77.6228L310.501 103.188C308.468 104.071 307.042 106.083 307.042 108.43C307.042 110.776 308.468 112.788 310.501 113.671L310.501 114.151L315.094 114.151L315.094 113.671C317.129 112.79 318.554 110.778 318.554 108.43C318.554 106.083 317.129 104.071 315.094 103.188L315.094 73.0589L335.745 52.5335" id="path38" fill="#CC6424" stroke="none" />
    <path d="M16.3813 141.297L16.3813 100.341L0 84.0601L0 89.6934L12.3729 101.992L12.3729 141.297C10.5974 142.068 9.35417 143.824 9.35417 145.871C9.35417 147.919 10.5974 149.675 12.3729 150.445L12.3729 150.864L14.3766 150.864L14.3771 150.864L14.3781 150.864L16.3813 150.864L16.3813 150.445C18.1567 149.676 19.4005 147.92 19.4005 145.871C19.4005 143.823 18.1567 142.067 16.3813 141.297" id="path40" fill="#062A7B" stroke="none" />
    <path d="M269.728 87.6642L269.728 12.6202L257.032 0.000183105L251.365 0.000183105L265.72 14.2695L265.72 87.6642C263.945 88.4335 262.701 90.1895 262.701 92.2375C262.701 94.2855 263.945 96.0428 265.72 96.8121L265.72 97.2308L267.721 97.2308L267.724 97.2308L267.726 97.2308L269.728 97.2308L269.728 96.8121C271.504 96.0415 272.748 94.2855 272.748 92.2375C272.748 90.1895 271.504 88.4335 269.728 87.6642" id="path42" fill="#062A7B" stroke="none" />
    <path d="M251.812 134.657L251.812 88.1067L226.094 62.544L226.094 0L222.085 0L222.085 64.1947L247.804 89.756L247.804 134.657C246.028 135.428 244.785 137.184 244.785 139.232C244.785 141.28 246.028 143.035 247.804 143.805L247.804 144.224L249.808 144.224L249.808 144.224L249.809 144.224L251.812 144.224L251.812 143.805C253.588 143.036 254.832 141.28 254.832 139.232C254.832 137.184 253.588 135.427 251.812 134.657" id="path44" fill="#062A7B" stroke="none" />
    <path d="M318.748 169.329L318.748 105.753L285.811 73.0189L285.811 0.000198364L281.803 0.000198364L281.803 74.6682L314.74 107.404L314.74 169.33C312.964 170.099 311.721 171.855 311.721 173.903C311.721 175.951 312.964 177.707 314.74 178.477L314.74 178.896L316.742 178.896L316.744 178.896L316.745 178.896L318.748 178.896L318.748 178.477C320.524 177.707 321.766 175.951 321.766 173.903C321.766 171.855 320.523 170.099 318.748 169.33" id="path46" fill="#062A7B" stroke="none" />
    <path d="M388.133 6.10352e-05L384.124 6.10352e-05L384.124 37.5307L335.024 37.5307L335.024 6.10352e-05L331.016 6.10352e-05L331.016 37.5307L313.685 37.5307L313.685 6.10352e-05L309.677 6.10352e-05L309.677 41.5134L331.016 41.5134L331.016 70.9161C329.24 71.6854 327.996 73.4414 327.996 75.4894C327.996 77.5374 329.24 79.2947 331.016 80.0641L331.016 80.4828L333.018 80.4828L333.02 80.4828L333.02 80.4828L335.024 80.4828L335.024 80.0641C336.8 79.2934 338.042 77.5374 338.042 75.4894C338.042 73.4427 336.799 71.6867 335.024 70.9161L335.024 41.5134L384.124 41.5134L384.124 80.2107C382.349 80.9813 381.105 82.7374 381.105 84.7854C381.105 86.8333 382.349 88.5893 384.124 89.36L384.124 89.7774L386.126 89.7774L386.128 89.7774L386.129 89.7774L388.133 89.7774L388.133 89.3587C389.908 88.5893 391.15 86.8333 391.15 84.7854C391.15 82.7374 389.908 80.9814 388.133 80.2121L388.133 41.5134L421.9 41.5134L421.9 96.4054L358.586 159.336L358.586 189.247C356.81 190.017 355.568 191.773 355.568 193.821C355.568 195.869 356.81 197.625 358.586 198.396L358.586 198.815L362.594 198.815L362.594 198.395C364.37 197.626 365.614 195.87 365.614 193.822C365.614 191.774 364.37 190.018 362.594 189.248L362.594 160.986L425.909 98.0548L425.909 37.5308L388.133 37.5308L388.133 0.00012207" id="path48" fill="#062A7B" stroke="none" />
    <path d="M59.0969 101.459L59.0969 44.3321L33.1797 18.5721L33.1797 6.10352e-05L29.1714 6.10352e-05L29.1714 20.2227L55.0886 45.9814L55.0886 101.459C53.313 102.228 52.0698 103.985 52.0698 106.032C52.0698 108.08 53.313 109.837 55.0886 110.607L55.0886 111.025L57.0922 111.025L57.0927 111.025L57.0933 111.025L59.0969 111.025L59.0969 110.607C60.8723 109.837 62.1162 108.08 62.1162 106.032C62.1162 103.985 60.8723 102.228 59.0969 101.459" id="path50" fill="#062A7B" stroke="none" />
    <path d="M174.322 78.7188L161.382 78.7188L161.382 31.4401L174.322 18.5774L174.322 78.7188ZM219.793 169.329L219.793 100.096L198.284 78.7188L178.33 78.7188L178.33 14.5947L193.014 7.62939e-05L187.346 7.62939e-05L178.33 8.9601L178.33 7.62939e-05L174.322 7.62939e-05L174.322 12.9441L161.382 25.8068L161.382 0.000137329L157.374 0.000137329L157.374 29.7895L110.988 75.8948L110.988 161.061C109.212 161.832 107.968 163.588 107.968 165.636C107.968 167.684 109.212 169.44 110.988 170.209L110.988 170.628L112.99 170.628L112.992 170.628L112.993 170.628L114.996 170.628L114.996 170.209C116.771 169.44 118.015 167.684 118.015 165.636C118.015 163.588 116.771 161.832 114.996 161.061L114.996 77.5455L157.374 35.4241L157.374 82.7014L174.322 82.7014L174.322 121.379C172.548 122.148 171.304 123.904 171.304 125.952C171.304 128 172.548 129.756 174.322 130.525L174.322 130.944L176.326 130.944L176.328 130.944L176.328 130.944L178.33 130.944L178.33 130.527C180.106 129.756 181.35 128 181.35 125.952C181.35 123.904 180.106 122.148 178.33 121.377L178.33 82.7014L196.624 82.7014L215.785 101.747L215.785 169.329C214.009 170.099 212.765 171.855 212.765 173.903C212.765 175.951 214.009 177.708 215.785 178.477L215.785 178.896L217.788 178.896L217.788 178.896L217.789 178.896L219.793 178.896L219.793 178.476C221.568 177.707 222.812 175.951 222.812 173.903C222.812 171.855 221.568 170.1 219.793 169.33" id="path52" fill="#062A7B" fill-rule="evenodd" stroke="none" />
    <path d="M80.7323 53.8028L80.7323 0.00018692L76.7239 0.00018692L76.7239 53.8028C74.949 54.5735 73.7053 56.3295 73.7053 58.3775C73.7053 60.4255 74.949 62.1802 76.7239 62.9508L76.7239 63.3695L80.7323 63.3695L80.7323 62.9508C82.5078 62.1815 83.7515 60.4255 83.7515 58.3775C83.7515 56.3282 82.5078 54.5722 80.7323 53.8028" id="path54" fill="#062A7B" stroke="none" />
    <path d="M658.545 2.00938C658.545 4.05736 659.789 5.81336 661.565 6.58406L661.565 7.00275L663.566 7.00275L663.569 7.00275L663.57 7.00275L665.573 7.00275L665.573 6.58406C667.349 5.81342 668.591 4.05736 668.591 2.00938C668.591 1.29336 668.431 0.616013 668.158 6.10352e-05L658.979 6.10352e-05C658.705 0.616078 658.545 1.29342 658.545 2.00938" id="path56" fill="#062A7B" stroke="none" />
    <path d="M685.363 29.3562L685.363 0.000183105L681.355 0.000183105L681.355 25.3722L627.094 25.3722L627.094 0.000183105L623.086 0.000183105L623.086 25.3722L592.173 25.3722L592.173 64.2761C590.398 65.0468 589.154 66.8015 589.154 68.8495C589.154 70.8988 590.398 72.6534 592.173 73.4241L592.173 73.8428L594.177 73.8428L594.177 73.8428L594.178 73.8428L596.181 73.8428L596.181 73.4241C597.957 72.6535 599.201 70.8988 599.201 68.8495C599.201 66.8015 597.957 65.0468 596.181 64.2761L596.181 29.3562L623.086 29.3562L623.086 70.9162C621.311 71.6855 620.067 73.4429 620.067 75.4895C620.067 77.5375 621.311 79.2935 623.086 80.0642L623.086 80.4828L625.09 80.4828L625.09 80.4828L625.091 80.4828L627.094 80.4828L627.094 80.0642C628.87 79.2948 630.114 77.5375 630.114 75.4895C630.114 73.4415 628.87 71.6855 627.094 70.9162L627.094 29.3562L685.363 29.3562" id="path58" fill="#062A7B" stroke="none" />
    <path d="M572.801 134.657L572.801 76.3375L554.429 58.0788L554.429 0.000183105L550.421 0.000183105L550.421 54.0948L522.698 26.5401L522.698 0.000183105L518.69 0.000183105L518.69 28.1895L550.421 59.7282L550.421 87.6642C548.646 88.4335 547.402 90.1895 547.402 92.2375C547.402 94.2855 548.646 96.0428 550.421 96.8121L550.421 97.2308L552.423 97.2308L552.425 97.2308L552.427 97.2308L554.429 97.2308L554.429 96.8121C556.205 96.0428 557.449 94.2855 557.449 92.2375C557.449 90.1895 556.205 88.4335 554.429 87.6642L554.429 63.7122L568.791 77.9868L568.791 134.657C567.017 135.428 565.773 137.184 565.773 139.232C565.773 141.28 567.017 143.036 568.791 143.805L568.791 144.224L570.795 144.224L570.795 144.224L570.797 144.224L572.801 144.224L572.801 143.805C574.575 143.036 575.819 141.28 575.819 139.232C575.819 137.184 574.575 135.428 572.801 134.657" id="path60" fill="#062A7B" stroke="none" />
    <path d="M496.645 80.2108L496.645 0.00012207L492.637 0.00012207L492.637 80.2108C490.861 80.9814 489.618 82.7375 489.618 84.7855C489.618 86.8335 490.861 88.5894 492.637 89.3588L492.637 89.7775L494.641 89.7775L494.641 89.7775L494.642 89.7775L496.645 89.7775L496.645 89.3588C498.421 88.5894 499.664 86.8335 499.664 84.7855C499.664 82.7375 498.421 80.9815 496.645 80.2108" id="path62" fill="#062A7B" stroke="none" />
    <path d="M577.477 8.50147L577.477 0.000183105L573.469 0.000183105L573.469 8.50147C571.693 9.2721 570.449 11.0282 570.449 13.0761C570.449 15.1241 571.693 16.8801 573.469 17.6494L573.469 18.0681L575.471 18.0681L575.473 18.0681L575.473 18.0681L577.477 18.0681L577.477 17.6494C579.251 16.8801 580.495 15.1241 580.495 13.0761C580.495 11.0282 579.251 9.27217 577.477 8.50147" id="path64" fill="#062A7B" stroke="none" />
    <path d="M761.845 45.8348L761.845 0.00012207L757.837 0.00012207L757.837 45.8361C756.061 46.6068 754.818 48.3614 754.818 50.4094C754.818 52.4574 756.061 54.2134 757.837 54.9827L757.837 55.4027L761.845 55.4027L761.845 54.984C763.621 54.2134 764.865 52.4573 764.865 50.4094C764.865 48.3614 763.621 46.6054 761.845 45.8347" id="path66" fill="#062A7B" stroke="none" />
    <path d="M775.52 35.5041L775.52 18.3134L793.701 0.242764L793.701 0.00012207L788.277 0.00012207L771.511 16.6641L771.511 35.5041C769.736 36.2734 768.492 38.0294 768.492 40.0774C768.492 42.1254 769.736 43.8814 771.511 44.6521L771.511 45.0707L775.52 45.0707L775.52 44.6521C777.295 43.8814 778.538 42.1254 778.538 40.0774C778.538 38.0294 777.296 36.2734 775.52 35.5041" id="path68" fill="#062A7B" stroke="none" />
    <path d="M694.482 45.8348L694.482 0.00012207L690.474 0.00012207L690.474 45.8361C688.698 46.6054 687.456 48.3614 687.456 50.4094C687.456 52.4574 688.698 54.2134 690.474 54.9827L690.474 55.4027L694.482 55.4027L694.482 54.984C696.258 54.2134 697.501 52.4573 697.501 50.4094C697.501 48.3614 696.258 46.6054 694.482 45.8347" id="path70" fill="#062A7B" stroke="none" />
    <path d="M725.165 64.2762L725.165 29.1389L704.735 8.83351L704.735 0.000183105L700.727 0.000183105L700.727 10.4829L721.155 30.7882L721.155 64.2762C719.381 65.0469 718.137 66.8029 718.137 68.8495C718.137 70.8975 719.381 72.6535 721.155 73.4242L721.155 73.8429L723.159 73.8429L723.161 73.8429L723.161 73.8429L725.165 73.8429L725.165 73.4242C726.939 72.6536 728.183 70.8989 728.183 68.8495C728.183 66.8016 726.939 65.0456 725.165 64.2762" id="path72" fill="#062A7B" stroke="none" />
    <path d="M476.276 113.411L476.276 36.0774L457.98 17.8921L457.98 6.10352e-05L453.97 6.10352e-05L453.97 13.9094L439.978 6.10352e-05L435.95 6.10352e-05L435.95 1.63072L453.97 19.5427L453.97 45.8347C452.195 46.6053 450.952 48.3614 450.952 50.4094C450.952 52.4574 452.196 54.2133 453.97 54.984L453.97 55.4027L457.98 55.4027L457.98 54.9827C459.754 54.2134 460.997 52.4574 460.997 50.4094C460.997 48.3615 459.754 46.6055 457.98 45.8361L457.98 23.5255L472.268 37.7281L472.268 113.411C470.492 114.18 469.249 115.936 469.249 117.984C469.249 120.032 470.492 121.788 472.268 122.559L472.268 122.977L474.27 122.977L474.272 122.977L474.273 122.977L476.276 122.977L476.276 122.559C478.052 121.788 479.296 120.032 479.296 117.984C479.296 115.936 478.051 114.18 476.276 113.411" id="path74" fill="#062A7B" stroke="none" />
    <g id="Group" transform="matrix(-1 0 0 1 1588 0.70202637)">
      <path d="M551.053 205.188L551.053 153.735L580.524 124.443L580.524 0.217468L575.931 0.217468L575.931 122.552L546.46 151.845L546.46 205.187C544.425 206.07 543 208.081 543 210.428C543 212.776 544.425 214.788 546.46 215.671L546.46 216.149L548.756 216.149L548.756 216.151L548.757 216.149L551.053 216.149L551.053 215.669C553.088 214.787 554.513 212.776 554.513 210.428C554.513 208.083 553.088 206.071 551.053 205.188" id="path14" fill="#CC6424" stroke="none" />
      <path d="M747.505 113.189L747.505 18.7721L729.495 0.87085L723 0.87085L742.912 20.6615L742.912 113.188C740.877 114.071 739.452 116.083 739.452 118.429C739.452 120.777 740.877 122.789 742.912 123.672L742.912 124.151L747.505 124.151L747.505 123.671C749.539 122.789 750.964 120.777 750.964 118.429C750.964 116.084 749.539 114.072 747.505 113.189" id="path16" fill="#CC6424" stroke="none" />
      <path d="M650.392 141.357L635.563 141.357L635.563 72.4415L650.392 87.1801L650.392 141.357ZM708.139 235.715L708.139 138.121L654.984 85.2895L654.984 46.1655L700.913 46.1655L700.913 0.488159L696.32 0.488159L696.32 41.6001L650.392 41.6001L650.392 80.7255L635.563 65.9868L635.563 26.8681L662.104 0.488098L655.609 0.488098L630.971 24.9774L630.971 61.4214L592.983 23.6641L592.983 0.488098L588.389 0.488098L588.389 25.5535L630.971 67.8761L630.971 141.357L608.107 141.357L583.459 165.853L583.459 245.188C581.424 246.071 580 248.083 580 250.429C580 252.776 581.424 254.788 583.459 255.671L583.459 256.151L585.755 256.151L585.756 256.151L585.757 256.151L588.052 256.151L588.052 255.671C590.087 254.789 591.512 252.776 591.512 250.429C591.512 248.083 590.087 246.069 588.052 245.188L588.052 167.745L610.009 145.921L630.971 145.921L630.971 190.241C628.936 191.123 627.509 193.135 627.509 195.483C627.509 197.829 628.936 199.841 630.971 200.724L630.971 201.204L633.265 201.204L633.265 201.204L633.267 201.204L635.563 201.204L635.563 200.723C637.597 199.841 639.023 197.829 639.023 195.483C639.023 193.136 637.597 191.124 635.563 190.241L635.563 145.921L654.984 145.921L654.984 91.7455L703.545 140.013L703.545 235.715C701.512 236.597 700.087 238.609 700.087 240.956C700.087 243.303 701.512 245.315 703.545 246.197L703.545 246.677L705.841 246.677L705.843 246.677L705.845 246.677L708.139 246.677L708.139 246.197C710.173 245.316 711.599 243.303 711.599 240.956C711.599 238.609 710.173 236.597 708.139 235.715" id="path18" fill="#CC6424" fill-rule="evenodd" stroke="none" />
      <path d="M772.052 167.189L772.052 103.616L793.579 82.2227L793.579 75.7667L767.46 101.727L767.46 167.189C765.425 168.071 764 170.083 764 172.429C764 174.777 765.425 176.789 767.46 177.671L767.46 178.151L769.756 178.151L769.756 178.151L769.757 178.151L772.052 178.151L772.052 177.671C774.087 176.789 775.512 174.777 775.512 172.429C775.512 170.083 774.087 168.071 772.052 167.189" id="path20" fill="#CC6424" stroke="none" />
      <path d="M531.052 151.188L531.052 67.0841L569.056 29.3094L569.056 0.0680542L564.464 0.0680542L564.464 27.4201L526.459 65.1934L526.459 151.188C524.425 152.071 523 154.083 523 156.429C523 158.776 524.425 160.788 526.459 161.671L526.459 162.151L528.753 162.151L528.755 162.151L528.757 162.151L531.052 162.151L531.052 161.671C533.087 160.788 534.512 158.776 534.512 156.429C534.512 154.083 533.087 152.069 531.052 151.188" id="path22" fill="#CC6424" stroke="none" />
      <path d="M512.793 136.715L512.793 0.488098L508.201 0.488098L508.201 134.825L470.46 172.337L470.46 245.188C468.425 246.071 467 248.083 467 250.429C467 252.776 468.425 254.789 470.46 255.671L470.46 256.151L472.755 256.151L472.756 256.151L472.756 256.151L475.053 256.151L475.053 255.671C477.087 254.788 478.512 252.776 478.512 250.429C478.512 248.083 477.087 246.071 475.053 245.188L475.053 174.228L512.793 136.715" id="path24" fill="#CC6424" stroke="none" />
      <path d="M455.739 132.591L455.739 98.8988L480.191 98.8988L480.191 0.662842L475.599 0.662842L475.599 94.3335L455.739 94.3335L455.739 19.3961L436.891 0.662781L430.396 0.662781L451.145 21.2868L451.145 94.3335L394.881 94.3335L394.881 0.662781L390.288 0.662781L390.288 94.3335L347 94.3335L347 163.689L419.552 235.801L419.552 268.188C417.517 269.069 416.093 271.081 416.093 273.429C416.093 275.776 417.517 277.788 419.552 278.669L419.552 279.151L424.145 279.151L424.145 278.671C426.18 277.788 427.605 275.776 427.605 273.429C427.605 271.081 426.18 269.069 424.145 268.187L424.145 233.912L351.593 161.799L351.593 98.8988L390.288 98.8988L390.288 143.243C388.255 144.125 386.829 146.137 386.829 148.484C386.829 150.831 388.255 152.843 390.288 153.725L390.288 154.205L392.584 154.205L392.585 154.205L392.587 154.205L394.881 154.205L394.881 153.725C396.916 152.844 398.341 150.831 398.341 148.484C398.341 146.137 396.916 144.124 394.881 143.243L394.881 98.8988L451.145 98.8988L451.145 132.591C449.111 133.473 447.687 135.485 447.687 137.832C447.687 140.179 449.111 142.191 451.145 143.073L451.145 143.553L453.441 143.553L453.443 143.553L453.443 143.553L455.739 143.553L455.739 143.073C457.773 142.192 459.199 140.179 459.199 137.832C459.199 135.485 457.773 133.472 455.739 132.591" id="path26" fill="#CC6424" stroke="none" />
      <path d="M96.4595 0.756042L96.4595 33.1881C94.4251 34.0707 93 36.0827 93 38.4294C93 40.7761 94.4251 42.7881 96.4595 43.6707L96.4595 44.1508L98.7537 44.1508L98.7563 44.1508L98.7589 44.1508L101.053 44.1508L101.053 43.6707C103.087 42.7881 104.513 40.7761 104.513 38.4294C104.513 36.0827 103.087 34.0707 101.053 33.1881L101.053 0.756042L96.4595 0.756042" id="path28" fill="#CC6424" stroke="none" />
      <path d="M270.855 143.188L270.855 30.7081L245.593 5.6001L245.593 0.608093L241 0.608093L241 7.48941L266.261 32.5974L266.261 143.188C264.227 144.071 262.801 146.083 262.801 148.429C262.801 150.776 264.227 152.788 266.261 153.671L266.261 154.151L268.557 154.151L268.559 154.151L268.559 154.151L270.855 154.151L270.855 153.671C272.889 152.788 274.315 150.776 274.315 148.429C274.315 146.083 272.889 144.071 270.855 143.188" id="path30" fill="#CC6424" stroke="none" />
      <path d="M236.398 45.8948L236.398 81.2948L204.63 112.869L204.63 45.8948L236.398 45.8948ZM204.63 31.0668L235.667 0.217468L229.173 0.217468L200.038 29.1761L200.038 41.3294L178.221 41.3294L178.221 0.217468L173.628 0.217468L173.628 41.3295L146.07 41.3295L146.07 16.7482L161.806 1.10686L161.806 0.217529L156.206 0.217529L146.07 10.2922L146.07 0.217529L141.477 0.217529L141.477 14.8575L116.77 39.4149L116.77 79.9575L54.5932 79.9575L54.5932 19.6535L72.6782 1.67886L72.6782 47.9442C70.6438 48.8268 69.2183 50.8388 69.2183 53.1855C69.2183 55.5322 70.6438 57.5442 72.6782 58.4268L72.6782 58.9069L74.9719 58.9069L74.9746 58.9069L74.9771 58.9069L77.2708 58.9069L77.2708 58.4268C79.3052 57.5442 80.7308 55.5322 80.7308 53.1855C80.7308 50.8388 79.3052 48.8268 77.2708 47.9442L77.2708 0.217468L67.6527 0.217468L50 17.7628L50 84.5215L116.77 84.5215L116.77 132.146C114.736 133.028 113.31 135.04 113.31 137.387C113.31 139.734 114.736 141.746 116.77 142.628L116.77 143.108L119.066 143.108L119.067 143.108L119.068 143.108L121.364 143.108L121.364 142.628C123.397 141.746 124.823 139.734 124.823 137.387C124.823 135.04 123.397 133.028 121.364 132.146L121.364 84.5215L152.194 84.5215L152.194 124.538C150.159 125.419 148.734 127.431 148.734 129.779C148.734 132.126 150.159 134.138 152.194 135.02L152.194 135.5L154.49 135.5L154.49 135.5L154.491 135.5L156.787 135.5L156.787 135.02C158.822 134.138 160.246 132.126 160.246 129.779C160.246 127.431 158.822 125.419 156.787 124.538L156.787 79.9575L121.364 79.9575L121.364 41.3042L141.477 21.3122L141.477 45.8948L173.628 45.8948L173.628 60.6255C171.594 61.5068 170.169 63.5201 170.169 65.8668C170.169 68.2135 171.594 70.2255 173.628 71.1082L173.628 71.5882L175.923 71.5882L175.925 71.5882L175.925 71.5882L178.221 71.5882L178.221 71.1082C180.255 70.2255 181.681 68.2135 181.681 65.8668C181.681 63.5201 180.255 61.5068 178.221 60.6255L178.221 45.8948L200.038 45.8948L200.038 117.435L178.986 138.359L178.986 205.188C176.951 206.07 175.527 208.082 175.527 210.428C175.527 212.776 176.952 214.788 178.986 215.671L178.986 216.149L181.282 216.149L181.282 216.151L181.283 216.149L183.579 216.149L183.579 215.671C185.614 214.788 187.039 212.776 187.039 210.428C187.039 208.081 185.614 206.07 183.579 205.188L183.579 140.25L200.038 123.891L200.038 151.338C198.003 152.22 196.578 154.232 196.578 156.579C196.578 158.926 198.003 160.938 200.038 161.82L200.038 162.3L202.331 162.3L202.334 162.3L202.337 162.3L204.63 162.3L204.63 161.82C206.665 160.938 208.09 158.926 208.09 156.579C208.09 154.232 206.665 152.22 204.63 151.338L204.63 119.326L240.991 83.1842L240.991 41.3295L204.63 41.3295L204.63 31.0668" id="path32" fill="#CC6424" fill-rule="evenodd" stroke="none" />
      <path d="M32.4619 63.5454L32.4619 0.868118L27.8687 0.868118L27.8687 61.6548L4.45989 84.9228L4.45989 125.187C2.42552 126.069 1 128.081 1 130.429C1 132.776 2.42552 134.788 4.45989 135.671L4.45989 136.151L6.75521 136.151L6.75625 136.151L6.75677 136.151L9.05312 136.151L9.05312 135.669C11.0875 134.788 12.5125 132.776 12.5125 130.429C12.5125 128.083 11.0875 126.069 9.05312 125.188L9.05312 86.8135L32.4619 63.5454" id="path34" fill="#CC6424" stroke="none" />
      <path d="M44.0525 103.188L44.0525 0L39.4593 0L39.4593 103.188C37.4249 104.071 36 106.083 36 108.429C36 110.776 37.4249 112.789 39.4593 113.671L39.4593 114.151L44.0525 114.151L44.0525 113.671C46.0864 112.788 47.512 110.776 47.512 108.429C47.512 106.083 46.0864 104.071 44.0525 103.188" id="path36" fill="#CC6424" stroke="none" />
      <path d="M335.671 53.0986L335.671 0.565308L331.077 0.565308L331.077 51.2079L315.02 67.168L315.02 0.565308L310.427 0.565308L310.427 71.7334L289.461 92.572L289.461 181.188C287.427 182.071 286 184.083 286 186.429C286 188.776 287.427 190.788 289.461 191.671L289.461 192.151L291.756 192.151L291.756 192.151L291.757 192.151L294.053 192.151L294.053 191.671C296.088 190.788 297.513 188.776 297.513 186.429C297.513 184.083 296.088 182.071 294.053 181.188L294.053 94.4627L310.427 78.188L310.427 103.753C308.393 104.636 306.968 106.648 306.968 108.995C306.968 111.341 308.393 113.353 310.427 114.236L310.427 114.716L315.02 114.716L315.02 114.236C317.055 113.355 318.48 111.343 318.48 108.995C318.48 106.648 317.055 104.636 315.02 103.753L315.02 73.624L335.671 53.0987" id="path38" fill="#CC6424" stroke="none" />
      <path d="M16.3813 141.584L16.3813 100.628L0 84.3467L0 89.98L12.3729 102.279L12.3729 141.584C10.5974 142.355 9.35417 144.111 9.35417 146.157C9.35417 148.205 10.5974 149.961 12.3729 150.732L12.3729 151.151L14.3766 151.151L14.3771 151.151L14.3781 151.151L16.3813 151.151L16.3813 150.732C18.1567 149.963 19.4005 148.207 19.4005 146.157C19.4005 144.109 18.1567 142.353 16.3813 141.584" id="path40" fill="#062A7B" stroke="none" />
      <path d="M269.363 88.5841L269.363 13.5401L256.667 0.920105L251 0.920105L265.355 15.1894L265.355 88.5841C263.58 89.3534 262.336 91.1094 262.336 93.1574C262.336 95.2054 263.58 96.9627 265.355 97.7321L265.355 98.1508L267.356 98.1508L267.359 98.1508L267.361 98.1508L269.363 98.1508L269.363 97.7321C271.139 96.9614 272.383 95.2054 272.383 93.1574C272.383 91.1094 271.139 89.3534 269.363 88.5841" id="path42" fill="#062A7B" stroke="none" />
      <path d="M251.727 135.584L251.727 89.0335L226.009 63.4708L226.009 0.926758L222 0.926758L222 65.1214L247.719 90.6828L247.719 135.584C245.943 136.355 244.7 138.111 244.7 140.159C244.7 142.207 245.943 143.961 247.719 144.732L247.719 145.151L249.723 145.151L249.723 145.151L249.724 145.151L251.727 145.151L251.727 144.732C253.503 143.963 254.747 142.207 254.747 140.159C254.747 138.111 253.503 136.353 251.727 135.584" id="path44" fill="#062A7B" stroke="none" />
      <path d="M318.944 169.584L318.944 106.008L286.008 73.2734L286.008 0.254776L282 0.254776L282 74.9228L314.936 107.659L314.936 169.584C313.16 170.353 311.917 172.109 311.917 174.157C311.917 176.205 313.16 177.961 314.936 178.732L314.936 179.151L316.939 179.151L316.94 179.151L316.941 179.151L318.944 179.151L318.944 178.732C320.72 177.961 321.963 176.205 321.963 174.157C321.963 172.109 320.72 170.353 318.944 169.584" id="path46" fill="#062A7B" stroke="none" />
      <path d="M388.456 0.335999L384.447 0.335999L384.447 37.8667L335.347 37.8667L335.347 0.335999L331.339 0.335999L331.339 37.8667L314.008 37.8667L314.008 0.335999L310 0.335999L310 41.8493L331.339 41.8493L331.339 71.252C329.563 72.0214 328.319 73.7774 328.319 75.8253C328.319 77.8733 329.563 79.6307 331.339 80.4L331.339 80.8187L333.341 80.8187L333.343 80.8187L333.343 80.8187L335.347 80.8187L335.347 80.4C337.123 79.6294 338.365 77.8733 338.365 75.8253C338.365 73.7786 337.123 72.0227 335.347 71.252L335.347 41.8493L384.447 41.8493L384.447 80.5466C382.672 81.3173 381.428 83.0733 381.428 85.1213C381.428 87.1693 382.672 88.9253 384.447 89.696L384.447 90.1133L386.449 90.1133L386.451 90.1133L386.452 90.1133L388.456 90.1133L388.456 89.6946C390.231 88.9253 391.473 87.1693 391.473 85.1213C391.473 83.0733 390.231 81.3173 388.456 80.548L388.456 41.8493L422.223 41.8493L422.223 96.7414L358.909 159.672L358.909 189.583C357.133 190.353 355.891 192.109 355.891 194.157C355.891 196.205 357.133 197.961 358.909 198.732L358.909 199.151L362.917 199.151L362.917 198.731C364.693 197.961 365.937 196.205 365.937 194.157C365.937 192.109 364.693 190.353 362.917 189.584L362.917 161.321L426.232 98.3908L426.232 37.8667L388.456 37.8667L388.456 0.33606" id="path48" fill="#062A7B" stroke="none" />
      <path d="M58.9255 101.584L58.9255 44.4575L33.0083 18.6974L33.0083 0.125427L29 0.125427L29 20.3481L54.9172 46.1067L54.9172 101.584C53.1416 102.353 51.8984 104.111 51.8984 106.157C51.8984 108.205 53.1416 109.963 54.9172 110.732L54.9172 111.151L56.9208 111.151L56.9213 111.151L56.9219 111.151L58.9255 111.151L58.9255 110.732C60.7009 109.963 61.9448 108.205 61.9448 106.157C61.9448 104.111 60.7009 102.353 58.9255 101.584" id="path50" fill="#062A7B" stroke="none" />
      <path d="M174.354 78.9734L161.414 78.9734L161.414 31.6948L174.354 18.8321L174.354 78.9734ZM219.825 169.584L219.825 100.351L198.315 78.9734L178.362 78.9734L178.362 14.8494L193.046 0.254715L187.378 0.254715L178.362 9.21474L178.362 0.254715L174.354 0.254715L174.354 13.1987L161.414 26.0614L161.414 0.254776L157.406 0.254776L157.406 30.0441L111.02 76.1494L111.02 161.316C109.244 162.087 108 163.843 108 165.891C108 167.939 109.244 169.695 111.02 170.464L111.02 170.883L113.022 170.883L113.023 170.883L113.025 170.883L115.028 170.883L115.028 170.464C116.803 169.695 118.047 167.939 118.047 165.891C118.047 163.843 116.803 162.087 115.028 161.316L115.028 77.8001L157.406 35.6787L157.406 82.9561L174.354 82.9561L174.354 121.633C172.579 122.403 171.335 124.159 171.335 126.207C171.335 128.255 172.579 130.011 174.354 130.78L174.354 131.199L176.358 131.199L176.359 131.199L176.359 131.199L178.362 131.199L178.362 130.781C180.138 130.011 181.382 128.255 181.382 126.207C181.382 124.159 180.138 122.403 178.362 121.632L178.362 82.9561L196.655 82.9561L215.817 102.001L215.817 169.584C214.041 170.353 212.797 172.109 212.797 174.157C212.797 176.205 214.041 177.963 215.817 178.732L215.817 179.151L217.819 179.151L217.819 179.151L217.821 179.151L219.825 179.151L219.825 178.731C221.599 177.961 222.843 176.205 222.843 174.157C222.843 172.109 221.599 170.355 219.825 169.584" id="path52" fill="#062A7B" fill-rule="evenodd" stroke="none" />
      <path d="M81.0271 54.5841L81.0271 0.781437L77.0187 0.781437L77.0187 54.5841C75.2437 55.3547 74 57.1108 74 59.1588C74 61.2067 75.2437 62.9614 77.0187 63.7321L77.0187 64.1508L81.0271 64.1508L81.0271 63.7321C82.8025 62.9627 84.0463 61.2067 84.0463 59.1588C84.0463 57.1094 82.8025 55.3534 81.0271 54.5841" id="path54" fill="#062A7B" stroke="none" />
      <path d="M659 2.15739C659 4.20537 660.244 5.96137 662.02 6.73207L662.02 7.15076L664.021 7.15076L664.024 7.15076L664.025 7.15076L666.028 7.15076L666.028 6.73207C667.804 5.96143 669.047 4.20537 669.047 2.15739C669.047 1.44137 668.887 0.764023 668.613 0.148071L659.435 0.148071C659.16 0.764088 659 1.44143 659 2.15739" id="path56" fill="#062A7B" stroke="none" />
      <path d="M685.209 30.0241L685.209 0.668091L681.201 0.668091L681.201 26.0401L626.94 26.0401L626.94 0.668091L622.932 0.668091L622.932 26.0401L592.019 26.0401L592.019 64.9441C590.244 65.7147 589 67.4694 589 69.5174C589 71.5667 590.244 73.3213 592.019 74.092L592.019 74.5107L594.023 74.5107L594.023 74.5107L594.024 74.5107L596.027 74.5107L596.027 74.092C597.803 73.3214 599.047 71.5667 599.047 69.5174C599.047 67.4694 597.803 65.7147 596.027 64.9441L596.027 30.0241L622.932 30.0241L622.932 71.5841C621.157 72.3534 619.913 74.1108 619.913 76.1574C619.913 78.2054 621.157 79.9614 622.932 80.7321L622.932 81.1508L624.936 81.1508L624.936 81.1508L624.937 81.1508L626.94 81.1508L626.94 80.7321C628.716 79.9627 629.96 78.2054 629.96 76.1574C629.96 74.1094 628.716 72.3534 626.94 71.5841L626.94 30.0241L685.209 30.0241" id="path58" fill="#062A7B" stroke="none" />
      <path d="M573.111 135.584L573.111 77.2641L554.739 59.0055L554.739 0.926819L550.731 0.926819L550.731 55.0215L523.008 27.4668L523.008 0.926819L519 0.926819L519 29.1161L550.731 60.6548L550.731 88.5908C548.956 89.3601 547.712 91.1161 547.712 93.1641C547.712 95.2121 548.956 96.9695 550.731 97.7388L550.731 98.1575L552.733 98.1575L552.735 98.1575L552.737 98.1575L554.739 98.1575L554.739 97.7388C556.515 96.9695 557.759 95.2121 557.759 93.1641C557.759 91.1161 556.515 89.3601 554.739 88.5908L554.739 64.6388L569.101 78.9135L569.101 135.584C567.327 136.355 566.083 138.111 566.083 140.159C566.083 142.207 567.327 143.963 569.101 144.732L569.101 145.151L571.105 145.151L571.105 145.151L571.107 145.151L573.111 145.151L573.111 144.732C574.885 143.963 576.129 142.207 576.129 140.159C576.129 138.111 574.885 136.355 573.111 135.584" id="path60" fill="#062A7B" stroke="none" />
      <path d="M497.027 80.5841L497.027 0.373413L493.019 0.373413L493.019 80.5841C491.243 81.3547 490 83.1108 490 85.1588C490 87.2067 491.243 88.9627 493.019 89.7321L493.019 90.1508L495.023 90.1508L495.023 90.1508L495.024 90.1508L497.027 90.1508L497.027 89.7321C498.803 88.9627 500.045 87.2067 500.045 85.1588C500.045 83.1108 498.803 81.3548 497.027 80.5841" id="path62" fill="#062A7B" stroke="none" />
      <path d="M577.028 8.58411L577.028 0.0828247L573.02 0.0828247L573.02 8.58411C571.244 9.35475 570 11.1108 570 13.1588C570 15.2068 571.244 16.9627 573.02 17.7321L573.02 18.1508L575.023 18.1508L575.024 18.1508L575.024 18.1508L577.028 18.1508L577.028 17.7321C578.803 16.9627 580.047 15.2068 580.047 13.1588C580.047 11.1108 578.803 9.35481 577.028 8.58411" id="path64" fill="#062A7B" stroke="none" />
      <path d="M762.027 46.5829L762.027 0.748169L758.019 0.748169L758.019 46.5842C756.243 47.3548 755 49.1095 755 51.1575C755 53.2054 756.243 54.9614 758.019 55.7308L758.019 56.1508L762.027 56.1508L762.027 55.7321C763.803 54.9614 765.047 53.2054 765.047 51.1574C765.047 49.1094 763.803 47.3534 762.027 46.5827" id="path66" fill="#062A7B" stroke="none" />
      <path d="M775.028 35.5841L775.028 18.3934L793.209 0.322781L793.209 0.0801392L787.785 0.0801392L771.02 16.7441L771.02 35.5841C769.244 36.3534 768 38.1094 768 40.1574C768 42.2054 769.244 43.9614 771.02 44.7321L771.02 45.1508L775.028 45.1508L775.028 44.7321C776.804 43.9614 778.047 42.2054 778.047 40.1574C778.047 38.1094 776.804 36.3534 775.028 35.5841" id="path68" fill="#062A7B" stroke="none" />
      <path d="M694.027 46.5829L694.027 0.748169L690.019 0.748169L690.019 46.5842C688.243 47.3535 687 49.1095 687 51.1575C687 53.2054 688.243 54.9614 690.019 55.7308L690.019 56.1508L694.027 56.1508L694.027 55.7321C695.803 54.9614 697.045 53.2054 697.045 51.1574C697.045 49.1094 695.803 47.3534 694.027 46.5827" id="path70" fill="#062A7B" stroke="none" />
      <path d="M725.437 64.584L725.437 29.4467L705.008 9.14137L705.008 0.308044L701 0.308044L701 10.7907L721.428 31.0961L721.428 64.5841C719.653 65.3547 718.409 67.1108 718.409 69.1574C718.409 71.2054 719.653 72.9614 721.428 73.7321L721.428 74.1508L723.432 74.1508L723.433 74.1508L723.433 74.1508L725.437 74.1508L725.437 73.7321C727.212 72.9614 728.456 71.2067 728.456 69.1574C728.456 67.1094 727.212 65.3534 725.437 64.5841" id="path72" fill="#062A7B" stroke="none" />
      <path d="M476.325 113.584L476.325 36.2507L458.029 18.0654L458.029 0.173401L454.02 0.173401L454.02 14.0827L440.028 0.173401L436 0.173401L436 1.80406L454.02 19.716L454.02 46.008C452.245 46.7787 451.001 48.5347 451.001 50.5827C451.001 52.6307 452.245 54.3867 454.02 55.1574L454.02 55.5761L458.029 55.5761L458.029 55.1561C459.804 54.3868 461.047 52.6308 461.047 50.5828C461.047 48.5348 459.804 46.7788 458.029 46.0095L458.029 23.6988L472.317 37.9015L472.317 113.584C470.541 114.353 469.299 116.109 469.299 118.157C469.299 120.205 470.541 121.961 472.317 122.732L472.317 123.151L474.32 123.151L474.321 123.151L474.323 123.151L476.325 123.151L476.325 122.732C478.101 121.961 479.345 120.205 479.345 118.157C479.345 116.109 478.101 114.353 476.325 113.584" id="path74" fill="#062A7B" stroke="none" />
    </g>
  </g>
</svg>
