<?xml version="1.0" encoding="utf-8"?>
<svg  viewBox="0 0 1923.7009 306.00003" version="1.1" xmlns:xlink="http://www.w3.org/1999/xlink" xmlns="http://www.w3.org/2000/svg">
  <g id="Group">
    <g id="Group" transform="translate(0 0.15939331)">
      <path d="M20.1787 172.079L0 186.889L0 192.91L25.6488 174.084L25.6488 108.76L28.9323 108.76L28.9323 98.8854L25.6488 98.8854L25.6488 98.8854L20.1787 98.8854L20.1787 98.8854L16.8946 98.8854L16.8946 108.76L20.1787 108.76L20.1787 172.079" id="path76" fill="#CC6424" stroke="none" />
      <path d="M0 277.907L0 283.928L29.8525 305.84L38.0551 305.84L0 277.907" id="path78" fill="#CC6424" stroke="none" />
      <path d="M181.667 135.277L202.049 135.277L202.049 203.419L181.667 188.459L181.667 135.277ZM53.1796 256.227L115.061 301.647L115.061 305.84L120.531 305.84L120.531 233.336L181.667 233.336L181.667 194.48L202.049 209.441L202.049 247.744L158.739 279.532L158.739 305.84L164.209 305.84L164.209 281.539L207.519 249.751L207.519 213.456L258.727 251.043L258.727 283.343L206.763 283.343L206.763 305.84L212.233 305.84L212.233 287.831L258.727 287.831L258.727 305.84L264.198 305.84L264.198 287.831L274.899 287.831L274.899 305.84L280.369 305.84L280.369 287.831L290.867 287.831L290.867 305.84L296.338 305.84L296.338 287.831L365.991 287.831L365.991 305.84L371.461 305.84L371.461 287.831L413.974 287.831L413.974 181.672L441.053 181.672L441.053 255.408L476.651 281.539L476.651 305.84L482.122 305.84L482.122 279.533L446.523 253.403L446.523 181.672L522.06 181.672L522.06 282.944L490.867 305.84L499.07 305.84L527.53 284.951L527.53 181.672L585.151 181.672L585.151 113.421L488.577 42.5374L488.577 9.87466L491.86 9.87466L491.86 0L479.823 0L479.823 9.87466L483.107 9.87466L483.107 44.5427L579.679 115.428L579.679 177.184L527.53 177.184L527.53 132.693L530.813 132.693L530.813 122.819L527.53 122.819L527.53 122.819L522.06 122.819L522.06 122.819L518.775 122.819L518.775 132.693L522.06 132.693L522.06 177.184L446.523 177.184L446.523 143.164L449.807 143.164L449.807 133.289L446.523 133.289L446.523 133.289L441.053 133.289L441.053 133.289L437.768 133.289L437.768 143.164L441.053 143.164L441.053 177.184L408.504 177.184L408.504 283.343L371.461 283.343L371.461 141.772L421.698 104.899L421.698 32.3107L424.981 32.3107L424.981 22.436L412.944 22.436L412.944 32.3107L416.228 32.3107L416.228 102.892L365.991 139.765L365.991 283.343L296.338 283.343L296.338 246.937L346.927 209.805L346.927 124.299L350.21 124.299L350.21 114.424L338.172 114.424L338.172 124.299L341.457 124.299L341.457 207.798L290.867 244.931L290.867 283.343L280.369 283.343L280.369 153.568L319.598 124.775L319.598 71.3653L322.883 71.3653L322.883 61.4907L319.598 61.4907L319.598 61.4907L314.128 61.4907L314.128 61.4907L310.845 61.4907L310.845 71.3653L314.128 71.3653L314.128 122.769L274.899 151.563L274.899 283.343L264.198 283.343L264.198 249.036L207.519 207.435L207.519 135.277L238.052 135.277L270.76 111.271L270.76 32.3107L274.043 32.3107L274.043 22.436L262.005 22.436L262.005 32.3107L265.288 32.3107L265.288 109.264L235.961 130.789L207.519 130.789L207.519 86.3227L210.802 86.3227L210.802 76.448L207.519 76.448L207.519 76.448L202.049 76.448L202.049 76.448L198.765 76.448L198.765 86.3227L202.049 86.3227L202.049 130.789L176.195 130.789L176.195 184.444L110.912 136.525L110.912 41.6227L114.196 41.6227L114.196 31.748L102.157 31.748L102.157 41.6227L105.442 41.6227L105.442 138.531L176.195 190.465L176.195 228.849L115.061 228.849L115.061 295.627L58.6505 254.221L58.6505 162.44L61.9339 162.44L61.9339 152.565L58.6505 152.565L58.6505 152.565L53.1796 152.565L53.1796 152.565L49.8954 152.565L49.8954 162.44L53.1796 162.44L53.1796 256.227" id="path80" fill="#CC6424" fill-rule="evenodd" stroke="none" />
      <path d="M577.708 305.84L606.581 284.647L606.581 224.041L628.596 207.883L628.596 297.486L617.216 305.84L625.42 305.84L634.068 299.492L634.068 203.867L661.977 183.381L661.977 95.2987L665.261 95.2987L665.261 85.424L661.977 85.424L661.977 85.424L656.506 85.424L656.506 85.424L653.222 85.424L653.222 95.2987L656.506 95.2987L656.506 181.376L634.068 197.845L634.068 171.415L637.351 171.415L637.351 161.54L625.313 161.54L625.313 171.415L628.596 171.415L628.596 201.861L601.111 222.035L601.111 282.64L569.504 305.84L577.708 305.84" id="path82" fill="#CC6424" stroke="none" />
      <path d="M775.715 228.849L732.785 228.849L732.785 194.125L775.715 162.615L775.715 228.849ZM961.701 190.879L892.024 190.879L892.024 143.164L895.306 143.164L895.306 133.289L892.024 133.289L892.024 133.289L886.553 133.289L886.553 133.289L883.269 133.289L883.269 143.164L886.553 143.164L886.553 190.879L844.869 190.879L844.869 150.644L848.153 150.644L848.153 140.769L844.869 140.769L844.869 140.769L839.398 140.769L839.398 140.769L836.116 140.769L836.116 150.644L839.398 150.644L839.398 195.367L886.553 195.367L886.553 233.288L859.136 253.412L859.136 228.85L816.34 228.85L816.34 213.468L819.622 213.468L819.622 203.593L816.34 203.593L816.34 203.593L810.869 203.593L810.869 203.593L807.585 203.593L807.585 213.468L810.869 213.468L810.869 228.85L781.185 228.85L781.185 158.599L809.205 138.032L809.205 71.3654L812.491 71.3654L812.491 61.4907L809.205 61.4907L809.205 61.4907L803.735 61.4907L803.735 61.4907L800.452 61.4907L800.452 71.3654L803.735 71.3654L803.735 136.025L781.185 152.577L781.185 124.299L784.47 124.299L784.47 114.424L772.432 114.424L772.432 124.299L775.715 124.299L775.715 156.592L727.315 192.119L727.315 233.336L775.715 233.336L775.715 243.351L726.672 279.349L726.672 266.91L693.045 242.229L693.045 132.693L696.33 132.693L696.33 122.819L693.045 122.819L693.045 122.819L687.575 122.819L687.575 122.819L684.292 122.819L684.292 132.693L687.575 132.693L687.575 244.234L721.201 268.916L721.201 283.364L690.58 305.84L698.784 305.84L721.201 289.385L721.201 305.84L726.671 305.84L726.671 285.371L781.185 245.357L781.185 233.336L810.869 233.336L810.869 289.603L749.165 289.603L749.165 305.84L754.635 305.84L754.635 294.091L816.34 294.091L816.34 233.336L853.664 233.336L853.664 257.428L832.72 272.801L832.72 305.84L838.19 305.84L838.19 274.807L853.664 263.449L853.664 305.84L859.136 305.84L859.136 259.433L892.023 235.293L892.023 195.367L961.701 195.367L961.701 190.879" id="path84" fill="#CC6424" fill-rule="evenodd" stroke="none" />
      <path d="M961.701 264.647L950.714 272.711L950.714 225.933L953.998 225.933L953.998 216.059L941.959 216.059L941.959 225.933L945.243 225.933L945.243 276.727L933.143 285.608L933.143 305.84L938.613 305.84L938.613 287.613L945.243 282.748L945.243 305.84L950.714 305.84L950.714 278.732L961.701 270.668L961.701 264.647" id="path86" fill="#CC6424" stroke="none" />
      <path d="M918.475 305.84L918.475 240.967L921.758 240.967L921.758 231.092L909.72 231.092L909.72 240.967L913.005 240.967L913.005 305.84L918.475 305.84" id="path88" fill="#CC6424" stroke="none" />
      <path d="M531.367 305.84L536.223 305.84L536.223 219.047L603.283 219.047L603.283 282.728L571.796 305.84L579.079 305.84L608.14 284.508L608.14 219.047L632.179 219.047L632.179 305.84L637.036 305.84L637.036 215.062L608.14 215.062L608.14 184.861L611.056 184.861L611.056 176.095L608.14 176.095L608.14 176.095L603.283 176.095L603.283 176.095L600.369 176.095L600.369 184.861L603.283 184.861L603.283 215.062L536.223 215.062L536.223 175.565L539.139 175.565L539.139 166.799L536.223 166.799L536.223 166.799L531.367 166.799L531.367 166.799L528.453 166.799L528.453 175.565L531.367 175.565L531.367 215.062L485.07 215.062L485.07 160.237L570.804 97.3067L570.804 66.5294L573.72 66.5294L573.72 57.7627L563.033 57.7627L563.033 66.5294L565.948 66.5294L565.948 95.5267L480.214 158.456L480.214 219.047L531.367 219.047L531.367 305.84" id="path90" fill="#062A7B" fill-opacity="0.4" stroke="none" />
      <path d="M715.964 168.536L750.79 194.097L750.79 305.84L755.646 305.84L755.646 192.317L720.82 166.755L720.82 121.12L723.734 121.12L723.734 112.353L720.82 112.353L720.82 112.353L715.964 112.353L715.964 112.353L713.048 112.353L713.048 121.12L715.964 121.12L715.964 168.536" id="path92" fill="#062A7B" fill-opacity="0.4" stroke="none" />
      <path d="M625.323 150.889L669.922 183.624L669.922 305.84L674.778 305.84L674.778 181.844L630.179 149.108L630.179 86.448L633.095 86.448L633.095 77.6813L622.408 77.6813L622.408 86.448L625.323 86.448L625.323 150.889" id="path94" fill="#062A7B" fill-opacity="0.4" stroke="none" />
      <path d="M820.322 177.859L838.418 177.859L838.418 225.072L820.322 238.355L820.322 177.859ZM759.322 156.547L788.358 177.859L815.466 177.859L815.466 241.919L765.148 278.852L765.148 305.84L770.004 305.84L770.004 280.632L815.466 247.264L815.466 279.486L851.371 305.84L858.654 305.84L820.322 277.705L820.322 243.7L838.418 230.419L838.418 264.913L892.691 264.913L892.691 305.84L897.547 305.84L897.547 260.929L843.274 260.929L843.274 226.853L906.089 180.748L906.089 94.7147L909.003 94.7147L909.003 85.948L898.316 85.948L898.316 94.7147L901.232 94.7147L901.232 178.967L843.274 221.508L843.274 173.874L820.322 173.874L820.322 134.399L823.238 134.399L823.238 125.632L820.322 125.632L820.322 125.632L815.466 125.632L815.466 125.632L812.551 125.632L812.551 134.399L815.466 134.399L815.466 173.874L790.215 173.874L764.178 154.765L764.178 86.448L767.094 86.448L767.094 77.6813L756.407 77.6813L756.407 86.448L759.322 86.448L759.322 156.547" id="path96" fill="#062A7B" fill-opacity="0.4" fill-rule="evenodd" stroke="none" />
      <path d="M947.628 283.455L917.131 305.84L924.414 305.84L952.484 285.234L952.484 201.974L955.4 201.974L955.4 193.208L952.484 193.208L952.484 193.208L947.628 193.208L947.628 193.208L944.713 193.208L944.713 201.974L947.628 201.974L947.628 283.455" id="path98" fill="#062A7B" fill-opacity="0.4" stroke="none" />
      <path d="M691.701 244.024L736.614 276.988L736.614 305.84L741.47 305.84L741.47 275.207L696.559 242.243L696.559 168.113L699.475 168.113L699.475 159.347L688.787 159.347L688.787 168.113L691.701 168.113L691.701 244.024" id="path100" fill="#062A7B" fill-opacity="0.4" stroke="none" />
      <path d="M412.008 220.565L436.786 238.752L436.786 305.84L441.642 305.84L441.642 242.316L461.187 256.662L461.187 305.84L466.044 305.84L466.044 254.881L441.642 236.971L441.642 209.941L444.557 209.941L444.557 201.174L433.87 201.174L433.87 209.941L436.786 209.941L436.786 233.407L416.865 218.784L416.865 142.367L419.781 142.367L419.781 133.6L416.865 133.6L416.865 133.6L412.008 133.6L412.008 133.6L409.094 133.6L409.094 142.367L412.008 142.367L412.008 220.565" id="path102" fill="#062A7B" fill-opacity="0.4" stroke="none" />
      <path d="M311.034 202.128L349.147 230.103L349.147 260.929L311.034 260.929L311.034 202.128ZM155.674 305.84L163.807 305.84L160.531 303.435L160.531 258.341L163.445 258.341L163.445 249.574L152.759 249.574L152.759 258.341L155.674 258.341L155.674 299.869L133.733 283.764L133.733 231.205L207.778 231.205L207.778 266.651L236.976 288.083L236.976 305.84L241.832 305.84L241.832 291.647L255.571 301.731L255.571 305.84L260.427 305.84L260.427 299.95L241.832 286.301L241.832 264.913L274.969 264.913L274.969 305.84L279.825 305.84L279.825 264.913L306.178 264.913L306.178 275.585L347.396 305.84L359.43 305.84L359.43 296.5L389.282 274.59L389.282 175.565L392.197 175.565L392.197 166.799L389.282 166.799L389.282 166.799L384.426 166.799L384.426 166.799L381.51 166.799L381.51 175.565L384.426 175.565L384.426 272.808L354.574 294.72L354.574 305.762L311.034 273.805L311.034 264.913L354.003 264.913L354.003 228.321L311.034 196.783L311.034 168.113L313.949 168.113L313.949 159.347L303.262 159.347L303.262 168.113L306.178 168.113L306.178 193.217L286.158 178.524L286.158 121.12L289.073 121.12L289.073 112.353L286.158 112.353L286.158 112.353L281.302 112.353L281.302 112.353L278.386 112.353L278.386 121.12L281.302 121.12L281.302 180.305L306.178 198.564L306.178 260.929L279.825 260.929L279.825 247.274L282.741 247.274L282.741 238.508L279.825 238.508L279.825 238.508L274.969 238.508L274.969 238.508L272.054 238.508L272.054 247.274L274.969 247.274L274.969 260.929L236.976 260.929L236.976 282.737L212.634 264.871L212.634 231.205L254.496 231.205L254.496 191.501L257.411 191.501L257.411 182.735L254.496 182.735L254.496 182.735L249.64 182.735L249.64 182.735L246.724 182.735L246.724 191.501L249.64 191.501L249.64 227.221L212.634 227.221L212.634 184.861L215.55 184.861L215.55 176.095L212.634 176.095L212.634 176.095L207.778 176.095L207.778 176.095L204.863 176.095L204.863 184.861L207.778 184.861L207.778 227.221L128.876 227.221L128.876 285.545L155.674 305.215L155.674 305.84" id="path104" fill="#062A7B" fill-opacity="0.4" fill-rule="evenodd" stroke="none" />
      <path d="M189.152 305.84L189.152 271.688L192.066 271.688L192.066 262.921L181.38 262.921L181.38 271.688L184.296 271.688L184.296 305.84L189.152 305.84" id="path106" fill="#062A7B" fill-opacity="0.4" stroke="none" />
      <path d="M25.3088 261.895L48.3335 278.795L48.3335 305.84L53.1897 305.84L53.1897 277.013L30.1655 260.113L30.1655 209.941L33.0798 209.941L33.0798 201.174L22.3932 201.174L22.3932 209.941L25.3088 209.941L25.3088 261.895" id="path108" fill="#062A7B" fill-opacity="0.4" stroke="none" />
      <path d="M23.9462 305.84L28.803 305.84L28.803 304.378L31.7185 304.378L31.7185 295.61L28.803 295.61L28.803 295.61L23.9462 295.61L23.9462 295.61L21.0312 295.61L21.0312 304.378L23.9462 304.378L23.9462 305.84" id="path110" fill="#062A7B" fill-opacity="0.4" stroke="none" />
      <path d="M116.526 305.84L121.382 305.84L121.382 209.941L124.299 209.941L124.299 201.174L113.612 201.174L113.612 209.941L116.526 209.941L116.526 305.84" id="path112" fill="#062A7B" fill-opacity="0.4" stroke="none" />
      <path d="M74.9782 227.504L102.642 247.809L102.642 305.84L107.5 305.84L107.5 246.028L79.8351 225.724L79.8351 191.501L82.7505 191.501L82.7505 182.735L79.8351 182.735L79.8351 182.735L74.9782 182.735L74.9782 182.735L72.0633 182.735L72.0633 191.501L74.9782 191.501L74.9782 227.504" id="path114" fill="#062A7B" fill-opacity="0.4" stroke="none" />
      <g id="Group" transform="translate(4.1783447 262.92133)">
        <path d="M0 8.76667L2.91558 8.76667L2.91558 42.9187L7.77171 42.9187L7.77171 8.76667L10.6867 8.76667L10.6867 0L0 0L0 8.76667" id="path116" fill="#062A7B" fill-opacity="0.4" stroke="none" />
      </g>
      <path d="M11.6484 211.507L11.6484 211.507L6.79164 211.507L6.79164 211.507L3.87607 211.507L3.87607 220.273L6.79164 220.273L6.79164 238.198L0 243.184L0 248.529L11.6484 239.98L11.6484 220.273L14.5627 220.273L14.5627 211.507L11.6484 211.507" id="path118" fill="#062A7B" fill-opacity="0.4" stroke="none" />
      <path d="M20.1788 172.009L6.10352e-05 186.819L6.10352e-05 192.841L25.6489 174.014L25.6489 108.69L28.9323 108.69L28.9323 98.8156L25.6489 98.8156L25.6489 98.8156L20.1788 98.8156L20.1788 98.8156L16.8947 98.8156L16.8947 108.69L20.1788 108.69L20.1788 172.009" id="path76" fill="#CC6424" stroke="none" />
      <path d="M6.10352e-05 277.907L6.10352e-05 283.929L29.8525 305.841L38.0552 305.841L6.10352e-05 277.907" id="path78" fill="#CC6424" stroke="none" />
      <path d="M181.772 135.278L202.154 135.278L202.154 203.419L181.772 188.459L181.772 135.278ZM53.2842 256.227L115.166 301.647L115.166 305.841L120.636 305.841L120.636 233.336L181.772 233.336L181.772 194.481L202.154 209.442L202.154 247.744L158.844 279.532L158.844 305.841L164.314 305.841L164.314 281.539L207.624 249.751L207.624 213.456L258.832 251.043L258.832 283.343L206.868 283.343L206.868 305.841L212.338 305.841L212.338 287.831L258.832 287.831L258.832 305.841L264.302 305.841L264.302 287.831L275.004 287.831L275.004 305.841L280.474 305.841L280.474 287.831L290.972 287.831L290.972 305.841L296.442 305.841L296.442 287.831L366.095 287.831L366.095 305.841L371.566 305.841L371.566 287.831L414.079 287.831L414.079 181.672L441.157 181.672L441.157 255.408L476.756 281.539L476.756 305.841L482.226 305.841L482.226 279.534L446.628 253.403L446.628 181.672L522.164 181.672L522.164 282.944L490.971 305.841L499.175 305.841L527.635 284.951L527.635 181.672L585.255 181.672L585.255 113.422L488.682 42.5379L488.682 9.87521L491.965 9.87521L491.965 0.000549316L479.927 0.000549316L479.927 9.87521L483.212 9.87521L483.212 44.5432L579.783 115.429L579.783 177.184L527.635 177.184L527.635 132.694L530.918 132.694L530.918 122.819L527.635 122.819L527.635 122.819L522.164 122.819L522.164 122.819L518.88 122.819L518.88 132.694L522.164 132.694L522.164 177.184L446.628 177.184L446.628 143.165L449.912 143.165L449.912 133.29L446.628 133.29L446.628 133.29L441.157 133.29L441.157 133.29L437.873 133.29L437.873 143.165L441.157 143.165L441.157 177.184L408.609 177.184L408.609 283.343L371.566 283.343L371.566 141.773L421.803 104.899L421.803 32.3112L425.086 32.3112L425.086 22.4366L413.048 22.4366L413.048 32.3112L416.333 32.3112L416.333 102.893L366.095 139.766L366.095 283.343L296.442 283.343L296.442 246.938L347.032 209.806L347.032 124.299L350.315 124.299L350.315 114.425L338.277 114.425L338.277 124.299L341.561 124.299L341.561 207.799L290.972 244.931L290.972 283.343L280.474 283.343L280.474 153.569L319.703 124.775L319.703 71.3659L322.987 71.3659L322.987 61.4912L319.703 61.4912L319.703 61.4912L314.233 61.4912L314.233 61.4912L310.95 61.4912L310.95 71.3659L314.233 71.3659L314.233 122.77L275.004 151.563L275.004 283.343L264.302 283.343L264.302 249.036L207.624 207.435L207.624 135.278L238.156 135.278L270.865 111.271L270.865 32.3112L274.148 32.3112L274.148 22.4366L262.11 22.4366L262.11 32.3112L265.393 32.3112L265.393 109.265L236.066 130.79L207.624 130.79L207.624 86.3232L210.907 86.3232L210.907 76.4486L207.624 76.4486L207.624 76.4486L202.154 76.4486L202.154 76.4486L198.869 76.4486L198.869 86.3232L202.154 86.3232L202.154 130.79L176.3 130.79L176.3 184.444L111.016 136.526L111.016 41.6232L114.3 41.6232L114.3 31.7486L102.262 31.7486L102.262 41.6233L105.546 41.6233L105.546 138.531L176.3 190.466L176.3 228.85L115.166 228.85L115.166 295.627L58.7551 254.222L58.7551 162.441L62.0385 162.441L62.0385 152.566L58.7551 152.566L58.7551 152.566L53.2842 152.566L53.2842 152.566L50.0001 152.566L50.0001 162.441L53.2842 162.441L53.2842 256.227" id="path80" fill="#CC6424" fill-rule="evenodd" stroke="none" />
      <path d="M578.204 305.841L607.077 284.647L607.077 224.042L629.092 207.883L629.092 297.487L617.712 305.841L625.916 305.841L634.564 299.493L634.564 203.867L662.473 183.382L662.473 95.2992L665.757 95.2992L665.757 85.4245L662.473 85.4245L662.473 85.4245L657.003 85.4245L657.003 85.4245L653.718 85.4245L653.718 95.2992L657.003 95.2992L657.003 181.377L634.564 197.846L634.564 171.415L637.847 171.415L637.847 161.541L625.809 161.541L625.809 171.415L629.092 171.415L629.092 201.862L601.607 222.035L601.607 282.641L570 305.841L578.204 305.841" id="path82" fill="#CC6424" stroke="none" />
      <path d="M775.423 228.85L732.493 228.85L732.493 194.126L775.423 162.615L775.423 228.85ZM961.409 190.879L891.731 190.879L891.731 143.165L895.014 143.165L895.014 133.29L891.731 133.29L891.731 133.29L886.261 133.29L886.261 133.29L882.977 133.29L882.977 143.165L886.261 143.165L886.261 190.879L844.577 190.879L844.577 150.645L847.861 150.645L847.861 140.77L844.577 140.77L844.577 140.77L839.106 140.77L839.106 140.77L835.823 140.77L835.823 150.645L839.106 150.645L839.106 195.367L886.261 195.367L886.261 233.289L858.844 253.413L858.844 228.85L816.047 228.85L816.047 213.469L819.33 213.469L819.33 203.594L816.047 203.594L816.047 203.594L810.577 203.594L810.577 203.594L807.293 203.594L807.293 213.469L810.577 213.469L810.577 228.85L780.893 228.85L780.893 158.599L808.913 138.033L808.913 71.3659L812.199 71.3659L812.199 61.4913L808.913 61.4913L808.913 61.4913L803.443 61.4913L803.443 61.4913L800.16 61.4913L800.16 71.366L803.443 71.366L803.443 136.026L780.893 152.578L780.893 124.299L784.177 124.299L784.177 114.425L772.14 114.425L772.14 124.299L775.423 124.299L775.423 156.593L727.022 192.119L727.022 233.336L775.423 233.336L775.423 243.351L726.379 279.35L726.379 266.911L692.753 242.23L692.753 132.694L696.038 132.694L696.038 122.819L692.753 122.819L692.753 122.819L687.283 122.819L687.283 122.819L684 122.819L684 132.694L687.283 132.694L687.283 244.235L720.909 268.917L720.909 283.365L690.288 305.841L698.491 305.841L720.909 289.386L720.909 305.841L726.379 305.841L726.379 285.371L780.893 245.358L780.893 233.336L810.577 233.336L810.577 289.603L748.873 289.603L748.873 305.841L754.343 305.841L754.343 294.091L816.047 294.091L816.047 233.336L853.372 233.336L853.372 257.429L832.427 272.802L832.427 305.841L837.898 305.841L837.898 274.807L853.372 263.45L853.372 305.841L858.843 305.841L858.843 259.434L891.731 235.294L891.731 195.367L961.409 195.367L961.409 190.879" id="path84" fill="#CC6424" fill-rule="evenodd" stroke="none" />
      <path d="M961.558 264.647L950.571 272.711L950.571 225.934L953.855 225.934L953.855 216.059L941.816 216.059L941.816 225.934L945.101 225.934L945.101 276.727L933 285.608L933 305.841L938.47 305.841L938.47 287.613L945.101 282.748L945.101 305.841L950.571 305.841L950.571 278.732L961.558 270.668L961.558 264.647" id="path86" fill="#CC6424" stroke="none" />
      <path d="M918.755 305.841L918.755 240.967L922.038 240.967L922.038 231.093L910 231.093L910 240.967L913.284 240.967L913.284 305.841L918.755 305.841" id="path88" fill="#CC6424" stroke="none" />
      <path d="M531.153 305.841L536.01 305.841L536.01 219.047L603.07 219.047L603.07 282.729L571.583 305.841L578.866 305.841L607.926 284.508L607.926 219.047L631.966 219.047L631.966 305.841L636.822 305.841L636.822 215.063L607.926 215.063L607.926 184.862L610.842 184.862L610.842 176.095L607.926 176.095L607.926 176.095L603.07 176.095L603.07 176.095L600.155 176.095L600.155 184.862L603.07 184.862L603.07 215.063L536.01 215.063L536.01 175.566L538.926 175.566L538.926 166.799L536.01 166.799L536.01 166.799L531.153 166.799L531.153 166.799L528.239 166.799L528.239 175.566L531.153 175.566L531.153 215.063L484.856 215.063L484.856 160.238L570.591 97.3072L570.591 66.5299L573.507 66.5299L573.507 57.7632L562.82 57.7632L562.82 66.5299L565.734 66.5299L565.734 95.5272L480 158.457L480 219.047L531.153 219.047L531.153 305.841" id="path90" fill="#062A7B" fill-opacity="0.4" stroke="none" />
      <path d="M715.916 168.537L750.743 194.098L750.743 305.841L755.599 305.841L755.599 192.318L720.772 166.755L720.772 121.121L723.687 121.121L723.687 112.354L720.772 112.354L720.772 112.354L715.916 112.354L715.916 112.354L713 112.354L713 121.121L715.916 121.121L715.916 168.537" id="path92" fill="#062A7B" fill-opacity="0.4" stroke="none" />
      <path d="M624.914 150.89L669.514 183.624L669.514 305.841L674.37 305.841L674.37 181.844L629.771 149.109L629.771 86.4485L632.687 86.4485L632.687 77.6819L622 77.6819L622 86.4485L624.915 86.4485L624.915 150.89" id="path94" fill="#062A7B" fill-opacity="0.4" stroke="none" />
      <path d="M819.915 177.859L838.01 177.859L838.01 225.072L819.915 238.355L819.915 177.859ZM758.914 156.547L787.951 177.859L815.058 177.859L815.058 241.919L764.74 278.853L764.74 305.841L769.597 305.841L769.597 280.632L815.058 247.265L815.058 279.487L850.964 305.841L858.247 305.841L819.915 277.706L819.915 243.701L838.01 230.419L838.01 264.914L892.283 264.914L892.283 305.841L897.14 305.841L897.14 260.93L842.867 260.93L842.867 226.854L905.681 180.748L905.681 94.7152L908.596 94.7152L908.596 85.9486L897.909 85.9486L897.909 94.7152L900.825 94.7152L900.825 178.967L842.867 221.508L842.867 173.875L819.915 173.875L819.915 134.399L822.831 134.399L822.831 125.633L819.915 125.633L819.915 125.633L815.058 125.633L815.058 125.633L812.144 125.633L812.144 134.399L815.058 134.399L815.058 173.875L789.807 173.875L763.771 154.766L763.771 86.4485L766.687 86.4485L766.687 77.6819L756 77.6819L756 86.4485L758.915 86.4485L758.915 156.547" id="path96" fill="#062A7B" fill-opacity="0.4" fill-rule="evenodd" stroke="none" />
      <path d="M947.497 283.455L917 305.841L924.283 305.841L952.353 285.235L952.353 201.975L955.269 201.975L955.269 193.208L952.353 193.208L952.353 193.208L947.497 193.208L947.497 193.208L944.582 193.208L944.582 201.975L947.497 201.975L947.497 283.455" id="path98" fill="#062A7B" fill-opacity="0.4" stroke="none" />
      <path d="M691.915 244.024L736.827 276.989L736.827 305.841L741.683 305.841L741.683 275.207L696.773 242.243L696.773 168.114L699.689 168.114L699.689 159.347L689 159.347L689 168.114L691.915 168.114L691.915 244.024" id="path100" fill="#062A7B" fill-opacity="0.4" stroke="none" />
      <path d="M411.915 220.566L436.692 238.753L436.692 305.841L441.549 305.841L441.549 242.317L461.094 256.663L461.094 305.841L465.95 305.841L465.95 254.882L441.549 236.971L441.549 209.942L444.463 209.942L444.463 201.175L433.776 201.175L433.776 209.942L436.692 209.942L436.692 233.407L416.771 218.784L416.771 142.367L419.687 142.367L419.687 133.601L416.771 133.601L416.771 133.601L411.915 133.601L411.915 133.601L409 133.601L409 142.367L411.915 142.367L411.915 220.566" id="path102" fill="#062A7B" fill-opacity="0.4" stroke="none" />
      <path d="M311.159 202.129L349.271 230.103L349.271 260.93L311.159 260.93L311.159 202.129ZM155.798 305.841L163.931 305.841L160.655 303.435L160.655 258.342L163.569 258.342L163.569 249.575L152.883 249.575L152.883 258.342L155.798 258.342L155.798 299.87L133.857 283.765L133.857 231.206L207.902 231.206L207.902 266.651L237.1 288.083L237.1 305.841L241.956 305.841L241.956 291.647L255.695 301.731L255.695 305.841L260.551 305.841L260.551 299.951L241.956 286.302L241.956 264.914L275.093 264.914L275.093 305.841L279.949 305.841L279.949 264.914L306.302 264.914L306.302 275.586L347.52 305.841L359.554 305.841L359.554 296.501L389.406 274.59L389.406 175.566L392.321 175.566L392.321 166.799L389.406 166.799L389.406 166.799L384.55 166.799L384.55 166.799L381.634 166.799L381.634 175.566L384.55 175.566L384.55 272.808L354.698 294.72L354.698 305.763L311.159 273.806L311.159 264.914L354.127 264.914L354.127 228.322L311.159 196.783L311.159 168.114L314.073 168.114L314.073 159.347L303.386 159.347L303.386 168.114L306.302 168.114L306.302 193.218L286.282 178.524L286.282 121.121L289.197 121.121L289.197 112.354L286.282 112.354L286.282 112.354L281.426 112.354L281.426 112.354L278.51 112.354L278.51 121.121L281.426 121.121L281.426 180.306L306.302 198.565L306.302 260.93L279.949 260.93L279.949 247.275L282.865 247.275L282.865 238.508L279.949 238.508L279.949 238.508L275.093 238.508L275.093 238.508L272.178 238.508L272.178 247.275L275.093 247.275L275.093 260.93L237.1 260.93L237.1 282.738L212.758 264.871L212.758 231.206L254.62 231.206L254.62 191.501L257.535 191.501L257.535 182.735L254.62 182.735L254.62 182.735L249.764 182.735L249.764 182.735L246.848 182.735L246.848 191.501L249.764 191.501L249.764 227.222L212.758 227.222L212.758 184.862L215.674 184.862L215.674 176.095L212.758 176.095L212.758 176.095L207.902 176.095L207.902 176.095L204.987 176.095L204.987 184.862L207.902 184.862L207.902 227.222L129 227.222L129 285.546L155.798 305.215L155.798 305.841" id="path104" fill="#062A7B" fill-opacity="0.4" fill-rule="evenodd" stroke="none" />
      <path d="M188.773 305.841L188.773 271.689L191.687 271.689L191.687 262.922L181 262.922L181 271.689L183.916 271.689L183.916 305.841L188.773 305.841" id="path106" fill="#062A7B" fill-opacity="0.4" stroke="none" />
      <path d="M24.9157 261.895L47.9404 278.795L47.9404 305.841L52.7966 305.841L52.7966 277.014L29.7723 260.113L29.7723 209.942L32.6866 209.942L32.6866 201.175L22.0001 201.175L22.0001 209.942L24.9157 209.942L24.9157 261.895" id="path108" fill="#062A7B" fill-opacity="0.4" stroke="none" />
      <path d="M23.915 305.841L28.7719 305.841L28.7719 304.378L31.6873 304.378L31.6873 295.611L28.7719 295.611L28.7719 295.611L23.915 295.611L23.915 295.611L21.0001 295.611L21.0001 304.378L23.915 304.378L23.915 305.841" id="path110" fill="#062A7B" fill-opacity="0.4" stroke="none" />
      <path d="M116.915 305.841L121.771 305.841L121.771 209.942L124.687 209.942L124.687 201.175L114 201.175L114 209.942L116.915 209.942L116.915 305.841" id="path112" fill="#062A7B" fill-opacity="0.4" stroke="none" />
      <path d="M74.915 227.505L102.579 247.81L102.579 305.841L107.436 305.841L107.436 246.029L79.7718 225.724L79.7718 191.501L82.6873 191.501L82.6873 182.735L79.7719 182.735L79.7719 182.735L74.915 182.735L74.915 182.735L72.0001 182.735L72.0001 191.501L74.915 191.501L74.915 227.505" id="path114" fill="#062A7B" fill-opacity="0.4" stroke="none" />
      <g id="Group" transform="translate(4.000061 262.8406)">
        <path d="M0 8.76667L2.91558 8.76667L2.91558 42.9187L7.77171 42.9187L7.77171 8.76667L10.6867 8.76667L10.6867 0L0 0L0 8.76667" id="path116" fill="#062A7B" fill-opacity="0.4" stroke="none" />
      </g>
      <path d="M11.6485 211.818L11.6485 211.818L6.79171 211.818L6.79171 211.818L3.87613 211.818L3.87613 220.585L6.79171 220.585L6.79171 238.51L6.10352e-05 243.495L6.10352e-05 248.841L11.6485 240.292L11.6485 220.585L14.5628 220.585L14.5628 211.818L11.6485 211.818" id="path118" fill="#062A7B" fill-opacity="0.4" stroke="none" />
    </g>
    <g id="Group" transform="matrix(-1 0 0 1 1923.7009 0)">
      <path d="M20.1787 172.079L0 186.889L0 192.91L25.6488 174.084L25.6488 108.76L28.9323 108.76L28.9323 98.8854L25.6488 98.8854L25.6488 98.8854L20.1787 98.8854L20.1787 98.8854L16.8946 98.8854L16.8946 108.76L20.1787 108.76L20.1787 172.079" id="path76" fill="#CC6424" stroke="none" />
      <path d="M0 277.907L0 283.928L29.8525 305.84L38.0551 305.84L0 277.907" id="path78" fill="#CC6424" stroke="none" />
      <path d="M181.667 135.277L202.049 135.277L202.049 203.419L181.667 188.459L181.667 135.277ZM53.1796 256.227L115.061 301.647L115.061 305.84L120.531 305.84L120.531 233.336L181.667 233.336L181.667 194.48L202.049 209.441L202.049 247.744L158.739 279.532L158.739 305.84L164.209 305.84L164.209 281.539L207.519 249.751L207.519 213.456L258.727 251.043L258.727 283.343L206.763 283.343L206.763 305.84L212.233 305.84L212.233 287.831L258.727 287.831L258.727 305.84L264.198 305.84L264.198 287.831L274.899 287.831L274.899 305.84L280.369 305.84L280.369 287.831L290.867 287.831L290.867 305.84L296.338 305.84L296.338 287.831L365.991 287.831L365.991 305.84L371.461 305.84L371.461 287.831L413.974 287.831L413.974 181.672L441.053 181.672L441.053 255.408L476.651 281.539L476.651 305.84L482.122 305.84L482.122 279.533L446.523 253.403L446.523 181.672L522.06 181.672L522.06 282.944L490.867 305.84L499.07 305.84L527.53 284.951L527.53 181.672L585.151 181.672L585.151 113.421L488.577 42.5374L488.577 9.87466L491.86 9.87466L491.86 0L479.823 0L479.823 9.87466L483.107 9.87466L483.107 44.5427L579.679 115.428L579.679 177.184L527.53 177.184L527.53 132.693L530.813 132.693L530.813 122.819L527.53 122.819L527.53 122.819L522.06 122.819L522.06 122.819L518.775 122.819L518.775 132.693L522.06 132.693L522.06 177.184L446.523 177.184L446.523 143.164L449.807 143.164L449.807 133.289L446.523 133.289L446.523 133.289L441.053 133.289L441.053 133.289L437.768 133.289L437.768 143.164L441.053 143.164L441.053 177.184L408.504 177.184L408.504 283.343L371.461 283.343L371.461 141.772L421.698 104.899L421.698 32.3107L424.981 32.3107L424.981 22.436L412.944 22.436L412.944 32.3107L416.228 32.3107L416.228 102.892L365.991 139.765L365.991 283.343L296.338 283.343L296.338 246.937L346.927 209.805L346.927 124.299L350.21 124.299L350.21 114.424L338.172 114.424L338.172 124.299L341.457 124.299L341.457 207.798L290.867 244.931L290.867 283.343L280.369 283.343L280.369 153.568L319.598 124.775L319.598 71.3653L322.883 71.3653L322.883 61.4907L319.598 61.4907L319.598 61.4907L314.128 61.4907L314.128 61.4907L310.845 61.4907L310.845 71.3653L314.128 71.3653L314.128 122.769L274.899 151.563L274.899 283.343L264.198 283.343L264.198 249.036L207.519 207.435L207.519 135.277L238.052 135.277L270.76 111.271L270.76 32.3107L274.043 32.3107L274.043 22.436L262.005 22.436L262.005 32.3107L265.288 32.3107L265.288 109.264L235.961 130.789L207.519 130.789L207.519 86.3227L210.802 86.3227L210.802 76.448L207.519 76.448L207.519 76.448L202.049 76.448L202.049 76.448L198.765 76.448L198.765 86.3227L202.049 86.3227L202.049 130.789L176.195 130.789L176.195 184.444L110.912 136.525L110.912 41.6227L114.196 41.6227L114.196 31.748L102.157 31.748L102.157 41.6227L105.442 41.6227L105.442 138.531L176.195 190.465L176.195 228.849L115.061 228.849L115.061 295.627L58.6505 254.221L58.6505 162.44L61.9339 162.44L61.9339 152.565L58.6505 152.565L58.6505 152.565L53.1796 152.565L53.1796 152.565L49.8954 152.565L49.8954 162.44L53.1796 162.44L53.1796 256.227" id="path80" fill="#CC6424" fill-rule="evenodd" stroke="none" />
      <path d="M577.708 305.84L606.581 284.647L606.581 224.041L628.596 207.883L628.596 297.486L617.216 305.84L625.42 305.84L634.068 299.492L634.068 203.867L661.977 183.381L661.977 95.2987L665.261 95.2987L665.261 85.424L661.977 85.424L661.977 85.424L656.506 85.424L656.506 85.424L653.222 85.424L653.222 95.2987L656.506 95.2987L656.506 181.376L634.068 197.845L634.068 171.415L637.351 171.415L637.351 161.54L625.313 161.54L625.313 171.415L628.596 171.415L628.596 201.861L601.111 222.035L601.111 282.64L569.504 305.84L577.708 305.84" id="path82" fill="#CC6424" stroke="none" />
      <path d="M775.715 228.849L732.785 228.849L732.785 194.125L775.715 162.615L775.715 228.849ZM961.701 190.879L892.024 190.879L892.024 143.164L895.306 143.164L895.306 133.289L892.024 133.289L892.024 133.289L886.553 133.289L886.553 133.289L883.269 133.289L883.269 143.164L886.553 143.164L886.553 190.879L844.869 190.879L844.869 150.644L848.153 150.644L848.153 140.769L844.869 140.769L844.869 140.769L839.398 140.769L839.398 140.769L836.116 140.769L836.116 150.644L839.398 150.644L839.398 195.367L886.553 195.367L886.553 233.288L859.136 253.412L859.136 228.85L816.34 228.85L816.34 213.468L819.622 213.468L819.622 203.593L816.34 203.593L816.34 203.593L810.869 203.593L810.869 203.593L807.585 203.593L807.585 213.468L810.869 213.468L810.869 228.85L781.185 228.85L781.185 158.599L809.205 138.032L809.205 71.3654L812.491 71.3654L812.491 61.4907L809.205 61.4907L809.205 61.4907L803.735 61.4907L803.735 61.4907L800.452 61.4907L800.452 71.3654L803.735 71.3654L803.735 136.025L781.185 152.577L781.185 124.299L784.47 124.299L784.47 114.424L772.432 114.424L772.432 124.299L775.715 124.299L775.715 156.592L727.315 192.119L727.315 233.336L775.715 233.336L775.715 243.351L726.672 279.349L726.672 266.91L693.045 242.229L693.045 132.693L696.33 132.693L696.33 122.819L693.045 122.819L693.045 122.819L687.575 122.819L687.575 122.819L684.292 122.819L684.292 132.693L687.575 132.693L687.575 244.234L721.201 268.916L721.201 283.364L690.58 305.84L698.784 305.84L721.201 289.385L721.201 305.84L726.671 305.84L726.671 285.371L781.185 245.357L781.185 233.336L810.869 233.336L810.869 289.603L749.165 289.603L749.165 305.84L754.635 305.84L754.635 294.091L816.34 294.091L816.34 233.336L853.664 233.336L853.664 257.428L832.72 272.801L832.72 305.84L838.19 305.84L838.19 274.807L853.664 263.449L853.664 305.84L859.136 305.84L859.136 259.433L892.023 235.293L892.023 195.367L961.701 195.367L961.701 190.879" id="path84" fill="#CC6424" fill-rule="evenodd" stroke="none" />
      <path d="M961.701 264.647L950.714 272.711L950.714 225.933L953.998 225.933L953.998 216.059L941.959 216.059L941.959 225.933L945.243 225.933L945.243 276.727L933.143 285.608L933.143 305.84L938.613 305.84L938.613 287.613L945.243 282.748L945.243 305.84L950.714 305.84L950.714 278.732L961.701 270.668L961.701 264.647" id="path86" fill="#CC6424" stroke="none" />
      <path d="M918.475 305.84L918.475 240.967L921.758 240.967L921.758 231.092L909.72 231.092L909.72 240.967L913.005 240.967L913.005 305.84L918.475 305.84" id="path88" fill="#CC6424" stroke="none" />
      <path d="M531.367 305.84L536.223 305.84L536.223 219.047L603.283 219.047L603.283 282.728L571.796 305.84L579.079 305.84L608.14 284.508L608.14 219.047L632.179 219.047L632.179 305.84L637.036 305.84L637.036 215.062L608.14 215.062L608.14 184.861L611.056 184.861L611.056 176.095L608.14 176.095L608.14 176.095L603.283 176.095L603.283 176.095L600.369 176.095L600.369 184.861L603.283 184.861L603.283 215.062L536.223 215.062L536.223 175.565L539.139 175.565L539.139 166.799L536.223 166.799L536.223 166.799L531.367 166.799L531.367 166.799L528.453 166.799L528.453 175.565L531.367 175.565L531.367 215.062L485.07 215.062L485.07 160.237L570.804 97.3067L570.804 66.5294L573.72 66.5294L573.72 57.7627L563.033 57.7627L563.033 66.5294L565.948 66.5294L565.948 95.5267L480.214 158.456L480.214 219.047L531.367 219.047L531.367 305.84" id="path90" fill="#062A7B" fill-opacity="0.4" stroke="none" />
      <path d="M715.964 168.536L750.79 194.097L750.79 305.84L755.646 305.84L755.646 192.317L720.82 166.755L720.82 121.12L723.734 121.12L723.734 112.353L720.82 112.353L720.82 112.353L715.964 112.353L715.964 112.353L713.048 112.353L713.048 121.12L715.964 121.12L715.964 168.536" id="path92" fill="#062A7B" fill-opacity="0.4" stroke="none" />
      <path d="M625.323 150.889L669.922 183.624L669.922 305.84L674.778 305.84L674.778 181.844L630.179 149.108L630.179 86.448L633.095 86.448L633.095 77.6813L622.408 77.6813L622.408 86.448L625.323 86.448L625.323 150.889" id="path94" fill="#062A7B" fill-opacity="0.4" stroke="none" />
      <path d="M820.322 177.859L838.418 177.859L838.418 225.072L820.322 238.355L820.322 177.859ZM759.322 156.547L788.358 177.859L815.466 177.859L815.466 241.919L765.148 278.852L765.148 305.84L770.004 305.84L770.004 280.632L815.466 247.264L815.466 279.486L851.371 305.84L858.654 305.84L820.322 277.705L820.322 243.7L838.418 230.419L838.418 264.913L892.691 264.913L892.691 305.84L897.547 305.84L897.547 260.929L843.274 260.929L843.274 226.853L906.089 180.748L906.089 94.7147L909.003 94.7147L909.003 85.948L898.316 85.948L898.316 94.7147L901.232 94.7147L901.232 178.967L843.274 221.508L843.274 173.874L820.322 173.874L820.322 134.399L823.238 134.399L823.238 125.632L820.322 125.632L820.322 125.632L815.466 125.632L815.466 125.632L812.551 125.632L812.551 134.399L815.466 134.399L815.466 173.874L790.215 173.874L764.178 154.765L764.178 86.448L767.094 86.448L767.094 77.6813L756.407 77.6813L756.407 86.448L759.322 86.448L759.322 156.547" id="path96" fill="#062A7B" fill-opacity="0.4" fill-rule="evenodd" stroke="none" />
      <path d="M947.628 283.455L917.131 305.84L924.414 305.84L952.484 285.234L952.484 201.974L955.4 201.974L955.4 193.208L952.484 193.208L952.484 193.208L947.628 193.208L947.628 193.208L944.713 193.208L944.713 201.974L947.628 201.974L947.628 283.455" id="path98" fill="#062A7B" fill-opacity="0.4" stroke="none" />
      <path d="M691.701 244.024L736.614 276.988L736.614 305.84L741.47 305.84L741.47 275.207L696.559 242.243L696.559 168.113L699.475 168.113L699.475 159.347L688.787 159.347L688.787 168.113L691.701 168.113L691.701 244.024" id="path100" fill="#062A7B" fill-opacity="0.4" stroke="none" />
      <path d="M412.008 220.565L436.786 238.752L436.786 305.84L441.642 305.84L441.642 242.316L461.187 256.662L461.187 305.84L466.044 305.84L466.044 254.881L441.642 236.971L441.642 209.941L444.557 209.941L444.557 201.174L433.87 201.174L433.87 209.941L436.786 209.941L436.786 233.407L416.865 218.784L416.865 142.367L419.781 142.367L419.781 133.6L416.865 133.6L416.865 133.6L412.008 133.6L412.008 133.6L409.094 133.6L409.094 142.367L412.008 142.367L412.008 220.565" id="path102" fill="#062A7B" fill-opacity="0.4" stroke="none" />
      <path d="M311.034 202.128L349.147 230.103L349.147 260.929L311.034 260.929L311.034 202.128ZM155.674 305.84L163.807 305.84L160.531 303.435L160.531 258.341L163.445 258.341L163.445 249.574L152.759 249.574L152.759 258.341L155.674 258.341L155.674 299.869L133.733 283.764L133.733 231.205L207.778 231.205L207.778 266.651L236.976 288.083L236.976 305.84L241.832 305.84L241.832 291.647L255.571 301.731L255.571 305.84L260.427 305.84L260.427 299.95L241.832 286.301L241.832 264.913L274.969 264.913L274.969 305.84L279.825 305.84L279.825 264.913L306.178 264.913L306.178 275.585L347.396 305.84L359.43 305.84L359.43 296.5L389.282 274.59L389.282 175.565L392.197 175.565L392.197 166.799L389.282 166.799L389.282 166.799L384.426 166.799L384.426 166.799L381.51 166.799L381.51 175.565L384.426 175.565L384.426 272.808L354.574 294.72L354.574 305.762L311.034 273.805L311.034 264.913L354.003 264.913L354.003 228.321L311.034 196.783L311.034 168.113L313.949 168.113L313.949 159.347L303.262 159.347L303.262 168.113L306.178 168.113L306.178 193.217L286.158 178.524L286.158 121.12L289.073 121.12L289.073 112.353L286.158 112.353L286.158 112.353L281.302 112.353L281.302 112.353L278.386 112.353L278.386 121.12L281.302 121.12L281.302 180.305L306.178 198.564L306.178 260.929L279.825 260.929L279.825 247.274L282.741 247.274L282.741 238.508L279.825 238.508L279.825 238.508L274.969 238.508L274.969 238.508L272.054 238.508L272.054 247.274L274.969 247.274L274.969 260.929L236.976 260.929L236.976 282.737L212.634 264.871L212.634 231.205L254.496 231.205L254.496 191.501L257.411 191.501L257.411 182.735L254.496 182.735L254.496 182.735L249.64 182.735L249.64 182.735L246.724 182.735L246.724 191.501L249.64 191.501L249.64 227.221L212.634 227.221L212.634 184.861L215.55 184.861L215.55 176.095L212.634 176.095L212.634 176.095L207.778 176.095L207.778 176.095L204.863 176.095L204.863 184.861L207.778 184.861L207.778 227.221L128.876 227.221L128.876 285.545L155.674 305.215L155.674 305.84" id="path104" fill="#062A7B" fill-opacity="0.4" fill-rule="evenodd" stroke="none" />
      <path d="M189.152 305.84L189.152 271.688L192.066 271.688L192.066 262.921L181.38 262.921L181.38 271.688L184.296 271.688L184.296 305.84L189.152 305.84" id="path106" fill="#062A7B" fill-opacity="0.4" stroke="none" />
      <path d="M25.3088 261.895L48.3335 278.795L48.3335 305.84L53.1897 305.84L53.1897 277.013L30.1655 260.113L30.1655 209.941L33.0798 209.941L33.0798 201.174L22.3932 201.174L22.3932 209.941L25.3088 209.941L25.3088 261.895" id="path108" fill="#062A7B" fill-opacity="0.4" stroke="none" />
      <path d="M23.9462 305.84L28.803 305.84L28.803 304.378L31.7185 304.378L31.7185 295.61L28.803 295.61L28.803 295.61L23.9462 295.61L23.9462 295.61L21.0312 295.61L21.0312 304.378L23.9462 304.378L23.9462 305.84" id="path110" fill="#062A7B" fill-opacity="0.4" stroke="none" />
      <path d="M116.526 305.84L121.382 305.84L121.382 209.941L124.299 209.941L124.299 201.174L113.612 201.174L113.612 209.941L116.526 209.941L116.526 305.84" id="path112" fill="#062A7B" fill-opacity="0.4" stroke="none" />
      <path d="M74.9782 227.504L102.642 247.809L102.642 305.84L107.5 305.84L107.5 246.028L79.8351 225.724L79.8351 191.501L82.7505 191.501L82.7505 182.735L79.8351 182.735L79.8351 182.735L74.9782 182.735L74.9782 182.735L72.0633 182.735L72.0633 191.501L74.9782 191.501L74.9782 227.504" id="path114" fill="#062A7B" fill-opacity="0.4" stroke="none" />
      <g id="Group" transform="translate(4.1783447 262.92133)">
        <path d="M0 8.76667L2.91558 8.76667L2.91558 42.9187L7.77171 42.9187L7.77171 8.76667L10.6867 8.76667L10.6867 0L0 0L0 8.76667" id="path116" fill="#062A7B" fill-opacity="0.4" stroke="none" />
      </g>
      <path d="M11.6484 211.507L11.6484 211.507L6.79164 211.507L6.79164 211.507L3.87607 211.507L3.87607 220.273L6.79164 220.273L6.79164 238.198L0 243.184L0 248.529L11.6484 239.98L11.6484 220.273L14.5627 220.273L14.5627 211.507L11.6484 211.507" id="path118" fill="#062A7B" fill-opacity="0.4" stroke="none" />
      <path d="M20.1788 172.009L6.10352e-05 186.819L6.10352e-05 192.841L25.6489 174.014L25.6489 108.69L28.9323 108.69L28.9323 98.8156L25.6489 98.8156L25.6489 98.8156L20.1788 98.8156L20.1788 98.8156L16.8947 98.8156L16.8947 108.69L20.1788 108.69L20.1788 172.009" id="path76" fill="#CC6424" stroke="none" />
      <path d="M6.10352e-05 277.907L6.10352e-05 283.929L29.8525 305.841L38.0552 305.841L6.10352e-05 277.907" id="path78" fill="#CC6424" stroke="none" />
      <path d="M181.772 135.278L202.154 135.278L202.154 203.419L181.772 188.459L181.772 135.278ZM53.2842 256.227L115.166 301.647L115.166 305.841L120.636 305.841L120.636 233.336L181.772 233.336L181.772 194.481L202.154 209.442L202.154 247.744L158.844 279.532L158.844 305.841L164.314 305.841L164.314 281.539L207.624 249.751L207.624 213.456L258.832 251.043L258.832 283.343L206.868 283.343L206.868 305.841L212.338 305.841L212.338 287.831L258.832 287.831L258.832 305.841L264.302 305.841L264.302 287.831L275.004 287.831L275.004 305.841L280.474 305.841L280.474 287.831L290.972 287.831L290.972 305.841L296.442 305.841L296.442 287.831L366.095 287.831L366.095 305.841L371.566 305.841L371.566 287.831L414.079 287.831L414.079 181.672L441.157 181.672L441.157 255.408L476.756 281.539L476.756 305.841L482.226 305.841L482.226 279.534L446.628 253.403L446.628 181.672L522.164 181.672L522.164 282.944L490.971 305.841L499.175 305.841L527.635 284.951L527.635 181.672L585.255 181.672L585.255 113.422L488.682 42.5379L488.682 9.87521L491.965 9.87521L491.965 0.000549316L479.927 0.000549316L479.927 9.87521L483.212 9.87521L483.212 44.5432L579.783 115.429L579.783 177.184L527.635 177.184L527.635 132.694L530.918 132.694L530.918 122.819L527.635 122.819L527.635 122.819L522.164 122.819L522.164 122.819L518.88 122.819L518.88 132.694L522.164 132.694L522.164 177.184L446.628 177.184L446.628 143.165L449.912 143.165L449.912 133.29L446.628 133.29L446.628 133.29L441.157 133.29L441.157 133.29L437.873 133.29L437.873 143.165L441.157 143.165L441.157 177.184L408.609 177.184L408.609 283.343L371.566 283.343L371.566 141.773L421.803 104.899L421.803 32.3112L425.086 32.3112L425.086 22.4366L413.048 22.4366L413.048 32.3112L416.333 32.3112L416.333 102.893L366.095 139.766L366.095 283.343L296.442 283.343L296.442 246.938L347.032 209.806L347.032 124.299L350.315 124.299L350.315 114.425L338.277 114.425L338.277 124.299L341.561 124.299L341.561 207.799L290.972 244.931L290.972 283.343L280.474 283.343L280.474 153.569L319.703 124.775L319.703 71.3659L322.987 71.3659L322.987 61.4912L319.703 61.4912L319.703 61.4912L314.233 61.4912L314.233 61.4912L310.95 61.4912L310.95 71.3659L314.233 71.3659L314.233 122.77L275.004 151.563L275.004 283.343L264.302 283.343L264.302 249.036L207.624 207.435L207.624 135.278L238.156 135.278L270.865 111.271L270.865 32.3112L274.148 32.3112L274.148 22.4366L262.11 22.4366L262.11 32.3112L265.393 32.3112L265.393 109.265L236.066 130.79L207.624 130.79L207.624 86.3232L210.907 86.3232L210.907 76.4486L207.624 76.4486L207.624 76.4486L202.154 76.4486L202.154 76.4486L198.869 76.4486L198.869 86.3232L202.154 86.3232L202.154 130.79L176.3 130.79L176.3 184.444L111.016 136.526L111.016 41.6232L114.3 41.6232L114.3 31.7486L102.262 31.7486L102.262 41.6233L105.546 41.6233L105.546 138.531L176.3 190.466L176.3 228.85L115.166 228.85L115.166 295.627L58.7551 254.222L58.7551 162.441L62.0385 162.441L62.0385 152.566L58.7551 152.566L58.7551 152.566L53.2842 152.566L53.2842 152.566L50.0001 152.566L50.0001 162.441L53.2842 162.441L53.2842 256.227" id="path80" fill="#CC6424" fill-rule="evenodd" stroke="none" />
      <path d="M578.204 305.841L607.077 284.647L607.077 224.042L629.092 207.883L629.092 297.487L617.712 305.841L625.916 305.841L634.564 299.493L634.564 203.867L662.473 183.382L662.473 95.2992L665.757 95.2992L665.757 85.4245L662.473 85.4245L662.473 85.4245L657.003 85.4245L657.003 85.4245L653.718 85.4245L653.718 95.2992L657.003 95.2992L657.003 181.377L634.564 197.846L634.564 171.415L637.847 171.415L637.847 161.541L625.809 161.541L625.809 171.415L629.092 171.415L629.092 201.862L601.607 222.035L601.607 282.641L570 305.841L578.204 305.841" id="path82" fill="#CC6424" stroke="none" />
      <path d="M775.423 228.85L732.493 228.85L732.493 194.126L775.423 162.615L775.423 228.85ZM961.409 190.879L891.731 190.879L891.731 143.165L895.014 143.165L895.014 133.29L891.731 133.29L891.731 133.29L886.261 133.29L886.261 133.29L882.977 133.29L882.977 143.165L886.261 143.165L886.261 190.879L844.577 190.879L844.577 150.645L847.861 150.645L847.861 140.77L844.577 140.77L844.577 140.77L839.106 140.77L839.106 140.77L835.823 140.77L835.823 150.645L839.106 150.645L839.106 195.367L886.261 195.367L886.261 233.289L858.844 253.413L858.844 228.85L816.047 228.85L816.047 213.469L819.33 213.469L819.33 203.594L816.047 203.594L816.047 203.594L810.577 203.594L810.577 203.594L807.293 203.594L807.293 213.469L810.577 213.469L810.577 228.85L780.893 228.85L780.893 158.599L808.913 138.033L808.913 71.3659L812.199 71.3659L812.199 61.4913L808.913 61.4913L808.913 61.4913L803.443 61.4913L803.443 61.4913L800.16 61.4913L800.16 71.366L803.443 71.366L803.443 136.026L780.893 152.578L780.893 124.299L784.177 124.299L784.177 114.425L772.14 114.425L772.14 124.299L775.423 124.299L775.423 156.593L727.022 192.119L727.022 233.336L775.423 233.336L775.423 243.351L726.379 279.35L726.379 266.911L692.753 242.23L692.753 132.694L696.038 132.694L696.038 122.819L692.753 122.819L692.753 122.819L687.283 122.819L687.283 122.819L684 122.819L684 132.694L687.283 132.694L687.283 244.235L720.909 268.917L720.909 283.365L690.288 305.841L698.491 305.841L720.909 289.386L720.909 305.841L726.379 305.841L726.379 285.371L780.893 245.358L780.893 233.336L810.577 233.336L810.577 289.603L748.873 289.603L748.873 305.841L754.343 305.841L754.343 294.091L816.047 294.091L816.047 233.336L853.372 233.336L853.372 257.429L832.427 272.802L832.427 305.841L837.898 305.841L837.898 274.807L853.372 263.45L853.372 305.841L858.843 305.841L858.843 259.434L891.731 235.294L891.731 195.367L961.409 195.367L961.409 190.879" id="path84" fill="#CC6424" fill-rule="evenodd" stroke="none" />
      <path d="M961.558 264.647L950.571 272.711L950.571 225.934L953.855 225.934L953.855 216.059L941.816 216.059L941.816 225.934L945.101 225.934L945.101 276.727L933 285.608L933 305.841L938.47 305.841L938.47 287.613L945.101 282.748L945.101 305.841L950.571 305.841L950.571 278.732L961.558 270.668L961.558 264.647" id="path86" fill="#CC6424" stroke="none" />
      <path d="M918.755 305.841L918.755 240.967L922.038 240.967L922.038 231.093L910 231.093L910 240.967L913.284 240.967L913.284 305.841L918.755 305.841" id="path88" fill="#CC6424" stroke="none" />
      <path d="M531.153 305.841L536.01 305.841L536.01 219.047L603.07 219.047L603.07 282.729L571.583 305.841L578.866 305.841L607.926 284.508L607.926 219.047L631.966 219.047L631.966 305.841L636.822 305.841L636.822 215.063L607.926 215.063L607.926 184.862L610.842 184.862L610.842 176.095L607.926 176.095L607.926 176.095L603.07 176.095L603.07 176.095L600.155 176.095L600.155 184.862L603.07 184.862L603.07 215.063L536.01 215.063L536.01 175.566L538.926 175.566L538.926 166.799L536.01 166.799L536.01 166.799L531.153 166.799L531.153 166.799L528.239 166.799L528.239 175.566L531.153 175.566L531.153 215.063L484.856 215.063L484.856 160.238L570.591 97.3072L570.591 66.5299L573.507 66.5299L573.507 57.7632L562.82 57.7632L562.82 66.5299L565.734 66.5299L565.734 95.5272L480 158.457L480 219.047L531.153 219.047L531.153 305.841" id="path90" fill="#062A7B" fill-opacity="0.4" stroke="none" />
      <path d="M715.916 168.537L750.743 194.098L750.743 305.841L755.599 305.841L755.599 192.318L720.772 166.755L720.772 121.121L723.687 121.121L723.687 112.354L720.772 112.354L720.772 112.354L715.916 112.354L715.916 112.354L713 112.354L713 121.121L715.916 121.121L715.916 168.537" id="path92" fill="#062A7B" fill-opacity="0.4" stroke="none" />
      <path d="M624.914 150.89L669.514 183.624L669.514 305.841L674.37 305.841L674.37 181.844L629.771 149.109L629.771 86.4485L632.687 86.4485L632.687 77.6819L622 77.6819L622 86.4485L624.915 86.4485L624.915 150.89" id="path94" fill="#062A7B" fill-opacity="0.4" stroke="none" />
      <path d="M819.915 177.859L838.01 177.859L838.01 225.072L819.915 238.355L819.915 177.859ZM758.914 156.547L787.951 177.859L815.058 177.859L815.058 241.919L764.74 278.853L764.74 305.841L769.597 305.841L769.597 280.632L815.058 247.265L815.058 279.487L850.964 305.841L858.247 305.841L819.915 277.706L819.915 243.701L838.01 230.419L838.01 264.914L892.283 264.914L892.283 305.841L897.14 305.841L897.14 260.93L842.867 260.93L842.867 226.854L905.681 180.748L905.681 94.7152L908.596 94.7152L908.596 85.9486L897.909 85.9486L897.909 94.7152L900.825 94.7152L900.825 178.967L842.867 221.508L842.867 173.875L819.915 173.875L819.915 134.399L822.831 134.399L822.831 125.633L819.915 125.633L819.915 125.633L815.058 125.633L815.058 125.633L812.144 125.633L812.144 134.399L815.058 134.399L815.058 173.875L789.807 173.875L763.771 154.766L763.771 86.4485L766.687 86.4485L766.687 77.6819L756 77.6819L756 86.4485L758.915 86.4485L758.915 156.547" id="path96" fill="#062A7B" fill-opacity="0.4" fill-rule="evenodd" stroke="none" />
      <path d="M947.497 283.455L917 305.841L924.283 305.841L952.353 285.235L952.353 201.975L955.269 201.975L955.269 193.208L952.353 193.208L952.353 193.208L947.497 193.208L947.497 193.208L944.582 193.208L944.582 201.975L947.497 201.975L947.497 283.455" id="path98" fill="#062A7B" fill-opacity="0.4" stroke="none" />
      <path d="M691.915 244.024L736.827 276.989L736.827 305.841L741.683 305.841L741.683 275.207L696.773 242.243L696.773 168.114L699.689 168.114L699.689 159.347L689 159.347L689 168.114L691.915 168.114L691.915 244.024" id="path100" fill="#062A7B" fill-opacity="0.4" stroke="none" />
      <path d="M411.915 220.566L436.692 238.753L436.692 305.841L441.549 305.841L441.549 242.317L461.094 256.663L461.094 305.841L465.95 305.841L465.95 254.882L441.549 236.971L441.549 209.942L444.463 209.942L444.463 201.175L433.776 201.175L433.776 209.942L436.692 209.942L436.692 233.407L416.771 218.784L416.771 142.367L419.687 142.367L419.687 133.601L416.771 133.601L416.771 133.601L411.915 133.601L411.915 133.601L409 133.601L409 142.367L411.915 142.367L411.915 220.566" id="path102" fill="#062A7B" fill-opacity="0.4" stroke="none" />
      <path d="M311.159 202.129L349.271 230.103L349.271 260.93L311.159 260.93L311.159 202.129ZM155.798 305.841L163.931 305.841L160.655 303.435L160.655 258.342L163.569 258.342L163.569 249.575L152.883 249.575L152.883 258.342L155.798 258.342L155.798 299.87L133.857 283.765L133.857 231.206L207.902 231.206L207.902 266.651L237.1 288.083L237.1 305.841L241.956 305.841L241.956 291.647L255.695 301.731L255.695 305.841L260.551 305.841L260.551 299.951L241.956 286.302L241.956 264.914L275.093 264.914L275.093 305.841L279.949 305.841L279.949 264.914L306.302 264.914L306.302 275.586L347.52 305.841L359.554 305.841L359.554 296.501L389.406 274.59L389.406 175.566L392.321 175.566L392.321 166.799L389.406 166.799L389.406 166.799L384.55 166.799L384.55 166.799L381.634 166.799L381.634 175.566L384.55 175.566L384.55 272.808L354.698 294.72L354.698 305.763L311.159 273.806L311.159 264.914L354.127 264.914L354.127 228.322L311.159 196.783L311.159 168.114L314.073 168.114L314.073 159.347L303.386 159.347L303.386 168.114L306.302 168.114L306.302 193.218L286.282 178.524L286.282 121.121L289.197 121.121L289.197 112.354L286.282 112.354L286.282 112.354L281.426 112.354L281.426 112.354L278.51 112.354L278.51 121.121L281.426 121.121L281.426 180.306L306.302 198.565L306.302 260.93L279.949 260.93L279.949 247.275L282.865 247.275L282.865 238.508L279.949 238.508L279.949 238.508L275.093 238.508L275.093 238.508L272.178 238.508L272.178 247.275L275.093 247.275L275.093 260.93L237.1 260.93L237.1 282.738L212.758 264.871L212.758 231.206L254.62 231.206L254.62 191.501L257.535 191.501L257.535 182.735L254.62 182.735L254.62 182.735L249.764 182.735L249.764 182.735L246.848 182.735L246.848 191.501L249.764 191.501L249.764 227.222L212.758 227.222L212.758 184.862L215.674 184.862L215.674 176.095L212.758 176.095L212.758 176.095L207.902 176.095L207.902 176.095L204.987 176.095L204.987 184.862L207.902 184.862L207.902 227.222L129 227.222L129 285.546L155.798 305.215L155.798 305.841" id="path104" fill="#062A7B" fill-opacity="0.4" fill-rule="evenodd" stroke="none" />
      <path d="M188.773 305.841L188.773 271.689L191.687 271.689L191.687 262.922L181 262.922L181 271.689L183.916 271.689L183.916 305.841L188.773 305.841" id="path106" fill="#062A7B" fill-opacity="0.4" stroke="none" />
      <path d="M24.9157 261.895L47.9404 278.795L47.9404 305.841L52.7966 305.841L52.7966 277.014L29.7723 260.113L29.7723 209.942L32.6866 209.942L32.6866 201.175L22.0001 201.175L22.0001 209.942L24.9157 209.942L24.9157 261.895" id="path108" fill="#062A7B" fill-opacity="0.4" stroke="none" />
      <path d="M23.915 305.841L28.7719 305.841L28.7719 304.378L31.6873 304.378L31.6873 295.611L28.7719 295.611L28.7719 295.611L23.915 295.611L23.915 295.611L21.0001 295.611L21.0001 304.378L23.915 304.378L23.915 305.841" id="path110" fill="#062A7B" fill-opacity="0.4" stroke="none" />
      <path d="M116.915 305.841L121.771 305.841L121.771 209.942L124.687 209.942L124.687 201.175L114 201.175L114 209.942L116.915 209.942L116.915 305.841" id="path112" fill="#062A7B" fill-opacity="0.4" stroke="none" />
      <path d="M74.915 227.505L102.579 247.81L102.579 305.841L107.436 305.841L107.436 246.029L79.7718 225.724L79.7718 191.501L82.6873 191.501L82.6873 182.735L79.7719 182.735L79.7719 182.735L74.915 182.735L74.915 182.735L72.0001 182.735L72.0001 191.501L74.915 191.501L74.915 227.505" id="path114" fill="#062A7B" fill-opacity="0.4" stroke="none" />
      <g id="Group" transform="translate(4.000061 262.8406)">
        <path d="M0 8.76667L2.91558 8.76667L2.91558 42.9187L7.77171 42.9187L7.77171 8.76667L10.6867 8.76667L10.6867 0L0 0L0 8.76667" id="path116" fill="#062A7B" fill-opacity="0.4" stroke="none" />
      </g>
      <path d="M11.6485 211.818L11.6485 211.818L6.79171 211.818L6.79171 211.818L3.87613 211.818L3.87613 220.585L6.79171 220.585L6.79171 238.51L6.10352e-05 243.495L6.10352e-05 248.841L11.6485 240.292L11.6485 220.585L14.5628 220.585L14.5628 211.818L11.6485 211.818" id="path118" fill="#062A7B" fill-opacity="0.4" stroke="none" />
    </g>
  </g>
</svg>
