<?xml version="1.0" encoding="utf-8"?>
<svg width="512" height="500" viewBox="0 0 512 500" fill="none" stroke="none" version="1.1" xmlns:xlink="http://www.w3.org/1999/xlink" xmlns="http://www.w3.org/2000/svg">
  <g id="Group" transform="translate(6 0)">
    <rect id="Rectangle" width="500" height="500" style="fill:#D3D3D3;fill-rule:evenodd;fill-opacity:0;mix-blend-mode:normal;" />
    <g id="Group" transform="translate(0 89)">
      <g id="Group#1">
        <path id="Shape" d="M275.156 1.59421C275.42 2.52421 276.483 10.2297 277.679 18.5994C279.805 35.6046 278.742 74.265 275.82 81.7047C270.241 96.1858 266.386 114.918 264.527 136.307C261.87 167.129 259.744 172.576 243.138 192.636C243.138 192.636 232.775 204.859 232.775 204.859C232.775 204.859 234.37 245.645 234.37 245.645C235.167 267.965 236.494 288.291 237.293 290.816C237.956 293.34 240.082 297.724 241.942 300.514C245.131 305.296 245.662 305.563 252.039 305.563C257.885 305.563 259.214 306.093 262.667 309.814C267.318 314.996 267.715 319.512 263.597 321.638C260.144 323.498 232.244 322.568 228.523 320.442C225.203 318.582 215.636 290.417 207.135 257.735C203.149 242.059 199.563 228.906 199.163 228.507C198.5 227.843 195.975 230.633 185.744 243.786C179.501 251.757 179.501 251.757 178.704 264.51C178.04 275.007 177.375 278.327 174.187 284.172C170.467 290.816 164.488 297.192 157.58 301.71C154.392 303.836 154.657 303.836 164.356 303.17C174.32 302.64 174.32 302.64 177.907 306.892C181.759 311.408 182.557 315.926 179.899 318.582C178.704 319.778 164.621 320.176 125.031 320.176C76.1409 320.176 70.8269 319.911 61.1285 317.519C46.2489 313.8 30.3064 305.563 20.741 296.661C7.05713 284.041 -1.71118 261.987 0.281597 245.115C2.93868 223.061 14.3641 204.859 33.2293 192.505C37.6134 189.582 41.4661 187.323 41.8647 187.323C42.3962 187.323 40.2704 192.505 37.082 198.881C22.4681 228.906 22.7338 259.462 37.7463 274.077C42.2633 278.327 50.7659 283.509 55.0172 284.572C56.2129 284.838 58.2057 280.055 61.2614 269.692C79.4623 207.252 115.2 156.634 160.901 128.469C175.781 119.302 192.255 103.891 198.1 93.9272C200.093 90.3402 204.743 78.1177 208.331 66.6924C214.442 47.1629 214.84 45.0373 215.239 29.2277C215.636 11.8239 217.762 0 220.685 0C223.21 0 231.448 9.964 236.363 18.8651C240.48 26.1721 240.746 26.305 247.124 26.8363C252.836 27.2349 253.899 26.8363 255.626 23.9136C267.849 4.11845 273.694 -2.65706 275.156 1.59421C275.156 1.59421 275.156 1.59421 275.156 1.59421C275.156 1.59421 275.156 1.59421 275.156 1.59421Z" style="fill:#002E82;mix-blend-mode:normal;" />
        <path id="Shape#1" d="M55.202 0.422035C55.6013 0.953331 56.6642 6.13461 57.461 11.8474C58.7902 20.0843 58.7902 23.2727 57.5941 27.6569C56.6642 30.5797 55.7344 38.418 55.6013 45.0607C55.6013 45.0607 55.3351 57.0175 55.3351 57.0175C55.3351 57.0175 60.3837 63.3944 60.3837 63.3944C65.5653 70.0376 69.0204 72.2948 81.1085 77.3433C92.5347 82.1275 102.366 88.6365 112.596 98.2012C130.398 114.676 141.691 136.198 149.13 168.082C152.585 182.698 167.065 191.732 184.867 190.536C204.398 189.073 216.089 176.983 216.089 158.118C215.955 147.624 212.502 138.323 205.062 129.156C200.279 123.178 200.279 123.178 203.069 119.325C205.991 115.075 209.58 115.739 215.558 121.717C225.256 131.415 230.171 144.302 230.304 160.777C230.437 173.796 227.515 182.298 220.207 190.536C208.383 203.689 186.33 208.604 161.619 203.689C137.839 198.771 131.328 199.304 125.349 206.212C125.349 206.212 122.56 209.401 122.56 209.401C122.56 209.401 90.9412 209.401 90.9412 209.401C68.0905 209.401 58.9232 209.001 57.7272 207.805C55.202 205.282 55.8675 201.563 59.4538 198.108C62.3765 195.052 63.7056 194.786 74.0689 194.786C80.3117 194.786 85.3602 194.388 85.3602 193.989C85.3602 193.591 83.1013 190.536 80.1786 187.081C77.389 183.627 73.2703 177.649 71.1444 173.796C71.1444 173.796 67.1588 166.888 67.1588 166.888C67.1588 166.888 58.9232 185.753 58.9232 185.753C54.4052 196.248 49.6229 205.813 48.5599 207.009C46.1696 209.798 32.4844 210.331 28.1013 208.072C23.3172 205.415 26.1085 196.647 32.3513 194.521C33.8135 193.989 34.2128 189.34 34.2128 171.404C34.2128 141.512 33.2812 137.793 21.5905 125.039C8.97006 111.09 6.3136 105.243 6.44489 91.8253C6.57797 85.98 7.11035 76.9459 7.64093 71.6311C8.5708 62.9959 8.3064 61.6675 5.51501 57.8146C3.12476 54.3605 2.19492 50.6405 1.26501 39.4808C-0.463379 20.4828 -0.463379 7.59612 1.52942 2.94614C2.99164 -0.507996 3.25784 -0.640907 6.04742 1.08625C7.64093 2.28193 11.8927 6.799 15.6121 11.1832C22.256 19.2871 22.256 19.2871 28.765 19.0215C35.1427 18.7558 35.6733 18.3573 41.2524 11.4488C47.3639 3.87617 54.1409 -1.43803 55.202 0.422035C55.202 0.422035 55.202 0.422035 55.202 0.422035C55.202 0.422035 55.202 0.422035 55.202 0.422035ZM49.6247 158.118L49.756 166.223C49.756 166.223 51.6157 158.252 51.6157 158.252C54.0078 147.358 54.0078 146.162 51.4844 148.288C50.0222 149.484 49.4916 152.273 49.6247 158.118C49.6247 158.118 49.6247 158.118 49.6247 158.118L49.6247 158.118Z" style="fill:#CB6120;fill-rule:evenodd;mix-blend-mode:normal;" transform="translate(269.691 113.156)" />
      </g>
    </g>
  </g>
</svg>