<?xml version="1.0" encoding="utf-8"?>
<svg width="1966px" height="1179.0001px" viewBox="0 0 1966 1179.0001" version="1.1" xmlns:xlink="http://www.w3.org/1999/xlink" xmlns="http://www.w3.org/2000/svg">
  <defs>
    <path d="M0 0L1054 0L1054 396L0 396L0 0Z" id="path_1" />
    <path d="M0 0L1737 0L1737 105L0 105L0 0Z" id="path_2" />
    <clipPath id="clip_1">
      <use xlink:href="#path_1" clip-rule="evenodd" fill-rule="evenodd" />
    </clipPath>
    <clipPath id="clip_2">
      <use xlink:href="#path_2" clip-rule="evenodd" fill-rule="evenodd" />
    </clipPath>
  </defs>
  <g id="Group-4">
    <g id="Group-2" transform="translate(995 0)">
      <path d="M500.736 210.005C500.095 212.276 499.235 214.547 498.124 216.728L407.569 393.969C403.198 402.542 395.704 409.096 386.62 412.267L214.642 472.391C201.317 477.063 186.531 473.81 176.377 464.037L24.2055 317.438C13.7509 307.324 10.0687 292.108 14.8215 278.353L78.3275 93.269C80.1281 87.9971 83.129 83.2444 86.9004 79.3432C91.5316 74.5904 97.4037 71.0704 103.998 69.3185L308.669 14.2476C321.735 10.7356 335.62 14.5476 345.093 24.1911L491.522 173.531C501.036 183.264 504.377 197.231 500.736 210.005" id="path236" fill="#FFFFFF" stroke="none" />
      <path d="M312.079 26.5528L107.391 81.6076C99.4998 83.7245 93.206 89.6127 90.5538 97.3341L27.0235 282.41C23.9334 291.388 26.3666 301.454 33.2038 308.048L185.334 454.647C192.05 461.111 201.677 463.212 210.469 460.146L382.422 400.03C388.416 397.938 393.298 393.671 396.186 388.026L486.724 210.761C491.526 201.345 489.782 189.957 482.385 182.406L335.981 33.074C329.784 26.7559 320.627 24.2578 312.079 26.5531M202.269 487.268C189.511 487.268 177.053 482.377 167.499 473.164L15.3606 326.564C1.35354 313.068 -3.61017 292.459 2.69994 274.056L66.2303 88.9884C71.6644 73.1646 84.5602 61.1204 100.717 56.7731L305.396 1.71826C322.907 -2.9859 341.65 2.13187 354.335 15.0683L500.748 164.409C515.89 179.859 519.459 203.186 509.621 222.448L419.082 399.722C413.177 411.279 403.177 420.014 390.914 424.297L218.953 484.421C213.478 486.327 207.841 487.268 202.269 487.268" id="path238" fill="#CB6120" fill-rule="evenodd" stroke="none" />
      <path d="M116.184 98.6727C180.542 161.489 241.088 227.802 300.709 295.031L293.636 293.482C321.934 281.51 350.427 269.977 378.976 258.614C407.623 247.397 436.31 236.334 465.386 226.228C438.07 240.414 410.323 253.667 382.504 266.789C354.628 279.734 326.687 292.524 298.551 304.877C296.037 305.964 293.198 305.258 291.471 303.32C276.385 286.693 261.259 270.107 246.433 253.253C201.711 202.813 157.759 151.83 116.184 98.6726" id="path240" fill="#CB6120" stroke="none" />
      <path d="M301.771 301.843L228.111 445.296L290.108 296.433C293.653 288.412 305.616 293.919 301.771 301.843" id="path242" fill="#CB6120" stroke="none" />
      <path d="M321.723 222.838C321.723 231.135 313.021 237.867 302.29 237.867C291.56 237.867 282.857 231.135 282.857 222.838C282.857 214.541 291.56 207.809 302.29 207.809C313.021 207.809 321.723 214.541 321.723 222.838" id="path244" fill="#CB6120" stroke="none" />
      <path d="M378.895 202.772C378.895 211.07 370.201 217.793 359.47 217.793C348.74 217.793 340.037 211.07 340.037 202.772C340.037 194.475 348.74 187.743 359.47 187.743C370.201 187.743 378.895 194.475 378.895 202.772" id="path246" fill="#CB6120" stroke="none" />
      <path d="M435.467 182.699C435.467 190.996 426.772 197.719 416.033 197.719C405.303 197.719 396.608 190.996 396.608 182.699C396.608 174.393 405.303 167.67 416.033 167.67C426.772 167.67 435.467 174.393 435.467 182.699" id="path248" fill="#CB6120" stroke="none" />
      <path d="M215.88 106.654C215.88 114.959 207.177 121.683 196.447 121.683C185.717 121.683 177.014 114.959 177.014 106.654C177.014 98.3564 185.717 91.6328 196.447 91.6328C207.177 91.6328 215.88 98.3565 215.88 106.654" id="path250" fill="#CB6120" stroke="none" />
      <path d="M273.06 86.5798C273.06 94.877 264.357 101.609 253.627 101.609C242.896 101.609 234.194 94.877 234.194 86.5798C234.194 78.2826 242.896 71.559 253.627 71.559C264.357 71.559 273.06 78.2827 273.06 86.5798" id="path252" fill="#CB6120" stroke="none" />
      <path d="M329.631 66.5062C329.631 74.8034 320.929 81.5351 310.198 81.5351C299.468 81.5351 290.765 74.8034 290.765 66.5062C290.765 58.209 299.468 51.4773 310.198 51.4773C320.929 51.4773 329.631 58.209 329.631 66.5062" id="path254" fill="#CB6120" stroke="none" />
      <path d="M234.056 304.082C234.056 320.263 223.463 333.369 210.397 333.369C197.339 333.369 186.747 320.263 186.747 304.082C186.747 287.909 197.339 274.795 210.397 274.795C223.463 274.795 234.056 287.909 234.056 304.082" id="path256" fill="#CB6120" stroke="none" />
      <path d="M93.5396 282.792C93.5396 298.972 82.9472 312.079 69.8809 312.079C56.8148 312.079 46.2304 298.972 46.2304 282.792C46.2304 266.619 56.8148 253.504 69.8809 253.504C82.9471 253.504 93.5396 266.619 93.5396 282.792" id="path258" fill="#CB6120" stroke="none" />
      <path d="M350.769 309.906C353.567 316.232 347.184 325.195 336.502 329.915C325.828 334.643 314.903 333.346 312.105 327.02C309.307 320.693 315.69 311.739 326.364 307.011C337.046 302.282 347.971 303.58 350.769 309.906" id="path260" fill="#CB6120" stroke="none" />
      <path d="M445.054 280.708C447.852 287.034 441.469 295.996 430.788 300.717C420.114 305.445 409.189 304.147 406.391 297.821C403.593 291.495 409.976 282.541 420.649 277.812C431.331 273.084 442.256 274.382 445.054 280.708" id="path262" fill="#CB6120" stroke="none" />
      <path d="M378.75 341.544C381.548 347.87 375.165 356.824 364.492 361.552C353.81 366.273 342.885 364.975 340.087 358.657C337.289 352.331 343.672 343.369 354.353 338.64C365.027 333.92 375.952 335.217 378.75 341.544" id="path264" fill="#CB6120" stroke="none" />
      <path d="M308.527 401.193C310.879 406.497 305.526 414.008 296.572 417.974C287.618 421.932 278.461 420.845 276.109 415.541C273.765 410.236 279.118 402.726 288.072 398.768C297.026 394.802 306.183 395.889 308.527 401.193" id="path266" fill="#CB6120" stroke="none" />
      <path d="M395.58 370.781C397.624 375.412 392.952 381.966 385.142 385.429C377.331 388.884 369.334 387.935 367.282 383.304C365.238 378.681 369.91 372.119 377.72 368.664C385.539 365.201 393.528 366.15 395.58 370.781" id="path268" fill="#CB6120" stroke="none" />
      <path d="M199.886 456.853C196.796 456.853 193.657 456.261 190.624 455.004L181.215 451.111L33.0509 308.34C26.2137 301.746 23.7805 291.681 26.8707 282.702L87.1324 107.156C111.951 134.148 270.773 311.543 270.773 311.543C274.236 315.785 275.031 321.601 272.833 326.613L222.352 441.735C218.524 451.151 209.449 456.853 199.886 456.853M210.292 275.151C197.234 275.151 186.642 288.266 186.642 304.439C186.642 320.619 197.234 333.726 210.292 333.726C223.358 333.726 233.951 320.619 233.951 304.439C233.951 288.266 223.358 275.151 210.292 275.151M70.0515 253.674C56.9854 253.674 46.401 266.789 46.401 282.962C46.401 299.142 56.9854 312.249 70.0515 312.249C83.1177 312.249 93.7102 299.142 93.7102 282.962C93.7102 266.789 83.1178 253.674 70.0515 253.674" id="path336" fill="#D7CCE4" fill-rule="evenodd" stroke="none" />
      <path d="M180.894 450.77L134.372 431.54L26.6387 327.749C16.1841 317.635 12.5019 302.427 17.2547 288.672C17.2547 288.672 75.5537 120.15 83.567 103.393C83.567 103.385 83.567 103.385 83.567 103.385C83.6318 103.385 84.7673 104.594 86.8112 106.816L26.5494 282.362C23.4593 291.34 25.8925 301.406 32.7297 307.999L180.894 450.77" id="path338" fill="#CB6120" stroke="none" />
      <path d="M210.397 333.369C197.339 333.369 186.747 320.263 186.747 304.082C186.747 287.909 197.339 274.795 210.397 274.795C223.463 274.795 234.056 287.909 234.056 304.082C234.056 320.263 223.463 333.369 210.397 333.369" id="path340" fill="#CB6120" stroke="none" />
      <path d="M69.8809 312.079C56.8148 312.079 46.2304 298.972 46.2304 282.792C46.2304 266.619 56.8148 253.504 69.8809 253.504C82.9471 253.504 93.5396 266.619 93.5396 282.792C93.5396 298.972 82.9472 312.079 69.8809 312.079" id="path342" fill="#CB6120" stroke="none" />
      <path d="M258.526 110.733L363.964 73.8705C366.859 72.8567 369.633 71.5995 372.261 70.1072C368.335 74.0164 363.55 77.0417 358.229 78.8991L267.845 110.482L258.526 110.733" id="path344" fill="#CB6120" stroke="none" />
      <path d="M246.36 447.729C246.554 447.04 246.822 446.358 247.154 445.685L299.225 341.277C302.258 335.202 306.703 329.987 312.153 326.062C312.25 326.443 312.38 326.808 312.542 327.173C314.205 330.936 318.739 332.915 324.376 332.915C328.236 332.915 332.608 331.991 336.939 330.068C347.621 325.348 354.004 316.386 351.206 310.06C350.841 309.232 350.338 308.494 349.713 307.845C387.557 290.351 434.55 268.712 463.854 255.5L396.082 388.197C393.194 393.842 388.312 398.108 382.318 400.201L246.36 447.729M298.511 396.429C295.275 396.429 291.609 397.2 287.975 398.814C279.021 402.772 273.668 410.282 276.012 415.587C277.407 418.742 281.211 420.404 285.939 420.404C289.176 420.404 292.842 419.626 296.475 418.02C305.429 414.054 310.782 406.543 308.43 401.239C307.035 398.092 303.24 396.429 298.511 396.429M386.933 366.728C384.11 366.728 380.907 367.41 377.735 368.813C369.925 372.268 365.253 378.829 367.297 383.452C368.514 386.202 371.831 387.654 375.959 387.654C378.782 387.654 381.985 386.981 385.157 385.578C392.967 382.114 397.639 375.561 395.595 370.93C394.378 368.18 391.061 366.728 386.933 366.728M367.094 335.527C363.234 335.527 358.862 336.452 354.531 338.366C343.849 343.094 337.466 352.057 340.264 358.383C341.927 362.138 346.461 364.117 352.098 364.117C355.958 364.117 360.33 363.192 364.669 361.278C375.343 356.55 381.726 347.596 378.928 341.269C377.265 337.506 372.739 335.527 367.094 335.527M433.431 275.03C429.57 275.03 425.199 275.963 420.86 277.877C410.186 282.605 403.803 291.559 406.601 297.886C408.264 301.649 412.79 303.628 418.435 303.628C422.295 303.628 426.667 302.703 430.998 300.781C441.68 296.061 448.063 287.099 445.265 280.772C443.602 277.017 439.068 275.03 433.431 275.03" id="path346" fill="#D7CCE4" fill-rule="evenodd" stroke="none" />
      <path d="M257.09 462.328C249.458 462.328 244.202 455.004 246.165 447.98L382.123 400.452C388.116 398.36 392.999 394.094 395.886 388.449L463.659 255.751C479.904 248.419 490.708 243.691 491.494 243.691C491.535 243.691 491.551 243.699 491.535 243.723L405.83 411.45C404.021 414.995 401.677 418.198 398.912 420.956C396.284 422.448 393.51 423.705 390.615 424.719L285.177 461.582L257.406 462.328C257.301 462.328 257.195 462.328 257.09 462.328" id="path348" fill="#CB6120" stroke="none" />
      <path d="M324.278 332.761C318.641 332.761 314.108 330.782 312.445 327.019C312.283 326.654 312.153 326.289 312.056 325.908C314.197 324.367 316.492 323.012 318.917 321.893C327.855 317.748 338.334 312.906 349.616 307.691C350.24 308.34 350.743 309.078 351.108 309.906C353.906 316.232 347.523 325.194 336.842 329.914C332.511 331.836 328.139 332.761 324.278 332.761" id="path350" fill="#CB6120" stroke="none" />
      <path d="M418.224 303.563C412.579 303.563 408.054 301.584 406.391 297.82C403.593 291.494 409.976 282.54 420.649 277.812C424.989 275.898 429.36 274.965 433.221 274.965C438.858 274.965 443.392 276.952 445.054 280.707C447.852 287.034 441.469 295.996 430.788 300.716C426.457 302.638 422.085 303.563 418.224 303.563" id="path352" fill="#CB6120" stroke="none" />
      <path d="M351.92 364.393C346.283 364.393 341.749 362.414 340.087 358.658C337.289 352.332 343.672 343.37 354.353 338.641C358.684 336.727 363.056 335.803 366.917 335.803C372.562 335.803 377.087 337.782 378.75 341.545C381.548 347.871 375.165 356.825 364.492 361.554C360.153 363.468 355.781 364.393 351.92 364.393" id="path354" fill="#CB6120" stroke="none" />
      <path d="M286.036 420.356C281.308 420.356 277.504 418.693 276.109 415.538C273.765 410.233 279.118 402.723 288.072 398.765C291.705 397.151 295.371 396.38 298.607 396.38C303.336 396.38 307.132 398.043 308.527 401.19C310.879 406.495 305.526 414.005 296.572 417.971C292.938 419.577 289.272 420.356 286.036 420.356" id="path356" fill="#CB6120" stroke="none" />
      <path d="M375.944 387.508C371.816 387.508 368.499 386.056 367.282 383.306C365.238 378.683 369.91 372.122 377.72 368.666C380.892 367.263 384.095 366.582 386.918 366.582C391.046 366.582 394.363 368.034 395.58 370.783C397.624 375.415 392.952 381.968 385.142 385.431C381.97 386.835 378.767 387.508 375.944 387.508" id="path358" fill="#CB6120" stroke="none" />
    </g>
    <g id="Group" transform="translate(457 3.0517578E-05)">
      <path d="M495.644 274.566L420.113 438.363L413.846 451.946C411.391 457.215 407.943 461.812 403.713 465.47C396.922 471.371 388.199 474.93 378.903 475.237L152.476 483.333C136.911 483.857 122.391 475.345 115.339 461.446L20.1714 274.982L19.9628 274.567C13.9039 262.704 14.1125 248.607 20.5896 236.902L130.643 38.0507C137.642 25.3672 150.961 17.4786 165.43 17.3699L389.714 15.7485C406.95 15.6497 422.359 26.5636 427.949 42.8651L446.591 97.3354L446.65 97.3354L497.156 244.741C500.498 254.508 499.974 265.165 495.644 274.566" id="path270" fill="#FFFFFF" stroke="none" />
      <path d="M150.965 483.356C135.916 483.356 122.032 474.934 115.186 461.44L20.0185 274.976L115.186 461.44C122.032 474.934 135.917 483.356 150.965 483.356C151.416 483.356 151.87 483.346 152.323 483.326L378.75 475.23C381.005 475.161 383.227 474.894 385.395 474.449C383.14 474.924 380.922 475.161 378.75 475.23L152.323 483.326C151.87 483.346 151.416 483.356 150.964 483.356" id="path272" fill="#B032E7" stroke="none" />
      <path d="M150.965 483.356C135.917 483.356 122.032 474.933 115.186 461.439L20.0185 274.975L320.299 278.851C327.085 278.94 333.134 283.151 335.579 289.478L408.522 459.096C400.596 468.705 392.794 472.877 385.395 474.449C383.227 474.894 381.005 475.161 378.75 475.23L152.323 483.326C151.87 483.346 151.416 483.356 150.965 483.356" id="path274" fill="#D7CCE4" stroke="none" />
      <path d="M420.384 438.129L393.425 360.378C387.653 343.74 389.268 325.531 397.437 309.921C435.876 236.461 446.862 97.1019 446.862 97.1019L446.921 97.1019L497.427 244.508C498.881 248.739 499.602 253.138 499.602 257.537C499.602 263.281 498.367 269.004 495.915 274.333L420.384 438.129" id="path276" fill="#D7CCE4" stroke="none" />
      <path d="M144.472 45.558L34.4044 244.419C30.4659 251.536 30.3206 260.117 34.0188 267.354L129.388 454.262C133.688 462.675 142.469 467.835 152.021 467.568L378.437 459.492C387.703 459.166 395.872 453.728 399.755 445.306L481.533 267.907C484.182 262.173 484.508 255.728 482.452 249.747L413.227 47.8415C409.835 37.9558 400.562 31.3423 390.116 31.3423L389.935 31.3423L165.678 32.9537C156.865 33.0229 148.741 37.8471 144.472 45.558L144.472 45.558ZM151.157 498.926C130.336 498.926 110.99 487.142 101.473 468.498L6.10355 281.599C-2.33588 265.07 -2.00567 245.496 6.98438 229.244L117.055 30.3833L117.055 30.3833C126.798 12.7867 145.344 1.76419 165.45 1.61588L389.708 0.00445557C413.795 -0.301971 435.082 14.9715 442.87 37.6788L512.099 239.584C516.775 253.227 516.024 267.947 509.994 281.035L428.215 458.424C419.354 477.642 400.709 490.059 379.555 490.81L153.141 498.886C152.48 498.906 151.819 498.926 151.157 498.926" id="path278" fill="#002E82" fill-rule="evenodd" stroke="none" />
      <path d="M40.7786 259.803C140.809 252.557 240.923 251.608 341.121 252.24L334.045 257.134C346.543 224.778 359.59 192.64 372.83 160.58C386.288 128.561 399.901 96.6297 414.689 65.1834C404.972 98.5476 394.065 131.507 382.981 164.416C371.7 197.217 360.227 229.948 348.195 262.482C347.059 265.507 344.178 267.385 341.121 267.376C316.091 267.524 291.063 267.741 266.035 267.474C190.871 266.99 115.838 265.359 40.7785 259.803" id="path280" fill="#002E82" stroke="none" />
      <path d="M348.222 257.043L403.079 421.076L333.601 262.688C329.506 252.743 344.56 246.9 348.222 257.043" id="path282" fill="#002E82" stroke="none" />
      <path d="M394.311 244.142C394.311 258.733 389.361 270.566 383.254 270.566C377.147 270.566 372.197 258.733 372.197 244.142C372.197 229.541 377.147 217.707 383.254 217.707C389.361 217.707 394.311 229.541 394.311 244.142" id="path284" fill="#002E82" stroke="none" />
      <path d="M432.865 133.659C432.865 148.26 427.914 160.094 421.808 160.094C415.702 160.094 410.751 148.26 410.751 133.659C410.751 119.068 415.702 107.234 421.808 107.234C427.914 107.234 432.865 119.067 432.865 133.659" id="path286" fill="#002E82" stroke="none" />
      <path d="M432.865 358.312C432.865 372.913 427.914 384.746 421.808 384.746C415.702 384.746 410.751 372.913 410.751 358.312C410.751 343.72 415.702 331.887 421.808 331.887C427.914 331.887 432.865 343.72 432.865 358.312" id="path288" fill="#002E82" stroke="none" />
      <path d="M471.429 247.849C471.429 262.44 466.477 274.273 460.367 274.273C454.258 274.273 449.305 262.44 449.305 247.849C449.305 233.248 454.258 221.415 460.367 221.415C466.477 221.415 471.429 233.248 471.429 247.849" id="path290" fill="#002E82" stroke="none" />
      <path d="M258.772 135.36C256.014 152.71 239.256 166.431 221.342 166.016C203.427 165.601 191.141 151.197 193.899 133.848C196.658 116.508 213.416 102.787 231.33 103.202C249.244 103.617 261.53 118.021 258.772 135.36" id="path292" fill="#002E82" stroke="none" />
      <path d="M113.158 303.252C118.616 313.82 115.401 326.009 105.976 330.468C96.5506 334.926 84.4851 329.964 79.0262 319.396C73.5673 308.818 76.7821 296.639 86.2072 292.18C95.6322 287.722 107.699 292.675 113.158 303.252" id="path294" fill="#002E82" stroke="none" />
      <path d="M317.05 299.544C322.509 310.121 319.294 322.3 309.869 326.759C300.443 331.217 288.378 326.265 282.919 315.687C277.46 305.119 280.675 292.93 290.101 288.472C299.526 284.013 311.591 288.976 317.05 299.544" id="path296" fill="#002E82" stroke="none" />
      <path d="M179.145 423.362C184.603 433.94 181.389 446.119 171.964 450.577C162.538 455.036 150.472 450.083 145.013 439.505C139.554 428.938 142.769 416.749 152.195 412.29C161.62 407.832 173.686 412.794 179.144 423.362" id="path298" fill="#002E82" stroke="none" />
      <path d="M366.726 419.655C372.184 430.233 368.97 442.412 359.544 446.87C350.119 451.329 338.053 446.376 332.594 435.798C327.136 425.231 330.35 413.042 339.775 408.593C349.201 404.135 361.267 409.087 366.726 419.655" id="path300" fill="#002E82" stroke="none" />
      <path d="M239.2 358.116C244.659 368.694 241.443 380.873 232.018 385.332C222.593 389.79 210.528 384.838 205.069 374.26C199.61 363.692 202.825 351.503 212.25 347.044C221.675 342.586 233.741 347.549 239.2 358.116" id="path302" fill="#002E82" stroke="none" />
    </g>
    <g id="Group-3" transform="translate(0 615.0001)">
      <path d="M173.375 357.272C176.237 335.522 177.694 324.595 180.607 302.846L107.761 302.846C92.1506 324.596 84.1373 335.523 68.319 357.272L0 357.272C67.6088 265.52 134.749 173.456 201.42 81.0801L287.848 81.0801C277.441 173.075 267.798 265.139 258.917 357.272L173.375 357.272ZM147.359 242.54L191.066 242.54C195.749 210.488 198.091 194.462 202.878 162.461C180.764 194.462 169.681 210.489 147.411 242.54L147.359 242.54Z" id="Shape" fill="#002E82" fill-rule="evenodd" stroke="none" />
      <path d="M571.064 202.476C551.292 254.093 531.536 305.693 511.799 357.275L470.693 357.275C471.73 347.659 471.73 337.96 470.693 328.344C446.444 349.988 415.002 361.822 382.499 361.541C347.22 361.541 323.181 349.053 310.588 324.181C297.996 299.309 301.274 265.228 317.718 223.133C334.664 183.409 360.117 147.886 392.282 119.066C419.651 95.131 467.73 76.0867 504.726 76.9194C535.946 77.5959 558.736 85.2446 571.641 101.999C584.547 118.754 588.135 142.429 582.048 173.181L498.795 181.298C506.08 152.576 499.454 138.215 478.918 138.215C451.999 138.215 428.011 164.647 406.955 217.513C394.207 249.462 390.149 270.587 394.883 280.734C399.409 290.856 409.854 296.997 420.9 296.031C431.403 295.892 441.631 292.651 450.298 286.717C459.746 280.62 467.029 271.698 471.111 261.221L426.672 261.221L449.827 202.528L571.064 202.476Z" id="Shape" fill="#002E82" stroke="none" />
      <path d="M742.409 81.0801L640.008 357.272L556.027 357.272C590.959 265.208 625.839 173.144 660.667 81.0801L742.409 81.0801Z" id="Shape" fill="#002E82" stroke="none" />
      <path d="M902.984 289.473C893.514 316.582 888.831 330.163 879.361 357.116L687.67 357.116L788.822 80.9244L870.566 80.9244L795.898 289.057L902.984 289.473Z" id="Shape" fill="#002E82" stroke="none" />
      <path d="M268.335 30.0878C268.335 30.0878 212.243 66.2509 212.243 66.2509C212.243 66.2509 290.865 62.0883 290.865 62.0883C290.865 62.0883 345.031 24 345.031 24C345.031 24 268.335 30.0878 268.335 30.0878C268.335 30.0878 268.335 30.0878 268.335 30.0878Z" id="Polygon" fill="#002E82" fill-rule="evenodd" stroke="none" />
      <g id="WINS" clip-path="url(#clip_1)" transform="translate(912 0)">
        <g transform="translate(0, 89.34659)" id="WINS" fill="#CB6120">
          <path d="M67.1413 358.438L34.8189 89.3466L96.9673 89.3466L110.632 276.317L112.866 276.317L192.884 89.3466L246.097 89.3466L264.229 276.712L266.594 276.712L342.013 89.3466L404.162 89.3466L282.493 358.438L227.045 358.438L205.234 182.504L203.132 182.504L122.589 358.438L67.1413 358.438ZM491.406 89.3466L446.733 358.438L389.84 358.438L434.513 89.3466L491.406 89.3466ZM763.388 89.3466L718.714 358.438L669.574 358.438L580.884 189.073L578.782 189.073L550.533 358.438L493.64 358.438L538.313 89.3466L588.242 89.3466L676.538 258.58L678.771 258.58L706.758 89.3466L763.388 89.3466ZM943.132 167.525Q943.789 151.101 933.541 142.166Q923.292 133.232 902.926 133.232Q882.035 133.232 869.553 141.706Q857.07 150.181 854.837 163.32Q851.946 177.642 863.574 185.197Q875.202 192.752 891.889 196.694L915.014 202.475Q937.482 207.731 954.038 217.717Q970.593 227.702 978.477 243.404Q986.36 259.105 982.55 281.573Q976.374 318.494 945.3 340.371Q914.226 362.248 864.823 362.248Q816.076 362.248 790.455 339.846Q764.833 317.443 771.009 273.952L826.062 273.952Q823.96 294.187 836.902 304.37Q849.844 314.553 872.049 314.553Q893.992 314.553 908.379 305.355Q922.766 296.158 925.131 281.442Q927.496 267.908 916.788 260.419Q906.08 252.93 884.925 247.805L856.808 240.447Q824.354 232.17 807.601 214.498Q790.849 196.825 795.579 167.131Q799.783 142.56 816.01 124.297Q832.237 106.033 857.005 95.8505Q881.772 85.6676 911.204 85.6676Q941.161 85.6676 961.79 95.9819Q982.418 106.296 991.879 124.691Q1001.34 143.086 997.66 167.525L943.132 167.525Z" />
        </g>
      </g>
    </g>
    <g id="Plataforma-de-sorteos-y-gestió" clip-path="url(#clip_2)" transform="translate(159 1074.0001)">
      <g transform="translate(170.87488, 17)" id="Plataforma-de-sorteos-y-gestión-de-premios">
        <path d="M11.645 59.075L11.645 52.02L26.6475 52.02Q31.7475 52.02 34.0638 49.4912Q36.38 46.9625 36.38 42.4575L36.38 38.76Q36.38 34.1275 34.085 31.6625Q31.79 29.1975 26.7325 29.1975L11.6025 29.1975L11.6025 22.185L26.9025 22.185Q36.2525 22.185 40.5662 26.4987Q44.88 30.8125 44.88 38.5475L44.88 42.67Q44.88 50.405 40.545 54.74Q36.21 59.075 26.86 59.075L11.645 59.075ZM6.035 76.5L6.035 22.185L14.4075 22.185L14.4075 54.1025L14.45 57.9275L14.45 76.5L6.035 76.5ZM53.635 76.5L53.635 20.23L61.965 20.23L61.965 76.5L53.635 76.5ZM97.1125 76.5L97.4525 66.64L97.155 65.365L97.155 52.275L97.1975 50.1925Q97.1975 45.39 94.7538 43.1375Q92.31 40.885 86.9125 40.885Q82.535 40.885 78.795 42.1175Q75.055 43.35 72.0375 44.965L72.8025 37.995Q74.5025 37.0175 76.7975 36.0825Q79.0925 35.1475 81.9825 34.5525Q84.8725 33.9575 88.315 33.9575Q93.0325 33.9575 96.305 35.0837Q99.5775 36.21 101.575 38.335Q103.572 40.46 104.486 43.435Q105.4 46.41 105.4 50.065L105.4 76.5L97.1125 76.5ZM83.045 77.435Q76.8825 77.435 73.61 74.3962Q70.3375 71.3575 70.3375 65.7475L70.3375 64.4725Q70.3375 58.5225 74.0137 55.6537Q77.69 52.785 85.595 51.68L98.09 49.895L98.5575 55.93L86.5725 57.63Q82.28 58.225 80.4525 59.6912Q78.625 61.1575 78.625 64.005L78.625 64.6Q78.625 67.4475 80.3887 68.9775Q82.1525 70.5075 85.765 70.5075Q89.08 70.5075 91.46 69.4025Q93.84 68.2975 95.3275 66.4487Q96.815 64.6 97.3675 62.3475L98.515 67.915L96.985 67.915Q96.305 70.465 94.7325 72.6325Q93.16 74.8 90.3337 76.1175Q87.5075 77.435 83.045 77.435ZM130.305 77.35Q125.333 77.35 122.315 75.8412Q119.298 74.3325 117.938 71.2937Q116.577 68.255 116.577 63.7075L116.577 38.2925L124.823 38.2925L124.823 62.73Q124.823 66.555 126.565 68.34Q128.308 70.125 132.43 70.125Q134.895 70.125 137.148 69.615Q139.4 69.105 141.313 68.17L140.59 75.225Q138.55 76.245 135.872 76.7975Q133.195 77.35 130.305 77.35ZM110.075 42.075L110.075 35.445L140.93 35.445L140.208 42.075L110.075 42.075ZM116.663 36.1675L116.62 24.735L124.95 23.7575L124.61 36.1675L116.663 36.1675ZM172.933 76.5L173.273 66.64L172.975 65.365L172.975 52.275L173.018 50.1925Q173.018 45.39 170.574 43.1375Q168.13 40.885 162.733 40.885Q158.355 40.885 154.615 42.1175Q150.875 43.35 147.858 44.965L148.623 37.995Q150.323 37.0175 152.618 36.0825Q154.913 35.1475 157.803 34.5525Q160.693 33.9575 164.135 33.9575Q168.853 33.9575 172.125 35.0837Q175.398 36.21 177.395 38.335Q179.393 40.46 180.306 43.435Q181.22 46.41 181.22 50.065L181.22 76.5L172.933 76.5ZM158.865 77.435Q152.702 77.435 149.43 74.3962Q146.158 71.3575 146.158 65.7475L146.158 64.4725Q146.158 58.5225 149.834 55.6537Q153.51 52.785 161.415 51.68L173.91 49.895L174.378 55.93L162.393 57.63Q158.1 58.225 156.273 59.6912Q154.445 61.1575 154.445 64.005L154.445 64.6Q154.445 67.4475 156.209 68.9775Q157.973 70.5075 161.585 70.5075Q164.9 70.5075 167.28 69.4025Q169.66 68.2975 171.148 66.4487Q172.635 64.6 173.188 62.3475L174.335 67.915L172.805 67.915Q172.125 70.465 170.553 72.6325Q168.98 74.8 166.154 76.1175Q163.327 77.435 158.865 77.435ZM205.148 19.04Q208.378 19.04 210.991 19.5925Q213.605 20.145 215.73 20.995L216.538 27.455Q214.54 26.775 212.479 26.35Q210.418 25.925 207.868 25.925Q204.85 25.925 203.044 26.69Q201.238 27.455 200.451 28.8363Q199.665 30.2175 199.665 32.13L199.665 32.3Q199.665 33.66 200.048 34.8925Q200.43 36.125 200.898 37.1025L195.373 37.2725L195.373 36.295Q193.8 35.3175 192.695 33.5112Q191.59 31.705 191.59 29.155L191.59 28.9425Q191.59 24.48 194.905 21.76Q198.22 19.04 205.148 19.04ZM192.993 76.5L192.993 39.0575L201.28 39.0575L201.28 76.5L192.993 76.5ZM186.448 43.265L186.448 36.635L196.18 36.6775L199.58 36.635L216.368 36.635L215.645 43.265L186.448 43.265ZM238.383 77.5625Q229.203 77.5625 224.443 72.675Q219.683 67.7875 219.683 58.6075L219.683 52.7Q219.683 43.5625 224.443 38.6963Q229.203 33.83 238.383 33.83Q247.563 33.83 252.301 38.6963Q257.04 43.5625 257.04 52.7L257.04 58.6075Q257.04 67.7875 252.301 72.675Q247.563 77.5625 238.383 77.5625ZM238.383 70.805Q243.44 70.805 246.075 67.7875Q248.71 64.77 248.71 59.1175L248.71 52.19Q248.71 46.58 246.075 43.5837Q243.44 40.5875 238.383 40.5875Q233.325 40.5875 230.69 43.5837Q228.055 46.58 228.055 52.19L228.055 59.1175Q228.055 64.77 230.69 67.7875Q233.325 70.805 238.383 70.805ZM273.955 51.3825L272.17 44.88L274.21 44.88Q275.527 39.95 278.63 37.1237Q281.733 34.2975 287.088 34.2975Q288.363 34.2975 289.361 34.4887Q290.36 34.68 291.168 34.935L291.678 43.0525Q290.658 42.7125 289.383 42.5212Q288.108 42.33 286.62 42.33Q282.073 42.33 278.758 44.6675Q275.443 47.005 273.955 51.3825ZM265.965 76.5L265.965 34.935L274.083 34.935L273.7 47.0475L274.295 47.6425L274.295 76.5L265.965 76.5ZM349.648 76.5L349.648 50.6175Q349.648 47.685 348.904 45.4962Q348.16 43.3075 346.439 42.1175Q344.718 40.9275 341.785 40.9275Q338.98 40.9275 336.94 42.0325Q334.9 43.1375 333.646 45.0075Q332.393 46.8775 331.84 49.2575L330.735 43.4775L331.713 43.4775Q332.478 40.97 334.05 38.8025Q335.623 36.635 338.3 35.3175Q340.978 34 345.058 34Q349.648 34 352.495 35.8062Q355.343 37.6125 356.66 41.1187Q357.978 44.625 357.978 49.6825L357.978 76.5L349.648 76.5ZM298.01 76.5L298.01 34.935L306.34 34.935L306 44.6675L306.34 45.1775L306.34 76.5L298.01 76.5ZM323.85 76.5L323.85 50.6175Q323.85 47.685 323.106 45.4962Q322.363 43.3075 320.641 42.1175Q318.92 40.9275 315.988 40.9275Q313.183 40.9275 311.143 42.0325Q309.103 43.1375 307.849 45.0075Q306.595 46.8775 306.043 49.2575L304.683 43.4775L306.468 43.4775Q307.148 40.8425 308.699 38.6963Q310.25 36.55 312.843 35.275Q315.435 34 319.218 34Q324.998 34 327.973 36.975Q330.948 39.95 331.713 45.645Q331.925 46.4525 332.031 47.4725Q332.138 48.4925 332.138 49.47L332.138 76.5L323.85 76.5ZM392.445 76.5L392.785 66.64L392.488 65.365L392.488 52.275L392.53 50.1925Q392.53 45.39 390.086 43.1375Q387.643 40.885 382.245 40.885Q377.868 40.885 374.128 42.1175Q370.388 43.35 367.37 44.965L368.135 37.995Q369.835 37.0175 372.13 36.0825Q374.425 35.1475 377.315 34.5525Q380.205 33.9575 383.648 33.9575Q388.365 33.9575 391.638 35.0837Q394.91 36.21 396.908 38.335Q398.905 40.46 399.819 43.435Q400.733 46.41 400.733 50.065L400.733 76.5L392.445 76.5ZM378.378 77.435Q372.215 77.435 368.943 74.3962Q365.67 71.3575 365.67 65.7475L365.67 64.4725Q365.67 58.5225 369.346 55.6537Q373.023 52.785 380.928 51.68L393.423 49.895L393.89 55.93L381.905 57.63Q377.613 58.225 375.785 59.6912Q373.958 61.1575 373.958 64.005L373.958 64.6Q373.958 67.4475 375.721 68.9775Q377.485 70.5075 381.098 70.5075Q384.413 70.5075 386.793 69.4025Q389.173 68.2975 390.66 66.4487Q392.148 64.6 392.7 62.3475L393.848 67.915L392.318 67.915Q391.638 70.465 390.065 72.6325Q388.493 74.8 385.666 76.1175Q382.84 77.435 378.378 77.435ZM441.915 77.435Q434.478 77.435 430.589 72.76Q426.7 68.085 426.7 59.1175L426.7 52.53Q426.7 43.4775 430.631 38.7387Q434.563 34 442.255 34Q445.953 34 448.609 35.1688Q451.265 36.3375 452.944 38.4625Q454.622 40.5875 455.345 43.4775L458.108 43.4775L455.77 51.17Q455.643 47.77 454.283 45.4538Q452.923 43.1375 450.543 41.9475Q448.163 40.7575 444.975 40.7575Q440.173 40.7575 437.622 43.52Q435.073 46.2825 435.073 51.7225L435.073 59.67Q435.073 64.9825 437.601 67.745Q440.13 70.5075 444.975 70.5075Q447.908 70.5075 450.139 69.4025Q452.37 68.2975 453.858 66.385Q455.345 64.4725 455.897 62.0925L457.853 67.9575L455.43 67.9575Q454.75 70.55 453.156 72.7175Q451.563 74.885 448.842 76.16Q446.122 77.435 441.915 77.435ZM455.557 76.5L455.897 66.7675L455.77 64.1325L455.77 46.8775L455.813 45.2625L455.6 33.49L455.6 20.23L463.888 20.23L463.888 76.5L455.557 76.5ZM492.66 77.4775Q482.715 77.4775 477.764 72.7387Q472.813 68 472.813 59.075L472.813 52.275Q472.813 43.4775 477.424 38.6537Q482.035 33.83 490.875 33.83Q496.867 33.83 500.862 36.0187Q504.858 38.2075 506.855 42.2025Q508.853 46.1975 508.853 51.68L508.853 53.2525Q508.853 54.6975 508.725 56.185Q508.598 57.6725 508.385 59.0325L500.735 59.0325Q500.82 56.8225 500.841 54.8675Q500.862 52.9125 500.862 51.2975Q500.862 47.855 499.758 45.475Q498.652 43.095 496.443 41.8412Q494.233 40.5875 490.875 40.5875Q485.902 40.5875 483.48 43.4137Q481.057 46.24 481.057 51.4675L481.057 55.3775L481.1 56.355L481.1 60.0525Q481.1 62.39 481.801 64.3025Q482.503 66.215 484.054 67.5963Q485.605 68.9775 488.07 69.7213Q490.535 70.465 494.063 70.465Q498.057 70.465 501.564 69.445Q505.07 68.425 508.173 66.725L507.408 73.8225Q504.603 75.48 500.884 76.4788Q497.165 77.4775 492.66 77.4775ZM477.233 59.0325L477.233 52.785L506.685 52.785L506.685 59.0325L477.233 59.0325ZM548.547 77.4775Q543.532 77.4775 539.75 76.4362Q535.967 75.395 533.417 74.1625L532.652 66.555Q535.797 68.1275 539.58 69.2962Q543.362 70.465 548.08 70.465Q552.627 70.465 554.816 69.1263Q557.005 67.7875 557.005 65.1525L557.005 64.8125Q557.005 63.1125 556.112 61.9862Q555.22 60.86 552.946 59.9675Q550.672 59.075 546.507 58.14Q541.28 56.95 538.262 55.335Q535.245 53.72 533.949 51.3612Q532.652 49.0025 532.652 45.6875L532.652 45.305Q532.652 39.695 536.563 36.805Q540.472 33.915 548.292 33.915Q553.222 33.915 556.878 34.9775Q560.532 36.04 562.912 37.4L563.677 44.3275Q560.83 42.7975 557.196 41.7562Q553.563 40.715 549.142 40.715Q546.125 40.715 544.297 41.2887Q542.47 41.8625 541.662 42.9037Q540.855 43.945 540.855 45.39L540.855 45.6875Q540.855 47.26 541.705 48.4287Q542.555 49.5975 544.744 50.5112Q546.932 51.425 550.842 52.275Q556.112 53.38 559.257 54.8675Q562.402 56.355 563.805 58.6712Q565.207 60.9875 565.207 64.6425L565.207 65.28Q565.207 71.3575 561.042 74.4175Q556.877 77.4775 548.547 77.4775ZM590.027 77.5625Q580.847 77.5625 576.087 72.675Q571.328 67.7875 571.328 58.6075L571.328 52.7Q571.328 43.5625 576.087 38.6963Q580.847 33.83 590.027 33.83Q599.207 33.83 603.946 38.6963Q608.685 43.5625 608.685 52.7L608.685 58.6075Q608.685 67.7875 603.946 72.675Q599.207 77.5625 590.027 77.5625ZM590.027 70.805Q595.085 70.805 597.72 67.7875Q600.355 64.77 600.355 59.1175L600.355 52.19Q600.355 46.58 597.72 43.5837Q595.085 40.5875 590.027 40.5875Q584.97 40.5875 582.335 43.5837Q579.7 46.58 579.7 52.19L579.7 59.1175Q579.7 64.77 582.335 67.7875Q584.97 70.805 590.027 70.805ZM625.6 51.3825L623.815 44.88L625.855 44.88Q627.172 39.95 630.275 37.1237Q633.377 34.2975 638.732 34.2975Q640.007 34.2975 641.006 34.4887Q642.005 34.68 642.812 34.935L643.322 43.0525Q642.302 42.7125 641.027 42.5212Q639.752 42.33 638.265 42.33Q633.717 42.33 630.402 44.6675Q627.087 47.005 625.6 51.3825ZM617.61 76.5L617.61 34.935L625.727 34.935L625.345 47.0475L625.94 47.6425L625.94 76.5L617.61 76.5ZM666.697 77.35Q661.725 77.35 658.707 75.8412Q655.69 74.3325 654.33 71.2937Q652.97 68.255 652.97 63.7075L652.97 38.2925L661.215 38.2925L661.215 62.73Q661.215 66.555 662.957 68.34Q664.7 70.125 668.822 70.125Q671.287 70.125 673.54 69.615Q675.792 69.105 677.705 68.17L676.982 75.225Q674.942 76.245 672.265 76.7975Q669.587 77.35 666.697 77.35ZM646.467 42.075L646.467 35.445L677.322 35.445L676.6 42.075L646.467 42.075ZM653.055 36.1675L653.012 24.735L661.342 23.7575L661.002 36.1675L653.055 36.1675ZM702.1 77.4775Q692.155 77.4775 687.204 72.7387Q682.253 68 682.253 59.075L682.253 52.275Q682.253 43.4775 686.864 38.6537Q691.475 33.83 700.315 33.83Q706.307 33.83 710.302 36.0187Q714.297 38.2075 716.295 42.2025Q718.292 46.1975 718.292 51.68L718.292 53.2525Q718.292 54.6975 718.165 56.185Q718.037 57.6725 717.825 59.0325L710.175 59.0325Q710.26 56.8225 710.281 54.8675Q710.302 52.9125 710.302 51.2975Q710.302 47.855 709.197 45.475Q708.092 43.095 705.882 41.8412Q703.672 40.5875 700.315 40.5875Q695.342 40.5875 692.92 43.4137Q690.497 46.24 690.497 51.4675L690.497 55.3775L690.54 56.355L690.54 60.0525Q690.54 62.39 691.241 64.3025Q691.942 66.215 693.494 67.5963Q695.045 68.9775 697.51 69.7213Q699.975 70.465 703.503 70.465Q707.497 70.465 711.004 69.445Q714.51 68.425 717.612 66.725L716.847 73.8225Q714.042 75.48 710.324 76.4788Q706.605 77.4775 702.1 77.4775ZM686.672 59.0325L686.672 52.785L716.125 52.785L716.125 59.0325L686.672 59.0325ZM743.877 77.5625Q734.697 77.5625 729.937 72.675Q725.177 67.7875 725.177 58.6075L725.177 52.7Q725.177 43.5625 729.937 38.6963Q734.697 33.83 743.877 33.83Q753.057 33.83 757.796 38.6963Q762.535 43.5625 762.535 52.7L762.535 58.6075Q762.535 67.7875 757.796 72.675Q753.057 77.5625 743.877 77.5625ZM743.877 70.805Q748.935 70.805 751.57 67.7875Q754.205 64.77 754.205 59.1175L754.205 52.19Q754.205 46.58 751.57 43.5837Q748.935 40.5875 743.877 40.5875Q738.82 40.5875 736.185 43.5837Q733.55 46.58 733.55 52.19L733.55 59.1175Q733.55 64.77 736.185 67.7875Q738.82 70.805 743.877 70.805ZM784.89 77.4775Q779.875 77.4775 776.092 76.4362Q772.31 75.395 769.76 74.1625L768.995 66.555Q772.14 68.1275 775.922 69.2962Q779.705 70.465 784.422 70.465Q788.97 70.465 791.159 69.1263Q793.347 67.7875 793.347 65.1525L793.347 64.8125Q793.347 63.1125 792.455 61.9862Q791.562 60.86 789.289 59.9675Q787.015 59.075 782.85 58.14Q777.622 56.95 774.605 55.335Q771.587 53.72 770.291 51.3612Q768.995 49.0025 768.995 45.6875L768.995 45.305Q768.995 39.695 772.905 36.805Q776.815 33.915 784.635 33.915Q789.565 33.915 793.22 34.9775Q796.875 36.04 799.255 37.4L800.02 44.3275Q797.172 42.7975 793.539 41.7562Q789.905 40.715 785.485 40.715Q782.467 40.715 780.64 41.2887Q778.812 41.8625 778.005 42.9037Q777.197 43.945 777.197 45.39L777.197 45.6875Q777.197 47.26 778.047 48.4287Q778.897 49.5975 781.086 50.5112Q783.275 51.425 787.185 52.275Q792.455 53.38 795.6 54.8675Q798.745 56.355 800.147 58.6712Q801.55 60.9875 801.55 64.6425L801.55 65.28Q801.55 71.3575 797.385 74.4175Q793.22 77.4775 784.89 77.4775ZM846.982 69.1475L842.562 71.06L854.25 34.935L862.792 34.935L843.88 91.12L835.465 91.12L842.052 71.6125L845.792 74.7575L836.4 74.7575L823.352 34.935L831.98 34.935L842.35 69.1475L846.982 69.1475ZM904.017 63.92Q895.262 63.92 890.587 60.18Q885.912 56.44 885.912 49.5125L885.912 48.8325Q885.912 44.455 887.74 41.2463Q889.567 38.0375 893.584 36.2312Q897.6 34.425 904.102 34.2125L925.692 33.49L925.692 39.9925L914.132 39.4825L914.132 39.95Q916.597 40.5875 918.234 41.9262Q919.87 43.265 920.72 45.2625Q921.57 47.26 921.57 49.98L921.57 50.4475Q921.57 56.9925 917.129 60.4562Q912.687 63.92 904.017 63.92ZM903.677 85.8925L904.74 85.8925Q908.352 85.8925 910.86 85.3825Q913.367 84.8725 914.706 83.7675Q916.045 82.6625 916.045 80.835L916.045 80.7075Q916.045 78.54 914.515 77.4563Q912.985 76.3725 909.202 76.0325L897.217 74.885L899.3 74.8Q897.26 75.14 895.709 75.8412Q894.157 76.5425 893.286 77.6687Q892.415 78.795 892.415 80.4525L892.415 80.5375Q892.415 82.4925 893.754 83.6825Q895.092 84.8725 897.621 85.3825Q900.15 85.8925 903.677 85.8925ZM903.167 92.5225Q897.43 92.5225 893.286 91.5238Q889.142 90.525 886.911 88.3363Q884.68 86.1475 884.68 82.535L884.68 82.365Q884.68 79.9425 885.764 78.285Q886.847 76.6275 888.739 75.6288Q890.63 74.63 892.967 74.29L892.967 73.865Q889.865 73.2275 888.356 71.7613Q886.847 70.295 886.847 67.9575L886.847 67.915Q886.847 66.3 887.57 65.1312Q888.292 63.9625 889.759 63.2612Q891.225 62.56 893.435 62.3475L893.435 61.4125L902.19 63.5375L899.002 63.41Q896.495 63.4525 895.539 64.0475Q894.582 64.6425 894.582 65.7475L894.582 65.79Q894.582 67.065 896.006 67.6813Q897.43 68.2975 900.83 68.68L910.945 69.785Q917.66 70.5075 920.762 73.0575Q923.865 75.6075 923.865 80.7925L923.865 81.005Q923.865 85 921.549 87.55Q919.232 90.1 914.919 91.3112Q910.605 92.5225 904.57 92.5225L903.167 92.5225ZM903.89 57.8Q907.162 57.8 909.351 56.8438Q911.54 55.8875 912.645 53.975Q913.75 52.0625 913.75 49.3L913.75 48.6625Q913.75 45.9425 912.666 44.0725Q911.582 42.2025 909.436 41.225Q907.29 40.2475 904.017 40.2475L903.805 40.2475Q900.277 40.2475 898.067 41.2887Q895.857 42.33 894.859 44.2212Q893.86 46.1125 893.86 48.705L893.86 49.3Q893.86 52.0625 894.965 53.975Q896.07 55.8875 898.301 56.8438Q900.532 57.8 903.89 57.8ZM949.067 77.4775Q939.122 77.4775 934.171 72.7387Q929.22 68 929.22 59.075L929.22 52.275Q929.22 43.4775 933.831 38.6537Q938.442 33.83 947.282 33.83Q953.275 33.83 957.27 36.0187Q961.265 38.2075 963.262 42.2025Q965.26 46.1975 965.26 51.68L965.26 53.2525Q965.26 54.6975 965.132 56.185Q965.005 57.6725 964.792 59.0325L957.142 59.0325Q957.227 56.8225 957.249 54.8675Q957.27 52.9125 957.27 51.2975Q957.27 47.855 956.165 45.475Q955.06 43.095 952.85 41.8412Q950.64 40.5875 947.282 40.5875Q942.31 40.5875 939.887 43.4137Q937.465 46.24 937.465 51.4675L937.465 55.3775L937.507 56.355L937.507 60.0525Q937.507 62.39 938.209 64.3025Q938.91 66.215 940.461 67.5963Q942.012 68.9775 944.477 69.7213Q946.942 70.465 950.47 70.465Q954.465 70.465 957.971 69.445Q961.477 68.425 964.58 66.725L963.815 73.8225Q961.01 75.48 957.291 76.4788Q953.572 77.4775 949.067 77.4775ZM933.64 59.0325L933.64 52.785L963.092 52.785L963.092 59.0325L933.64 59.0325ZM987.445 77.4775Q982.43 77.4775 978.647 76.4362Q974.865 75.395 972.315 74.1625L971.55 66.555Q974.695 68.1275 978.477 69.2962Q982.26 70.465 986.977 70.465Q991.525 70.465 993.714 69.1263Q995.902 67.7875 995.902 65.1525L995.902 64.8125Q995.902 63.1125 995.01 61.9862Q994.117 60.86 991.844 59.9675Q989.57 59.075 985.405 58.14Q980.177 56.95 977.16 55.335Q974.142 53.72 972.846 51.3612Q971.55 49.0025 971.55 45.6875L971.55 45.305Q971.55 39.695 975.46 36.805Q979.37 33.915 987.19 33.915Q992.12 33.915 995.775 34.9775Q999.43 36.04 1001.81 37.4L1002.57 44.3275Q999.727 42.7975 996.094 41.7562Q992.46 40.715 988.04 40.715Q985.022 40.715 983.195 41.2887Q981.367 41.8625 980.56 42.9037Q979.752 43.945 979.752 45.39L979.752 45.6875Q979.752 47.26 980.602 48.4287Q981.452 49.5975 983.641 50.5112Q985.83 51.425 989.74 52.275Q995.01 53.38 998.155 54.8675Q1001.3 56.355 1002.7 58.6712Q1004.1 60.9875 1004.1 64.6425L1004.1 65.28Q1004.1 71.3575 999.94 74.4175Q995.775 77.4775 987.445 77.4775ZM1027.1 77.35Q1022.12 77.35 1019.11 75.8412Q1016.09 74.3325 1014.73 71.2937Q1013.37 68.255 1013.37 63.7075L1013.37 38.2925L1021.61 38.2925L1021.61 62.73Q1021.61 66.555 1023.36 68.34Q1025.1 70.125 1029.22 70.125Q1031.69 70.125 1033.94 69.615Q1036.19 69.105 1038.1 68.17L1037.38 75.225Q1035.34 76.245 1032.66 76.7975Q1029.99 77.35 1027.1 77.35ZM1006.87 42.075L1006.87 35.445L1037.72 35.445L1037 42.075L1006.87 42.075ZM1013.45 36.1675L1013.41 24.735L1021.74 23.7575L1021.4 36.1675L1013.45 36.1675ZM1045.37 76.5L1045.37 34.935L1053.7 34.935L1053.7 76.5L1045.37 76.5ZM1049.54 28.815Q1047.07 28.815 1045.86 27.5612Q1044.65 26.3075 1044.65 24.0975L1044.65 23.9275Q1044.65 21.7175 1045.86 20.4637Q1047.07 19.21 1049.54 19.21Q1052 19.21 1053.21 20.4637Q1054.42 21.7175 1054.42 23.9275L1054.42 24.0975Q1054.42 26.35 1053.21 27.5825Q1052 28.815 1049.54 28.815ZM1081.45 77.5625Q1072.28 77.5625 1067.52 72.675Q1062.76 67.7875 1062.76 58.6075L1062.76 52.7Q1062.76 43.5625 1067.52 38.6963Q1072.28 33.83 1081.45 33.83Q1090.64 33.83 1095.37 38.6963Q1100.11 43.5625 1100.11 52.7L1100.11 58.6075Q1100.11 67.7875 1095.37 72.675Q1090.64 77.5625 1081.45 77.5625ZM1081.45 70.805Q1086.51 70.805 1089.15 67.7875Q1091.78 64.77 1091.78 59.1175L1091.78 52.19Q1091.78 46.58 1089.15 43.5837Q1086.51 40.5875 1081.45 40.5875Q1076.4 40.5875 1073.76 43.5837Q1071.13 46.58 1071.13 52.19L1071.13 59.1175Q1071.13 64.77 1073.76 67.7875Q1076.4 70.805 1081.45 70.805ZM1085.88 18.36L1095.05 18.36L1095.05 18.4875L1085.15 30.0475L1077.84 30.0475L1077.84 29.92L1085.88 18.36ZM1136.58 76.5L1136.58 50.83Q1136.58 47.8125 1135.75 45.6025Q1134.92 43.3925 1133.03 42.16Q1131.14 40.9275 1127.86 40.9275Q1124.85 40.9275 1122.64 42.0325Q1120.43 43.1375 1119.05 45.0075Q1117.66 46.8775 1117.07 49.2575L1115.71 43.4775L1117.49 43.4775Q1118.22 40.8425 1119.88 38.6963Q1121.53 36.55 1124.29 35.275Q1127.06 34 1131.14 34Q1136.02 34 1139.04 35.8487Q1142.06 37.6975 1143.48 41.225Q1144.91 44.7525 1144.91 49.895L1144.91 76.5L1136.58 76.5ZM1109.04 76.5L1109.04 34.935L1117.37 34.935L1117.03 44.6675L1117.37 45.1775L1117.37 76.5L1109.04 76.5ZM1186.26 77.435Q1178.82 77.435 1174.93 72.76Q1171.05 68.085 1171.05 59.1175L1171.05 52.53Q1171.05 43.4775 1174.98 38.7387Q1178.91 34 1186.6 34Q1190.3 34 1192.95 35.1688Q1195.61 36.3375 1197.29 38.4625Q1198.97 40.5875 1199.69 43.4775L1202.45 43.4775L1200.11 51.17Q1199.99 47.77 1198.63 45.4538Q1197.27 43.1375 1194.89 41.9475Q1192.51 40.7575 1189.32 40.7575Q1184.52 40.7575 1181.97 43.52Q1179.42 46.2825 1179.42 51.7225L1179.42 59.67Q1179.42 64.9825 1181.95 67.745Q1184.47 70.5075 1189.32 70.5075Q1192.25 70.5075 1194.48 69.4025Q1196.72 68.2975 1198.2 66.385Q1199.69 64.4725 1200.24 62.0925L1202.2 67.9575L1199.78 67.9575Q1199.1 70.55 1197.5 72.7175Q1195.91 74.885 1193.19 76.16Q1190.47 77.435 1186.26 77.435ZM1199.9 76.5L1200.24 66.7675L1200.11 64.1325L1200.11 46.8775L1200.16 45.2625L1199.95 33.49L1199.95 20.23L1208.23 20.23L1208.23 76.5L1199.9 76.5ZM1237.01 77.4775Q1227.06 77.4775 1222.11 72.7387Q1217.16 68 1217.16 59.075L1217.16 52.275Q1217.16 43.4775 1221.77 38.6537Q1226.38 33.83 1235.22 33.83Q1241.21 33.83 1245.21 36.0187Q1249.2 38.2075 1251.2 42.2025Q1253.2 46.1975 1253.2 51.68L1253.2 53.2525Q1253.2 54.6975 1253.07 56.185Q1252.94 57.6725 1252.73 59.0325L1245.08 59.0325Q1245.17 56.8225 1245.19 54.8675Q1245.21 52.9125 1245.21 51.2975Q1245.21 47.855 1244.1 45.475Q1243 43.095 1240.79 41.8412Q1238.58 40.5875 1235.22 40.5875Q1230.25 40.5875 1227.83 43.4137Q1225.4 46.24 1225.4 51.4675L1225.4 55.3775L1225.45 56.355L1225.45 60.0525Q1225.45 62.39 1226.15 64.3025Q1226.85 66.215 1228.4 67.5963Q1229.95 68.9775 1232.42 69.7213Q1234.88 70.465 1238.41 70.465Q1242.4 70.465 1245.91 69.445Q1249.42 68.425 1252.52 66.725L1251.75 73.8225Q1248.95 75.48 1245.23 76.4788Q1241.51 77.4775 1237.01 77.4775ZM1221.58 59.0325L1221.58 52.785L1251.03 52.785L1251.03 59.0325L1221.58 59.0325ZM1301.1 77.435Q1297.4 77.435 1294.74 76.2663Q1292.09 75.0975 1290.43 72.9512Q1288.77 70.805 1288.01 67.9575L1285.24 67.9575L1287.58 60.095Q1287.71 63.58 1289.07 65.8962Q1290.43 68.2125 1292.83 69.36Q1295.23 70.5075 1298.38 70.5075Q1303.18 70.5075 1305.73 67.7237Q1308.28 64.94 1308.28 59.5425L1308.28 51.595Q1308.28 46.2825 1305.75 43.52Q1303.22 40.7575 1298.38 40.7575Q1295.49 40.7575 1293.23 41.8625Q1290.98 42.9675 1289.51 44.8587Q1288.05 46.75 1287.45 49.1725L1285.5 43.4775L1287.92 43.4775Q1288.64 40.8425 1290.22 38.6963Q1291.79 36.55 1294.53 35.275Q1297.27 34 1301.44 34Q1308.87 34 1312.76 38.675Q1316.65 43.35 1316.65 52.3175L1316.65 58.905Q1316.65 67.9575 1312.74 72.6963Q1308.83 77.435 1301.1 77.435ZM1279.46 91.12L1279.46 34.935L1287.79 34.935L1287.45 44.6675L1287.58 47.1325L1287.58 64.5575L1287.54 66.1725L1287.75 77.945L1287.75 91.12L1279.46 91.12ZM1333.61 51.3825L1331.82 44.88L1333.86 44.88Q1335.18 39.95 1338.28 37.1237Q1341.39 34.2975 1346.74 34.2975Q1348.02 34.2975 1349.01 34.4887Q1350.01 34.68 1350.82 34.935L1351.33 43.0525Q1350.31 42.7125 1349.04 42.5212Q1347.76 42.33 1346.27 42.33Q1341.73 42.33 1338.41 44.6675Q1335.1 47.005 1333.61 51.3825ZM1325.62 76.5L1325.62 34.935L1333.74 34.935L1333.35 47.0475L1333.95 47.6425L1333.95 76.5L1325.62 76.5ZM1374.92 77.4775Q1364.97 77.4775 1360.02 72.7387Q1355.07 68 1355.07 59.075L1355.07 52.275Q1355.07 43.4775 1359.68 38.6537Q1364.29 33.83 1373.13 33.83Q1379.13 33.83 1383.12 36.0187Q1387.12 38.2075 1389.11 42.2025Q1391.11 46.1975 1391.11 51.68L1391.11 53.2525Q1391.11 54.6975 1390.98 56.185Q1390.86 57.6725 1390.64 59.0325L1382.99 59.0325Q1383.08 56.8225 1383.1 54.8675Q1383.12 52.9125 1383.12 51.2975Q1383.12 47.855 1382.02 45.475Q1380.91 43.095 1378.7 41.8412Q1376.49 40.5875 1373.13 40.5875Q1368.16 40.5875 1365.74 43.4137Q1363.32 46.24 1363.32 51.4675L1363.32 55.3775L1363.36 56.355L1363.36 60.0525Q1363.36 62.39 1364.06 64.3025Q1364.76 66.215 1366.31 67.5963Q1367.86 68.9775 1370.33 69.7213Q1372.79 70.465 1376.32 70.465Q1380.32 70.465 1383.82 69.445Q1387.33 68.425 1390.43 66.725L1389.67 73.8225Q1386.86 75.48 1383.14 76.4788Q1379.42 77.4775 1374.92 77.4775ZM1359.49 59.0325L1359.49 52.785L1388.94 52.785L1388.94 59.0325L1359.49 59.0325ZM1451.33 76.5L1451.33 50.6175Q1451.33 47.685 1450.59 45.4962Q1449.85 43.3075 1448.12 42.1175Q1446.4 40.9275 1443.47 40.9275Q1440.67 40.9275 1438.63 42.0325Q1436.59 43.1375 1435.33 45.0075Q1434.08 46.8775 1433.53 49.2575L1432.42 43.4775L1433.4 43.4775Q1434.16 40.97 1435.74 38.8025Q1437.31 36.635 1439.99 35.3175Q1442.66 34 1446.74 34Q1451.33 34 1454.18 35.8062Q1457.03 37.6125 1458.35 41.1187Q1459.66 44.625 1459.66 49.6825L1459.66 76.5L1451.33 76.5ZM1399.7 76.5L1399.7 34.935L1408.03 34.935L1407.69 44.6675L1408.03 45.1775L1408.03 76.5L1399.7 76.5ZM1425.54 76.5L1425.54 50.6175Q1425.54 47.685 1424.79 45.4962Q1424.05 43.3075 1422.33 42.1175Q1420.61 40.9275 1417.67 40.9275Q1414.87 40.9275 1412.83 42.0325Q1410.79 43.1375 1409.53 45.0075Q1408.28 46.8775 1407.73 49.2575L1406.37 43.4775L1408.15 43.4775Q1408.83 40.8425 1410.38 38.6963Q1411.94 36.55 1414.53 35.275Q1417.12 34 1420.9 34Q1426.68 34 1429.66 36.975Q1432.63 39.95 1433.4 45.645Q1433.61 46.4525 1433.72 47.4725Q1433.82 48.4925 1433.82 49.47L1433.82 76.5L1425.54 76.5ZM1469.82 76.5L1469.82 34.935L1478.15 34.935L1478.15 76.5L1469.82 76.5ZM1473.99 28.815Q1471.52 28.815 1470.31 27.5612Q1469.1 26.3075 1469.1 24.0975L1469.1 23.9275Q1469.1 21.7175 1470.31 20.4637Q1471.52 19.21 1473.99 19.21Q1476.45 19.21 1477.66 20.4637Q1478.87 21.7175 1478.87 23.9275L1478.87 24.0975Q1478.87 26.35 1477.66 27.5825Q1476.45 28.815 1473.99 28.815ZM1505.9 77.5625Q1496.72 77.5625 1491.96 72.675Q1487.2 67.7875 1487.2 58.6075L1487.2 52.7Q1487.2 43.5625 1491.96 38.6963Q1496.72 33.83 1505.9 33.83Q1515.08 33.83 1519.82 38.6963Q1524.56 43.5625 1524.56 52.7L1524.56 58.6075Q1524.56 67.7875 1519.82 72.675Q1515.08 77.5625 1505.9 77.5625ZM1505.9 70.805Q1510.96 70.805 1513.6 67.7875Q1516.23 64.77 1516.23 59.1175L1516.23 52.19Q1516.23 46.58 1513.6 43.5837Q1510.96 40.5875 1505.9 40.5875Q1500.85 40.5875 1498.21 43.5837Q1495.58 46.58 1495.58 52.19L1495.58 59.1175Q1495.58 64.77 1498.21 67.7875Q1500.85 70.805 1505.9 70.805ZM1546.92 77.4775Q1541.9 77.4775 1538.12 76.4362Q1534.34 75.395 1531.79 74.1625L1531.02 66.555Q1534.17 68.1275 1537.95 69.2962Q1541.73 70.465 1546.45 70.465Q1551 70.465 1553.18 69.1263Q1555.37 67.7875 1555.37 65.1525L1555.37 64.8125Q1555.37 63.1125 1554.48 61.9862Q1553.59 60.86 1551.31 59.9675Q1549.04 59.075 1544.88 58.14Q1539.65 56.95 1536.63 55.335Q1533.61 53.72 1532.32 51.3612Q1531.02 49.0025 1531.02 45.6875L1531.02 45.305Q1531.02 39.695 1534.93 36.805Q1538.84 33.915 1546.66 33.915Q1551.59 33.915 1555.25 34.9775Q1558.9 36.04 1561.28 37.4L1562.05 44.3275Q1559.2 42.7975 1555.56 41.7562Q1551.93 40.715 1547.51 40.715Q1544.49 40.715 1542.67 41.2887Q1540.84 41.8625 1540.03 42.9037Q1539.22 43.945 1539.22 45.39L1539.22 45.6875Q1539.22 47.26 1540.07 48.4287Q1540.92 49.5975 1543.11 50.5112Q1545.3 51.425 1549.21 52.275Q1554.48 53.38 1557.63 54.8675Q1560.77 56.355 1562.17 58.6712Q1563.58 60.9875 1563.58 64.6425L1563.58 65.28Q1563.58 71.3575 1559.41 74.4175Q1555.25 77.4775 1546.92 77.4775Z" />
      </g>
    </g>
  </g>
</svg>