<?xml version="1.0" encoding="utf-8"?>
<svg width="2000" height="2000" viewBox="0 0 2000 2000" fill="none" stroke="none" version="1.1" xmlns:xlink="http://www.w3.org/1999/xlink" xmlns="http://www.w3.org/2000/svg">
  <g id="Group">
    <rect id="Rectangle" width="2000" height="2000" style="fill:#D3D3D3;fill-rule:evenodd;fill-opacity:0;mix-blend-mode:normal;" />
    <g id="Group" transform="translate(500 575)">
      <g id="Group" transform="translate(126.13 0)">
        <g id="Group#1">
          <path id="Shape" d="M448.749 2.59998C449.18 4.1167 450.914 16.6835 452.864 30.3336C456.331 58.0672 454.598 121.118 449.831 133.251C440.732 156.868 434.446 187.418 431.413 222.302C427.081 272.569 423.614 281.453 396.531 314.168C396.531 314.168 379.63 334.103 379.63 334.103C379.63 334.103 382.232 400.62 382.232 400.62C383.531 437.022 385.696 470.17 386.998 474.289C388.08 478.404 391.548 485.555 394.581 490.105C399.781 497.904 400.646 498.338 411.048 498.338C420.581 498.338 422.749 499.204 428.38 505.273C435.966 513.723 436.614 521.089 429.897 524.556C424.265 527.589 378.764 526.072 372.696 522.605C367.281 519.572 351.679 473.637 337.813 420.337C331.313 394.771 325.464 373.32 324.813 372.669C323.731 371.587 319.613 376.136 302.928 397.587C292.746 410.587 292.746 410.587 291.446 431.387C290.363 448.505 289.279 453.92 284.079 463.453C278.013 474.289 268.262 484.687 256.996 492.055C251.796 495.522 252.229 495.522 268.046 494.437C284.296 493.572 284.296 493.572 290.146 500.506C296.428 507.871 297.731 515.24 293.395 519.572C291.446 521.523 268.479 522.171 203.912 522.171C124.177 522.171 115.511 521.74 99.6938 517.839C75.4267 511.773 49.4264 498.338 33.8262 483.822C11.5094 463.239 -2.79074 427.272 0.459253 399.755C4.79266 363.787 23.4262 334.103 54.1932 313.954C61.3433 309.188 67.6266 305.504 68.2766 305.504C69.1434 305.504 65.6766 313.954 60.4765 324.353C36.643 373.32 37.0763 423.153 61.5601 446.989C68.9266 453.92 82.7936 462.371 89.7269 464.104C91.6769 464.539 94.9269 456.739 99.9105 439.838C129.594 338.004 187.878 255.452 262.412 209.519C286.679 194.569 313.547 169.435 323.08 153.185C326.33 147.335 333.912 127.401 339.764 108.768C349.731 76.9174 350.379 73.4509 351.031 47.667C351.679 19.2835 355.146 0 359.912 0C364.031 0 377.465 16.2502 385.482 30.7668C392.196 42.6838 392.63 42.9005 403.031 43.767C412.347 44.417 414.081 43.767 416.897 39.0005C436.831 6.71673 446.364 -4.33338 448.749 2.59998C448.749 2.59998 448.749 2.59998 448.749 2.59998C448.749 2.59998 448.749 2.59998 448.749 2.59998Z" style="fill:#002E82;mix-blend-mode:normal;" />
          <path id="Shape#1" d="M90.0283 0.688309C90.6795 1.55479 92.413 10.0049 93.7125 19.3218C95.8801 32.7552 95.8801 37.9552 93.9295 45.1053C92.413 49.8721 90.8965 62.6555 90.6795 73.4889C90.6795 73.4889 90.2454 92.9891 90.2454 92.9891C90.2454 92.9891 98.479 103.389 98.479 103.389C106.93 114.224 112.564 117.905 132.279 126.138C150.914 133.941 166.947 144.556 183.631 160.155C212.664 187.024 231.082 222.123 243.214 274.124C248.849 297.959 272.465 312.693 301.498 310.742C333.35 308.358 352.416 288.64 352.416 257.873C352.199 240.758 346.567 225.59 334.432 210.639C326.633 200.889 326.633 200.889 331.182 194.606C335.949 187.675 341.801 188.757 351.551 198.507C367.367 214.324 375.383 235.34 375.6 262.209C375.818 283.443 371.051 297.308 359.133 310.742C339.85 332.193 303.883 340.21 263.583 332.193C224.799 324.174 214.181 325.042 204.431 336.309C204.431 336.309 199.881 341.509 199.881 341.509C199.881 341.509 148.315 341.509 148.315 341.509C111.048 341.509 96.0972 340.858 94.1466 338.907C90.0283 334.792 91.1136 328.726 96.9625 323.091C101.729 318.108 103.897 317.674 120.798 317.674C130.979 317.674 139.213 317.025 139.213 316.374C139.213 315.726 135.529 310.742 130.762 305.108C126.213 299.476 119.496 289.726 116.029 283.443C116.029 283.443 109.529 272.176 109.529 272.176C109.529 272.176 96.0972 302.943 96.0972 302.943C88.7289 320.058 80.9294 335.657 79.1958 337.608C75.2975 342.157 52.9784 343.026 45.8301 339.341C38.0277 335.009 42.5801 320.71 52.7614 317.242C55.1461 316.374 55.7973 308.792 55.7973 279.541C55.7973 230.791 54.2779 224.725 35.2118 203.925C14.6292 181.175 10.2968 171.639 10.5109 149.757C10.728 140.224 11.5962 125.49 12.4615 116.822C13.978 102.739 13.5468 100.573 8.99438 94.2891C5.09613 88.6559 3.57965 82.589 2.06311 64.3888C-0.755737 33.4052 -0.755737 12.3884 2.49429 4.80484C4.87906 -0.828476 5.31314 -1.04524 9.86264 1.77156C12.4615 3.72159 19.3957 11.0884 25.4616 18.2385C36.2971 31.4552 36.2971 31.4552 46.9125 31.0219C57.3138 30.5887 58.1791 29.9387 67.278 18.6718C77.2452 6.32161 88.2977 -2.34525 90.0283 0.688309C90.0283 0.688309 90.0283 0.688309 90.0283 0.688309C90.0283 0.688309 90.0283 0.688309 90.0283 0.688309ZM80.9323 257.873L81.1464 271.091C81.1464 271.091 84.1794 258.091 84.1794 258.091C88.0806 240.324 88.0806 238.373 83.9653 241.84C81.5806 243.791 80.7153 248.34 80.9323 257.873C80.9323 257.873 80.9323 257.873 80.9323 257.873L80.9323 257.873Z" style="fill:#CB6120;fill-rule:evenodd;mix-blend-mode:normal;" transform="translate(439.837 184.546)" />
        </g>
      </g>
      <g id="ÁGILVET" transform="translate(0 525.052)">
        <path id="ÁGIL-VET" d="M47.5136 212.804L0 212.804L80.4408 50.6701L140.581 50.6701L167.195 212.804L119.682 212.804L115.491 181.781L62.0452 181.781L47.5136 212.804L47.5136 212.804L47.5136 212.804ZM77.502 148.854L111.082 148.854L103.844 95.2989L102.592 95.2989L77.502 148.854L77.502 148.854L77.502 148.854ZM98.4556 35.4853L119.682 0L157.072 0L127.301 35.4853L98.4556 35.4853L98.4556 35.4853L98.4556 35.4853ZM298.446 104.17C298.083 98.6551 296.158 94.3737 292.676 91.3258C289.229 88.2782 284.077 86.754 277.219 86.754C266.08 86.754 256.555 90.6911 248.645 98.5645C240.772 106.438 235.674 117.396 233.352 131.437C230.993 145.661 231.919 156.764 236.128 164.746C240.373 172.728 248.156 176.719 259.476 176.719C269.418 176.719 277.364 174.633 283.315 170.461C289.301 166.288 292.911 160.664 294.146 153.589C294.146 153.589 264.864 153.589 264.864 153.589L269.926 122.24L341.823 122.24C341.823 122.24 338.177 144.717 338.177 144.717C335.745 159.485 330.539 172.112 322.558 182.597C314.573 193.084 304.633 201.121 292.73 206.708C280.865 212.26 267.84 215.035 253.653 215.035C237.905 215.035 224.626 211.679 213.813 204.966C203 198.254 195.272 188.711 190.628 176.339C186.02 163.93 185.113 149.162 187.906 132.036C190.156 118.648 194.184 106.783 199.989 96.442C205.831 86.1011 212.961 77.3568 221.378 70.2088C229.832 63.061 239.157 57.6548 249.353 53.99C259.549 50.2891 270.107 48.4385 281.029 48.4385C293.8 48.4385 304.94 50.8335 314.447 55.6229C323.989 60.4123 331.281 66.9977 336.326 75.3792C341.407 83.7246 343.601 93.3216 342.911 104.17C342.911 104.17 298.446 104.17 298.446 104.17L298.446 104.17C298.446 104.17 298.446 104.17 298.446 104.17ZM418.296 50.6701L391.41 212.804L347.379 212.804L374.265 50.6701L418.296 50.6701L418.296 50.6701L418.296 50.6701ZM412.294 212.804L439.181 50.6701L483.212 50.6701L462.312 177.318L527.841 177.318L521.854 212.804L412.294 212.804L412.294 212.804L412.294 212.804Z" style="fill:#002E82;fill-rule:evenodd;mix-blend-mode:normal;" />
        <path id="ÁGIL-VET#1" d="M49.7449 0L64.0035 114.293L65.256 114.293L117.506 0L167.195 0L86.8095 162.134L26.6133 162.134L0 0L49.7449 0L49.7449 0L49.7449 0ZM155.832 162.134L182.718 0L299.57 0L293.583 35.4853L220.759 35.4853L216.298 63.3511L283.132 63.3511L277.092 98.7821L210.311 98.7821L205.847 126.648L278.342 126.648L272.355 162.134L155.832 162.134L155.832 162.134L155.832 162.134ZM310.962 35.4853L317.005 0L457.912 0L451.873 35.4853L403.107 35.4853L382.208 162.134L338.828 162.134L359.728 35.4853L310.962 35.4853L310.962 35.4853L310.962 35.4853Z" style="fill:#CB6120;fill-rule:evenodd;mix-blend-mode:normal;" transform="translate(542.088 50.67)" />
      </g>
      <path id="Shape" d="M17.5307 35.8606C15.0816 35.8606 12.7914 35.4266 10.6602 34.5588C8.53764 33.6907 6.67714 32.4747 5.07877 30.9107C3.48038 29.3467 2.23431 27.5335 1.34061 25.471C0.446869 23.4 0 21.1571 0 18.7424C0 16.319 0.451157 14.0717 1.35347 12.0007C2.26439 9.92114 3.51904 8.09937 5.11742 6.53534C6.71582 4.97131 8.56343 3.75104 10.6602 2.87451C12.7656 1.98938 15.0429 1.54681 17.4921 1.54681C19.7865 1.54681 21.9349 1.93781 23.9372 2.71985C25.9481 3.50183 27.7226 4.60181 29.2609 6.01971C29.2609 6.01971 27.7271 12.3231 27.7271 12.3231C26.6958 10.6645 25.2993 9.30243 23.5376 8.23688C21.7759 7.17126 19.7608 6.63849 17.4921 6.63849C15.2406 6.63849 13.2211 7.17126 11.4336 8.23688C9.6548 9.30243 8.23688 10.7504 7.17987 12.5809C6.13147 14.4112 5.60727 16.4651 5.60727 18.7424C5.60727 21.011 6.12717 23.0563 7.16698 24.8782C8.20679 26.7 9.62471 28.1522 11.4208 29.235C13.2168 30.3091 15.2277 30.8462 17.4534 30.8462C18.6479 30.8462 19.7651 30.713 20.8049 30.4467C21.8447 30.1718 22.7943 29.7894 23.6536 29.2995C23.6536 29.2995 23.6536 21.7845 23.6536 21.7845L15.7648 21.7845L15.7648 17.1699L28.6681 17.1699C28.6681 17.1699 28.6681 32.419 28.6681 32.419C27.1813 33.5448 25.4754 34.3998 23.5505 34.9841C21.6341 35.5684 19.6275 35.8606 17.5307 35.8606C17.5307 35.8606 17.5307 35.8606 17.5307 35.8606ZM45.9452 35.7961C43.5475 35.7961 41.4249 35.2848 39.5774 34.2623C37.7384 33.2311 36.2904 31.8218 35.2333 30.0343C34.1849 28.2468 33.6607 26.2316 33.6607 23.9888C33.6607 21.8317 34.1678 19.8981 35.1819 18.188C36.1958 16.478 37.5621 15.1245 39.2808 14.1276C41.0081 13.1223 42.9245 12.6196 45.03 12.6196C47.1267 12.6196 49.0259 13.1094 50.7276 14.0892C52.429 15.0601 53.7738 16.3834 54.7619 18.0593C55.7502 19.735 56.2444 21.6384 56.2444 23.7697C56.2444 23.7697 56.2444 25.6643 56.2444 25.6643C56.2444 25.6643 42.3487 25.6643 42.3487 25.6643C41.7386 25.6643 41.1285 25.6343 40.5184 25.5743C39.9083 25.514 39.2981 25.4367 38.688 25.3422C38.9802 27.0523 39.7922 28.4703 41.1241 29.5961C42.4562 30.7219 44.089 31.2847 46.0226 31.2847C47.4147 31.2847 48.6908 30.9839 49.8508 30.3821C51.011 29.7806 51.9434 29.0029 52.6479 28.0491C52.6479 28.0491 53.8984 33.1925 53.8984 33.1925C52.8242 34.0173 51.5997 34.6575 50.2248 35.1129C48.8583 35.5684 47.4317 35.7961 45.9452 35.7961C45.9452 35.7961 45.9452 35.7961 45.9452 35.7961ZM38.5719 22.0811C39.8437 21.8317 41.1027 21.7071 42.3487 21.7071C42.3487 21.7071 47.9559 21.7071 47.9559 21.7071C48.566 21.7071 49.1504 21.7329 49.7091 21.7845C50.2762 21.8361 50.8305 21.8963 51.372 21.9649C51.0282 20.4525 50.2677 19.2323 49.0905 18.3042C47.9217 17.3762 46.5553 16.9121 44.9913 16.9121C43.4273 16.9121 42.0566 17.4019 40.8792 18.3813C39.7106 19.3525 38.9415 20.5857 38.5719 22.0811C38.5719 22.0811 38.5719 22.0811 38.5719 22.0811ZM67.0995 35.7961C65.8018 35.7961 64.4483 35.564 63.039 35.1C61.6383 34.6274 60.4868 33.9399 59.5845 33.0377C59.5845 33.0377 60.9379 27.8687 60.9379 27.8687C61.6254 28.917 62.5535 29.7979 63.7221 30.5112C64.8995 31.2158 66.1242 31.5681 67.396 31.5681C68.4444 31.5681 69.2135 31.3361 69.7033 30.872C70.1932 30.408 70.4381 29.8494 70.4381 29.1962C70.4381 28.4315 70.1803 27.8815 69.6646 27.5463C69.1489 27.2027 68.6591 26.945 68.195 26.7731C68.195 26.7731 65.153 25.6001 65.153 25.6001C64.5429 25.3508 63.8296 25.007 63.0132 24.5688C62.1969 24.1306 61.488 23.4946 60.8863 22.6609C60.2848 21.8275 59.984 20.7405 59.984 19.3998C59.984 18.1796 60.2848 17.0581 60.8863 16.0353C61.488 15.0042 62.3431 14.1793 63.4517 13.5605C64.5601 12.9332 65.8963 12.6196 67.4603 12.6196C68.8096 12.6196 70.1244 12.8516 71.4049 13.3157C72.694 13.7797 73.7037 14.4027 74.4341 15.1847C74.4341 15.1847 73.1449 20.2375 73.1449 20.2375C72.4403 19.1634 71.5553 18.3298 70.4897 17.7369C69.424 17.1354 68.3669 16.8347 67.3186 16.8347C66.4163 16.8347 65.7332 17.0538 65.2691 17.492C64.8051 17.9302 64.5731 18.433 64.5731 19.0003C64.5731 19.4643 64.732 19.8853 65.05 20.2634C65.368 20.6415 65.8792 20.9638 66.5838 21.2302C66.5838 21.2302 69.4842 22.3389 69.4842 22.3389C70.1718 22.5794 70.9495 22.9317 71.8173 23.3958C72.6852 23.8598 73.4328 24.5215 74.0601 25.381C74.696 26.2316 75.014 27.3917 75.014 28.8613C75.014 30.9152 74.275 32.5866 72.797 33.8757C71.3188 35.1559 69.4197 35.7961 67.0995 35.7961C67.0995 35.7961 67.0995 35.7961 67.0995 35.7961ZM82.2855 35.2032L82.2855 17.389L77.7354 17.389L77.7354 13.1995L82.3887 13.1995L82.3887 5.86505L87.3386 5.86505L87.3386 13.1995L92.2497 13.1995L92.2497 17.389L87.4547 17.389L87.4547 35.2032L82.2855 35.2032L82.2855 35.2032ZM96.2457 35.2032L96.2457 13.1995L101.415 13.1995L101.415 35.2032L96.2457 35.2032L96.2457 35.2032ZM98.8495 9.61615C98.0161 9.61615 97.3071 9.32391 96.7226 8.73956C96.1384 8.14661 95.8462 7.43335 95.8462 6.59979C95.8462 5.72327 96.1384 4.99707 96.7226 4.42133C97.3071 3.84558 98.0161 3.55768 98.8495 3.55768C99.7262 3.55768 100.452 3.85419 101.028 4.44714C101.604 5.03149 101.892 5.74902 101.892 6.59979C101.892 7.43335 101.599 8.14661 101.015 8.73956C100.431 9.32391 99.709 9.61615 98.8495 9.61615C98.8495 9.61615 98.8495 9.61615 98.8495 9.61615ZM117.805 35.7961C115.657 35.7961 113.689 35.2762 111.902 34.2365C110.123 33.1967 108.705 31.796 107.648 30.0343C106.599 28.2726 106.075 26.3304 106.075 24.2079C106.075 22.0508 106.599 20.1 107.648 18.3555C108.705 16.6113 110.123 15.2191 111.902 14.1792C113.689 13.1395 115.657 12.6196 117.805 12.6196C119.979 12.6196 121.952 13.1395 123.722 14.1792C125.501 15.2191 126.915 16.6113 127.963 18.3555C129.011 20.1 129.535 22.0508 129.535 24.2079C129.535 26.3304 129.011 28.2726 127.963 30.0343C126.915 31.796 125.501 33.1967 123.722 34.2365C121.952 35.2762 119.979 35.7961 117.805 35.7961C117.805 35.7961 117.805 35.7961 117.805 35.7961ZM117.805 31.0656C119.077 31.0656 120.22 30.7562 121.234 30.1372C122.248 29.5099 123.06 28.685 123.67 27.6625C124.281 26.6313 124.586 25.4798 124.586 24.2079C124.586 22.9361 124.281 21.7888 123.67 20.7661C123.06 19.735 122.24 18.91 121.209 18.2913C120.186 17.664 119.051 17.3503 117.805 17.3503C116.559 17.3503 115.421 17.664 114.39 18.2913C113.367 18.91 112.555 19.735 111.953 20.7661C111.36 21.7888 111.064 22.9361 111.064 24.2079C111.064 25.4798 111.36 26.6313 111.953 27.6625C112.555 28.685 113.363 29.5099 114.377 30.1372C115.391 30.7562 116.533 31.0656 117.805 31.0656C117.805 31.0656 117.805 31.0656 117.805 31.0656ZM115.614 10.1188L118.953 3.08075L124.74 3.08075L119.791 10.1188L115.614 10.1188L115.614 10.1188ZM134.156 35.2032L134.156 13.1995L138.848 13.1995C138.848 13.1995 138.848 16.1773 138.848 16.1773C139.656 15.0258 140.666 14.1449 141.877 13.5348C143.089 12.9246 144.404 12.6196 145.822 12.6196C147.386 12.6196 148.838 12.9977 150.178 13.7539C151.528 14.5101 152.615 15.61 153.44 17.0538C154.273 18.4975 154.69 20.2463 154.69 22.3002C154.69 22.3002 154.69 35.2032 154.69 35.2032L149.521 35.2032C149.521 35.2032 149.521 22.9962 149.521 22.9962C149.521 21.5009 149.079 20.1861 148.193 19.0519C147.317 17.9175 146.062 17.3503 144.43 17.3503C143.106 17.3503 141.924 17.8144 140.885 18.7424C139.845 19.6705 139.325 21.0497 139.325 22.8801C139.325 22.8801 139.325 35.2032 139.325 35.2032L134.156 35.2032L134.156 35.2032ZM172.619 35.2032L172.619 2.20422L178.123 2.20422L178.123 35.2032L172.619 35.2032L172.619 35.2032ZM185.488 35.2032L185.488 13.1995L190.18 13.1995C190.18 13.1995 190.18 16.1773 190.18 16.1773C190.988 15.0258 191.997 14.1449 193.209 13.5348C194.421 12.9246 195.736 12.6196 197.154 12.6196C198.718 12.6196 200.17 12.9977 201.51 13.7539C202.86 14.5101 203.947 15.61 204.772 17.0538C205.605 18.4975 206.022 20.2463 206.022 22.3002C206.022 22.3002 206.022 35.2032 206.022 35.2032L200.853 35.2032C200.853 35.2032 200.853 22.9962 200.853 22.9962C200.853 21.5009 200.41 20.1861 199.525 19.0519C198.649 17.9175 197.394 17.3503 195.761 17.3503C194.438 17.3503 193.256 17.8144 192.217 18.7424C191.177 19.6705 190.657 21.0497 190.657 22.8801C190.657 22.8801 190.657 35.2032 190.657 35.2032L185.488 35.2032L185.488 35.2032ZM213.365 35.2032L213.365 17.389L208.815 17.389L208.815 13.1995L213.468 13.1995L213.468 5.86505L218.418 5.86505L218.418 13.1995L223.329 13.1995L223.329 17.389L218.534 17.389L218.534 35.2032L213.365 35.2032L213.365 35.2032ZM237.156 35.7961C234.759 35.7961 232.636 35.2848 230.788 34.2623C228.95 33.2311 227.501 31.8218 226.444 30.0343C225.396 28.2468 224.872 26.2316 224.872 23.9888C224.872 21.8317 225.379 19.8981 226.393 18.188C227.407 16.478 228.773 15.1245 230.492 14.1276C232.219 13.1223 234.136 12.6196 236.241 12.6196C238.338 12.6196 240.237 13.1094 241.939 14.0892C243.64 15.0601 244.985 16.3834 245.973 18.0593C246.961 19.735 247.456 21.6384 247.456 23.7697C247.456 23.7697 247.456 25.6643 247.456 25.6643C247.456 25.6643 233.56 25.6643 233.56 25.6643C232.95 25.6643 232.34 25.6343 231.729 25.5743C231.119 25.514 230.509 25.4367 229.899 25.3422C230.191 27.0523 231.003 28.4703 232.335 29.5961C233.667 30.7219 235.3 31.2847 237.234 31.2847C238.626 31.2847 239.902 30.9839 241.062 30.3821C242.222 29.7806 243.154 29.0029 243.859 28.0491C243.859 28.0491 245.11 33.1925 245.11 33.1925C244.035 34.0173 242.811 34.6575 241.436 35.1129C240.069 35.5684 238.643 35.7961 237.156 35.7961C237.156 35.7961 237.156 35.7961 237.156 35.7961ZM229.783 22.0811C231.055 21.8317 232.314 21.7071 233.56 21.7071C233.56 21.7071 239.167 21.7071 239.167 21.7071C239.777 21.7071 240.362 21.7329 240.92 21.7845C241.487 21.8361 242.042 21.8963 242.583 21.9649C242.239 20.4525 241.479 19.2323 240.302 18.3042C239.133 17.3762 237.766 16.9121 236.202 16.9121C234.638 16.9121 233.268 17.4019 232.09 18.3813C230.922 19.3525 230.153 20.5857 229.783 22.0811C229.783 22.0811 229.783 22.0811 229.783 22.0811ZM261.133 46.7916C259.423 46.7916 257.834 46.5381 256.364 46.031C254.903 45.5326 253.623 44.858 252.523 44.0074C252.523 44.0074 253.838 38.6193 253.838 38.6193C254.594 39.6677 255.595 40.527 256.841 41.1973C258.087 41.8675 259.505 42.2026 261.095 42.2026C263.467 42.2026 265.344 41.5108 266.728 40.1273C268.112 38.7524 268.803 36.965 268.803 34.765C268.803 34.765 268.803 32.6768 268.803 32.6768C267.892 33.5791 266.814 34.301 265.568 34.8425C264.322 35.3751 262.977 35.6415 261.533 35.6415C259.505 35.6415 257.657 35.1216 255.99 34.0818C254.332 33.0419 253.008 31.6626 252.02 29.9439C251.032 28.2166 250.538 26.3046 250.538 24.2079C250.538 22.1025 251.032 20.1818 252.02 18.4459C253.008 16.71 254.332 15.3308 255.99 14.3083C257.657 13.2769 259.505 12.7613 261.533 12.7613C263.003 12.7613 264.36 13.0277 265.606 13.5605C266.852 14.0847 267.927 14.8193 268.829 15.7646C268.829 15.7646 268.829 13.1995 268.829 13.1995L273.418 13.1995C273.418 13.1995 273.418 35.3449 273.418 35.3449C273.418 37.7426 272.846 39.7964 271.703 41.5065C270.569 43.2166 269.061 44.5228 267.179 45.4253C265.297 46.3362 263.282 46.7916 261.133 46.7916C261.133 46.7916 261.133 46.7916 261.133 46.7916ZM262.165 31.0269C263.411 31.0269 264.532 30.7219 265.529 30.1117C266.534 29.5014 267.334 28.685 267.927 27.6625C268.528 26.6313 268.829 25.4798 268.829 24.2079C268.829 22.9361 268.528 21.7888 267.927 20.7661C267.334 19.735 266.534 18.91 265.529 18.2913C264.532 17.664 263.411 17.3503 262.165 17.3503C260.936 17.3503 259.814 17.664 258.8 18.2913C257.786 18.91 256.979 19.735 256.377 20.7661C255.784 21.7888 255.488 22.9361 255.488 24.2079C255.488 25.454 255.784 26.5969 256.377 27.6367C256.979 28.6764 257.782 29.5014 258.788 30.1117C259.793 30.7219 260.919 31.0269 262.165 31.0269C262.165 31.0269 262.165 31.0269 262.165 31.0269ZM279.352 35.2032L279.352 13.1995L284.044 13.1995C284.044 13.1995 284.044 17.0925 284.044 17.0925C284.834 15.8206 285.84 14.8195 287.06 14.0892C288.28 13.35 289.733 12.9804 291.418 12.9804C291.418 12.9804 292.589 17.7886 292.589 17.7886C292.125 17.6425 291.602 17.5695 291.017 17.5695C289.058 17.5695 287.485 18.1924 286.3 19.4385C285.114 20.6846 284.521 22.4677 284.521 24.7879C284.521 24.7879 284.521 35.2032 284.521 35.2032L279.352 35.2032L279.352 35.2032ZM304.982 35.6415C302.954 35.6415 301.106 35.1216 299.438 34.0818C297.78 33.0419 296.457 31.6626 295.469 29.9439C294.482 28.2166 293.988 26.3046 293.988 24.2079C293.988 22.1025 294.482 20.1818 295.469 18.4459C296.457 16.71 297.78 15.3308 299.438 14.3083C301.106 13.2769 302.954 12.7613 304.982 12.7613C306.452 12.7613 307.81 13.0277 309.056 13.5605C310.302 14.0847 311.375 14.8193 312.277 15.7646C312.277 15.7646 312.277 13.1995 312.277 13.1995L316.867 13.1995L316.867 35.2032L312.277 35.2032C312.277 35.2032 312.277 32.6381 312.277 32.6381C311.375 33.5662 310.302 34.301 309.056 34.8425C307.81 35.3751 306.452 35.6415 304.982 35.6415C304.982 35.6415 304.982 35.6415 304.982 35.6415ZM305.612 31.0269C306.86 31.0269 307.982 30.7219 308.977 30.1117C309.982 29.5014 310.782 28.685 311.376 27.6625C311.977 26.6313 312.277 25.4798 312.277 24.2079C312.277 22.9361 311.977 21.7888 311.376 20.7661C310.782 19.735 309.982 18.91 308.977 18.2913C307.982 17.664 306.86 17.3503 305.612 17.3503C304.384 17.3503 303.263 17.664 302.248 18.2913C301.235 18.91 300.427 19.735 299.825 20.7661C299.233 21.7888 298.936 22.9361 298.936 24.2079C298.936 25.454 299.233 26.5969 299.825 27.6367C300.427 28.6764 301.231 29.5014 302.236 30.1117C303.241 30.7219 304.367 31.0269 305.612 31.0269C305.612 31.0269 305.612 31.0269 305.612 31.0269ZM322.839 35.2032L322.839 0L328.008 0L328.008 35.2032L322.839 35.2032L322.839 35.2032ZM344.982 46.1985L344.982 13.1995L349.573 13.1995C349.573 13.1995 349.573 15.7391 349.573 15.7391C350.5 14.8109 351.587 14.0847 352.835 13.5605C354.08 13.0277 355.425 12.7613 356.868 12.7613C358.896 12.7613 360.739 13.2769 362.397 14.3083C364.065 15.3308 365.393 16.71 366.38 18.4459C367.37 20.1818 367.865 22.1025 367.865 24.2079C367.865 26.3046 367.37 28.2166 366.38 29.9439C365.393 31.6626 364.065 33.0419 362.397 34.0818C360.739 35.1216 358.896 35.6415 356.868 35.6415C355.57 35.6415 354.353 35.4224 353.219 34.9841C352.085 34.5459 351.062 33.9487 350.151 33.1925C350.151 33.1925 350.151 46.1985 350.151 46.1985L344.982 46.1985L344.982 46.1985ZM356.249 31.0269C357.495 31.0269 358.616 30.7219 359.614 30.1117C360.619 29.5014 361.417 28.685 362.01 27.6625C362.612 26.6313 362.913 25.4798 362.913 24.2079C362.913 22.9361 362.612 21.7888 362.01 20.7661C361.417 19.735 360.619 18.91 359.614 18.2913C358.616 17.664 357.495 17.3503 356.249 17.3503C355.021 17.3503 353.9 17.664 352.885 18.2913C351.872 18.91 351.064 19.735 350.462 20.7661C349.869 21.7888 349.573 22.9361 349.573 24.2079C349.573 25.454 349.869 26.5969 350.462 27.6367C351.064 28.6764 351.868 29.5014 352.873 30.1117C353.878 30.7219 355.003 31.0269 356.249 31.0269C356.249 31.0269 356.249 31.0269 356.249 31.0269ZM382.164 35.6415C380.135 35.6415 378.287 35.1216 376.62 34.0818C374.962 33.0419 373.638 31.6626 372.649 29.9439C371.661 28.2166 371.168 26.3046 371.168 24.2079C371.168 22.1025 371.661 20.1818 372.649 18.4459C373.638 16.71 374.962 15.3308 376.62 14.3083C378.287 13.2769 380.135 12.7613 382.164 12.7613C383.633 12.7613 384.99 13.0277 386.236 13.5605C387.481 14.0847 388.556 14.8193 389.459 15.7646C389.459 15.7646 389.459 13.1995 389.459 13.1995L394.047 13.1995L394.047 35.2032L389.459 35.2032C389.459 35.2032 389.459 32.6381 389.459 32.6381C388.556 33.5662 387.481 34.301 386.236 34.8425C384.99 35.3751 383.633 35.6415 382.164 35.6415C382.164 35.6415 382.164 35.6415 382.164 35.6415ZM382.795 31.0269C384.041 31.0269 385.162 30.7219 386.159 30.1117C387.165 29.5014 387.963 28.685 388.556 27.6625C389.158 26.6313 389.459 25.4798 389.459 24.2079C389.459 22.9361 389.158 21.7888 388.556 20.7661C387.963 19.735 387.165 18.91 386.159 18.2913C385.162 17.664 384.041 17.3503 382.795 17.3503C381.565 17.3503 380.443 17.664 379.431 18.2913C378.416 18.91 377.608 19.735 377.008 20.7661C376.415 21.7888 376.119 22.9361 376.119 24.2079C376.119 25.454 376.415 26.5969 377.008 27.6367C377.608 28.6764 378.411 29.5014 379.416 30.1117C380.423 30.7219 381.549 31.0269 382.795 31.0269C382.795 31.0269 382.795 31.0269 382.795 31.0269ZM399.981 35.2032L399.981 13.1995L404.674 13.1995C404.674 13.1995 404.674 17.0925 404.674 17.0925C405.464 15.8206 406.469 14.8195 407.689 14.0892C408.91 13.35 410.363 12.9804 412.048 12.9804C412.048 12.9804 413.219 17.7886 413.219 17.7886C412.755 17.6425 412.231 17.5695 411.646 17.5695C409.687 17.5695 408.115 18.1924 406.93 19.4385C405.743 20.6846 405.149 22.4677 405.149 24.7879C405.149 24.7879 405.149 35.2032 405.149 35.2032L399.981 35.2032L399.981 35.2032ZM425.612 35.6415C423.584 35.6415 421.736 35.1216 420.068 34.0818C418.409 33.0419 417.087 31.6626 416.099 29.9439C415.11 28.2166 414.615 26.3046 414.615 24.2079C414.615 22.1025 415.11 20.1818 416.099 18.4459C417.087 16.71 418.409 15.3308 420.068 14.3083C421.736 13.2769 423.584 12.7613 425.612 12.7613C427.08 12.7613 428.438 13.0277 429.686 13.5605C430.932 14.0847 432.005 14.8193 432.907 15.7646C432.907 15.7646 432.907 13.1995 432.907 13.1995L437.497 13.1995L437.497 35.2032L432.907 35.2032C432.907 35.2032 432.907 32.6381 432.907 32.6381C432.005 33.5662 430.932 34.301 429.686 34.8425C428.438 35.3751 427.08 35.6415 425.612 35.6415C425.612 35.6415 425.612 35.6415 425.612 35.6415ZM426.242 31.0269C427.49 31.0269 428.611 30.7219 429.607 30.1117C430.614 29.5014 431.414 28.685 432.006 27.6625C432.606 26.6313 432.907 25.4798 432.907 24.2079C432.907 22.9361 432.606 21.7888 432.006 20.7661C431.414 19.735 430.614 18.91 429.607 18.2913C428.611 17.664 427.49 17.3503 426.242 17.3503C425.014 17.3503 423.893 17.664 422.878 18.2913C421.865 18.91 421.057 19.735 420.455 20.7661C419.862 21.7888 419.566 22.9361 419.566 24.2079C419.566 25.454 419.862 26.5969 420.455 27.6367C421.057 28.6764 421.861 29.5014 422.866 30.1117C423.871 30.7219 424.997 31.0269 426.242 31.0269C426.242 31.0269 426.242 31.0269 426.242 31.0269ZM470.904 35.8606C468.506 35.8606 466.26 35.418 464.163 34.533C462.075 33.6393 460.236 32.4104 458.646 30.8462C457.064 29.2736 455.817 27.4518 454.906 25.381C454.004 23.3013 453.554 21.0756 453.554 18.7037C453.554 16.3319 454.004 14.1105 454.906 12.0394C455.817 9.95984 457.064 8.138 458.646 6.57404C460.236 5.0014 462.075 3.77252 464.163 2.88739C466.26 1.99365 468.506 1.54681 470.904 1.54681C473.172 1.54681 475.304 1.93781 477.298 2.71985C479.291 3.50183 481.057 4.60181 482.596 6.01971C482.596 6.01971 481.047 12.4005 481.047 12.4005C480.026 10.7333 478.648 9.37122 476.911 8.31421C475.175 7.2486 473.206 6.71582 471.007 6.71582C468.807 6.71582 466.822 7.25293 465.052 8.32709C463.282 9.40125 461.877 10.845 460.837 12.6583C459.797 14.4628 459.276 16.478 459.276 18.7037C459.276 20.9037 459.797 22.9145 460.837 24.7363C461.877 26.5582 463.282 28.0062 465.052 29.0804C466.822 30.1545 468.807 30.6916 471.007 30.6916C473.206 30.6916 475.175 30.1545 476.911 29.0804C478.648 28.0062 480.026 26.6484 481.047 25.007C481.047 25.007 482.596 31.3877 482.596 31.3877C481.031 32.754 479.257 33.8411 477.272 34.6489C475.295 35.4567 473.172 35.8606 470.904 35.8606C470.904 35.8606 470.904 35.8606 470.904 35.8606ZM486.917 35.2032L486.917 0L492.088 0L492.088 35.2032L486.917 35.2032L486.917 35.2032ZM498.101 35.2032L498.101 13.1995L503.269 13.1995L503.269 35.2032L498.101 35.2032L498.101 35.2032ZM498.515 10.1188L501.853 3.08075L507.64 3.08075L502.689 10.1188L498.515 10.1188L498.515 10.1188ZM509.244 35.2032L509.244 13.1995L513.938 13.1995C513.938 13.1995 513.938 16.1773 513.938 16.1773C514.745 15.0258 515.755 14.1449 516.968 13.5348C518.178 12.9246 519.492 12.6196 520.91 12.6196C522.474 12.6196 523.927 12.9977 525.269 13.7539C526.618 14.5101 527.704 15.61 528.528 17.0538C529.363 18.4975 529.78 20.2463 529.78 22.3002C529.78 22.3002 529.78 35.2032 529.78 35.2032L524.612 35.2032C524.612 35.2032 524.612 22.9962 524.612 22.9962C524.612 21.5009 524.169 20.1861 523.283 19.0519C522.407 17.9175 521.152 17.3503 519.52 17.3503C518.196 17.3503 517.014 17.8144 515.973 18.7424C514.933 19.6705 514.413 21.0497 514.413 22.8801C514.413 22.8801 514.413 35.2032 514.413 35.2032L509.244 35.2032L509.244 35.2032ZM535.315 35.2032L535.315 13.1995L540.486 13.1995L540.486 35.2032L535.315 35.2032L535.315 35.2032ZM537.92 9.61615C537.087 9.61615 536.378 9.32391 535.793 8.73956C535.208 8.14661 534.916 7.43335 534.916 6.59979C534.916 5.72327 535.208 4.99707 535.793 4.42133C536.378 3.84558 537.087 3.55768 537.92 3.55768C538.796 3.55768 539.522 3.85419 540.099 4.44714C540.674 5.03149 540.962 5.74902 540.962 6.59979C540.962 7.43335 540.669 8.14661 540.085 8.73956C539.502 9.32391 538.78 9.61615 537.92 9.61615C537.92 9.61615 537.92 9.61615 537.92 9.61615ZM556.916 35.7961C554.766 35.7961 552.798 35.2762 551.011 34.2365C549.224 33.1967 547.797 31.796 546.731 30.0343C545.673 28.2726 545.144 26.3304 545.144 24.2079C545.144 22.0508 545.673 20.1 546.731 18.3555C547.797 16.6113 549.224 15.2191 551.011 14.1792C552.798 13.1395 554.766 12.6196 556.916 12.6196C558.48 12.6196 559.945 12.8817 561.31 13.4057C562.684 13.93 563.896 14.6691 564.944 15.6229C564.944 15.6229 563.515 21.385 563.515 21.385C562.905 20.2592 562.037 19.3054 560.911 18.5233C559.784 17.7413 558.491 17.3503 557.03 17.3503C555.759 17.3503 554.603 17.6554 553.563 18.2655C552.523 18.8756 551.702 19.7006 551.102 20.7403C550.509 21.7802 550.213 22.9361 550.213 24.2079C550.213 25.454 550.509 26.5969 551.102 27.6367C551.702 28.6764 552.523 29.5099 553.563 30.1372C554.603 30.7562 555.759 31.0656 557.03 31.0656C558.491 31.0656 559.784 30.6746 560.911 29.8926C562.037 29.1106 562.905 28.1567 563.515 27.0309C563.515 27.0309 564.944 32.7411 564.944 32.7411C563.896 33.6949 562.684 34.4426 561.31 34.9841C559.945 35.5254 558.48 35.7961 556.916 35.7961C556.916 35.7961 556.916 35.7961 556.916 35.7961ZM578.692 35.6415C576.662 35.6415 574.814 35.1216 573.148 34.0818C571.49 33.0419 570.166 31.6626 569.177 29.9439C568.189 28.2166 567.695 26.3046 567.695 24.2079C567.695 22.1025 568.189 20.1818 569.177 18.4459C570.166 16.71 571.49 15.3308 573.148 14.3083C574.814 13.2769 576.662 12.7613 578.692 12.7613C580.161 12.7613 581.518 13.0277 582.763 13.5605C584.009 14.0847 585.083 14.8193 585.987 15.7646C585.987 15.7646 585.987 13.1995 585.987 13.1995L590.575 13.1995L590.575 35.2032L585.987 35.2032C585.987 35.2032 585.987 32.6381 585.987 32.6381C585.083 33.5662 584.009 34.301 582.763 34.8425C581.518 35.3751 580.161 35.6415 578.692 35.6415C578.692 35.6415 578.692 35.6415 578.692 35.6415ZM579.323 31.0269C580.568 31.0269 581.69 30.7219 582.687 30.1117C583.692 29.5014 584.491 28.685 585.083 27.6625C585.686 26.6313 585.987 25.4798 585.987 24.2079C585.987 22.9361 585.686 21.7888 585.083 20.7661C584.491 19.735 583.692 18.91 582.687 18.2913C581.69 17.664 580.568 17.3503 579.323 17.3503C578.093 17.3503 576.971 17.664 575.958 18.2913C574.943 18.91 574.136 19.735 573.535 20.7661C572.943 21.7888 572.647 22.9361 572.647 24.2079C572.647 25.454 572.943 26.5969 573.535 27.6367C574.136 28.6764 574.938 29.5014 575.943 30.1117C576.951 30.7219 578.077 31.0269 579.323 31.0269C579.323 31.0269 579.323 31.0269 579.323 31.0269ZM602.967 35.7961C601.669 35.7961 600.316 35.564 598.908 35.1C597.506 34.6274 596.354 33.9399 595.453 33.0377C595.453 33.0377 596.805 27.8687 596.805 27.8687C597.493 28.917 598.422 29.7979 599.591 30.5112C600.769 31.2158 601.993 31.5681 603.264 31.5681C604.312 31.5681 605.081 31.3361 605.572 30.872C606.061 30.408 606.305 29.8494 606.305 29.1962C606.305 28.4315 606.047 27.8815 605.531 27.5463C605.017 27.2027 604.527 26.945 604.062 26.7731C604.062 26.7731 601.02 25.6001 601.02 25.6001C600.41 25.3508 599.697 25.007 598.881 24.5688C598.064 24.1306 597.355 23.4946 596.755 22.6609C596.153 21.8275 595.851 20.7405 595.851 19.3998C595.851 18.1796 596.153 17.0581 596.755 16.0353C597.355 15.0042 598.21 14.1793 599.319 13.5605C600.427 12.9332 601.764 12.6196 603.328 12.6196C604.678 12.6196 605.993 12.8516 607.273 13.3157C608.562 13.7797 609.571 14.4027 610.301 15.1847C610.301 15.1847 609.013 20.2375 609.013 20.2375C608.309 19.1634 607.424 18.3298 606.358 17.7369C605.293 17.1354 604.236 16.8347 603.188 16.8347C602.284 16.8347 601.601 17.0538 601.137 17.492C600.674 17.9302 600.442 18.433 600.442 19.0003C600.442 19.4643 600.6 19.8853 600.917 20.2634C601.236 20.6415 601.747 20.9638 602.451 21.2302C602.451 21.2302 605.352 22.3389 605.352 22.3389C606.039 22.5794 606.816 22.9317 607.684 23.3958C608.552 23.8598 609.3 24.5215 609.928 25.381C610.564 26.2316 610.881 27.3917 610.881 28.8613C610.881 30.9152 610.142 32.5866 608.664 33.8757C607.185 35.1559 605.287 35.7961 602.967 35.7961C602.967 35.7961 602.967 35.7961 602.967 35.7961ZM637.507 36.2988L623.946 2.20422L629.616 2.20422C629.616 2.20422 636.216 18.9229 636.216 18.9229C636.492 19.6104 636.75 20.2764 636.99 20.921C637.239 21.5653 637.484 22.3043 637.727 23.1379C637.949 22.3301 638.181 21.6082 638.422 20.9723C638.67 20.3364 638.927 19.6532 639.193 18.9229C639.193 18.9229 645.755 2.20422 645.755 2.20422L651.143 2.20422L637.583 36.2988L637.507 36.2988L637.507 36.2988ZM662.111 35.7961C659.713 35.7961 657.59 35.2848 655.742 34.2623C653.904 33.2311 652.456 31.8218 651.398 30.0343C650.35 28.2468 649.826 26.2316 649.826 23.9888C649.826 21.8317 650.334 19.8981 651.349 18.188C652.361 16.478 653.727 15.1245 655.446 14.1276C657.173 13.1223 659.089 12.6196 661.195 12.6196C663.292 12.6196 665.19 13.1094 666.892 14.0892C668.593 15.0601 669.938 16.3834 670.928 18.0593C671.915 19.735 672.409 21.6384 672.409 23.7697C672.409 23.7697 672.409 25.6643 672.409 25.6643C672.409 25.6643 658.514 25.6643 658.514 25.6643C657.904 25.6643 657.294 25.6343 656.684 25.5743C656.074 25.514 655.464 25.4367 654.854 25.3422C655.145 27.0523 655.957 28.4703 657.288 29.5961C658.622 30.7219 660.255 31.2847 662.187 31.2847C663.579 31.2847 664.856 30.9839 666.018 30.3821C667.177 29.7806 668.109 29.0029 668.813 28.0491C668.813 28.0491 670.063 33.1925 670.063 33.1925C668.989 34.0173 667.765 34.6575 666.39 35.1129C665.023 35.5684 663.597 35.7961 662.111 35.7961C662.111 35.7961 662.111 35.7961 662.111 35.7961ZM654.736 22.0811C656.009 21.8317 657.269 21.7071 658.514 21.7071C658.514 21.7071 664.123 21.7071 664.123 21.7071C664.733 21.7071 665.317 21.7329 665.874 21.7845C666.441 21.8361 666.995 21.8963 667.537 21.9649C667.193 20.4525 666.432 19.2323 665.255 18.3042C664.088 17.3762 662.722 16.9121 661.157 16.9121C659.593 16.9121 658.222 17.4019 657.045 18.3813C655.875 19.3525 655.106 20.5857 654.736 22.0811C654.736 22.0811 654.736 22.0811 654.736 22.0811ZM679.384 35.2032L679.384 17.389L674.835 17.389L674.835 13.1995L679.487 13.1995L679.487 5.86505L684.438 5.86505L684.438 13.1995L689.349 13.1995L689.349 17.389L684.553 17.389L684.553 35.2032L679.384 35.2032L679.384 35.2032ZM703.176 35.7961C700.779 35.7961 698.656 35.2848 696.808 34.2623C694.97 33.2311 693.522 31.8218 692.464 30.0343C691.416 28.2468 690.892 26.2316 690.892 23.9888C690.892 21.8317 691.399 19.8981 692.414 18.188C693.427 16.478 694.793 15.1245 696.512 14.1276C698.238 13.1223 700.155 12.6196 702.261 12.6196C704.357 12.6196 706.256 13.1094 707.957 14.0892C709.659 15.0601 711.004 16.3834 711.993 18.0593C712.981 19.735 713.475 21.6384 713.475 23.7697C713.475 23.7697 713.475 25.6643 713.475 25.6643C713.475 25.6643 699.58 25.6643 699.58 25.6643C698.97 25.6643 698.36 25.6343 697.75 25.5743C697.139 25.514 696.529 25.4367 695.919 25.3422C696.211 27.0523 697.022 28.4703 698.354 29.5961C699.687 30.7219 701.32 31.2847 703.252 31.2847C704.645 31.2847 705.922 30.9839 707.083 30.3821C708.243 29.7806 709.174 29.0029 709.879 28.0491C709.879 28.0491 711.128 33.1925 711.128 33.1925C710.055 34.0173 708.83 34.6575 707.456 35.1129C706.089 35.5684 704.662 35.7961 703.176 35.7961C703.176 35.7961 703.176 35.7961 703.176 35.7961ZM695.802 22.0811C697.075 21.8317 698.334 21.7071 699.58 21.7071C699.58 21.7071 705.188 21.7071 705.188 21.7071C705.798 21.7071 706.382 21.7329 706.939 21.7845C707.507 21.8361 708.061 21.8963 708.603 21.9649C708.258 20.4525 707.498 19.2323 706.32 18.3042C705.153 17.3762 703.787 16.9121 702.223 16.9121C700.658 16.9121 699.288 17.4019 698.11 18.3813C696.941 19.3525 696.172 20.5857 695.802 22.0811C695.802 22.0811 695.802 22.0811 695.802 22.0811ZM717.872 35.2032L717.872 13.1995L722.565 13.1995C722.565 13.1995 722.565 17.0925 722.565 17.0925C723.355 15.8206 724.36 14.8195 725.58 14.0892C726.8 13.35 728.253 12.9804 729.939 12.9804C729.939 12.9804 731.109 17.7886 731.109 17.7886C730.646 17.6425 730.122 17.5695 729.537 17.5695C727.578 17.5695 726.006 18.1924 724.82 19.4385C723.634 20.6846 723.04 22.4677 723.04 24.7879C723.04 24.7879 723.04 35.2032 723.04 35.2032L717.872 35.2032L717.872 35.2032ZM734.594 35.2032L734.594 13.1995L739.762 13.1995L739.762 35.2032L734.594 35.2032L734.594 35.2032ZM737.199 9.61615C736.364 9.61615 735.655 9.32391 735.072 8.73956C734.488 8.14661 734.195 7.43335 734.195 6.59979C734.195 5.72327 734.488 4.99707 735.072 4.42133C735.655 3.84558 736.364 3.55768 737.199 3.55768C738.075 3.55768 738.8 3.85419 739.375 4.44714C739.952 5.03149 740.241 5.74902 740.241 6.59979C740.241 7.43335 739.948 8.14661 739.364 8.73956C738.779 9.32391 738.057 9.61615 737.199 9.61615C737.199 9.61615 737.199 9.61615 737.199 9.61615ZM745.737 35.2032L745.737 13.1995L750.431 13.1995C750.431 13.1995 750.431 16.1773 750.431 16.1773C751.238 15.0258 752.248 14.1449 753.461 13.5348C754.671 12.9246 755.985 12.6196 757.403 12.6196C758.967 12.6196 760.42 12.9977 761.762 13.7539C763.111 14.5101 764.197 15.61 765.021 17.0538C765.856 18.4975 766.273 20.2463 766.273 22.3002C766.273 22.3002 766.273 35.2032 766.273 35.2032L761.105 35.2032C761.105 35.2032 761.105 22.9962 761.105 22.9962C761.105 21.5009 760.662 20.1861 759.776 19.0519C758.9 17.9175 757.646 17.3503 756.013 17.3503C754.689 17.3503 753.507 17.8144 752.466 18.7424C751.426 19.6705 750.906 21.0497 750.906 22.8801C750.906 22.8801 750.906 35.2032 750.906 35.2032L745.737 35.2032L745.737 35.2032ZM781.453 35.6415C779.423 35.6415 777.575 35.1216 775.909 34.0818C774.251 33.0419 772.927 31.6626 771.937 29.9439C770.95 28.2166 770.456 26.3046 770.456 24.2079C770.456 22.1025 770.95 20.1818 771.937 18.4459C772.927 16.71 774.251 15.3308 775.909 14.3083C777.575 13.2769 779.423 12.7613 781.453 12.7613C782.921 12.7613 784.278 13.0277 785.524 13.5605C786.77 14.0847 787.844 14.8193 788.748 15.7646C788.748 15.7646 788.748 13.1995 788.748 13.1995L793.335 13.1995L793.335 35.2032L788.748 35.2032C788.748 35.2032 788.748 32.6381 788.748 32.6381C787.844 33.5662 786.77 34.301 785.524 34.8425C784.278 35.3751 782.921 35.6415 781.453 35.6415C781.453 35.6415 781.453 35.6415 781.453 35.6415ZM782.083 31.0269C783.329 31.0269 784.451 30.7219 785.448 30.1117C786.453 29.5014 787.252 28.685 787.844 27.6625C788.447 26.6313 788.748 25.4798 788.748 24.2079C788.748 22.9361 788.447 21.7888 787.844 20.7661C787.252 19.735 786.453 18.91 785.448 18.2913C784.451 17.664 783.329 17.3503 782.083 17.3503C780.853 17.3503 779.732 17.664 778.719 18.2913C777.704 18.91 776.896 19.735 776.296 20.7661C775.702 21.7888 775.404 22.9361 775.404 24.2079C775.404 25.454 775.702 26.5969 776.296 27.6367C776.896 28.6764 777.7 29.5014 778.707 30.1117C779.712 30.7219 780.838 31.0269 782.083 31.0269C782.083 31.0269 782.083 31.0269 782.083 31.0269ZM799.269 35.2032L799.269 13.1995L803.963 13.1995C803.963 13.1995 803.963 17.0925 803.963 17.0925C804.752 15.8206 805.758 14.8195 806.978 14.0892C808.198 13.35 809.651 12.9804 811.337 12.9804C811.337 12.9804 812.507 17.7886 812.507 17.7886C812.044 17.6425 811.519 17.5695 810.935 17.5695C808.975 17.5695 807.403 18.1924 806.218 19.4385C805.031 20.6846 804.438 22.4677 804.438 24.7879C804.438 24.7879 804.438 35.2032 804.438 35.2032L799.269 35.2032L799.269 35.2032ZM815.992 35.2032L815.992 13.1995L821.16 13.1995L821.16 35.2032L815.992 35.2032L815.992 35.2032ZM818.596 9.61615C817.761 9.61615 817.053 9.32391 816.47 8.73956C815.885 8.14661 815.593 7.43335 815.593 6.59979C815.593 5.72327 815.885 4.99707 816.47 4.42133C817.053 3.84558 817.761 3.55768 818.596 3.55768C819.473 3.55768 820.198 3.85419 820.773 4.44714C821.35 5.03149 821.638 5.74902 821.638 6.59979C821.638 7.43335 821.346 8.14661 820.761 8.73956C820.177 9.32391 819.455 9.61615 818.596 9.61615C818.596 9.61615 818.596 9.61615 818.596 9.61615ZM836.818 35.6415C834.788 35.6415 832.94 35.1216 831.274 34.0818C829.616 33.0419 828.292 31.6626 827.302 29.9439C826.315 28.2166 825.821 26.3046 825.821 24.2079C825.821 22.1025 826.315 20.1818 827.302 18.4459C828.292 16.71 829.616 15.3308 831.274 14.3083C832.94 13.2769 834.788 12.7613 836.818 12.7613C838.286 12.7613 839.643 13.0277 840.889 13.5605C842.135 14.0847 843.209 14.8193 844.113 15.7646C844.113 15.7646 844.113 13.1995 844.113 13.1995L848.7 13.1995L848.7 35.2032L844.113 35.2032C844.113 35.2032 844.113 32.6381 844.113 32.6381C843.209 33.5662 842.135 34.301 840.889 34.8425C839.643 35.3751 838.286 35.6415 836.818 35.6415C836.818 35.6415 836.818 35.6415 836.818 35.6415ZM837.448 31.0269C838.694 31.0269 839.816 30.7219 840.813 30.1117C841.818 29.5014 842.617 28.685 843.209 27.6625C843.812 26.6313 844.113 25.4798 844.113 24.2079C844.113 22.9361 843.812 21.7888 843.209 20.7661C842.617 19.735 841.818 18.91 840.813 18.2913C839.816 17.664 838.694 17.3503 837.448 17.3503C836.218 17.3503 835.097 17.664 834.084 18.2913C833.069 18.91 832.262 19.735 831.661 20.7661C831.069 21.7888 830.772 22.9361 830.772 24.2079C830.772 25.454 831.069 26.5969 831.661 27.6367C832.262 28.6764 833.064 29.5014 834.069 30.1117C835.076 30.7219 836.203 31.0269 837.448 31.0269C837.448 31.0269 837.448 31.0269 837.448 31.0269ZM861.093 35.7961C859.795 35.7961 858.442 35.564 857.034 35.1C855.632 34.6274 854.48 33.9399 853.578 33.0377C853.578 33.0377 854.931 27.8687 854.931 27.8687C855.619 28.917 856.548 29.7979 857.717 30.5112C858.894 31.2158 860.119 31.5681 861.39 31.5681C862.438 31.5681 863.207 31.3361 863.698 30.872C864.187 30.408 864.431 29.8494 864.431 29.1962C864.431 28.4315 864.173 27.8815 863.657 27.5463C863.143 27.2027 862.653 26.945 862.188 26.7731C862.188 26.7731 859.146 25.6001 859.146 25.6001C858.536 25.3508 857.823 25.007 857.007 24.5688C856.19 24.1306 855.481 23.4946 854.881 22.6609C854.278 21.8275 853.977 20.7405 853.977 19.3998C853.977 18.1796 854.278 17.0581 854.881 16.0353C855.481 15.0042 856.336 14.1793 857.444 13.5605C858.553 12.9332 859.89 12.6196 861.454 12.6196C862.803 12.6196 864.119 12.8516 865.399 13.3157C866.688 13.7797 867.697 14.4027 868.427 15.1847C868.427 15.1847 867.139 20.2375 867.139 20.2375C866.435 19.1634 865.55 18.3298 864.484 17.7369C863.418 17.1354 862.362 16.8347 861.313 16.8347C860.41 16.8347 859.726 17.0538 859.263 17.492C858.8 17.9302 858.568 18.433 858.568 19.0003C858.568 19.4643 858.726 19.8853 859.043 20.2634C859.362 20.6415 859.873 20.9638 860.577 21.2302C860.577 21.2302 863.478 22.3389 863.478 22.3389C864.164 22.5794 864.942 22.9317 865.81 23.3958C866.678 23.8598 867.426 24.5215 868.054 25.381C868.689 26.2316 869.007 27.3917 869.007 28.8613C869.007 30.9152 868.268 32.5866 866.79 33.8757C865.311 35.1559 863.413 35.7961 861.093 35.7961C861.093 35.7961 861.093 35.7961 861.093 35.7961Z" style="fill:#000000;mix-blend-mode:normal;" transform="translate(128.218 803.706)" />
    </g>
  </g>
</svg>