<?xml version="1.0" encoding="utf-8"?>
<svg width="90%" height="147.95056px" viewBox="0 0 552.79877 147.95056" version="1.1" xmlns:xlink="http://www.w3.org/1999/xlink" xmlns="http://www.w3.org/2000/svg">
  <g id="Group">
    <path d="M146.13 63.3336C156.83 76.0936 155.13 86.3336 146.221 98.0236C149.031 108.074 145.88 112.754 136.311 116.754C136.261 117.232 136.261 117.715 136.311 118.194C137.911 125.194 134.931 130.684 128.681 133.634C126.518 134.552 124.288 135.304 122.011 135.883C120.421 136.328 118.951 137.124 117.711 138.214C113.335 142.271 107.904 145.012 102.041 146.124C98.0731 146.928 93.9568 146.552 90.2005 145.044C85.2745 142.995 81.6778 138.646 80.5904 133.424C80.1942 131.817 79.9962 130.168 80.0001 128.514C80.0001 91.6536 80.0201 54.7937 80.0601 17.9336C79.983 13.9833 81.1058 10.1025 83.2801 6.8036C85.5201 3.52357 88.44 0.90358 92.5801 0.123611C94.3148 -0.174606 96.0994 0.0698395 97.69 0.823624C100.176 1.80043 102.281 3.55415 103.69 5.82362L109.89 5.82362C113.89 5.82362 117.58 7.24361 121.08 8.95363C124.58 10.6637 126.69 13.8336 128.01 17.4436C128.28 18.5716 128.434 19.7243 128.47 20.8836C129.4 21.8336 130.59 22.9835 131.71 24.1936C133.75 26.2304 135.278 28.7218 136.17 31.4636C136.87 33.9636 137.04 36.3936 135.63 38.7436C135.301 39.3888 135.021 40.0573 134.79 40.7436C135.69 41.1536 136.59 41.4836 137.41 41.9436C140.68 43.7636 143.91 45.5136 145.81 49.0636C147.815 52.685 148.199 56.9837 146.87 60.9036C146.6 61.7437 146.36 62.5636 146.13 63.3336L146.13 63.3336Z" id="Path" fill="#CB6120" stroke="none" />
    <path d="M73.5543 24.2603C73.4942 22.4302 73.4742 20.5903 73.5543 18.7502C73.6119 14.7316 72.4622 10.7882 70.2542 7.43018C69.7642 6.60016 69.2542 5.6402 68.0643 5.63019C67.9244 5.8302 67.8343 5.90021 67.8343 5.98016L67.8343 44.3901C66.7642 45.2202 65.3143 46.0601 64.5543 47.3901C62.2894 51.5822 58.9212 55.0748 54.814 57.4901C52.3641 58.9101 50.504 60.7201 50.504 63.0201C50.504 66.6801 50.7139 70.3301 50.804 74.0201C51.0047 75.8159 50.9845 77.6294 50.744 79.4202C50.4647 80.9794 50.5748 82.5835 51.0638 84.0901C51.7938 84.7154 52.2139 85.6288 52.2137 86.5901C52.2137 87.4618 51.8668 88.2976 51.2493 88.913C50.6322 89.5284 49.7952 89.8728 48.9237 89.8701C48.0538 89.8701 47.2196 89.5245 46.6043 88.9094C45.9893 88.2943 45.6436 87.46 45.6436 86.5901C45.6405 85.4846 46.1925 84.4515 47.1134 83.84C47.182 83.5901 47.2354 83.3364 47.2733 83.08C47.3585 81.9483 47.3585 80.8118 47.2733 79.68L47.2733 61.6C47.2733 60.91 47.3533 60.23 47.4232 59.06L63.9332 42.75L63.9332 2.19C62.5931 1.02002 61.1131 1.19 59.3033 1L59.3033 40.35L42.5533 56.95C42.4234 58.2599 42.2432 59.54 42.2232 60.8199C42.2232 61.7599 42.4632 62.71 42.4732 63.66L42.4732 73.8799C42.4273 74.7275 42.4576 75.5776 42.5633 76.4199C43.4383 77.032 43.9608 78.0319 43.9632 79.0999C43.9632 80.9169 42.4901 82.3899 40.6732 82.3898C38.8563 82.3899 37.3831 80.9169 37.3831 79.0999C37.3814 78.0129 37.9215 76.9966 38.8231 76.3898C39.0631 75.0898 38.743 73.7397 39.023 72.4398C39.8536 68.9944 39.9422 65.4119 39.283 61.9297C38.5531 58.5597 38.733 56.0198 40.8931 53.9297C44.3231 50.7098 47.6732 47.4197 50.9932 44.0997C52.7733 42.3197 54.4232 40.3997 56.3333 38.3297C56.1234 32.5597 55.7933 26.6497 55.7232 20.7297C55.6532 14.8098 55.8531 8.80975 55.9432 2.72974C55.5233 2.56976 55.0533 2.19971 54.7833 2.31976C53.159 2.94385 51.7972 4.10498 50.9244 5.61023L50.9244 29.8802C48.7144 32.0002 46.4044 33.9902 44.3844 36.2502C43.5543 37.0356 42.776 37.8741 42.0543 38.7603C42.1175 39.0223 42.1512 39.2907 42.1544 39.5602C42.1544 41.3772 40.6812 42.8502 38.8643 42.8502C37.0474 42.8502 35.5743 41.3772 35.5743 39.5602C35.5743 37.7432 37.0474 36.2701 38.8643 36.2702C39.1793 36.2704 39.4928 36.3176 39.794 36.4102C40.2462 36.0829 40.6385 35.6804 40.9542 35.2202C41.6353 34.4272 42.3668 33.679 43.1441 32.9802L47.804 28.2701L47.804 20.9301C47.804 18.5701 47.8541 16.2101 47.804 13.8601C47.754 11.5101 48.1241 9.19012 47.524 6.86011C46.9766 6.70404 46.4129 6.61011 45.8443 6.58008C44.0235 6.64416 42.2093 6.83459 40.4146 7.15009C37.4647 7.7901 34.4747 8.4201 31.8846 10.1501C28.6246 12.2801 26.1446 15.1501 25.4046 18.9601C25.0189 21.1824 23.8822 23.2051 22.1846 24.6901C19.9859 26.6901 18.3192 29.2056 17.3345 32.0101C16.6187 34.0491 16.6187 36.2711 17.3345 38.3101C19.2645 36.55 20.9547 35.1 22.5345 33.5201C24.7445 31.3101 26.8045 28.9301 29.0545 26.7401C31.0748 24.9962 32.8958 23.0343 34.4845 20.8901L34.4845 20.4801C34.4845 19.6102 34.8302 18.7759 35.4451 18.1608C36.0604 17.5457 36.8946 17.2001 37.7645 17.2001C38.6361 17.1974 39.473 17.5418 40.0902 18.1572C40.7076 18.7726 41.0545 19.6084 41.0545 20.4801C41.0545 22.2971 39.5814 23.7701 37.7645 23.7701C37.5465 23.7704 37.3287 23.7504 37.1146 23.7101C36.7481 23.8878 36.4107 24.1205 36.1146 24.4001C31.1146 29.4001 26.1746 34.4001 21.1846 39.4001C20.3133 40.4751 19.2398 41.3687 18.0245 42.0301C15.6922 43.0004 13.4971 44.2711 11.4942 45.8101C7.92415 48.4501 5.81428 51.9101 5.93416 56.4301C6.00423 58.9301 6.43416 61.4301 6.69417 63.9001C6.44246 65.1395 5.91243 66.3055 5.14412 67.3101C1.94417 71.7101 -0.105881 76.3101 0.00422668 82.0301C0.114334 87.7501 2.36433 92.6301 5.60432 97.1601C5.78426 97.4201 6.13435 97.5601 6.66438 97.9301C8.92439 95.6201 11.1444 93.3501 13.4044 91.0201C12.7244 86.1301 14.0245 81.2302 12.7943 76.4501C12.0992 75.8253 11.703 74.9345 11.7039 74.0001C11.6768 73.1223 12.0023 72.2702 12.607 71.6335C13.212 70.9968 14.0462 70.6284 14.9241 70.6102C16.741 70.6102 18.2142 72.0833 18.2142 73.9003C18.2174 75.0339 17.6351 76.0889 16.6741 76.6902C16.3553 78.1844 16.2511 79.7166 16.3643 81.2402L16.3643 93.0102L6.45442 102.5C5.6844 106.67 6.25447 110.31 9.1844 113.26C10.775 114.883 12.6761 116.169 14.7747 117.04C15.474 117.387 16.1429 117.792 16.7747 118.25C16.7747 120.11 16.8248 121.68 16.7747 123.25C16.6248 127.69 18.7747 130.89 22.1947 133.39C24.7249 135.106 27.5535 136.334 30.5347 137.01C32.2435 137.351 33.8411 138.111 35.1846 139.22C36.6824 140.458 38.2445 141.617 39.8646 142.69C40.0601 142.351 40.2017 141.983 40.2845 141.6C40.2244 140.12 40.0045 138.6 40.0145 137.18C40.0145 131.18 40.1046 125.18 40.1644 119.18C40.1644 116.25 40.3043 113.33 40.2745 110.41C40.2745 108.41 40.0245 106.5 39.8846 104.49C36.3846 102.49 34.5545 98.9702 31.4847 96.7102C31.0977 96.3505 30.7613 95.9402 30.4847 95.4902C30.2347 95.1702 30.0247 94.7402 29.6947 94.5703C28.1334 93.7842 26.939 92.4214 26.3646 90.7703C24.7845 90.2303 21.0845 86.7703 20.7047 85.4003C20.5631 84.8079 20.5059 84.1985 20.5347 83.5902L20.5347 74.1502C20.5347 73.1502 20.7847 72.0902 20.7647 71.0602C20.7647 68.1902 20.3946 65.3002 20.5848 62.4502C20.7559 60.6829 20.6378 58.8994 20.2347 57.1702C19.452 56.5466 18.9957 55.6008 18.9947 54.6002C18.9947 52.7832 20.4678 51.3102 22.2847 51.3102C24.1016 51.3102 25.5748 52.7832 25.5748 54.6002C25.5736 55.5886 25.1295 56.5244 24.3648 57.1503C24.1383 57.9631 24.0504 58.8083 24.1048 59.6503L24.1048 84.8203C24.9818 85.4433 25.826 86.1108 26.6348 86.8203C31.7149 91.8669 36.7782 96.937 41.8248 102.03C42.4403 102.763 42.9986 103.542 43.4947 104.36L43.4447 104.43C43.1597 104.879 43.1597 105.452 43.4447 105.9C43.6571 106.628 43.6949 107.395 43.5545 108.14L43.5545 144.61C45.5545 145.89 45.5545 145.89 47.3846 145.98C47.8846 144.19 48.0545 105.29 47.5645 101.37C45.2945 99.0902 42.8746 96.7202 40.5145 94.3002C37.3045 91.0002 34.3944 87.3002 30.8646 84.4202C28.5745 82.5302 28.3546 80.5402 28.3646 78.0302C28.4146 69.7402 28.3646 61.4402 28.3646 53.1402C28.3919 52.3853 28.3077 51.6305 28.1146 50.9002C27.0916 50.3167 26.4613 49.228 26.4647 48.0502C26.4617 47.1786 26.8062 46.3418 27.4217 45.7245C28.0369 45.1072 28.8729 44.7603 29.7445 44.7603C31.5614 44.7603 33.0345 46.2333 33.0345 48.0503C33.0362 49.0119 32.6158 49.9258 31.8846 50.5503C31.6583 51.231 31.5404 51.9429 31.5345 52.6603L31.5345 78.8103C31.5345 79.4203 31.5946 80.0203 31.6246 80.7403L50.7945 99.8203C50.8746 103.92 51.0045 107.62 50.9744 111.34C50.8844 122.6 50.9744 133.87 50.9744 145.14C51.0196 145.855 51.1063 146.566 51.2344 147.271L53.9244 147.951C54.9945 146.861 54.6844 145.761 54.6844 144.761L54.6844 110.031C57.0743 107.861 59.6043 105.581 61.8944 103.521C61.9544 102.621 62.0145 102.191 62.0145 101.751L62.0145 70.0506C62.0179 69.604 61.9742 69.1582 61.8846 68.7206C60.9102 68.1298 60.3177 67.0704 60.3245 65.9307C60.3243 64.1177 61.7913 62.6463 63.6043 62.6408C65.4232 62.6407 66.899 64.1121 66.9046 65.9308C66.9063 66.9394 66.4412 67.892 65.6446 68.5108C65.5435 69.4038 65.5235 70.3041 65.5845 71.2008L65.5845 104.201L58.3746 111.511C57.8946 118.921 58.1046 145.321 58.6446 147.351C58.8736 147.441 59.1177 147.489 59.3643 147.491C63.9254 146.914 67.9989 144.352 70.4942 140.491C73.2095 136.499 74.3529 131.645 73.7042 126.861C73.6695 126.435 73.6695 126.007 73.7042 125.581C73.7642 123.511 73.8841 121.441 73.8841 119.371C73.8841 116.641 73.804 113.921 73.7442 111.201C73.7442 110.071 73.6441 108.941 73.6043 107.981L65.6043 115.631L65.6043 126.061C65.5025 127.572 65.5899 129.091 65.8643 130.581C66.8372 131.173 67.4293 132.232 67.4244 133.371C67.4244 135.188 65.9512 136.661 64.1344 136.661C62.3175 136.661 60.8443 135.188 60.8443 133.371C60.8446 132.39 61.285 131.462 62.044 130.841C62.2139 130.461 62.3841 130.061 62.564 129.631L62.564 113.401C66.314 109.761 70.1241 106.051 73.564 102.731L73.564 97.7308C73.8241 76.3508 73.014 54.9608 73.9439 33.5808C74.0938 30.5208 73.6639 27.3908 73.554 24.2608L73.5543 24.2603ZM20.7943 95.8303C21.6658 95.8276 22.5028 96.172 23.1199 96.7874C23.7374 97.4028 24.0843 98.2386 24.0843 99.1103C24.0872 99.3489 24.0638 99.587 24.0142 99.8204C25.2598 101.573 26.7215 103.163 28.3643 104.55C29.4962 105.748 30.5452 107.021 31.5042 108.36C33.6043 108.96 34.6143 110.07 34.6541 112.36C34.7042 115.36 34.6541 118.48 34.6541 121.53C34.6646 122.136 34.7349 122.739 34.8641 123.33C35.774 123.94 36.3184 124.965 36.314 126.06C36.314 127.877 34.8409 129.35 33.024 129.35C31.2108 129.345 29.7437 127.873 29.7437 126.06C29.7418 125.049 30.2066 124.093 31.0035 123.47C31.2718 122.926 31.4346 122.335 31.4835 121.73C31.3934 118.92 31.2635 116.1 31.0535 113.29C31.0294 112.515 30.7637 111.767 30.2935 111.15C27.7535 108.41 25.1534 105.743 22.4935 103.15C22.1522 102.828 21.7603 102.565 21.3336 102.37C21.1436 102.386 20.953 102.386 20.7633 102.37C19.8914 102.37 19.0555 102.023 18.4403 101.406C17.8248 100.789 17.4803 99.9518 17.483 99.0801C17.4908 98.2102 17.8441 97.3791 18.4647 96.7695C19.0855 96.16 19.9229 95.8221 20.793 95.8301L20.7943 95.8303Z" id="Shape" fill="#002E82" fill-rule="evenodd" stroke="none" />
    <path d="M36 19.48C36 18.6626 36.6626 18 37.48 18C38.2974 18 38.96 18.6626 38.96 19.48C38.96 20.2974 38.2974 20.96 37.48 20.96C36.6626 20.96 36 20.2974 36 19.48Z" id="Oval" fill="#002E82" fill-rule="evenodd" stroke="none" />
    <path d="M37 39.48C37 38.6626 37.6626 38 38.48 38C39.2974 38 39.96 38.6626 39.96 39.48C39.96 40.2974 39.2974 40.96 38.48 40.96C37.6626 40.96 37 40.2974 37 39.48Z" id="Oval" fill="#002E82" fill-rule="evenodd" stroke="none" />
    <path d="M28 47.48C28 46.6626 28.6626 46 29.48 46C30.2974 46 30.96 46.6626 30.96 47.48C30.96 48.2974 30.2974 48.96 29.48 48.96C28.6626 48.96 28 48.2974 28 47.48Z" id="Oval" fill="#002E82" fill-rule="evenodd" stroke="none" />
    <path d="M21 54.48C21 53.6626 21.6626 53 22.48 53C23.2974 53 23.96 53.6626 23.96 54.48C23.96 55.2974 23.2974 55.96 22.48 55.96C21.6626 55.96 21 55.2974 21 54.48Z" id="Oval" fill="#002E82" fill-rule="evenodd" stroke="none" />
    <path d="M13 73.48C13 72.6626 13.6626 72 14.48 72C15.2974 72 15.96 72.6626 15.96 73.48C15.96 74.2974 15.2974 74.96 14.48 74.96C13.6626 74.96 13 74.2974 13 73.48Z" id="Oval" fill="#002E82" fill-rule="evenodd" stroke="none" />
    <path d="M39 78.48C39 77.6626 39.6626 77 40.48 77C41.2974 77 41.96 77.6626 41.96 78.48C41.96 79.2974 41.2974 79.96 40.48 79.96C39.6626 79.96 39 79.2974 39 78.48Z" id="Oval" fill="#002E82" fill-rule="evenodd" stroke="none" />
    <path d="M47 86.48C47 85.6626 47.6626 85 48.48 85C49.2974 85 49.96 85.6626 49.96 86.48C49.96 87.2974 49.2974 87.96 48.48 87.96C47.6626 87.96 47 87.2974 47 86.48Z" id="Oval" fill="#002E82" fill-rule="evenodd" stroke="none" />
    <path d="M62 65.48C62 64.6626 62.6626 64 63.48 64C64.2974 64 64.96 64.6626 64.96 65.48C64.96 66.2974 64.2974 66.96 63.48 66.96C62.6626 66.96 62 66.2974 62 65.48Z" id="Oval" fill="#002E82" fill-rule="evenodd" stroke="none" />
    <path d="M19 98.48C19 97.6626 19.6626 97 20.48 97C21.2974 97 21.96 97.6626 21.96 98.48C21.96 99.2974 21.2974 99.96 20.48 99.96C19.6626 99.96 19 99.2974 19 98.48Z" id="Oval" fill="#002E82" fill-rule="evenodd" stroke="none" />
    <path d="M63 132.48C63 131.663 63.6626 131 64.48 131C65.2974 131 65.96 131.663 65.96 132.48C65.96 133.297 65.2974 133.96 64.48 133.96C63.6626 133.96 63 133.297 63 132.48Z" id="Oval" fill="#002E82" fill-rule="evenodd" stroke="none" />
    <path d="M31 125.48C31 124.663 31.6626 124 32.48 124C33.2974 124 33.96 124.663 33.96 125.48C33.96 126.297 33.2974 126.96 32.48 126.96C31.6626 126.96 31 126.297 31 125.48Z" id="Oval" fill="#002E82" fill-rule="evenodd" stroke="none" />
    <path d="M201.32 90.8852C201.87 86.7051 202.15 84.6052 202.71 80.4252L188.71 80.4252C185.71 84.6053 184.17 86.7053 181.13 90.8852L168 90.8852C180.993 73.2519 193.897 55.5585 206.71 37.8052L223.32 37.8052C221.32 55.4853 219.467 73.1785 217.76 90.8852L201.32 90.8852ZM196.32 68.8351L204.72 68.8351C205.62 62.6751 206.07 59.5952 206.99 53.4451C202.74 59.5952 200.61 62.6751 196.33 68.8351L196.32 68.8351ZM277.75 61.1352C273.95 71.0552 270.153 80.9719 266.36 90.8852L258.46 90.8852C258.659 89.0372 258.659 87.1732 258.46 85.3251C253.8 89.4847 247.757 91.7591 241.51 91.7051C234.73 91.7051 230.111 89.3051 227.69 84.5251C225.27 79.7451 225.9 73.1951 229.061 65.105C232.317 57.4708 237.209 50.6437 243.391 45.105C248.651 40.5051 257.891 36.845 265.001 37.0051C271.001 37.1351 275.381 38.605 277.861 41.825C280.341 45.045 281.031 49.595 279.861 55.5051L263.861 57.0651C265.261 51.5451 263.988 48.7851 260.041 48.7851C254.867 48.7851 250.257 53.8651 246.211 64.0251C243.761 70.1651 242.981 74.225 243.891 76.1751C244.76 78.1205 246.768 79.3007 248.891 79.1151C250.909 79.0883 252.875 78.4655 254.541 77.325C256.356 76.1533 257.756 74.4385 258.541 72.4251L250 72.4251L254.45 61.1451L277.75 61.1352ZM310.68 37.8052L291 90.8852L274.86 90.8852C281.573 73.1918 288.277 55.4985 294.97 37.8052L310.68 37.8052ZM341.54 77.8552C339.72 83.0651 338.82 85.6751 337 90.8552L300.16 90.8552L319.6 37.7752L335.31 37.7752L320.96 77.7752L341.54 77.8552Z" id="Shape" fill="#002E82" fill-rule="evenodd" stroke="none" />
    <path d="M378.139 70.6349L392.449 71.5349C390.015 77.6085 385.84 82.8271 380.449 86.5349C375.536 89.9184 369.714 91.7348 363.749 91.7448C356.609 91.7448 351.649 89.3548 348.909 84.5848C346.169 79.8148 346.479 73.1349 349.199 64.8348C351.489 57.8348 356.589 49.5548 362.269 44.6948C367.949 39.8348 374.599 37.0348 381.839 37.0348C388.612 37.0348 393.179 38.9781 395.539 42.8647C397.899 46.7513 398.289 51.9081 396.709 58.3347L381.629 59.1546C382.809 55.6013 382.999 53.0346 382.199 51.4547C381.525 49.9386 379.985 48.9957 378.329 49.0847C373.355 49.0847 369.122 54.2447 365.629 64.5647C363.669 70.3447 363.002 74.2713 363.629 76.3447C364.239 78.4146 365.739 79.4547 368.109 79.4547C372.322 79.4347 375.665 76.4947 378.139 70.6347L378.139 70.6349ZM414.529 91.7148C407.129 91.7148 401.889 89.2381 398.809 84.2848C395.749 79.2848 395.809 72.6147 398.249 64.4148C400.817 56.8858 405.24 50.1247 411.109 44.7546C416.109 40.3946 424.869 36.8546 431.629 37.0046C438.629 37.1546 443.799 39.4347 446.839 44.3147C449.879 49.1947 449.989 55.8147 447.779 63.8347C445.829 70.9247 440.629 79.4347 434.779 84.0847C428.669 89.0147 421.869 91.7147 414.529 91.7147L414.529 91.7148ZM418.189 79.6548C420.941 79.6291 423.517 78.2964 425.129 76.0649C427.049 73.6649 428.985 69.2749 430.939 62.8949C433.759 53.6616 432.759 49.0482 427.939 49.0549C422.759 49.0549 418.519 54.3182 415.219 64.8449C412.152 74.7184 413.142 79.655 418.189 79.655L418.189 79.6548ZM500.549 64.1048C498.849 70.9248 493.809 79.1048 488.259 83.4448C482.527 88.2025 475.328 90.8342 467.879 90.8947L446.549 90.8947C450.236 78.3348 453.929 65.7715 457.629 53.2048L473.429 53.2048L466.139 78.6848L470.309 78.6848C472.976 78.6848 475.582 77.3781 478.129 74.7647C480.907 71.7373 482.875 68.0566 483.849 64.0648C484.911 60.8333 485.046 57.369 484.239 54.0648C483.429 51.2747 481.509 49.8748 478.499 49.8748L458.579 49.8748L462.119 37.8748L481.919 37.8748C490.519 37.8748 496.209 40.5149 499.049 45.8049C501.889 51.0949 502.249 57.2549 500.549 64.1049L500.549 64.1048ZM542.779 78.2148L539.629 90.8949L500.099 90.8949L514.299 37.8149L552.799 37.8149C551.579 42.7149 550.969 45.1649 549.799 50.0649L526.559 50.0649L524.559 57.7649L543.429 57.7649L540.479 69.5449L521.479 69.5449L519.229 78.2149L542.779 78.2148Z" id="Shape" fill="#CB6120" fill-rule="evenodd" stroke="none" />
    <path d="M219.78 28.17L209 35.12L224.11 34.32L234.52 27L219.78 28.17L219.78 28.17Z" id="Path" fill="#002E82" stroke="none" />
  </g>
</svg>
