<svg
              viewBox="0 0 384.37012 280.18927"
              version="1.1"
              xmlns:xlink="http://www.w3.org/1999/xlink"
              xmlns="http://www.w3.org/2000/svg"
            >
              <g id="Group">
                <path
                  d="M265.93 63.3336C276.63 76.0936 274.93 86.3336 266.02 98.0236C268.83 108.074 265.68 112.754 256.11 116.754C256.06 117.232 256.06 117.715 256.11 118.194C257.71 125.194 254.73 130.684 248.48 133.634C246.317 134.552 244.088 135.304 241.81 135.883C240.22 136.328 238.75 137.124 237.51 138.214C233.134 142.271 227.703 145.012 221.84 146.124C217.873 146.928 213.756 146.552 210 145.044C205.074 142.995 201.477 138.646 200.39 133.424C199.994 131.817 199.796 130.168 199.8 128.514C199.8 91.6536 199.82 54.7937 199.86 17.9336C199.782 13.9833 200.905 10.1025 203.08 6.8036C205.32 3.52357 208.24 0.90358 212.38 0.123611C214.114 -0.174606 215.899 0.0698395 217.49 0.823624C219.976 1.80043 222.08 3.55415 223.49 5.82362L229.689 5.82362C233.689 5.82362 237.379 7.24361 240.879 8.95363C244.379 10.6637 246.49 13.8336 247.809 17.4436C248.079 18.5716 248.233 19.7243 248.269 20.8836C249.199 21.8336 250.389 22.9835 251.509 24.1936C253.55 26.2304 255.078 28.7218 255.969 31.4636C256.669 33.9636 256.839 36.3936 255.429 38.7436C255.101 39.3888 254.82 40.0573 254.589 40.7436C255.489 41.1536 256.389 41.4836 257.209 41.9436C260.479 43.7636 263.709 45.5136 265.609 49.0636C267.614 52.685 267.999 56.9837 266.669 60.9036C266.399 61.7437 266.159 62.5636 265.929 63.3336L265.93 63.3336Z"
                  id="Shape"
                  fill="#CB6120"
                  stroke="none"
                />
                <path
                  d="M193.63 23.7736C193.57 21.9435 193.55 20.1036 193.63 18.2635C193.688 14.2449 192.538 10.3015 190.33 6.94348C189.84 6.11346 189.33 5.1535 188.14 5.14349C188 5.34351 187.91 5.41351 187.91 5.49347L187.91 43.9034C186.84 44.7335 185.39 45.5734 184.63 46.9034C182.365 51.0955 178.997 54.5881 174.89 57.0034C172.44 58.4234 170.58 60.2334 170.58 62.5334C170.58 66.1934 170.79 69.8434 170.88 73.5334C171.08 75.3292 171.06 77.1427 170.82 78.9335C170.54 80.4927 170.65 82.0968 171.139 83.6034C171.869 84.2288 172.29 85.1421 172.289 86.1034C172.289 86.9751 171.942 87.8109 171.325 88.4263C170.708 89.0417 169.871 89.3861 168.999 89.3834C168.129 89.3834 167.295 89.0378 166.68 88.4227C166.065 87.8076 165.719 86.9733 165.719 86.1034C165.716 84.9979 166.268 83.9648 167.189 83.3533C167.258 83.1034 167.311 82.8497 167.349 82.5933C167.434 81.4616 167.434 80.3251 167.349 79.1933L167.349 61.1133C167.349 60.4233 167.429 59.7433 167.499 58.5733L184.009 42.2633L184.009 1.70331C182.669 0.533325 181.189 0.703308 179.379 0.513306L179.379 39.8633L162.629 56.4633C162.499 57.7733 162.319 59.0533 162.299 60.3333C162.299 61.2733 162.539 62.2233 162.549 63.1733L162.549 73.3932C162.503 74.2408 162.533 75.0909 162.639 75.9332C163.514 76.5453 164.036 77.5452 164.039 78.6132C164.039 80.4302 162.566 81.9032 160.749 81.9031C158.932 81.9032 157.459 80.4302 157.459 78.6132C157.457 77.5262 157.997 76.5099 158.899 75.9031C159.139 74.6031 158.819 73.2531 159.099 71.9531C159.929 68.5078 160.018 64.9252 159.359 61.4431C158.629 58.0731 158.809 55.5331 160.969 53.4431C164.399 50.2231 167.749 46.933 171.069 43.613C172.849 41.833 174.499 39.913 176.409 37.843C176.199 32.073 175.869 26.163 175.799 20.243C175.729 14.3231 175.929 8.32306 176.019 2.24304C175.599 2.08307 175.129 1.71301 174.859 1.83307C173.235 2.45715 171.873 3.61829 171 5.12354L171 29.3936C168.79 31.5135 166.48 33.5035 164.46 35.7635C163.63 36.549 162.852 37.3874 162.13 38.2736C162.193 38.5356 162.227 38.804 162.23 39.0735C162.23 40.8905 160.757 42.3635 158.94 42.3635C157.123 42.3635 155.65 40.8905 155.65 39.0735C155.65 37.2565 157.123 35.7834 158.94 35.7835C159.255 35.7837 159.568 35.8309 159.87 35.9235C160.322 35.5962 160.714 35.1937 161.03 34.7335C161.711 33.9405 162.442 33.1923 163.22 32.4935L167.88 27.7834L167.88 20.4434C167.88 18.0834 167.93 15.7234 167.88 13.3734C167.83 11.0234 168.2 8.70343 167.6 6.37341C167.052 6.21735 166.489 6.12341 165.92 6.09338C164.099 6.15747 162.285 6.3479 160.49 6.66339C157.54 7.30341 154.55 7.93341 151.96 9.66339C148.7 11.7934 146.22 14.6634 145.48 18.4734C145.094 20.6957 143.958 22.7184 142.26 24.2034C140.062 26.2034 138.395 28.7189 137.41 31.5234C136.694 33.5624 136.694 35.7844 137.41 37.8234C139.34 36.0634 141.03 34.6133 142.61 33.0334C144.82 30.8234 146.88 28.4434 149.13 26.2534C151.15 24.5095 152.971 22.5476 154.56 20.4034L154.56 19.9934C154.56 19.1235 154.906 18.2892 155.521 17.6741C156.136 17.059 156.97 16.7134 157.84 16.7134C158.712 16.7107 159.549 17.0551 160.166 17.6705C160.783 18.2859 161.13 19.1217 161.13 19.9934C161.13 21.8104 159.657 23.2834 157.84 23.2834C157.622 23.2838 157.404 23.2637 157.19 23.2234C156.824 23.4011 156.486 23.6338 156.19 23.9134C151.19 28.9134 146.25 33.9134 141.26 38.9134C140.389 39.9884 139.315 40.882 138.1 41.5434C135.768 42.5137 133.573 43.7844 131.57 45.3234C128 47.9634 125.89 51.4234 126.01 55.9434C126.08 58.4434 126.51 60.9434 126.77 63.4134C126.518 64.6528 125.988 65.8188 125.22 66.8234C122.02 71.2234 119.97 75.8234 120.08 81.5434C120.19 87.2634 122.44 92.1434 125.68 96.6734C125.86 96.9334 126.21 97.0734 126.74 97.4434C129 95.1334 131.22 92.8634 133.48 90.5334C132.8 85.6434 134.1 80.7435 132.87 75.9634C132.175 75.3386 131.779 74.4478 131.78 73.5134C131.752 72.6356 132.078 71.7835 132.683 71.1469C133.288 70.5101 134.122 70.1417 135 70.1235C136.817 70.1235 138.29 71.5966 138.29 73.4136C138.293 74.5472 137.711 75.6022 136.75 76.2036C136.431 77.6978 136.327 79.2299 136.44 80.7535L136.44 92.5236L126.53 102.014C125.76 106.184 126.33 109.824 129.26 112.774C130.851 114.397 132.752 115.682 134.85 116.554C135.55 116.9 136.219 117.305 136.85 117.764C136.85 119.624 136.9 121.194 136.85 122.764C136.7 127.204 138.85 130.404 142.27 132.904C144.801 134.619 147.629 135.847 150.61 136.524C152.319 136.865 153.917 137.624 155.26 138.734C156.758 139.972 158.32 141.13 159.94 142.204C160.136 141.864 160.277 141.496 160.36 141.114C160.3 139.634 160.08 138.114 160.09 136.694C160.09 130.694 160.18 124.694 160.24 118.694C160.24 115.764 160.38 112.844 160.35 109.924C160.35 107.924 160.1 106.014 159.96 104.004C156.46 102.004 154.63 98.4835 151.56 96.2235C151.173 95.8638 150.837 95.4535 150.56 95.0035C150.31 94.6835 150.1 94.2535 149.77 94.0836C148.209 93.2975 147.015 91.9347 146.44 90.2836C144.86 89.7436 141.16 86.2836 140.78 84.9136C140.639 84.3212 140.582 83.7119 140.61 83.1035L140.61 73.6635C140.61 72.6635 140.86 71.6035 140.84 70.5735C140.84 67.7035 140.47 64.8135 140.66 61.9635C140.832 60.1962 140.713 58.4127 140.31 56.6835C139.528 56.0599 139.071 55.1141 139.07 54.1135C139.07 52.2965 140.543 50.8235 142.36 50.8235C144.177 50.8235 145.65 52.2965 145.65 54.1135C145.649 55.1019 145.205 56.0377 144.44 56.6636C144.214 57.4764 144.126 58.3216 144.18 59.1636L144.18 84.3336C145.057 84.9566 145.902 85.6241 146.71 86.3336C151.791 91.3802 156.854 96.4503 161.9 101.544C162.516 102.276 163.074 103.055 163.57 103.874L163.52 103.944C163.235 104.392 163.235 104.965 163.52 105.414C163.733 106.141 163.771 106.909 163.63 107.654L163.63 144.124C165.63 145.404 165.63 145.404 167.46 145.494C167.96 143.704 168.13 104.804 167.64 100.884C165.37 98.6035 162.95 96.2335 160.59 93.8135C157.38 90.5135 154.47 86.8135 150.94 83.9335C148.65 82.0435 148.43 80.0535 148.44 77.5435C148.49 69.2535 148.44 60.9535 148.44 52.6535C148.468 51.8986 148.383 51.1438 148.19 50.4135C147.167 49.83 146.537 48.7413 146.54 47.5635C146.537 46.692 146.882 45.8551 147.497 45.2378C148.113 44.6205 148.949 44.2736 149.82 44.2736C151.637 44.2736 153.11 45.7466 153.11 47.5636C153.112 48.5252 152.691 49.4391 151.96 50.0636C151.734 50.7443 151.616 51.4562 151.61 52.1736L151.61 78.3236C151.61 78.9336 151.67 79.5336 151.7 80.2536L170.87 99.3336C170.95 103.434 171.08 107.134 171.05 110.854C170.96 122.114 171.05 133.384 171.05 144.654C171.095 145.368 171.182 146.079 171.31 146.784L174 147.464C175.07 146.374 174.76 145.274 174.76 144.274L174.76 109.544C177.15 107.374 179.68 105.094 181.97 103.034C182.03 102.134 182.09 101.704 182.09 101.264L182.09 69.5639C182.094 69.1173 182.05 68.6715 181.96 68.2339C180.986 67.6431 180.393 66.5837 180.4 65.444C180.4 63.631 181.867 62.1596 183.68 62.1541C185.499 62.154 186.975 63.6254 186.98 65.4441C186.982 66.4527 186.517 67.4053 185.72 68.0241C185.619 68.9171 185.599 69.8174 185.66 70.7141L185.66 103.714L178.45 111.024C177.97 118.434 178.18 144.834 178.72 146.864C178.949 146.955 179.193 147.002 179.44 147.004C184.001 146.427 188.074 143.865 190.57 140.004C193.285 136.013 194.428 131.158 193.78 126.374C193.745 125.948 193.745 125.52 193.78 125.094C193.84 123.024 193.96 120.954 193.96 118.884C193.96 116.154 193.88 113.434 193.82 110.714C193.82 109.584 193.72 108.454 193.68 107.494L185.68 115.144L185.68 125.574C185.578 127.086 185.666 128.604 185.94 130.094C186.913 130.686 187.505 131.745 187.5 132.884C187.5 134.701 186.027 136.174 184.21 136.174C182.393 136.174 180.92 134.701 180.92 132.884C180.92 131.904 181.361 130.975 182.12 130.354C182.29 129.974 182.46 129.574 182.64 129.144L182.64 112.914C186.39 109.274 190.2 105.564 193.64 102.244L193.64 97.2441C193.9 75.8641 193.09 54.4741 194.02 33.0941C194.169 30.0341 193.74 26.9041 193.63 23.7741L193.63 23.7736ZM140.87 95.3436C141.741 95.3409 142.578 95.6853 143.196 96.3007C143.813 96.9161 144.16 97.7519 144.16 98.6236C144.163 98.8622 144.139 99.1003 144.09 99.3337C145.335 101.087 146.797 102.676 148.44 104.064C149.572 105.261 150.621 106.534 151.58 107.874C153.68 108.474 154.69 109.584 154.73 111.874C154.78 114.874 154.73 117.994 154.73 121.044C154.74 121.649 154.811 122.252 154.94 122.844C155.85 123.453 156.394 124.478 156.39 125.574C156.39 127.391 154.917 128.864 153.1 128.863C151.286 128.858 149.819 127.387 149.819 125.573C149.817 124.562 150.282 123.606 151.079 122.983C151.347 122.439 151.51 121.849 151.559 121.243C151.469 118.433 151.339 115.613 151.129 112.803C151.105 112.028 150.839 111.28 150.369 110.663C147.829 107.923 145.229 105.257 142.569 102.663C142.228 102.342 141.836 102.078 141.409 101.883C141.219 101.899 141.029 101.899 140.839 101.883C139.967 101.883 139.131 101.536 138.516 100.919C137.9 100.302 137.556 99.4651 137.559 98.5934C137.566 97.7235 137.92 96.8924 138.54 96.2828C139.161 95.6733 139.999 95.3354 140.869 95.3434L140.87 95.3436Z"
                  id="Shape"
                  fill="#002E82"
                  fill-rule="evenodd"
                  stroke="none"
                />
                <path
                  d="M156.38 19.6936C156.38 18.8762 157.043 18.2136 157.86 18.2136C158.677 18.2136 159.34 18.8762 159.34 19.6936C159.34 20.5109 158.677 21.1736 157.86 21.1736C157.043 21.1736 156.38 20.5109 156.38 19.6936Z"
                  id="Circle"
                  fill="#002E82"
                  fill-rule="evenodd"
                  stroke="none"
                />
                <path
                  d="M157.39 39.1836C157.39 38.3662 158.053 37.7036 158.87 37.7036C159.687 37.7036 160.35 38.3662 160.35 39.1836C160.35 40.0009 159.687 40.6636 158.87 40.6636C158.053 40.6636 157.39 40.0009 157.39 39.1836Z"
                  id="Circle"
                  fill="#002E82"
                  fill-rule="evenodd"
                  stroke="none"
                />
                <path
                  d="M148.25 47.4535C148.25 46.6362 148.913 45.9735 149.73 45.9735C150.547 45.9735 151.21 46.6362 151.21 47.4535C151.21 48.2709 150.547 48.9335 149.73 48.9335C148.913 48.9335 148.25 48.2709 148.25 47.4535Z"
                  id="Circle"
                  fill="#002E82"
                  fill-rule="evenodd"
                  stroke="none"
                />
                <path
                  d="M141.12 54.4135C141.12 53.5961 141.783 52.9335 142.6 52.9335C143.417 52.9335 144.08 53.5961 144.08 54.4135C144.08 55.2309 143.417 55.8935 142.6 55.8935C141.783 55.8935 141.12 55.2309 141.12 54.4135Z"
                  id="Circle"
                  fill="#002E82"
                  fill-rule="evenodd"
                  stroke="none"
                />
                <path
                  d="M133.23 73.2536C133.23 72.4362 133.893 71.7736 134.71 71.7736C135.527 71.7736 136.19 72.4362 136.19 73.2536C136.19 74.0709 135.527 74.7336 134.71 74.7336C133.893 74.7336 133.23 74.0709 133.23 73.2536Z"
                  id="Circle"
                  fill="#002E82"
                  fill-rule="evenodd"
                  stroke="none"
                />
                <path
                  d="M159.1 78.5536C159.1 77.7362 159.763 77.0735 160.58 77.0735C161.397 77.0735 162.06 77.7362 162.06 78.5536C162.06 79.3709 161.397 80.0335 160.58 80.0335C159.763 80.0335 159.1 79.3709 159.1 78.5536Z"
                  id="Circle"
                  fill="#002E82"
                  fill-rule="evenodd"
                  stroke="none"
                />
                <path
                  d="M167.23 86.1236C167.23 85.3062 167.893 84.6436 168.71 84.6436C169.527 84.6436 170.19 85.3062 170.19 86.1236C170.19 86.9409 169.527 87.6036 168.71 87.6036C167.893 87.6036 167.23 86.9409 167.23 86.1236Z"
                  id="Circle"
                  fill="#002E82"
                  fill-rule="evenodd"
                  stroke="none"
                />
                <path
                  d="M182.12 65.2436C182.12 64.4262 182.783 63.7635 183.6 63.7635C184.417 63.7635 185.08 64.4262 185.08 65.2436C185.08 66.0609 184.417 66.7235 183.6 66.7235C182.783 66.7235 182.12 66.0609 182.12 65.2436Z"
                  id="Circle"
                  fill="#002E82"
                  fill-rule="evenodd"
                  stroke="none"
                />
                <path
                  d="M139.25 98.3036C139.25 97.4862 139.913 96.8235 140.73 96.8235C141.547 96.8235 142.21 97.4862 142.21 98.3036C142.21 99.1209 141.547 99.7835 140.73 99.7835C139.913 99.7835 139.25 99.1209 139.25 98.3036Z"
                  id="Circle"
                  fill="#002E82"
                  fill-rule="evenodd"
                  stroke="none"
                />
                <path
                  d="M182.7 132.544C182.7 131.726 183.363 131.064 184.18 131.064C184.997 131.064 185.66 131.726 185.66 132.544C185.66 133.361 184.997 134.024 184.18 134.024C183.363 134.024 182.7 133.361 182.7 132.544Z"
                  id="Circle"
                  fill="#002E82"
                  fill-rule="evenodd"
                  stroke="none"
                />
                <path
                  d="M151.44 125.634C151.44 124.816 152.103 124.154 152.92 124.154C153.737 124.154 154.4 124.816 154.4 125.634C154.4 126.451 153.737 127.114 152.92 127.114C152.103 127.114 151.44 126.451 151.44 125.634Z"
                  id="Circle"
                  fill="#002E82"
                  fill-rule="evenodd"
                  stroke="none"
                />
                <path
                  d="M82.48 264.244C83.4724 264.088 84.4753 264.011 85.48 264.014C86.7102 263.918 87.9329 264.274 88.9199 265.014C89.6348 265.673 90.0259 266.612 89.9902 267.584C90.0369 268.549 89.6946 269.493 89.04 270.204C88.0317 271.148 86.6782 271.633 85.3 271.544C84.8738 271.557 84.4475 271.52 84.03 271.433L84.03 276.344L82.45 276.344L82.48 264.244ZM84.0601 270.154C84.4895 270.251 84.9297 270.295 85.3701 270.283C87.28 270.283 88.4402 269.353 88.4402 267.663C88.4402 265.974 87.2903 265.263 85.5503 265.263C85.0503 265.251 84.5505 265.295 84.0603 265.393L84.0601 270.154ZM91.8 270.304C91.8 269.304 91.8 268.374 91.73 267.554L93.1299 267.554L93.1299 269.284L93.21 269.284C93.5161 268.182 94.4971 267.403 95.6396 267.354C95.7952 267.352 95.95 267.372 96.0996 267.414L96.0996 268.924C95.9197 268.881 95.7349 268.861 95.5498 268.864C94.4185 268.911 93.5002 269.795 93.4102 270.924C93.3604 271.167 93.3337 271.415 93.3301 271.664L93.3301 276.354L91.75 276.354L91.8 270.304ZM105.53 271.884C105.635 273.101 105.218 274.305 104.383 275.196C103.547 276.087 102.372 276.581 101.15 276.554C99.9722 276.566 98.8433 276.082 98.0403 275.22C97.2373 274.358 96.8345 273.198 96.9299 272.024C96.9299 269.084 98.8599 267.354 101.29 267.354C103.72 267.354 105.53 269.193 105.53 271.884L105.53 271.884ZM98.53 271.974C98.53 273.904 99.6401 275.354 101.2 275.354C102.76 275.354 103.87 273.914 103.87 271.933C103.87 270.443 103.13 268.553 101.24 268.553C99.3501 268.553 98.55 270.303 98.55 271.974L98.53 271.974ZM115.12 267.554C115.12 268.194 115.05 268.904 115.05 269.974L115.05 275.124C115.05 277.124 114.65 278.374 113.8 279.124C112.902 279.862 111.761 280.24 110.6 280.184C109.576 280.207 108.564 279.955 107.67 279.454L108.07 278.234C108.85 278.699 109.743 278.938 110.65 278.924C112.29 278.924 113.49 278.074 113.49 275.854L113.49 274.854C112.891 275.814 111.821 276.376 110.69 276.324C108.51 276.324 106.95 274.474 106.95 272.034C106.95 269.034 108.89 267.364 110.95 267.364C112.085 267.299 113.156 267.895 113.7 268.894L113.78 267.564L115.12 267.554ZM113.47 271.024C113.479 270.78 113.448 270.537 113.38 270.304C113.104 269.297 112.184 268.604 111.14 268.614C109.62 268.614 108.53 269.904 108.53 271.934C108.53 273.664 109.4 275.104 111.13 275.104C112.145 275.097 113.039 274.433 113.34 273.464C113.428 273.186 113.472 272.895 113.47 272.604L113.47 271.024ZM117.6 270.304C117.6 269.304 117.6 268.374 117.53 267.554L118.93 267.554L118.98 269.284L119.05 269.284C119.36 268.18 120.345 267.402 121.49 267.354C121.642 267.351 121.794 267.371 121.94 267.414L121.94 268.924C121.763 268.88 121.582 268.86 121.4 268.864C120.264 268.906 119.34 269.791 119.25 270.924C119.209 271.168 119.185 271.416 119.18 271.664L119.18 276.354L117.6 276.354L117.6 270.304ZM128.32 276.354L128.2 275.244L128.14 275.244C127.507 276.089 126.505 276.577 125.45 276.554C124.75 276.604 124.061 276.359 123.55 275.878C123.039 275.398 122.752 274.725 122.76 274.024C122.76 271.904 124.65 270.734 128.05 270.754L128.05 270.573C128.107 270.027 127.915 269.485 127.527 269.097C127.139 268.708 126.596 268.516 126.05 268.573C125.24 268.578 124.448 268.807 123.76 269.234L123.4 268.174C124.272 267.651 125.273 267.381 126.29 267.394C128.98 267.394 129.63 269.234 129.63 270.994L129.63 274.284C129.619 274.99 129.669 275.696 129.78 276.394L128.32 276.354ZM128.09 271.864C126.34 271.864 124.36 272.134 124.36 273.864C124.327 274.275 124.475 274.68 124.765 274.974C125.055 275.268 125.458 275.421 125.87 275.394C126.823 275.417 127.684 274.823 128 273.924C128.053 273.759 128.083 273.587 128.09 273.414L128.09 271.864ZM132.21 269.934C132.21 269.024 132.21 268.284 132.14 267.554L133.54 267.554L133.61 268.974L133.67 268.974C134.201 267.947 135.274 267.317 136.43 267.354C137.553 267.341 138.557 268.051 138.92 269.114C139.168 268.667 139.509 268.278 139.92 267.974C140.475 267.547 141.161 267.328 141.86 267.354C143.03 267.354 144.75 268.124 144.75 271.174L144.75 276.354L143.19 276.354L143.19 271.354C143.19 269.664 142.57 268.644 141.28 268.644C140.404 268.681 139.647 269.266 139.39 270.104C139.309 270.363 139.268 270.632 139.27 270.904L139.27 276.334L137.7 276.334L137.7 271.124C137.7 269.724 137.08 268.703 135.87 268.703C134.927 268.748 134.12 269.393 133.87 270.303C133.775 270.552 133.731 270.817 133.74 271.083L133.74 276.393L132.17 276.393L132.21 269.934ZM152.25 276.354L152.12 275.244C151.487 276.088 150.485 276.575 149.43 276.554C148.73 276.604 148.042 276.359 147.53 275.878C147.019 275.398 146.733 274.725 146.74 274.024C146.74 271.904 148.63 270.734 152.03 270.754L152.03 270.573C152.088 270.027 151.895 269.485 151.507 269.097C151.119 268.708 150.576 268.516 150.03 268.573C149.22 268.577 148.427 268.805 147.74 269.234L147.37 268.173C148.242 267.651 149.243 267.381 150.26 267.393C152.95 267.393 153.61 269.233 153.61 270.993L153.61 274.283C153.597 274.99 153.644 275.695 153.75 276.393L152.25 276.354ZM152.01 271.864C150.27 271.864 148.29 272.134 148.29 273.864C148.254 274.274 148.399 274.68 148.688 274.974C148.976 275.268 149.379 275.422 149.79 275.394C150.744 275.42 151.606 274.826 151.92 273.924C151.978 273.76 152.008 273.587 152.01 273.414L152.01 271.864ZM162.41 276.024C161.615 276.38 160.751 276.554 159.88 276.534C158.681 276.594 157.514 276.137 156.676 275.278C155.838 274.418 155.41 273.24 155.5 272.044C155.441 270.777 155.923 269.545 156.825 268.655C157.727 267.764 158.965 267.298 160.23 267.373C160.993 267.369 161.749 267.522 162.45 267.823L162.08 269.063C161.511 268.764 160.873 268.619 160.23 268.643C159.355 268.606 158.507 268.953 157.909 269.593C157.311 270.233 157.023 271.102 157.12 271.973C157.038 272.827 157.323 273.675 157.906 274.303C158.489 274.932 159.313 275.282 160.171 275.263C160.862 275.269 161.546 275.119 162.171 274.823L162.41 276.024ZM166.07 265.124C166.07 265.676 165.622 266.124 165.07 266.124C164.518 266.124 164.07 265.676 164.07 265.124C164.07 264.571 164.518 264.124 165.07 264.124C165.622 264.124 166.07 264.571 166.07 265.124L166.07 265.124ZM164.28 276.394L164.28 267.594L165.88 267.594L165.88 276.394L164.28 276.394ZM176.5 271.884C176.605 273.101 176.188 274.305 175.353 275.196C174.517 276.087 173.342 276.581 172.12 276.554C170.942 276.566 169.813 276.082 169.01 275.22C168.208 274.358 167.805 273.198 167.9 272.024C167.9 269.084 169.83 267.354 172.26 267.354C174.69 267.354 176.5 269.193 176.5 271.884L176.5 271.884ZM169.5 271.974C169.5 273.904 170.61 275.354 172.17 275.354C173.73 275.354 174.84 273.914 174.84 271.933C174.84 270.443 174.1 268.553 172.21 268.553C170.32 268.553 169.52 270.303 169.52 271.974L169.5 271.974ZM174.57 263.754L172.35 266.354L171.21 266.354L172.81 263.754L174.57 263.754ZM178.52 269.934C178.52 269.024 178.52 268.284 178.44 267.554L179.86 267.554L179.95 269.014C180.534 267.961 181.656 267.321 182.86 267.354C184.08 267.354 185.97 268.083 185.97 271.104L185.97 276.354L184.37 276.354L184.37 271.284C184.37 269.864 183.84 268.684 182.37 268.684C181.378 268.703 180.512 269.363 180.23 270.314C180.149 270.555 180.112 270.809 180.12 271.064L180.12 276.354L178.52 276.354L178.52 269.934ZM200.19 276.354C199.84 276.004 199.51 275.664 199.04 275.154C198.081 276.079 196.792 276.583 195.46 276.553C194.496 276.634 193.542 276.309 192.828 275.656C192.114 275.003 191.705 274.081 191.7 273.114C191.734 271.554 192.67 270.157 194.1 269.534L194.1 269.484C193.488 268.767 193.136 267.865 193.1 266.923C193.099 266.108 193.43 265.328 194.017 264.762C194.604 264.196 195.395 263.894 196.21 263.923C196.921 263.882 197.618 264.138 198.132 264.632C198.647 265.125 198.932 265.811 198.92 266.523C198.92 267.813 198.17 268.833 196.23 269.793C197.23 270.993 198.42 272.344 199.23 273.214C199.869 272.116 200.271 270.896 200.41 269.634L201.86 269.634C201.682 271.272 201.074 272.835 200.1 274.164L202.1 276.324L200.19 276.354ZM198.26 274.244C197.53 273.443 196.17 271.953 194.81 270.394C193.88 270.887 193.276 271.832 193.22 272.884C193.206 273.55 193.467 274.193 193.942 274.66C194.417 275.128 195.064 275.378 195.73 275.354C196.692 275.357 197.611 274.954 198.26 274.244L198.26 274.244ZM194.53 266.774C194.566 267.595 194.896 268.376 195.46 268.974C196.7 268.264 197.46 267.614 197.46 266.573C197.5 266.171 197.368 265.771 197.098 265.471C196.828 265.17 196.444 264.997 196.04 264.993C195.597 265.012 195.183 265.215 194.896 265.553C194.609 265.891 194.477 266.333 194.53 266.773L194.53 266.774ZM207.15 274.424C208.004 274.94 208.982 275.216 209.98 275.224C211.6 275.224 212.55 274.374 212.55 273.134C212.55 271.894 211.89 271.334 210.24 270.704C208.24 269.994 207 268.954 207 267.224C207 265.324 208.58 263.904 211 263.904C211.937 263.871 212.866 264.077 213.7 264.504L213.27 265.794C212.554 265.409 211.753 265.209 210.94 265.214C209.27 265.214 208.63 266.214 208.63 267.044C208.63 268.194 209.38 268.754 211.07 269.414C213.14 270.214 214.19 271.204 214.19 273.014C214.19 274.823 212.79 276.534 209.91 276.534C208.817 276.546 207.74 276.277 206.78 275.754L207.15 274.424ZM217.28 272.244C217.208 273.064 217.499 273.874 218.076 274.461C218.653 275.048 219.459 275.352 220.28 275.294C221.116 275.324 221.949 275.171 222.72 274.844L222.99 275.994C222.061 276.375 221.063 276.559 220.06 276.534C218.873 276.608 217.713 276.161 216.883 275.31C216.053 274.459 215.635 273.288 215.74 272.104C215.74 269.444 217.3 267.354 219.86 267.354C222.74 267.354 223.5 269.884 223.5 271.504C223.497 271.751 223.477 271.999 223.44 272.244L217.28 272.244ZM221.96 271.104C222.055 270.457 221.867 269.801 221.444 269.303C221.021 268.805 220.403 268.514 219.75 268.503C218.382 268.606 217.317 269.732 217.29 271.104L221.96 271.104ZM225.49 270.304C225.49 269.304 225.49 268.374 225.42 267.554L226.82 267.554L226.82 269.284L226.9 269.284C227.206 268.182 228.187 267.403 229.33 267.354C229.485 267.352 229.64 267.372 229.79 267.414L229.79 268.924C229.61 268.881 229.425 268.861 229.24 268.864C228.107 268.906 227.186 269.793 227.1 270.924C227.05 271.167 227.024 271.415 227.02 271.664L227.02 276.354L225.44 276.354L225.49 270.304ZM232.51 267.554L234.24 272.554C234.515 273.29 234.748 274.041 234.94 274.804L235 274.804C235.2 274.074 235.45 273.344 235.74 272.554L237.45 267.554L239.12 267.554L235.67 276.354L234.14 276.354L230.8 267.554L232.51 267.554ZM242.42 265.124C242.42 265.676 241.972 266.124 241.42 266.124C240.868 266.124 240.42 265.676 240.42 265.124C240.42 264.571 240.868 264.124 241.42 264.124C241.972 264.124 242.42 264.571 242.42 265.124L242.42 265.124ZM240.64 276.394L240.64 267.594L242.24 267.594L242.24 276.394L240.64 276.394ZM251.16 276.024C250.365 276.379 249.5 276.553 248.63 276.534C247.431 276.594 246.264 276.137 245.426 275.278C244.588 274.418 244.159 273.24 244.25 272.044C244.191 270.777 244.672 269.545 245.574 268.655C246.477 267.764 247.714 267.298 248.98 267.373C249.743 267.369 250.499 267.522 251.2 267.823L250.83 269.063C250.261 268.764 249.623 268.619 248.98 268.643C248.105 268.606 247.257 268.953 246.659 269.593C246.061 270.233 245.773 271.102 245.87 271.973C245.787 272.827 246.073 273.675 246.656 274.303C247.239 274.932 248.063 275.282 248.92 275.263C249.612 275.269 250.295 275.119 250.92 274.823L251.16 276.024ZM254.81 265.124C254.828 265.394 254.728 265.659 254.537 265.85C254.345 266.042 254.08 266.141 253.81 266.124C253.258 266.124 252.81 265.676 252.81 265.124C252.81 264.571 253.258 264.124 253.81 264.124C254.362 264.124 254.81 264.571 254.81 265.124L254.81 265.124ZM253.03 276.394L253.03 267.594L254.63 267.594L254.63 276.394L253.03 276.394ZM265.25 271.884C265.355 273.101 264.938 274.305 264.103 275.196C263.267 276.087 262.092 276.581 260.87 276.554C259.692 276.566 258.563 276.082 257.76 275.22C256.958 274.358 256.555 273.198 256.65 272.024C256.65 269.084 258.58 267.354 261.01 267.354C263.44 267.354 265.25 269.193 265.25 271.884L265.25 271.884ZM258.25 271.974C258.25 273.904 259.36 275.354 260.92 275.354C262.48 275.354 263.59 273.914 263.59 271.933C263.59 270.443 262.85 268.553 260.96 268.553C259.07 268.553 258.27 270.303 258.27 271.974L258.25 271.974ZM267.05 274.714C267.683 275.112 268.412 275.333 269.16 275.354C270.32 275.354 270.87 274.774 270.87 274.043C270.87 273.313 270.41 272.863 269.23 272.423C267.65 271.863 266.9 270.993 266.9 269.933C266.9 268.513 268.05 267.354 269.9 267.354C270.655 267.348 271.399 267.537 272.06 267.904L271.66 269.064C271.12 268.728 270.496 268.551 269.86 268.554C268.92 268.554 268.39 269.104 268.39 269.754C268.39 270.403 268.92 270.814 270.06 271.244C271.59 271.823 272.37 272.594 272.37 273.904C272.37 275.444 271.17 276.534 269.08 276.534C268.219 276.547 267.368 276.341 266.61 275.934L267.05 274.714ZM280.1 265.124C280.118 265.394 280.018 265.659 279.827 265.85C279.635 266.042 279.37 266.141 279.1 266.124C278.548 266.124 278.1 265.676 278.1 265.124C278.1 264.571 278.548 264.124 279.1 264.124C279.652 264.124 280.1 264.571 280.1 265.124L280.1 265.124ZM278.32 276.394L278.32 267.594L279.92 267.594L279.92 276.394L278.32 276.394ZM282.57 269.934C282.57 269.024 282.57 268.284 282.5 267.554L283.92 267.554L284.01 269.014C284.591 267.963 285.709 267.323 286.91 267.354C288.13 267.354 290.02 268.083 290.02 271.104L290.02 276.354L288.42 276.354L288.42 271.284C288.42 269.864 287.9 268.684 286.42 268.684C285.425 268.702 284.556 269.361 284.27 270.314C284.194 270.556 284.157 270.809 284.16 271.064L284.16 276.354L282.56 276.354L282.57 269.934ZM292.83 276.354L292.83 268.774L291.59 268.774L291.59 267.554L292.83 267.554L292.83 267.124C292.738 266.007 293.098 264.901 293.83 264.054C294.414 263.515 295.185 263.224 295.98 263.244C296.445 263.24 296.907 263.325 297.34 263.494L297.12 264.734C296.806 264.594 296.464 264.526 296.12 264.534C294.75 264.534 294.41 265.724 294.41 267.074L294.41 267.544L296.531 267.544L296.531 268.764L294.41 268.764L294.41 276.344L292.83 276.354ZM305.7 271.884C305.805 273.101 305.388 274.305 304.552 275.196C303.717 276.087 302.542 276.581 301.32 276.554C300.142 276.566 299.013 276.082 298.21 275.22C297.407 274.358 297.004 273.198 297.1 272.024C297.1 269.084 299.03 267.354 301.46 267.354C303.89 267.354 305.7 269.193 305.7 271.884L305.7 271.884ZM298.7 271.974C298.7 273.904 299.8 275.354 301.37 275.354C302.94 275.354 304.04 273.914 304.04 271.933C304.04 270.443 303.29 268.553 301.4 268.553C299.51 268.553 298.72 270.303 298.72 271.974L298.7 271.974ZM307.71 270.304C307.71 269.304 307.71 268.374 307.64 267.554L309.04 267.554L309.1 269.284L309.17 269.284C309.476 268.182 310.457 267.403 311.6 267.354C311.755 267.351 311.91 267.371 312.06 267.414L312.06 268.924C311.88 268.881 311.695 268.861 311.51 268.864C310.378 268.911 309.46 269.795 309.37 270.924C309.323 271.168 309.3 271.415 309.3 271.664L309.3 276.354L307.71 276.354L307.71 270.304ZM313.73 269.934C313.73 269.024 313.73 268.284 313.66 267.554L315.06 267.554L315.13 268.974L315.19 268.974C315.721 267.947 316.794 267.317 317.95 267.354C319.073 267.341 320.077 268.051 320.44 269.114C320.685 268.664 321.027 268.275 321.44 267.973C321.995 267.547 322.681 267.328 323.38 267.353C324.55 267.353 326.27 268.123 326.27 271.173L326.27 276.353L324.71 276.353L324.71 271.353C324.71 269.663 324.09 268.643 322.8 268.643C321.923 268.678 321.165 269.264 320.91 270.103C320.825 270.362 320.781 270.632 320.78 270.903L320.78 276.333L319.22 276.333L319.22 271.124C319.22 269.724 318.6 268.703 317.38 268.703C316.438 268.751 315.633 269.395 315.38 270.303C315.294 270.554 315.253 270.818 315.26 271.083L315.26 276.393L313.69 276.393L313.73 269.934ZM333.77 276.354L333.64 275.244L333.58 275.244C332.948 276.089 331.946 276.577 330.89 276.554C330.19 276.604 329.501 276.359 328.99 275.878C328.479 275.398 328.193 274.725 328.2 274.024C328.2 271.904 330.09 270.734 333.49 270.754L333.49 270.573C333.548 270.027 333.355 269.485 332.967 269.097C332.579 268.708 332.036 268.516 331.49 268.573C330.681 268.579 329.888 268.807 329.2 269.234L328.84 268.173C329.713 267.651 330.713 267.381 331.73 267.393C334.42 267.393 335.07 269.233 335.07 270.993L335.07 274.283C335.06 274.99 335.11 275.696 335.22 276.393L333.77 276.354ZM333.53 271.864C331.78 271.864 329.8 272.134 329.8 273.864C329.767 274.275 329.915 274.68 330.205 274.974C330.495 275.268 330.898 275.421 331.31 275.394C332.263 275.417 333.124 274.823 333.44 273.924C333.493 273.759 333.523 273.587 333.53 273.414L333.53 271.864ZM334.33 263.754L332.11 266.354L331 266.354L332.6 263.754L334.33 263.754ZM339.51 265.024L339.51 267.554L341.8 267.554L341.8 268.774L339.51 268.774L339.51 273.514C339.51 274.604 339.82 275.224 340.71 275.224C341.023 275.231 341.336 275.194 341.64 275.113L341.71 276.313C341.254 276.475 340.773 276.55 340.29 276.533C339.644 276.568 339.014 276.324 338.56 275.863C338.079 275.202 337.862 274.386 337.95 273.573L337.95 268.773L336.58 268.773L336.58 267.553L337.95 267.553L337.95 265.443L339.51 265.024ZM345.38 265.124C345.398 265.394 345.298 265.659 345.107 265.85C344.915 266.042 344.65 266.141 344.38 266.124C343.828 266.124 343.38 265.676 343.38 265.124C343.38 264.571 343.828 264.124 344.38 264.124C344.932 264.124 345.38 264.571 345.38 265.124L345.38 265.124ZM343.6 276.394L343.6 267.594L345.2 267.594L345.2 276.394L343.6 276.394ZM354.12 276.024C353.329 276.38 352.468 276.554 351.6 276.534C350.401 276.594 349.234 276.137 348.396 275.278C347.558 274.418 347.13 273.24 347.22 272.044C347.158 270.778 347.637 269.546 348.538 268.655C349.438 267.764 350.676 267.298 351.94 267.373C352.704 267.368 353.459 267.521 354.16 267.823L353.8 269.063C353.228 268.763 352.586 268.618 351.94 268.643C351.067 268.609 350.221 268.957 349.626 269.597C349.03 270.237 348.743 271.104 348.84 271.973C348.758 272.818 349.037 273.658 349.609 274.285C350.181 274.912 350.991 275.267 351.84 275.263C352.532 275.272 353.216 275.122 353.84 274.823L354.12 276.024ZM363.85 271.884C363.956 273.101 363.538 274.305 362.703 275.196C361.867 276.087 360.692 276.581 359.47 276.554C358.292 276.566 357.164 276.082 356.361 275.22C355.558 274.358 355.155 273.198 355.25 272.024C355.25 269.084 357.18 267.354 359.62 267.354C362.061 267.354 363.85 269.193 363.85 271.884L363.85 271.884ZM356.85 271.974C356.85 273.904 357.96 275.354 359.52 275.354C361.08 275.354 362.19 273.914 362.19 271.933C362.19 270.443 361.45 268.553 359.56 268.553C357.67 268.553 356.87 270.303 356.87 271.974L356.85 271.974ZM365.65 274.714C366.283 275.112 367.012 275.333 367.76 275.354C368.92 275.354 369.47 274.774 369.47 274.043C369.47 273.313 369.01 272.863 367.83 272.423C366.25 271.863 365.51 270.993 365.51 269.933C365.51 268.513 366.65 267.354 368.51 267.354C369.266 267.348 370.01 267.537 370.67 267.904L370.27 269.064C369.733 268.729 369.113 268.553 368.48 268.554C367.48 268.554 367 269.104 367 269.754C367 270.403 367.53 270.814 368.67 271.244C370.2 271.823 370.98 272.594 370.98 273.904C370.98 275.444 369.78 276.534 367.69 276.534C366.829 276.547 365.979 276.341 365.22 275.934L365.65 274.714Z"
                  id="Shape"
                  fill="#211915"
                  fill-rule="evenodd"
                  stroke="none"
                />
                <path
                  d="M33.3201 252.004C33.8701 247.823 34.1501 245.724 34.71 241.544L20.71 241.544C17.71 245.724 16.1699 247.824 13.1299 252.004L0 252.004C12.9934 234.37 25.8967 216.677 38.71 198.924L55.3201 198.924C53.3201 216.604 51.4668 234.297 49.76 252.004L33.3201 252.004ZM28.3201 229.953L36.72 229.953C37.6199 223.793 38.0701 220.714 38.99 214.563C34.74 220.714 32.6101 223.793 28.3301 229.953L28.3201 229.953ZM109.75 222.254C105.95 232.174 102.153 242.09 98.3601 252.004L90.4602 252.004C90.6594 250.156 90.6594 248.292 90.4602 246.443C85.7998 250.603 79.7571 252.877 73.5105 252.823C66.7305 252.823 62.1106 250.423 59.6904 245.643C57.2703 240.863 57.9004 234.313 61.0605 226.223C64.3174 218.589 69.209 211.762 75.3906 206.223C80.6506 201.623 89.8906 197.963 97.0007 198.123C103.001 198.253 107.381 199.723 109.861 202.943C112.341 206.163 113.031 210.713 111.861 216.623L95.8608 218.183C97.261 212.663 95.9875 209.903 92.0408 209.903C86.8674 209.903 82.2573 214.983 78.2107 225.143C75.7607 231.283 74.9807 235.343 75.8906 237.293C76.7605 239.239 78.7678 240.419 80.8906 240.233C82.9092 240.207 84.8748 239.584 86.5405 238.443C88.3562 237.272 89.7559 235.557 90.5405 233.543L82.0005 233.543L86.4504 222.263L109.75 222.254ZM142.68 198.924L123 252.004L106.86 252.004C113.573 234.31 120.277 216.617 126.97 198.924L142.68 198.924ZM173.54 238.974C171.72 244.183 170.82 246.793 169 251.974L132.16 251.974L151.6 198.894L167.31 198.894L152.96 238.894L173.54 238.974Z"
                  id="Shape"
                  fill="#002E82"
                  fill-rule="evenodd"
                  stroke="none"
                />
                <path
                  d="M209.71 231.744L224.02 232.644C221.586 238.717 217.411 243.936 212.02 247.644C207.107 251.027 201.285 252.844 195.32 252.854C188.18 252.854 183.22 250.464 180.48 245.693C177.74 240.923 178.05 234.244 180.77 225.943C183.06 218.943 188.16 210.663 193.84 205.803C199.52 200.943 206.17 198.143 213.41 198.143C220.183 198.143 224.75 200.087 227.11 203.973C229.47 207.86 229.86 213.017 228.28 219.443L213.2 220.263C214.38 216.71 214.57 214.143 213.77 212.563C213.096 211.047 211.557 210.104 209.9 210.193C204.927 210.193 200.693 215.353 197.2 225.673C195.24 231.453 194.573 235.38 195.2 237.453C195.81 239.523 197.31 240.563 199.68 240.563C203.893 240.543 207.237 237.603 209.71 231.743L209.71 231.744ZM246.1 252.823C238.7 252.823 233.46 250.347 230.38 245.393C227.32 240.393 227.38 233.723 229.82 225.523C232.389 217.995 236.811 211.233 242.68 205.863C247.68 201.503 256.44 197.963 263.2 198.113C270.2 198.263 275.37 200.543 278.41 205.423C281.45 210.303 281.56 216.923 279.35 224.943C277.4 232.033 272.2 240.543 266.35 245.193C260.24 250.123 253.44 252.823 246.1 252.823L246.1 252.823ZM249.76 240.763C252.512 240.738 255.089 239.405 256.7 237.174C258.62 234.774 260.557 230.384 262.51 224.004C265.33 214.77 264.33 210.157 259.51 210.164C254.33 210.164 250.09 215.427 246.79 225.954C243.723 235.827 244.713 240.764 249.76 240.764L249.76 240.763ZM332.12 225.214C330.42 232.033 325.38 240.214 319.83 244.553C314.098 249.311 306.899 251.943 299.45 252.003L278.12 252.003C281.807 239.443 285.5 226.88 289.2 214.313L305 214.313L297.71 239.793L301.88 239.793C304.547 239.793 307.154 238.487 309.7 235.873C312.478 232.846 314.446 229.165 315.42 225.173C316.482 221.942 316.617 218.478 315.81 215.173C315 212.383 313.08 210.984 310.07 210.984L290.15 210.984L293.69 198.984L313.49 198.984C322.09 198.984 327.78 201.624 330.62 206.914C333.46 212.204 333.82 218.364 332.12 225.214L332.12 225.214ZM374.35 239.323L371.2 252.004L331.67 252.004L345.87 198.924L384.37 198.924C383.15 203.824 382.54 206.274 381.37 211.174L358.13 211.174L356.13 218.874L375 218.874L372.05 230.654L353.05 230.654L350.8 239.324L374.35 239.323Z"
                  id="Shape"
                  fill="#CB6120"
                  fill-rule="evenodd"
                  stroke="none"
                />
                <path
                  d="M51.57 189.124L40.79 196.074L55.9 195.274L66.31 187.954L51.57 189.124L51.57 189.124Z"
                  id="Shape"
                  fill="#002E82"
                  stroke="none"
                />
              </g>
            </svg>
