<?xml version="1.0" encoding="UTF-8"?>
<svg xmlns="http://www.w3.org/2000/svg" version="1.1" viewBox="0 0 901.34 592.68">
  <defs>
    <style>
      .cls-1 {
        fill: #463d42;
      }

      .cls-1, .cls-2, .cls-3, .cls-4, .cls-5, .cls-6, .cls-7, .cls-8, .cls-9, .cls-10, .cls-11, .cls-12, .cls-13, .cls-14, .cls-15, .cls-16, .cls-17, .cls-18, .cls-19, .cls-20, .cls-21, .cls-22, .cls-23 {
        stroke-width: 0px;
      }

      .cls-2 {
        fill: #0a4259;
      }

      .cls-3 {
        fill: #82c9c5;
      }

      .cls-4 {
        fill: #ec6239;
      }

      .cls-5 {
        fill: #58b46e;
      }

      .cls-6 {
        fill: #000;
      }

      .cls-7 {
        fill: #231f20;
      }

      .cls-8 {
        fill: #2b2a2b;
      }

      .cls-9 {
        fill: #788f9b;
      }

      .cls-24 {
        font-size: 60px;
      }

      .cls-24, .cls-25 {
        font-family: Poppins-Medium, Poppins;
        font-weight: 500;
      }

      .cls-24, .cls-25, .cls-15 {
        fill: #1d1d1b;
      }

      .cls-10 {
        fill: #572711;
      }

      .cls-11 {
        fill: #6d6e6d;
      }

      .cls-12 {
        fill: #a7c714;
      }

      .cls-25 {
        font-size: 12px;
      }

      .cls-13 {
        fill: #b3b5b6;
      }

      .cls-14 {
        fill: #ccd3ed;
      }

      .cls-16 {
        fill: #d63a15;
      }

      .cls-17 {
        fill: #0577b1;
      }

      .cls-18 {
        fill: #fff;
      }

      .cls-19 {
        fill: #a3c0cc;
      }

      .cls-26 {
        display: none;
      }

      .cls-20 {
        fill: #177cc0;
      }

      .cls-21 {
        fill: #3ea3dc;
      }

      .cls-22 {
        fill: #3eae65;
      }

      .cls-23 {
        fill: #ffe7ab;
      }
    </style>
  </defs>
  <g id="Layer_1" data-name="Layer 1">
    <g>
      <g>
        <polygon class="cls-12" points="-515.15 3457.59 -515.16 3457.6 -577.31 3519.75 -670.57 3613.01 -763.85 3519.74 -826 3457.59 -826 3581.89 -826 3581.9 -670.59 3737.3 -670.57 3737.29 -515.15 3582.77 -515.15 3457.59"/>
        <polygon class="cls-12" points="-670.57 3288.08 -670.59 3288.09 -826.01 3442.61 -826 3443.48 -763.85 3505.63 -670.59 3412.37 -577.31 3505.65 -515.16 3443.49 -515.16 3443.49 -670.57 3288.08"/>
      </g>
      <g>
        <g>
          <path class="cls-12" d="M-49.72,3607.3c-20.09,0-34.22-14.63-34.22-35.21v-137.12h24.54v135.88c0,8.92,5.46,15.37,13.39,15.37,4.96,0,11.16-.99,14.88-2.48l3.23,19.09c-5.21,2.48-14.14,4.46-21.82,4.46Z"/>
          <path class="cls-12" d="M-180.14,3566.14c-36.45,0-67.19-30.74-67.19-67.19s30.74-66.95,67.19-66.95,67.69,30.5,67.69,66.95-30.99,67.19-67.69,67.19ZM-180.14,3544.82c23.55,0,43.14-20.83,43.14-45.87s-19.59-45.62-43.14-45.62-42.65,20.83-42.65,45.62,19.59,45.87,42.65,45.87Z"/>
          <path class="cls-12" d="M-336.09,3540.1c2.73,2.73,7.68,4.71,13.14,4.71,7.19,0,13.14-6.45,13.14-15.37v-73.64h-30.25v-20.83h30.25v-35.21h24.06v35.21h19.34v20.83h-19.34v75.38c0,20.58-13.89,34.96-33.72,34.96-9.17,0-18.59-3.47-25.54-9.17l8.92-16.86Z"/>
          <path class="cls-12" d="M-363.36,3485.56v77.61h-24.05v-17.6c-9.42,13.39-27.03,20.58-42.64,20.58-27.28,0-47.36-15.87-47.36-40.91s23.06-42.65,51.32-42.65c12.65,0,26.28,2.73,38.68,6.94v-3.97c0-16.12-7.44-33.23-32.98-33.23-12.64,0-25.04,4.96-36.2,10.66l-8.92-18.1c18.34-9.17,34.46-12.89,48.59-12.89,34.46,0,53.56,21.82,53.56,53.56ZM-387.41,3523v-17.11c-10.41-3.22-22.31-4.96-34.96-4.96-17.1,0-31.49,9.67-31.49,23.56s12.4,22.31,28.51,22.31,33.72-7.93,37.94-23.8Z"/>
        </g>
        <path class="cls-12" d="M-51.6,3421.06l6.08-6.26c4.3,5.24,10.56,8.69,17.95,8.69,8.32,0,13.65-4.39,13.65-10.84s-5.52-10.1-15.15-10h-7.01v-8.41l7.01.09c8.13,0,13.84-3.55,13.84-10,0-5.98-5.61-10.28-13.09-10.28-6.73,0-11.69,3.37-16.17,8.6l-5.89-5.8c4.96-6.45,12.25-11.31,22.72-11.31,13,0,22.06,7.2,22.06,17.48,0,7.95-5.61,12.9-12.34,14.96,6.73,1.5,13.74,6.36,13.74,15.33,0,10.84-9.26,18.7-23.18,18.7-10.94,0-19.26-4.77-24.21-10.94Z"/>
      </g>
      <polygon class="cls-12" points="-610.2 3701.57 -610.21 3701.58 -634.35 3725.72 -670.57 3761.95 -706.81 3725.72 -730.95 3701.57 -730.95 3749.86 -730.95 3749.86 -670.58 3810.23 -670.57 3810.22 -610.2 3750.2 -610.2 3701.57"/>
      <path class="cls-12" d="M-660.34,3846.08c-8.85,0-15.08-6.45-15.08-15.51v-60.42h10.81v59.87c0,3.93,2.4,6.77,5.9,6.77,2.18,0,4.92-.44,6.55-1.09l1.42,8.41c-2.3,1.09-6.23,1.97-9.61,1.97Z"/>
    </g>
    <g>
      <g>
        <polygon class="cls-12" points="-3776.27 7522.29 -3776.28 7522.31 -3838.43 7584.46 -3931.69 7677.72 -4024.97 7584.44 -4087.12 7522.29 -4087.12 7646.59 -4087.12 7646.6 -3931.71 7802.01 -3931.69 7801.99 -3776.27 7647.48 -3776.27 7522.29"/>
        <polygon class="cls-12" points="-3931.69 7352.78 -3931.71 7352.8 -4087.13 7507.32 -4087.12 7508.19 -4024.97 7570.34 -3931.71 7477.08 -3838.43 7570.35 -3776.28 7508.2 -3776.28 7508.19 -3931.69 7352.78"/>
      </g>
      <g>
        <g>
          <path class="cls-12" d="M-3310.84,7672c-20.09,0-34.22-14.63-34.22-35.21v-137.12h24.54v135.88c0,8.92,5.46,15.37,13.39,15.37,4.96,0,11.16-.99,14.88-2.48l3.23,19.09c-5.21,2.48-14.14,4.46-21.82,4.46Z"/>
          <path class="cls-12" d="M-3441.26,7630.85c-36.45,0-67.19-30.74-67.19-67.19s30.74-66.95,67.19-66.95,67.69,30.5,67.69,66.95-30.99,67.19-67.69,67.19ZM-3441.26,7609.52c23.55,0,43.14-20.83,43.14-45.87s-19.59-45.62-43.14-45.62-42.65,20.83-42.65,45.62,19.59,45.87,42.65,45.87Z"/>
          <path class="cls-12" d="M-3597.21,7604.81c2.73,2.73,7.68,4.71,13.14,4.71,7.19,0,13.14-6.45,13.14-15.37v-73.64h-30.25v-20.83h30.25v-35.21h24.06v35.21h19.34v20.83h-19.34v75.38c0,20.58-13.89,34.96-33.72,34.96-9.17,0-18.59-3.47-25.54-9.17l8.92-16.86Z"/>
          <path class="cls-12" d="M-3624.48,7550.26v77.61h-24.05v-17.6c-9.42,13.39-27.03,20.58-42.64,20.58-27.28,0-47.36-15.87-47.36-40.91s23.06-42.65,51.32-42.65c12.65,0,26.28,2.73,38.68,6.94v-3.97c0-16.12-7.44-33.23-32.98-33.23-12.64,0-25.04,4.96-36.2,10.66l-8.92-18.1c18.34-9.17,34.46-12.89,48.59-12.89,34.46,0,53.56,21.82,53.56,53.56ZM-3648.53,7587.7v-17.11c-10.41-3.22-22.31-4.96-34.96-4.96-17.1,0-31.49,9.67-31.49,23.56s12.4,22.31,28.51,22.31,33.72-7.93,37.94-23.8Z"/>
        </g>
        <path class="cls-12" d="M-3312.72,7485.77l6.08-6.26c4.3,5.24,10.56,8.69,17.95,8.69,8.32,0,13.65-4.39,13.65-10.84s-5.52-10.1-15.15-10h-7.01v-8.41l7.01.09c8.13,0,13.84-3.55,13.84-10,0-5.98-5.61-10.28-13.09-10.28-6.73,0-11.69,3.37-16.17,8.6l-5.89-5.8c4.96-6.45,12.25-11.31,22.72-11.31,13,0,22.06,7.2,22.06,17.48,0,7.95-5.61,12.9-12.34,14.96,6.73,1.5,13.74,6.36,13.74,15.33,0,10.84-9.26,18.7-23.18,18.7-10.94,0-19.26-4.77-24.21-10.94Z"/>
      </g>
      <polygon class="cls-12" points="-3871.32 7766.28 -3871.33 7766.29 -3895.47 7790.43 -3931.69 7826.65 -3967.92 7790.42 -3992.07 7766.28 -3992.07 7814.56 -3992.07 7814.57 -3931.7 7874.93 -3931.69 7874.93 -3871.32 7814.91 -3871.32 7766.28"/>
      <path class="cls-12" d="M-3921.46,7910.79c-8.85,0-15.08-6.45-15.08-15.51v-60.42h10.81v59.87c0,3.93,2.4,6.77,5.9,6.77,2.18,0,4.92-.44,6.55-1.09l1.42,8.41c-2.3,1.09-6.23,1.97-9.61,1.97Z"/>
    </g>
    <g>
      <g>
        <polygon class="cls-12" points="-1781.95 6562.29 -1781.96 6562.31 -1844.11 6624.46 -1937.37 6717.72 -2030.64 6624.44 -2092.79 6562.29 -2092.8 6686.59 -2092.8 6686.6 -1937.39 6842.01 -1937.37 6841.99 -1781.95 6687.48 -1781.95 6562.29"/>
        <polygon class="cls-12" points="-1937.37 6392.78 -1937.38 6392.8 -2092.81 6547.32 -2092.79 6548.19 -2030.64 6610.34 -1937.38 6517.08 -1844.11 6610.35 -1781.96 6548.2 -1781.96 6548.19 -1937.37 6392.78"/>
      </g>
      <g>
        <g>
          <path class="cls-12" d="M-1316.52,6712c-20.09,0-34.22-14.63-34.22-35.21v-137.12h24.54v135.88c0,8.92,5.46,15.37,13.39,15.37,4.96,0,11.16-.99,14.88-2.48l3.23,19.09c-5.21,2.48-14.14,4.46-21.82,4.46Z"/>
          <path class="cls-12" d="M-1446.94,6670.85c-36.45,0-67.19-30.74-67.19-67.19s30.74-66.95,67.19-66.95,67.69,30.5,67.69,66.95-30.99,67.19-67.69,67.19ZM-1446.94,6649.52c23.55,0,43.14-20.83,43.14-45.87s-19.59-45.62-43.14-45.62-42.65,20.83-42.65,45.62,19.59,45.87,42.65,45.87Z"/>
          <path class="cls-12" d="M-1602.89,6644.81c2.73,2.73,7.68,4.71,13.14,4.71,7.19,0,13.14-6.45,13.14-15.37v-73.64h-30.25v-20.83h30.25v-35.21h24.06v35.21h19.34v20.83h-19.34v75.38c0,20.58-13.89,34.96-33.72,34.96-9.17,0-18.59-3.47-25.54-9.17l8.92-16.86Z"/>
          <path class="cls-12" d="M-1630.15,6590.26v77.61h-24.05v-17.6c-9.42,13.39-27.03,20.58-42.64,20.58-27.28,0-47.36-15.87-47.36-40.91s23.06-42.65,51.32-42.65c12.65,0,26.28,2.73,38.68,6.94v-3.97c0-16.12-7.44-33.23-32.98-33.23-12.64,0-25.04,4.96-36.2,10.66l-8.92-18.1c18.34-9.17,34.46-12.89,48.59-12.89,34.46,0,53.56,21.82,53.56,53.56ZM-1654.21,6627.7v-17.11c-10.41-3.22-22.31-4.96-34.96-4.96-17.1,0-31.49,9.67-31.49,23.56s12.4,22.31,28.51,22.31,33.72-7.93,37.94-23.8Z"/>
        </g>
        <path class="cls-12" d="M-1318.4,6525.77l6.08-6.26c4.3,5.24,10.56,8.69,17.95,8.69,8.32,0,13.65-4.39,13.65-10.84s-5.52-10.1-15.15-10h-7.01v-8.41l7.01.09c8.13,0,13.84-3.55,13.84-10,0-5.98-5.61-10.28-13.09-10.28-6.73,0-11.69,3.37-16.17,8.6l-5.89-5.8c4.96-6.45,12.25-11.31,22.72-11.31,13,0,22.06,7.2,22.06,17.48,0,7.95-5.61,12.9-12.34,14.96,6.73,1.5,13.74,6.36,13.74,15.33,0,10.84-9.26,18.7-23.18,18.7-10.94,0-19.26-4.77-24.21-10.94Z"/>
      </g>
      <polygon class="cls-12" points="-1877 6806.28 -1877 6806.29 -1901.15 6830.43 -1937.37 6866.65 -1973.6 6830.42 -1997.74 6806.28 -1997.74 6854.56 -1997.74 6854.57 -1937.38 6914.93 -1937.37 6914.93 -1877 6854.91 -1877 6806.28"/>
      <path class="cls-12" d="M-1927.14,6950.79c-8.85,0-15.08-6.45-15.08-15.51v-60.42h10.81v59.87c0,3.93,2.4,6.77,5.9,6.77,2.18,0,4.92-.44,6.55-1.09l1.42,8.41c-2.3,1.09-6.23,1.97-9.61,1.97Z"/>
    </g>
    <g>
      <g>
        <polygon class="cls-12" points="-3539.12 4339.27 -3539.12 4339.27 -3551.12 4351.27 -3569.11 4369.26 -3587.11 4351.26 -3599.11 4339.27 -3599.11 4363.26 -3599.11 4363.26 -3569.12 4393.25 -3569.11 4393.25 -3539.12 4363.43 -3539.12 4339.27"/>
        <polygon class="cls-12" points="-3569.11 4306.56 -3569.12 4306.56 -3599.11 4336.38 -3599.11 4336.55 -3587.11 4348.54 -3569.12 4330.54 -3551.12 4348.54 -3539.12 4336.55 -3539.12 4336.55 -3569.11 4306.56"/>
      </g>
      <g>
        <g>
          <path class="cls-12" d="M-3449.3,4368.16c-3.88,0-6.6-2.82-6.6-6.79v-26.46h4.74v26.22c0,1.72,1.05,2.97,2.58,2.97.96,0,2.15-.19,2.87-.48l.62,3.68c-1.01.48-2.73.86-4.21.86Z"/>
          <path class="cls-12" d="M-3474.47,4360.22c-7.03,0-12.97-5.93-12.97-12.97s5.93-12.92,12.97-12.92,13.06,5.89,13.06,12.92-5.98,12.97-13.06,12.97ZM-3474.47,4356.1c4.55,0,8.33-4.02,8.33-8.85s-3.78-8.8-8.33-8.8-8.23,4.02-8.23,8.8,3.78,8.85,8.23,8.85Z"/>
          <path class="cls-12" d="M-3504.56,4355.19c.53.53,1.48.91,2.54.91,1.39,0,2.54-1.24,2.54-2.97v-14.21h-5.84v-4.02h5.84v-6.79h4.64v6.79h3.73v4.02h-3.73v14.55c0,3.97-2.68,6.75-6.51,6.75-1.77,0-3.59-.67-4.93-1.77l1.72-3.25Z"/>
          <path class="cls-12" d="M-3509.83,4344.67v14.98h-4.64v-3.4c-1.82,2.58-5.22,3.97-8.23,3.97-5.26,0-9.14-3.06-9.14-7.9s4.45-8.23,9.9-8.23c2.44,0,5.07.53,7.46,1.34v-.77c0-3.11-1.44-6.41-6.36-6.41-2.44,0-4.83.96-6.99,2.06l-1.72-3.49c3.54-1.77,6.65-2.49,9.38-2.49,6.65,0,10.34,4.21,10.34,10.34ZM-3514.47,4351.89v-3.3c-2.01-.62-4.31-.96-6.75-.96-3.3,0-6.08,1.87-6.08,4.55s2.39,4.31,5.5,4.31,6.51-1.53,7.32-4.59Z"/>
        </g>
        <path class="cls-12" d="M-3449.66,4332.22l1.17-1.21c.83,1.01,2.04,1.68,3.46,1.68,1.61,0,2.63-.85,2.63-2.09s-1.06-1.95-2.92-1.93h-1.35v-1.62l1.35.02c1.57,0,2.67-.69,2.67-1.93,0-1.15-1.08-1.98-2.53-1.98-1.3,0-2.26.65-3.12,1.66l-1.14-1.12c.96-1.24,2.36-2.18,4.38-2.18,2.51,0,4.26,1.39,4.26,3.37,0,1.53-1.08,2.49-2.38,2.89,1.3.29,2.65,1.23,2.65,2.96,0,2.09-1.79,3.61-4.47,3.61-2.11,0-3.72-.92-4.67-2.11Z"/>
      </g>
      <polygon class="cls-12" points="-3557.46 4386.35 -3557.46 4386.36 -3562.12 4391.01 -3569.11 4398.01 -3576.11 4391.01 -3580.76 4386.35 -3580.76 4395.67 -3580.76 4395.67 -3569.11 4407.32 -3569.11 4407.32 -3557.46 4395.74 -3557.46 4386.35"/>
      <path class="cls-12" d="M-3567.14,4414.24c-1.71,0-2.91-1.24-2.91-2.99v-11.66h2.09v11.55c0,.76.46,1.31,1.14,1.31.42,0,.95-.08,1.26-.21l.27,1.62c-.44.21-1.2.38-1.86.38Z"/>
    </g>
    <g>
      <g>
        <polygon class="cls-12" points="-3165.68 4355.71 -3165.68 4355.71 -3177.68 4367.7 -3195.67 4385.7 -3213.67 4367.7 -3225.67 4355.71 -3225.67 4379.69 -3225.67 4379.7 -3195.68 4409.69 -3195.67 4409.68 -3165.68 4379.87 -3165.68 4355.71"/>
        <polygon class="cls-12" points="-3195.67 4323 -3195.68 4323 -3225.67 4352.82 -3225.67 4352.98 -3213.67 4364.98 -3195.68 4346.98 -3177.68 4364.98 -3165.68 4352.99 -3165.68 4352.99 -3195.67 4323"/>
      </g>
      <g>
        <g>
          <path class="cls-15" d="M-3075.86,4384.6c-3.88,0-6.6-2.82-6.6-6.79v-26.46h4.74v26.22c0,1.72,1.05,2.97,2.58,2.97.96,0,2.15-.19,2.87-.48l.62,3.68c-1.01.48-2.73.86-4.21.86Z"/>
          <path class="cls-15" d="M-3101.03,4376.66c-7.03,0-12.97-5.93-12.97-12.97s5.93-12.92,12.97-12.92,13.06,5.89,13.06,12.92-5.98,12.97-13.06,12.97ZM-3101.03,4372.54c4.55,0,8.33-4.02,8.33-8.85s-3.78-8.8-8.33-8.8-8.23,4.02-8.23,8.8,3.78,8.85,8.23,8.85Z"/>
          <path class="cls-15" d="M-3131.13,4371.63c.53.53,1.48.91,2.54.91,1.39,0,2.54-1.24,2.54-2.97v-14.21h-5.84v-4.02h5.84v-6.79h4.64v6.79h3.73v4.02h-3.73v14.55c0,3.97-2.68,6.75-6.51,6.75-1.77,0-3.59-.67-4.93-1.77l1.72-3.25Z"/>
          <path class="cls-15" d="M-3136.39,4361.1v14.98h-4.64v-3.4c-1.82,2.58-5.22,3.97-8.23,3.97-5.26,0-9.14-3.06-9.14-7.9s4.45-8.23,9.9-8.23c2.44,0,5.07.53,7.46,1.34v-.77c0-3.11-1.44-6.41-6.36-6.41-2.44,0-4.83.96-6.99,2.06l-1.72-3.49c3.54-1.77,6.65-2.49,9.38-2.49,6.65,0,10.34,4.21,10.34,10.34ZM-3141.03,4368.33v-3.3c-2.01-.62-4.31-.96-6.75-.96-3.3,0-6.08,1.87-6.08,4.55s2.39,4.31,5.5,4.31,6.51-1.53,7.32-4.59Z"/>
        </g>
        <path class="cls-15" d="M-3076.23,4348.66l1.17-1.21c.83,1.01,2.04,1.68,3.46,1.68,1.61,0,2.63-.85,2.63-2.09s-1.06-1.95-2.92-1.93h-1.35v-1.62l1.35.02c1.57,0,2.67-.69,2.67-1.93,0-1.15-1.08-1.98-2.53-1.98-1.3,0-2.26.65-3.12,1.66l-1.14-1.12c.96-1.24,2.36-2.18,4.38-2.18,2.51,0,4.26,1.39,4.26,3.37,0,1.53-1.08,2.49-2.38,2.89,1.3.29,2.65,1.23,2.65,2.96,0,2.09-1.79,3.61-4.47,3.61-2.11,0-3.72-.92-4.67-2.11Z"/>
      </g>
      <polygon class="cls-12" points="-3184.02 4402.79 -3184.03 4402.79 -3188.68 4407.45 -3195.67 4414.44 -3202.67 4407.45 -3207.33 4402.79 -3207.33 4412.11 -3207.33 4412.11 -3195.68 4423.76 -3195.67 4423.76 -3184.02 4412.18 -3184.02 4402.79"/>
      <path class="cls-12" d="M-3193.7,4430.68c-1.71,0-2.91-1.24-2.91-2.99v-11.66h2.09v11.55c0,.76.46,1.31,1.14,1.31.42,0,.95-.08,1.26-.21l.27,1.62c-.44.21-1.2.38-1.86.38Z"/>
    </g>
    <g>
      <polygon class="cls-12" points="-906.51 188.69 -906.53 188.71 -1008.12 290.3 -1160.55 442.73 -1313 290.27 -1414.59 188.69 -1414.59 391.86 -1414.59 391.87 -1160.58 645.89 -1160.55 645.86 -906.51 393.3 -906.51 188.69"/>
      <polygon class="cls-6" points="-1160.54 -88.37 -1160.57 -88.34 -1414.61 164.21 -1414.59 165.64 -1313 267.22 -1160.57 114.79 -1008.12 267.24 -906.53 165.66 -906.53 165.64 -1160.54 -88.37"/>
    </g>
    <g>
      <g>
        <path class="cls-12" d="M220.54,434.9l119.15-118.45c6.89-6.85,10.76-16.15,10.76-25.86v-22.19c0-32.49-39.28-48.76-62.26-25.79h-.01s-67.63,67.65-67.63,67.65c-14.24,14.24-37.33,14.24-51.58,0l-67.65-67.65h0c-22.97-22.97-62.26-6.7-62.26,25.79v21.36c0,9.67,3.84,18.95,10.68,25.79l119.3,119.28c14.21,14.21,37.24,14.24,51.5.07Z"/>
        <path class="cls-6" d="M127.29,202.52l41.67-41.67c14.24-14.24,37.33-14.24,51.58,0l41.86,41.86c14.24,14.24,37.34,14.24,51.58,0l10.69-10.69c14.24-14.24,14.24-37.33,0-51.57l-104.18-104.18c-14.21-14.21-37.25-14.25-51.5-.08l-104.16,103.55c-14.24,14.16-14.36,37.17-.25,51.47l10.97,11.13c14.21,14.41,37.44,14.49,51.75.18Z"/>
        <path class="cls-12" d="M230.92,446.73c-20.01,20.01-52.45,20.01-72.46,0h0s-24.14-24.14-24.14-24.14v48.28s0,0,0,0l60.37,60.37h0s60.37-60.03,60.37-60.03v-48.63s0,0,0,0l-24.14,24.14Z"/>
        <path class="cls-12" d="M204.92,567.1c-8.85,0-15.08-6.45-15.08-15.51v-60.42h10.81v59.87c0,3.93,2.4,6.77,5.9,6.77,2.18,0,4.92-.44,6.55-1.09l1.42,8.41c-2.3,1.09-6.23,1.97-9.61,1.97Z"/>
      </g>
      <g>
        <g>
          <path class="cls-15" d="M813.76,289.09c-20.12,0-34.28-14.65-34.28-35.27v-96.12h24.58v94.88c0,8.94,5.47,15.4,13.42,15.4,4.97,0,11.18-.99,14.9-2.48l3.23,19.12c-5.22,2.48-14.16,4.47-21.86,4.47Z"/>
          <path class="cls-15" d="M689.31,289.09c-35.71,0-65.82-30.11-65.82-65.82s30.11-65.57,65.82-65.57,66.3,29.87,66.3,65.57-30.36,65.82-66.3,65.82ZM689.31,268.21c23.07,0,42.26-20.4,42.26-44.93s-19.19-44.69-42.26-44.69-41.78,20.4-41.78,44.69,19.19,44.93,41.78,44.93Z"/>
          <path class="cls-15" d="M525.11,260.4c2.73,2.73,12.4,7.33,17.87,7.33,7.2,0,13.16-6.46,13.16-15.4v-73.77h-31.03v-20.86h31.03v-35.27h24.1v35.27h19.37v20.86h-19.37v75.51c0,20.61-13.91,35.02-33.78,35.02-9.19,0-14.21-2.07-21.17-7.79l-.18-20.9Z"/>
          <path class="cls-15" d="M501.23,210.16v76.02h-23.56v-17.24c-9.23,13.11-26.47,20.16-41.77,20.16-26.72,0-46.39-15.54-46.39-40.07s22.59-41.77,50.27-41.77c12.39,0,25.75,2.67,37.89,6.8v-3.88c0-15.79-7.29-32.55-32.3-32.55-12.38,0-24.53,4.86-35.46,10.44l-8.74-17.73c17.97-8.99,33.75-12.63,47.6-12.63,33.76,0,52.46,21.37,52.46,52.46ZM477.67,246.83v-16.76c-10.2-3.16-21.86-4.86-34.25-4.86-16.75,0-30.84,9.47-30.84,23.07s12.14,21.86,27.93,21.86,33.03-7.77,37.16-23.32Z"/>
        </g>
        <path class="cls-15" d="M812.79,146.75l6.09-6.27c4.31,5.24,10.58,8.71,17.98,8.71,8.33,0,13.67-4.4,13.67-10.86s-5.53-10.11-15.17-10.02h-7.02v-8.43l7.02.09c8.15,0,13.86-3.56,13.86-10.02,0-5.99-5.62-10.3-13.11-10.3-6.74,0-11.71,3.37-16.2,8.62l-5.9-5.81c4.96-6.46,12.27-11.33,22.76-11.33,13.02,0,22.1,7.21,22.1,17.51,0,7.96-5.62,12.92-12.36,14.98,6.74,1.5,13.77,6.37,13.77,15.36,0,10.86-9.27,18.73-23.22,18.73-10.96,0-19.29-4.78-24.26-10.96Z"/>
      </g>
      <g>
        <path class="cls-7" d="M416.24,441.26c-6.19,0-11.94-1.26-17.1-3.75-4.19-2.02-7.93-4.87-10.89-8.27l5.55-5.72c5.86,6.5,13.69,10.05,22.21,10.05,5.33,0,9.88-1.39,13.15-4.02,3.33-2.68,5.1-6.4,5.1-10.77,0-5.14-2.55-13.75-19.63-13.75h-7.71s0-7.55,0-7.55l7.2.1c11.45-.01,18.52-5.28,18.52-13.75s-7.38-14.09-17.55-14.09c-7.45,0-13.84,3.18-20.03,9.98l-5.31-5.23c3-3.66,6.44-6.56,10.25-8.61,4.71-2.54,10.06-3.83,15.9-3.83,3.8,0,7.36.51,10.6,1.52,3.12.97,5.87,2.39,8.15,4.2,4.56,3.61,7.07,8.74,7.07,14.44,0,4.2-1.43,8.01-4.14,11.01-.94,1.04-2.04,2-3.27,2.85l-6.65,4.62,6.99,4.08c1.46.85,2.75,1.82,3.86,2.9,3.23,3.14,4.94,7.26,4.94,11.91,0,6.1-2.61,11.59-7.34,15.47-2.4,1.96-5.28,3.49-8.57,4.54-3.43,1.1-7.23,1.66-11.29,1.66Z"/>
        <path class="cls-7" d="M524.48,441.26l.03-11.3-8.03,5.29c-1.28.84-2.61,1.61-3.96,2.27-5.03,2.48-10.6,3.74-16.56,3.74-5.28,0-10.26-.98-14.79-2.9-4.54-1.93-8.74-4.84-12.48-8.67-3.73-3.82-6.58-8.14-8.45-12.81-1.88-4.68-2.83-9.84-2.83-15.31s.96-10.43,2.86-15.05c1.9-4.62,4.77-8.9,8.54-12.71,3.77-3.82,8-6.73,12.57-8.64,4.57-1.92,9.57-2.89,14.87-2.89,6.15,0,11.8,1.33,16.79,3.95,1.15.61,2.3,1.3,3.4,2.05l8.09,5.57v-30.93h11.16l-.03,98.37h-11.16ZM497.01,373.22c-5.06,0-9.8,1.26-14.08,3.75-4.28,2.49-7.73,6.03-10.26,10.53-2.54,4.51-3.82,9.34-3.82,14.36s1.3,9.81,3.85,14.36c2.56,4.55,6.03,8.14,10.34,10.67,4.3,2.53,8.98,3.81,13.91,3.81s9.76-1.27,14.23-3.79c4.45-2.51,7.93-5.94,10.32-10.22,2.4-4.28,3.62-9.18,3.62-14.57,0-8.31-2.66-15.06-8.12-20.64-5.46-5.57-11.99-8.27-19.98-8.27Z"/>
        <path class="cls-7" d="M555.54,441.26c-1.62,0-3.03-.59-4.17-1.75-1.15-1.17-1.74-2.59-1.74-4.22s.58-3.09,1.73-4.24c1.15-1.15,2.55-1.73,4.18-1.73s3.03.58,4.18,1.73c1.15,1.15,1.73,2.58,1.73,4.24s-.58,3.05-1.74,4.22c-1.15,1.16-2.55,1.75-4.17,1.75Z"/>
        <path class="cls-7" d="M660.05,441.26v-78.77h11.85v8.95l7.72-4.41c1.54-.88,3.2-1.65,4.93-2.3,4.01-1.49,8.29-2.24,12.72-2.24h2.51v11.43h-2.51c-14.94,0-25.38,10.09-25.38,24.54v42.8h-11.85Z"/>
        <g>
          <path class="cls-7" d="M719.73,348.55c-3.3,0-5.98-2.68-5.98-5.98s2.68-5.86,5.98-5.86c1.53,0,2.99.62,4.12,1.75s1.75,2.59,1.75,4.12-.62,3.06-1.75,4.21c-1.12,1.14-2.59,1.77-4.11,1.77Z"/>
          <rect class="cls-7" x="713.74" y="362.49" width="11.85" height="78.77"/>
        </g>
        <path class="cls-7" d="M845.56,441.26c-5.05,0-9.64-2.07-12.93-5.82-3.33-3.8-5.16-9.15-5.16-15.05v-46.34h-12.24v-11.41h12.24v-19.75h11.82v19.75h18.5v11.41h-18.5v46.34c0,5.48,2.81,9.46,6.68,9.46,2.75,0,5.69-1.08,7.86-2.9l2.15-1.8,6.29,9.56-1.82,1.42c-4.25,3.3-9.53,5.12-14.89,5.12Z"/>
        <path class="cls-7" d="M575.42,463.19v-100.69h11.56v8.89l7.75-4.48c1.51-.87,3.12-1.63,4.78-2.25,3.82-1.43,7.94-2.16,12.25-2.16,4.61,0,9.1,1.03,13.32,3.07,4.09,1.97,7.78,4.8,10.94,8.4,3.18,3.62,5.68,7.83,7.42,12.52,1.81,4.87,2.73,10.03,2.73,15.36s-.92,10.53-2.73,15.41c-1.75,4.71-4.25,8.93-7.43,12.56-3.17,3.62-6.85,6.45-10.94,8.43-4.22,2.04-8.71,3.08-13.32,3.08-4.32,0-8.44-.73-12.25-2.17-1.65-.62-3.25-1.38-4.76-2.26l-7.76-4.51v30.81h-11.56ZM610.39,373.64c-13.78,0-23.4,11.59-23.4,28.19s9.84,28.32,23.4,28.32,23.96-12.7,23.96-28.32-10.75-28.19-23.96-28.19Z"/>
        <path class="cls-7" d="M792.31,441.26v-48.77c0-12.64-8.65-21.47-21.04-21.47s-22.79,9.17-22.79,21.33v48.91h-8.96v-78.77h8.96v9.15l7.87-4.85c1.21-.75,2.51-1.41,3.87-1.98,3.71-1.55,7.77-2.33,12.07-2.33,8.14,0,15.53,2.91,20.81,8.18,5.28,5.28,8.18,12.67,8.18,20.81v49.78h-8.96Z"/>
      </g>
    </g>
    <g>
      <g>
        <polygon class="cls-12" points="-7836.8 2411.67 -7836.8 2411.67 -7860.93 2435.8 -7897.13 2472 -7933.34 2435.79 -7957.46 2411.67 -7957.46 2459.92 -7957.46 2459.92 -7897.14 2520.25 -7897.13 2520.24 -7836.8 2460.26 -7836.8 2411.67"/>
        <polygon class="cls-6" points="-7897.13 2345.87 -7897.14 2345.87 -7957.47 2405.85 -7957.46 2406.19 -7933.34 2430.32 -7897.14 2394.12 -7860.93 2430.32 -7836.8 2406.2 -7836.8 2406.19 -7897.13 2345.87"/>
      </g>
      <g>
        <g>
          <path class="cls-15" d="M-7656.12,2469.78c-7.8,0-13.28-5.68-13.28-13.67v-53.23h9.53v52.75c0,3.46,2.12,5.97,5.2,5.97,1.92,0,4.33-.39,5.77-.96l1.25,7.41c-2.02.96-5.49,1.73-8.47,1.73Z"/>
          <path class="cls-15" d="M-7706.75,2453.81c-14.15,0-26.08-11.93-26.08-26.08s11.93-25.99,26.08-25.99,26.28,11.84,26.28,25.99-12.03,26.08-26.28,26.08ZM-7706.75,2445.53c9.14,0,16.75-8.09,16.75-17.81s-7.6-17.71-16.75-17.71-16.56,8.09-16.56,17.71,7.61,17.81,16.56,17.81Z"/>
          <path class="cls-15" d="M-7767.29,2443.7c1.06,1.06,2.98,1.83,5.1,1.83,2.79,0,5.1-2.5,5.1-5.97v-28.59h-11.74v-8.08h11.74v-13.67h9.34v13.67h7.51v8.08h-7.51v29.26c0,7.99-5.39,13.57-13.09,13.57-3.56,0-7.22-1.35-9.91-3.56l3.46-6.55Z"/>
          <path class="cls-15" d="M-7777.87,2422.52v30.13h-9.34v-6.83c-3.66,5.2-10.49,7.99-16.55,7.99-10.59,0-18.38-6.16-18.38-15.88s8.95-16.56,19.92-16.56c4.91,0,10.2,1.06,15.02,2.69v-1.54c0-6.26-2.89-12.9-12.8-12.9-4.91,0-9.72,1.93-14.05,4.14l-3.46-7.03c7.12-3.56,13.38-5,18.86-5,13.38,0,20.79,8.47,20.79,20.79ZM-7787.21,2437.06v-6.64c-4.04-1.25-8.66-1.92-13.57-1.92-6.64,0-12.22,3.75-12.22,9.14s4.81,8.66,11.07,8.66,13.09-3.08,14.73-9.24Z"/>
        </g>
        <path class="cls-15" d="M-7656.85,2397.49l2.36-2.43c1.67,2.03,4.1,3.38,6.97,3.38,3.23,0,5.3-1.71,5.3-4.21s-2.14-3.92-5.88-3.88h-2.72v-3.27l2.72.04c3.16,0,5.37-1.38,5.37-3.88,0-2.32-2.18-3.99-5.08-3.99-2.61,0-4.54,1.31-6.28,3.34l-2.29-2.25c1.92-2.5,4.75-4.39,8.82-4.39,5.04,0,8.56,2.79,8.56,6.79,0,3.08-2.18,5.01-4.79,5.81,2.61.58,5.33,2.47,5.33,5.95,0,4.21-3.59,7.26-9,7.26-4.25,0-7.48-1.85-9.4-4.25Z"/>
      </g>
    </g>
    <rect class="cls-18" x="-5980.65" y="2450.99" width="1387.35" height="2177.03"/>
    <text class="cls-25" transform="translate(159.51 4240.51)"><tspan x="0" y="0">098 242 5421</tspan></text>
    <text class="cls-25" transform="translate(-538.99 4277.67)"><tspan x="0" y="0">Envíos a todo el país</tspan></text>
    <text class="cls-24" transform="translate(-1017.4 4476.68)"><tspan x="0" y="0">096 274 5760</tspan></text>
    <g>
      <path class="cls-18" d="M-1875.88,4240.7c2.34-3.9,6.37-5.85,12.09-5.85s9.75,1.95,12.09,5.85,3.51,9.31,3.51,16.23-1.17,12.47-3.51,16.41c-2.34,3.94-6.37,5.91-12.09,5.91s-9.75-1.97-12.09-5.91c-2.34-3.94-3.51-9.41-3.51-16.41s1.17-12.33,3.51-16.23ZM-1855.54,4248.71c-.42-2.24-1.27-4.07-2.55-5.49-1.28-1.42-3.18-2.13-5.7-2.13s-4.42.71-5.7,2.13c-1.28,1.42-2.13,3.25-2.55,5.49-.42,2.24-.63,4.98-.63,8.22s.2,6.18.6,8.46c.4,2.28,1.25,4.12,2.55,5.52,1.3,1.4,3.21,2.1,5.73,2.1s4.43-.7,5.73-2.1c1.3-1.4,2.15-3.24,2.55-5.52.4-2.28.6-5.1.6-8.46s-.21-5.98-.63-8.22Z"/>
      <path class="cls-18" d="M-1829.83,4272.05c1.32,1.04,3.1,1.56,5.34,1.56,2.84,0,4.92-1.12,6.24-3.36,1.32-2.24,1.98-6.06,1.98-11.46-.96,1.36-2.31,2.41-4.05,3.15s-3.63,1.11-5.67,1.11c-2.6,0-4.96-.53-7.08-1.59-2.12-1.06-3.79-2.64-5.01-4.74-1.22-2.1-1.83-4.65-1.83-7.65,0-4.4,1.29-7.91,3.87-10.53,2.58-2.62,6.13-3.93,10.65-3.93,5.44,0,9.31,1.81,11.61,5.43,2.3,3.62,3.45,9.17,3.45,16.65,0,5.16-.43,9.38-1.29,12.66-.86,3.28-2.35,5.76-4.47,7.44-2.12,1.68-5.06,2.52-8.82,2.52-4.28,0-7.58-1.12-9.9-3.36-2.32-2.24-3.62-5.06-3.9-8.46h6.3c.4,2,1.26,3.52,2.58,4.56ZM-1819.12,4255.04c1.38-1.5,2.07-3.49,2.07-5.97,0-2.76-.73-4.91-2.19-6.45-1.46-1.54-3.45-2.31-5.97-2.31s-4.51.79-5.97,2.37c-1.46,1.58-2.19,3.65-2.19,6.21s.71,4.45,2.13,6.03c1.42,1.58,3.57,2.37,6.45,2.37,2.4,0,4.29-.75,5.67-2.25Z"/>
      <path class="cls-18" d="M-1781.71,4241.63c-1.16-.92-2.78-1.38-4.86-1.38-3.16,0-5.52,1.21-7.08,3.63-1.56,2.42-2.38,6.43-2.46,12.03,1.04-1.76,2.56-3.12,4.56-4.08,2-.96,4.16-1.44,6.48-1.44,2.64,0,4.97.57,6.99,1.71,2.02,1.14,3.6,2.79,4.74,4.95,1.14,2.16,1.71,4.74,1.71,7.74,0,2.8-.55,5.3-1.65,7.5-1.1,2.2-2.73,3.93-4.89,5.19-2.16,1.26-4.76,1.89-7.8,1.89-4.12,0-7.35-.91-9.69-2.73-2.34-1.82-3.98-4.39-4.92-7.71-.94-3.32-1.41-7.46-1.41-12.42,0-14.64,5.16-21.96,15.48-21.96,4,0,7.15,1.08,9.45,3.24,2.3,2.16,3.65,4.82,4.05,7.98h-6.3c-.44-1.84-1.24-3.22-2.4-4.14ZM-1792.78,4258.34c-1.7,1.46-2.55,3.57-2.55,6.33s.79,4.95,2.37,6.57,3.79,2.43,6.63,2.43c2.52,0,4.51-.78,5.97-2.34,1.46-1.56,2.19-3.64,2.19-6.24s-.71-4.89-2.13-6.51-3.51-2.43-6.27-2.43c-2.44,0-4.51.73-6.21,2.19Z"/>
      <path class="cls-18" d="M-1744.93,4270.07c3.84-3.32,6.87-6.05,9.09-8.19,2.22-2.14,4.07-4.37,5.55-6.69,1.48-2.32,2.22-4.64,2.22-6.96s-.57-4.28-1.71-5.64c-1.14-1.36-2.93-2.04-5.37-2.04s-4.19.75-5.49,2.25-1.99,3.51-2.07,6.03h-6.6c.12-4.56,1.49-8.05,4.11-10.47,2.62-2.42,5.95-3.63,9.99-3.63,4.36,0,7.77,1.2,10.23,3.6s3.69,5.6,3.69,9.6c0,2.88-.73,5.65-2.19,8.31-1.46,2.66-3.2,5.04-5.22,7.14-2.02,2.1-4.59,4.53-7.71,7.29l-2.7,2.4h19.02v5.7h-29.16v-4.98l4.32-3.72Z"/>
      <path class="cls-18" d="M-1686.37,4240.91l-16.68,38.46h-6.9l16.86-37.74h-22.2v-5.82h28.92v5.1Z"/>
      <path class="cls-18" d="M-1681.33,4270.25v-5.16l20.16-28.92h8.28v28.14h5.58v5.94h-5.58v9.12h-6.72v-9.12h-21.72ZM-1659.31,4243.13l-14.16,21.18h14.16v-21.18Z"/>
      <path class="cls-18" d="M-1597.88,4241.51h-20.1v11.94c.84-1.12,2.09-2.06,3.75-2.82,1.66-.76,3.43-1.14,5.31-1.14,3.36,0,6.09.72,8.19,2.16,2.1,1.44,3.6,3.26,4.5,5.46.9,2.2,1.35,4.52,1.35,6.96,0,2.96-.57,5.59-1.71,7.89-1.14,2.3-2.84,4.11-5.1,5.43-2.26,1.32-5.03,1.98-8.31,1.98-4.36,0-7.86-1.08-10.5-3.24-2.64-2.16-4.22-5.02-4.74-8.58h6.66c.44,1.88,1.42,3.37,2.94,4.47,1.52,1.1,3.42,1.65,5.7,1.65,2.84,0,4.97-.86,6.39-2.58,1.42-1.72,2.13-4,2.13-6.84s-.72-5.09-2.16-6.63c-1.44-1.54-3.56-2.31-6.36-2.31-1.96,0-3.61.49-4.95,1.47-1.34.98-2.31,2.31-2.91,3.99h-6.48v-25.26h26.4v6Z"/>
      <path class="cls-18" d="M-1560.01,4240.91l-16.68,38.46h-6.9l16.86-37.74h-22.2v-5.82h28.92v5.1Z"/>
      <path class="cls-18" d="M-1533.02,4241.63c-1.16-.92-2.78-1.38-4.86-1.38-3.16,0-5.52,1.21-7.08,3.63-1.56,2.42-2.38,6.43-2.46,12.03,1.04-1.76,2.56-3.12,4.56-4.08,2-.96,4.16-1.44,6.48-1.44,2.64,0,4.97.57,6.99,1.71,2.02,1.14,3.6,2.79,4.74,4.95,1.14,2.16,1.71,4.74,1.71,7.74,0,2.8-.55,5.3-1.65,7.5-1.1,2.2-2.73,3.93-4.89,5.19-2.16,1.26-4.76,1.89-7.8,1.89-4.12,0-7.35-.91-9.69-2.73-2.34-1.82-3.98-4.39-4.92-7.71-.94-3.32-1.41-7.46-1.41-12.42,0-14.64,5.16-21.96,15.48-21.96,4,0,7.15,1.08,9.45,3.24,2.3,2.16,3.65,4.82,4.05,7.98h-6.3c-.44-1.84-1.24-3.22-2.4-4.14ZM-1544.09,4258.34c-1.7,1.46-2.55,3.57-2.55,6.33s.79,4.95,2.37,6.57,3.79,2.43,6.63,2.43c2.52,0,4.51-.78,5.97-2.34,1.46-1.56,2.19-3.64,2.19-6.24s-.71-4.89-2.13-6.51-3.51-2.43-6.27-2.43c-2.44,0-4.51.73-6.21,2.19Z"/>
      <path class="cls-18" d="M-1512.11,4240.7c2.34-3.9,6.37-5.85,12.09-5.85s9.75,1.95,12.09,5.85,3.51,9.31,3.51,16.23-1.17,12.47-3.51,16.41c-2.34,3.94-6.37,5.91-12.09,5.91s-9.75-1.97-12.09-5.91c-2.34-3.94-3.51-9.41-3.51-16.41s1.17-12.33,3.51-16.23ZM-1491.77,4248.71c-.42-2.24-1.27-4.07-2.55-5.49-1.28-1.42-3.18-2.13-5.7-2.13s-4.42.71-5.7,2.13c-1.28,1.42-2.13,3.25-2.55,5.49-.42,2.24-.63,4.98-.63,8.22s.2,6.18.6,8.46c.4,2.28,1.25,4.12,2.55,5.52,1.3,1.4,3.21,2.1,5.73,2.1s4.43-.7,5.73-2.1c1.3-1.4,2.15-3.24,2.55-5.52.4-2.28.6-5.1.6-8.46s-.21-5.98-.63-8.22Z"/>
    </g>
    <text class="cls-25" transform="translate(-960.4 6635.61)"><tspan x="0" y="0">3d.print</tspan></text>
    <g>
      <path class="cls-15" d="M-956.37,6854.64c1.28-1.01,2.91-1.52,4.91-1.52,1.37,0,2.55.25,3.54.73,1,.49,1.75,1.15,2.26,1.99.51.84.76,1.79.76,2.84,0,1.21-.32,2.24-.96,3.1-.65.86-1.42,1.44-2.31,1.73v.12c1.15.35,2.05.99,2.69,1.92.65.93.97,2.11.97,3.56,0,1.15-.26,2.18-.79,3.08-.53.9-1.31,1.61-2.34,2.12s-2.27.77-3.72.77c-2.11,0-3.84-.54-5.2-1.62-1.36-1.08-2.08-2.64-2.18-4.67h3.22c.08,1.04.48,1.88,1.2,2.53.72.66,1.7.98,2.93.98s2.11-.33,2.75-.98c.65-.65.97-1.5.97-2.53,0-1.37-.44-2.34-1.3-2.91-.87-.58-2.2-.86-4-.86h-.76v-2.75h.79c1.58-.02,2.79-.28,3.61-.79.83-.51,1.25-1.31,1.25-2.4,0-.94-.3-1.68-.91-2.24-.61-.56-1.47-.84-2.58-.84s-1.94.28-2.55.84c-.61.56-.96,1.24-1.08,2.06h-3.25c.12-1.82.81-3.23,2.09-4.25Z"/>
      <path class="cls-15" d="M-934.92,6859.32c.98-.51,2.08-.76,3.31-.76,1.41,0,2.69.35,3.85,1.04,1.16.69,2.07,1.66,2.74,2.91.66,1.25.99,2.68.99,4.3s-.33,3.07-.99,4.35c-.66,1.28-1.58,2.27-2.74,2.99-1.16.71-2.44,1.07-3.85,1.07-1.23,0-2.32-.25-3.28-.75-.96-.5-1.74-1.12-2.34-1.86v10.01h-3.34v-23.8h3.34v2.37c.57-.74,1.34-1.37,2.31-1.88ZM-928.12,6863.93c-.46-.81-1.06-1.42-1.82-1.85-.75-.42-1.56-.63-2.41-.63s-1.64.21-2.39.65c-.75.43-1.36,1.05-1.82,1.87-.46.82-.69,1.79-.69,2.9s.23,2.08.69,2.91c.46.83,1.07,1.46,1.82,1.89s1.55.64,2.39.64,1.66-.22,2.41-.66c.75-.44,1.36-1.08,1.82-1.92.46-.84.69-1.82.69-2.93s-.23-2.07-.69-2.88Z"/>
      <path class="cls-15" d="M-915.44,6859.25c.81-.46,1.77-.69,2.88-.69v3.45h-.85c-1.31,0-2.3.33-2.97.99-.67.66-1.01,1.82-1.01,3.45v8.49h-3.34v-16.13h3.34v2.34c.49-.82,1.14-1.46,1.95-1.92Z"/>
      <path class="cls-15" d="M-909.31,6856.07c-.41-.41-.61-.92-.61-1.52s.2-1.11.61-1.52.92-.61,1.52-.61,1.08.2,1.49.61.61.92.61,1.52-.2,1.11-.61,1.52-.91.61-1.49.61-1.11-.2-1.52-.61ZM-906.15,6858.82v16.13h-3.34v-16.13h3.34Z"/>
      <path class="cls-15" d="M-890.2,6859.35c1.01.53,1.79,1.31,2.36,2.34.57,1.03.85,2.28.85,3.75v9.52h-3.31v-9.02c0-1.44-.36-2.55-1.08-3.32-.72-.77-1.71-1.16-2.96-1.16s-2.24.39-2.97,1.16c-.73.77-1.1,1.88-1.1,3.32v9.02h-3.34v-16.13h3.34v1.84c.55-.66,1.25-1.18,2.09-1.55.85-.37,1.75-.56,2.71-.56,1.27,0,2.4.26,3.41.79Z"/>
      <path class="cls-15" d="M-878.86,6861.54v8.93c0,.61.14,1.04.42,1.3.28.26.76.4,1.45.4h2.05v2.78h-2.63c-1.5,0-2.66-.35-3.45-1.05-.8-.7-1.2-1.85-1.2-3.43v-8.93h-1.9v-2.72h1.9v-4.01h3.37v4.01h3.92v2.72h-3.92Z"/>
    </g>
    <g>
      <path class="cls-18" d="M-857.07,4057.76v9.1h10.71v4.15h-10.71v9.5h12.05v4.15h-17.13v-31.06h17.13v4.15h-12.05Z"/>
      <path class="cls-18" d="M-821.17,4060.88c1.53.81,2.73,1.99,3.59,3.57.86,1.58,1.3,3.48,1.3,5.71v14.5h-5.04v-13.75c0-2.2-.55-3.89-1.65-5.06-1.1-1.18-2.6-1.76-4.51-1.76s-3.41.59-4.53,1.76c-1.11,1.17-1.67,2.86-1.67,5.06v13.75h-5.08v-24.59h5.08v2.81c.84-1.01,1.9-1.8,3.19-2.36,1.29-.56,2.67-.85,4.13-.85,1.93,0,3.66.4,5.2,1.2Z"/>
      <path class="cls-18" d="M-800.3,4080.11l6.96-20.04h5.4l-9.37,24.59h-6.07l-9.33-24.59h5.44l6.96,20.04Z"/>
      <path class="cls-18" d="M-776.96,4053.47l-9.86,4.86v-3.75l9.86-5.44v4.33ZM-779.02,4060.08v24.59h-5.08v-24.59h5.08Z"/>
      <path class="cls-18" d="M-767.95,4083.48c-1.87-1.05-3.35-2.54-4.42-4.46-1.07-1.92-1.61-4.14-1.61-6.67s.55-4.72,1.65-6.65c1.1-1.94,2.6-3.42,4.51-4.46,1.9-1.04,4.03-1.56,6.38-1.56s4.48.52,6.38,1.56,3.41,2.53,4.51,4.46c1.1,1.93,1.65,4.15,1.65,6.65s-.57,4.71-1.7,6.65c-1.13,1.94-2.67,3.43-4.62,4.49-1.95,1.06-4.1,1.59-6.45,1.59s-4.42-.53-6.29-1.59ZM-757.98,4079.71c1.14-.62,2.08-1.56,2.79-2.81.72-1.25,1.07-2.77,1.07-4.55s-.34-3.3-1.03-4.53c-.68-1.23-1.59-2.16-2.72-2.79-1.13-.62-2.35-.94-3.66-.94s-2.52.31-3.64.94-2,1.55-2.65,2.79c-.66,1.23-.98,2.75-.98,4.53,0,2.65.68,4.69,2.03,6.13,1.35,1.45,3.06,2.16,5.11,2.16,1.31,0,2.54-.31,3.68-.94Z"/>
      <path class="cls-18" d="M-740.12,4084.02c-1.53-.7-2.75-1.65-3.64-2.86-.89-1.2-1.37-2.55-1.43-4.04h5.27c.09,1.04.59,1.91,1.5,2.61.9.7,2.04,1.05,3.41,1.05s2.53-.28,3.32-.82c.79-.55,1.18-1.26,1.18-2.12,0-.92-.44-1.61-1.32-2.05s-2.27-.94-4.17-1.47c-1.84-.5-3.34-1-4.51-1.47-1.16-.48-2.16-1.21-3.01-2.19-.85-.98-1.27-2.28-1.27-3.88,0-1.31.38-2.51,1.16-3.6.77-1.09,1.88-1.94,3.32-2.56,1.45-.62,3.11-.94,4.98-.94,2.8,0,5.05.7,6.76,2.12,1.71,1.42,2.63,3.34,2.75,5.78h-5.09c-.09-1.1-.53-1.98-1.34-2.63-.8-.65-1.89-.98-3.26-.98s-2.36.25-3.08.76c-.72.51-1.07,1.18-1.07,2.01,0,.66.24,1.21.71,1.65s1.06.8,1.74,1.05c.68.25,1.69.57,3.03.96,1.79.48,3.25.96,4.39,1.45,1.15.49,2.14,1.21,2.97,2.16.83.95,1.26,2.22,1.29,3.8,0,1.4-.39,2.65-1.16,3.75-.77,1.1-1.87,1.96-3.28,2.59s-3.07.94-4.98.94-3.67-.35-5.2-1.05Z"/>
      <path class="cls-18" d="M-708.57,4065.7c1.02-1.91,2.42-3.38,4.19-4.44,1.77-1.06,3.73-1.58,5.87-1.58,1.93,0,3.62.38,5.06,1.14s2.6,1.7,3.46,2.83v-3.57h5.13v24.59h-5.13v-3.66c-.86,1.16-2.04,2.13-3.53,2.9-1.49.77-3.18,1.16-5.09,1.16-2.11,0-4.05-.54-5.8-1.63-1.76-1.09-3.15-2.6-4.17-4.55-1.03-1.95-1.54-4.16-1.54-6.63s.51-4.66,1.54-6.56ZM-691.03,4067.93c-.7-1.25-1.62-2.2-2.75-2.85-1.13-.66-2.35-.98-3.66-.98s-2.53.32-3.66.96c-1.13.64-2.04,1.58-2.75,2.81-.7,1.23-1.05,2.7-1.05,4.39s.35,3.18,1.05,4.46c.7,1.28,1.62,2.25,2.77,2.92,1.14.67,2.36,1,3.64,1s2.53-.33,3.66-.98,2.04-1.62,2.75-2.88c.7-1.26,1.05-2.75,1.05-4.44s-.35-3.17-1.05-4.42Z"/>
      <path class="cls-18" d="M-660.62,4064.23v13.61c0,.92.21,1.58.65,1.99.43.4,1.17.6,2.21.6h3.12v4.24h-4.01c-2.29,0-4.05-.53-5.27-1.61-1.22-1.07-1.83-2.81-1.83-5.22v-13.61h-2.9v-4.15h2.9v-6.11h5.13v6.11h5.98v4.15h-5.98Z"/>
      <path class="cls-18" d="M-645.59,4083.48c-1.87-1.05-3.35-2.54-4.42-4.46-1.07-1.92-1.61-4.14-1.61-6.67s.55-4.72,1.65-6.65c1.1-1.94,2.6-3.42,4.51-4.46,1.9-1.04,4.03-1.56,6.38-1.56s4.48.52,6.38,1.56c1.9,1.04,3.41,2.53,4.51,4.46,1.1,1.93,1.65,4.15,1.65,6.65s-.57,4.71-1.7,6.65c-1.13,1.94-2.67,3.43-4.62,4.49-1.95,1.06-4.1,1.59-6.45,1.59s-4.42-.53-6.29-1.59ZM-635.61,4079.71c1.14-.62,2.08-1.56,2.79-2.81.72-1.25,1.07-2.77,1.07-4.55s-.34-3.3-1.03-4.53c-.68-1.23-1.59-2.16-2.72-2.79-1.13-.62-2.35-.94-3.66-.94s-2.52.31-3.64.94-2,1.55-2.65,2.79c-.66,1.23-.98,2.75-.98,4.53,0,2.65.68,4.69,2.03,6.13,1.35,1.45,3.06,2.16,5.11,2.16,1.31,0,2.54-.31,3.68-.94Z"/>
      <path class="cls-18" d="M-621.64,4065.7c1.02-1.91,2.42-3.38,4.19-4.44,1.77-1.06,3.74-1.58,5.91-1.58,1.61,0,3.19.35,4.75,1.05,1.57.7,2.81,1.63,3.73,2.79v-11.87h5.13v33.02h-5.13v-3.7c-.84,1.19-1.99,2.17-3.46,2.95-1.47.77-3.16,1.16-5.06,1.16-2.14,0-4.1-.54-5.87-1.63-1.77-1.09-3.17-2.6-4.19-4.55-1.03-1.95-1.54-4.16-1.54-6.63s.51-4.66,1.54-6.56ZM-604.11,4067.93c-.7-1.25-1.62-2.2-2.75-2.85-1.13-.66-2.35-.98-3.66-.98s-2.53.32-3.66.96c-1.13.64-2.04,1.58-2.75,2.81-.7,1.23-1.05,2.7-1.05,4.39s.35,3.18,1.05,4.46c.7,1.28,1.62,2.25,2.77,2.92,1.14.67,2.36,1,3.64,1s2.53-.33,3.66-.98,2.04-1.62,2.75-2.88c.7-1.26,1.05-2.75,1.05-4.44s-.35-3.17-1.05-4.42Z"/>
      <path class="cls-18" d="M-586.86,4083.48c-1.87-1.05-3.35-2.54-4.42-4.46-1.07-1.92-1.61-4.14-1.61-6.67s.55-4.72,1.65-6.65c1.1-1.94,2.6-3.42,4.51-4.46,1.9-1.04,4.03-1.56,6.38-1.56s4.48.52,6.38,1.56,3.41,2.53,4.51,4.46c1.1,1.93,1.65,4.15,1.65,6.65s-.57,4.71-1.7,6.65c-1.13,1.94-2.67,3.43-4.62,4.49-1.95,1.06-4.1,1.59-6.45,1.59s-4.42-.53-6.29-1.59ZM-576.89,4079.71c1.14-.62,2.08-1.56,2.79-2.81.72-1.25,1.07-2.77,1.07-4.55s-.34-3.3-1.03-4.53c-.68-1.23-1.59-2.16-2.72-2.79-1.13-.62-2.35-.94-3.66-.94s-2.52.31-3.64.94-2,1.55-2.65,2.79c-.66,1.23-.98,2.75-.98,4.53,0,2.65.68,4.69,2.03,6.13,1.35,1.45,3.06,2.16,5.11,2.16,1.31,0,2.54-.31,3.68-.94Z"/>
      <path class="cls-18" d="M-763.62,4127.82h-18.79c.15,1.96.88,3.54,2.19,4.73,1.31,1.19,2.92,1.79,4.82,1.79,2.73,0,4.67-1.14,5.8-3.44h5.49c-.74,2.26-2.09,4.11-4.04,5.56-1.95,1.44-4.37,2.16-7.25,2.16-2.35,0-4.46-.53-6.32-1.59-1.86-1.05-3.32-2.54-4.37-4.46-1.06-1.92-1.58-4.14-1.58-6.67s.51-4.75,1.54-6.67c1.02-1.92,2.47-3.4,4.33-4.44,1.86-1.04,3.99-1.56,6.4-1.56s4.39.5,6.2,1.52c1.81,1.01,3.23,2.43,4.24,4.26,1.01,1.83,1.52,3.93,1.52,6.32,0,.92-.06,1.75-.18,2.5ZM-768.75,4123.71c-.03-1.87-.7-3.37-2.01-4.51-1.31-1.13-2.93-1.7-4.87-1.7-1.75,0-3.26.56-4.51,1.67-1.25,1.11-1.99,2.63-2.23,4.53h13.61Z"/>
      <path class="cls-18" d="M-753.36,4105.19v33.02h-5.08v-33.02h5.08Z"/>
      <path class="cls-18" d="M-726.45,4114.39c1.49-.77,3.17-1.16,5.04-1.16,2.14,0,4.1.53,5.87,1.58,1.77,1.06,3.16,2.53,4.17,4.44,1.01,1.9,1.51,4.09,1.51,6.56s-.5,4.68-1.51,6.63c-1.01,1.95-2.4,3.46-4.17,4.55-1.77,1.09-3.73,1.63-5.87,1.63-1.87,0-3.54-.38-5-1.14-1.46-.76-2.65-1.7-3.57-2.83v15.26h-5.08v-36.28h5.08v3.62c.86-1.13,2.04-2.08,3.53-2.86ZM-716.07,4121.42c-.7-1.23-1.62-2.17-2.77-2.81-1.14-.64-2.37-.96-3.68-.96s-2.49.33-3.64.98c-1.14.65-2.07,1.61-2.77,2.85-.7,1.25-1.05,2.72-1.05,4.42s.35,3.17,1.05,4.44c.7,1.26,1.62,2.23,2.77,2.88s2.36.98,3.64.98,2.53-.33,3.68-1c1.15-.67,2.07-1.65,2.77-2.92.7-1.28,1.05-2.77,1.05-4.46s-.35-3.16-1.05-4.39Z"/>
      <path class="cls-18" d="M-704.96,4119.25c1.02-1.91,2.42-3.38,4.19-4.44,1.77-1.06,3.73-1.58,5.87-1.58,1.93,0,3.62.38,5.06,1.14s2.6,1.7,3.46,2.83v-3.57h5.13v24.59h-5.13v-3.66c-.86,1.16-2.04,2.13-3.53,2.9-1.49.77-3.18,1.16-5.09,1.16-2.11,0-4.05-.54-5.8-1.63-1.76-1.09-3.15-2.6-4.17-4.55-1.03-1.95-1.54-4.16-1.54-6.63s.51-4.66,1.54-6.56ZM-687.43,4121.48c-.7-1.25-1.62-2.2-2.75-2.85-1.13-.66-2.35-.98-3.66-.98s-2.53.32-3.66.96c-1.13.64-2.04,1.58-2.75,2.81-.7,1.23-1.05,2.7-1.05,4.39s.35,3.18,1.05,4.46c.7,1.28,1.62,2.25,2.77,2.92,1.14.67,2.36,1,3.64,1s2.53-.33,3.66-.98,2.04-1.62,2.75-2.88c.7-1.26,1.05-2.75,1.05-4.44s-.35-3.17-1.05-4.42Z"/>
      <path class="cls-18" d="M-667.41,4107.03l-9.86,4.86v-3.75l9.86-5.44v4.33ZM-669.47,4113.63v24.59h-5.08v-24.59h5.08Z"/>
      <path class="cls-18" d="M-659.04,4137.57c-1.53-.7-2.75-1.65-3.64-2.86-.89-1.2-1.37-2.55-1.43-4.04h5.27c.09,1.04.59,1.91,1.5,2.61.9.7,2.04,1.05,3.41,1.05s2.53-.28,3.32-.82c.79-.55,1.18-1.26,1.18-2.12,0-.92-.44-1.61-1.32-2.05s-2.27-.94-4.17-1.47c-1.84-.5-3.34-1-4.51-1.47-1.16-.48-2.16-1.21-3.01-2.19-.85-.98-1.27-2.28-1.27-3.88,0-1.31.38-2.51,1.16-3.6.77-1.09,1.88-1.94,3.32-2.56,1.45-.62,3.11-.94,4.98-.94,2.8,0,5.05.7,6.76,2.12,1.71,1.42,2.63,3.34,2.75,5.78h-5.09c-.09-1.1-.53-1.98-1.34-2.63-.8-.65-1.89-.98-3.26-.98s-2.36.25-3.08.76c-.72.51-1.07,1.18-1.07,2.01,0,.66.24,1.21.71,1.65s1.06.8,1.74,1.05c.68.25,1.69.57,3.03.96,1.79.48,3.25.96,4.39,1.45,1.15.49,2.14,1.21,2.97,2.16.83.95,1.26,2.22,1.29,3.8,0,1.4-.39,2.65-1.16,3.75s-1.87,1.96-3.28,2.59-3.07.94-4.98.94-3.67-.35-5.2-1.05Z"/>
    </g>
    <g>
      <path class="cls-18" d="M-1882.86,4300.42v8.27h9.73v3.77h-9.73v8.63h10.95v3.77h-15.57v-28.22h15.57v3.77h-10.95Z"/>
      <path class="cls-18" d="M-1850.24,4303.26c1.39.73,2.48,1.81,3.26,3.25.79,1.43,1.18,3.16,1.18,5.19v13.18h-4.58v-12.49c0-2-.5-3.53-1.5-4.6-1-1.07-2.37-1.6-4.1-1.6s-3.1.53-4.11,1.6c-1.01,1.07-1.52,2.6-1.52,4.6v12.49h-4.62v-22.34h4.62v2.55c.76-.92,1.73-1.63,2.9-2.15,1.17-.51,2.43-.77,3.75-.77,1.76,0,3.33.36,4.72,1.09Z"/>
      <path class="cls-18" d="M-1831.29,4320.73l6.32-18.21h4.91l-8.52,22.34h-5.51l-8.47-22.34h4.95l6.32,18.21Z"/>
      <path class="cls-18" d="M-1810.08,4296.53l-8.96,4.42v-3.4l8.96-4.95v3.93ZM-1811.95,4302.53v22.34h-4.62v-22.34h4.62Z"/>
      <path class="cls-18" d="M-1801.89,4323.79c-1.7-.96-3.04-2.31-4.02-4.05-.97-1.75-1.46-3.76-1.46-6.06s.5-4.29,1.5-6.04c1-1.76,2.36-3.11,4.09-4.05,1.73-.95,3.66-1.42,5.8-1.42s4.07.47,5.8,1.42,3.09,2.3,4.09,4.05c1,1.76,1.5,3.77,1.5,6.04s-.51,4.28-1.54,6.04c-1.03,1.76-2.43,3.12-4.2,4.07-1.77.96-3.73,1.44-5.86,1.44s-4.01-.48-5.71-1.44ZM-1792.83,4320.37c1.04-.57,1.89-1.42,2.53-2.55.65-1.13.97-2.51.97-4.13s-.31-3-.93-4.12c-.62-1.12-1.45-1.97-2.47-2.53-1.03-.57-2.13-.85-3.33-.85s-2.29.28-3.3.85c-1.01.57-1.82,1.41-2.41,2.53-.6,1.12-.89,2.49-.89,4.12,0,2.41.62,4.26,1.84,5.57,1.23,1.31,2.78,1.97,4.64,1.97,1.19,0,2.31-.28,3.35-.85Z"/>
      <path class="cls-18" d="M-1776.61,4324.28c-1.39-.64-2.49-1.5-3.31-2.6-.81-1.09-1.24-2.32-1.3-3.67h4.78c.08.95.53,1.74,1.36,2.37.82.64,1.86.95,3.1.95s2.3-.25,3.02-.75c.72-.5,1.08-1.14,1.08-1.93,0-.84-.4-1.46-1.2-1.86s-2.06-.85-3.79-1.34c-1.68-.46-3.04-.9-4.09-1.34-1.05-.43-1.97-1.1-2.74-1.99-.77-.89-1.15-2.07-1.15-3.53,0-1.19.35-2.28,1.05-3.27s1.71-1.76,3.02-2.33c1.31-.57,2.82-.85,4.52-.85,2.54,0,4.59.64,6.14,1.92,1.55,1.29,2.39,3.04,2.49,5.25h-4.62c-.08-1-.49-1.8-1.22-2.39-.73-.59-1.72-.89-2.96-.89s-2.15.23-2.79.69c-.65.46-.97,1.07-.97,1.82,0,.6.21,1.1.65,1.5s.96.72,1.58.95c.62.23,1.54.52,2.75.87,1.62.43,2.95.87,3.99,1.32,1.04.45,1.94,1.1,2.7,1.97.76.86,1.15,2.02,1.17,3.45,0,1.27-.35,2.41-1.06,3.4-.7,1-1.7,1.78-2.98,2.35s-2.79.85-4.52.85-3.33-.32-4.72-.95Z"/>
      <path class="cls-18" d="M-1747.95,4307.64c.93-1.73,2.2-3.08,3.81-4.04,1.61-.96,3.39-1.44,5.33-1.44,1.76,0,3.29.34,4.6,1.03s2.36,1.55,3.14,2.57v-3.24h4.66v22.34h-4.66v-3.33c-.79,1.06-1.85,1.93-3.2,2.64-1.35.7-2.89,1.06-4.62,1.06-1.92,0-3.68-.49-5.27-1.48-1.6-.99-2.86-2.37-3.79-4.13-.93-1.77-1.4-3.78-1.4-6.02s.47-4.23,1.4-5.96ZM-1732.01,4309.66c-.64-1.13-1.47-2-2.49-2.59-1.03-.6-2.13-.89-3.33-.89s-2.3.29-3.32.87c-1.03.58-1.86,1.44-2.49,2.56-.63,1.12-.95,2.45-.95,3.99s.32,2.89.95,4.05c.64,1.16,1.47,2.05,2.51,2.66,1.04.61,2.14.91,3.3.91s2.3-.3,3.33-.89,1.86-1.47,2.49-2.62c.63-1.15.95-2.49.95-4.03s-.32-2.88-.95-4.02Z"/>
      <path class="cls-18" d="M-1704.38,4306.3v12.37c0,.84.19,1.44.59,1.8.39.36,1.06.55,2.01.55h2.84v3.85h-3.65c-2.08,0-3.68-.49-4.78-1.46-1.11-.97-1.66-2.56-1.66-4.74v-12.37h-2.64v-3.77h2.64v-5.55h4.66v5.55h5.43v3.77h-5.43Z"/>
      <path class="cls-18" d="M-1690.72,4323.79c-1.7-.96-3.04-2.31-4.02-4.05-.97-1.75-1.46-3.76-1.46-6.06s.5-4.29,1.5-6.04c1-1.76,2.36-3.11,4.09-4.05,1.73-.95,3.66-1.42,5.8-1.42s4.07.47,5.8,1.42,3.09,2.3,4.09,4.05c1,1.76,1.5,3.77,1.5,6.04s-.51,4.28-1.54,6.04c-1.03,1.76-2.43,3.12-4.2,4.07-1.77.96-3.73,1.44-5.86,1.44s-4.01-.48-5.71-1.44ZM-1681.66,4320.37c1.04-.57,1.89-1.42,2.53-2.55.65-1.13.97-2.51.97-4.13s-.31-3-.93-4.12c-.62-1.12-1.45-1.97-2.47-2.53-1.03-.57-2.13-.85-3.33-.85s-2.29.28-3.3.85-1.82,1.41-2.41,2.53c-.6,1.12-.89,2.49-.89,4.12,0,2.41.62,4.26,1.84,5.57,1.23,1.31,2.78,1.97,4.64,1.97,1.19,0,2.31-.28,3.35-.85Z"/>
      <path class="cls-18" d="M-1668.97,4307.64c.93-1.73,2.2-3.08,3.81-4.04,1.61-.96,3.4-1.44,5.37-1.44,1.46,0,2.9.32,4.32.95,1.42.64,2.55,1.48,3.39,2.53v-10.78h4.66v30h-4.66v-3.37c-.76,1.08-1.8,1.97-3.14,2.68-1.34.7-2.87,1.06-4.6,1.06-1.95,0-3.73-.49-5.33-1.48-1.61-.99-2.88-2.37-3.81-4.13-.93-1.77-1.4-3.78-1.4-6.02s.47-4.23,1.4-5.96ZM-1653.04,4309.66c-.64-1.13-1.47-2-2.49-2.59-1.03-.6-2.13-.89-3.33-.89s-2.3.29-3.32.87c-1.03.58-1.86,1.44-2.49,2.56-.63,1.12-.95,2.45-.95,3.99s.32,2.89.95,4.05c.64,1.16,1.47,2.05,2.51,2.66,1.04.61,2.14.91,3.3.91s2.3-.3,3.33-.89,1.86-1.47,2.49-2.62c.63-1.15.95-2.49.95-4.03s-.32-2.88-.95-4.02Z"/>
      <path class="cls-18" d="M-1637.37,4323.79c-1.7-.96-3.04-2.31-4.02-4.05-.97-1.75-1.46-3.76-1.46-6.06s.5-4.29,1.5-6.04c1-1.76,2.36-3.11,4.09-4.05,1.73-.95,3.66-1.42,5.8-1.42s4.07.47,5.8,1.42,3.09,2.3,4.09,4.05c1,1.76,1.5,3.77,1.5,6.04s-.51,4.28-1.54,6.04c-1.03,1.76-2.43,3.12-4.2,4.07-1.77.96-3.73,1.44-5.86,1.44s-4.01-.48-5.71-1.44ZM-1628.31,4320.37c1.04-.57,1.89-1.42,2.53-2.55.65-1.13.97-2.51.97-4.13s-.31-3-.93-4.12c-.62-1.12-1.45-1.97-2.47-2.53-1.03-.57-2.13-.85-3.33-.85s-2.29.28-3.3.85-1.82,1.41-2.41,2.53c-.6,1.12-.89,2.49-.89,4.12,0,2.41.62,4.26,1.84,5.57,1.23,1.31,2.78,1.97,4.64,1.97,1.19,0,2.31-.28,3.35-.85Z"/>
      <path class="cls-18" d="M-1584.62,4315.42h-17.07c.14,1.78.8,3.22,1.99,4.3,1.19,1.08,2.65,1.62,4.38,1.62,2.48,0,4.24-1.04,5.27-3.12h4.99c-.68,2.05-1.9,3.73-3.67,5.05-1.77,1.31-3.97,1.97-6.59,1.97-2.13,0-4.05-.48-5.74-1.44-1.69-.96-3.01-2.31-3.97-4.05-.96-1.75-1.44-3.76-1.44-6.06s.47-4.32,1.4-6.06c.93-1.74,2.24-3.08,3.93-4.03,1.69-.95,3.63-1.42,5.82-1.42s3.99.46,5.64,1.38c1.65.92,2.93,2.21,3.85,3.87.92,1.66,1.38,3.57,1.38,5.74,0,.84-.05,1.59-.16,2.27ZM-1589.28,4311.69c-.03-1.7-.64-3.07-1.82-4.09-1.19-1.03-2.66-1.54-4.42-1.54-1.59,0-2.96.51-4.09,1.52-1.13,1.01-1.81,2.39-2.03,4.11h12.37Z"/>
      <path class="cls-18" d="M-1575.3,4294.87v30h-4.62v-30h4.62Z"/>
      <path class="cls-18" d="M-1550.85,4303.22c1.35-.7,2.88-1.05,4.58-1.05,1.95,0,3.72.48,5.33,1.44,1.61.96,2.87,2.3,3.79,4.04.92,1.73,1.38,3.72,1.38,5.96s-.46,4.25-1.38,6.02c-.92,1.77-2.18,3.15-3.79,4.13-1.61.99-3.39,1.48-5.33,1.48-1.7,0-3.22-.35-4.54-1.04-1.32-.69-2.41-1.55-3.24-2.57v13.86h-4.62v-32.96h4.62v3.29c.79-1.03,1.85-1.89,3.2-2.6ZM-1541.42,4309.61c-.63-1.12-1.47-1.97-2.51-2.56-1.04-.58-2.15-.87-3.34-.87s-2.27.3-3.31.89c-1.04.59-1.88,1.46-2.51,2.59-.63,1.13-.95,2.47-.95,4.02s.32,2.88.95,4.03c.64,1.15,1.47,2.02,2.51,2.62s2.14.89,3.31.89,2.3-.3,3.34-.91c1.04-.61,1.88-1.49,2.51-2.66.64-1.16.95-2.51.95-4.05s-.32-2.87-.95-3.99Z"/>
      <path class="cls-18" d="M-1531.33,4307.64c.93-1.73,2.2-3.08,3.81-4.04,1.61-.96,3.39-1.44,5.33-1.44,1.76,0,3.29.34,4.6,1.03s2.36,1.55,3.14,2.57v-3.24h4.66v22.34h-4.66v-3.33c-.79,1.06-1.85,1.93-3.2,2.64-1.35.7-2.89,1.06-4.62,1.06-1.92,0-3.68-.49-5.27-1.48-1.6-.99-2.86-2.37-3.79-4.13-.93-1.77-1.4-3.78-1.4-6.02s.47-4.23,1.4-5.96ZM-1515.39,4309.66c-.64-1.13-1.47-2-2.49-2.59-1.03-.6-2.13-.89-3.33-.89s-2.3.29-3.32.87c-1.03.58-1.86,1.44-2.49,2.56-.63,1.12-.95,2.45-.95,3.99s.32,2.89.95,4.05c.64,1.16,1.47,2.05,2.51,2.66,1.04.61,2.14.91,3.3.91s2.3-.3,3.33-.89,1.86-1.47,2.49-2.62c.63-1.15.95-2.49.95-4.03s-.32-2.88-.95-4.02Z"/>
      <path class="cls-18" d="M-1497.21,4296.53l-8.96,4.42v-3.4l8.96-4.95v3.93ZM-1499.08,4302.53v22.34h-4.62v-22.34h4.62Z"/>
      <path class="cls-18" d="M-1489.61,4324.28c-1.39-.64-2.49-1.5-3.31-2.6-.81-1.09-1.24-2.32-1.3-3.67h4.78c.08.95.53,1.74,1.36,2.37.82.64,1.86.95,3.1.95s2.3-.25,3.02-.75c.72-.5,1.08-1.14,1.08-1.93,0-.84-.4-1.46-1.2-1.86s-2.06-.85-3.79-1.34c-1.68-.46-3.04-.9-4.09-1.34-1.05-.43-1.97-1.1-2.74-1.99-.77-.89-1.15-2.07-1.15-3.53,0-1.19.35-2.28,1.05-3.27s1.71-1.76,3.02-2.33c1.31-.57,2.82-.85,4.52-.85,2.54,0,4.59.64,6.14,1.92,1.55,1.29,2.39,3.04,2.49,5.25h-4.62c-.08-1-.49-1.8-1.22-2.39-.73-.59-1.72-.89-2.96-.89s-2.15.23-2.79.69c-.65.46-.97,1.07-.97,1.82,0,.6.21,1.1.65,1.5s.96.72,1.58.95c.62.23,1.54.52,2.75.87,1.62.43,2.95.87,3.99,1.32,1.04.45,1.94,1.1,2.7,1.97.76.86,1.15,2.02,1.17,3.45,0,1.27-.35,2.41-1.06,3.4s-1.7,1.78-2.98,2.35-2.79.85-4.52.85-3.33-.32-4.72-.95Z"/>
    </g>
    <g>
      <path class="cls-6" d="M-1851.75,4628.41c2.14-3.57,5.84-5.36,11.09-5.36s8.94,1.79,11.09,5.36c2.14,3.58,3.22,8.54,3.22,14.88s-1.07,11.44-3.22,15.05-5.84,5.42-11.09,5.42-8.94-1.8-11.09-5.42c-2.14-3.61-3.22-8.63-3.22-15.05s1.07-11.31,3.22-14.88ZM-1833.1,4635.75c-.39-2.06-1.16-3.73-2.34-5.04-1.18-1.3-2.92-1.95-5.23-1.95s-4.05.65-5.23,1.95c-1.17,1.3-1.95,2.98-2.34,5.04s-.58,4.57-.58,7.54.18,5.67.55,7.76,1.15,3.78,2.34,5.06c1.19,1.29,2.94,1.93,5.25,1.93s4.06-.64,5.26-1.93c1.19-1.28,1.97-2.97,2.34-5.06.37-2.09.55-4.68.55-7.76s-.19-5.48-.58-7.54Z"/>
      <path class="cls-6" d="M-1809.52,4657.16c1.21.95,2.84,1.43,4.89,1.43,2.61,0,4.51-1.03,5.72-3.08,1.21-2.05,1.82-5.56,1.82-10.51-.88,1.25-2.12,2.21-3.72,2.89-1.59.68-3.33,1.02-5.2,1.02-2.39,0-4.55-.49-6.49-1.46-1.94-.97-3.47-2.42-4.59-4.35-1.12-1.93-1.68-4.26-1.68-7.01,0-4.03,1.18-7.25,3.55-9.66,2.36-2.4,5.62-3.6,9.77-3.6,4.99,0,8.53,1.66,10.65,4.98,2.11,3.32,3.16,8.41,3.16,15.27,0,4.73-.39,8.6-1.18,11.61-.79,3.01-2.15,5.28-4.1,6.82-1.95,1.54-4.64,2.31-8.09,2.31-3.92,0-6.95-1.03-9.08-3.08-2.13-2.06-3.32-4.64-3.58-7.76h5.78c.37,1.84,1.16,3.23,2.37,4.18ZM-1799.7,4641.56c1.27-1.37,1.9-3.2,1.9-5.47,0-2.53-.67-4.5-2.01-5.91-1.34-1.41-3.16-2.12-5.47-2.12s-4.14.72-5.48,2.17c-1.34,1.45-2.01,3.35-2.01,5.7s.65,4.08,1.95,5.53c1.3,1.45,3.27,2.17,5.91,2.17,2.2,0,3.93-.69,5.2-2.06Z"/>
      <path class="cls-6" d="M-1783.71,4633.88c0-1.98.49-3.8,1.49-5.44.99-1.65,2.47-2.96,4.46-3.94,1.98-.97,4.4-1.46,7.26-1.46s5.23.49,7.24,1.46c2,.97,3.49,2.28,4.48,3.94.99,1.65,1.49,3.47,1.49,5.44s-.52,3.86-1.57,5.42c-1.05,1.56-2.43,2.76-4.16,3.6,2.09.77,3.74,2.03,4.95,3.77s1.81,3.79,1.81,6.13-.6,4.5-1.81,6.33c-1.21,1.84-2.9,3.25-5.06,4.24-2.16.99-4.62,1.49-7.37,1.49s-5.2-.49-7.35-1.49c-2.14-.99-3.82-2.4-5.03-4.24-1.21-1.83-1.81-3.94-1.81-6.33s.6-4.44,1.81-6.16c1.21-1.72,2.84-2.97,4.9-3.74-3.81-1.91-5.72-4.91-5.72-9.02ZM-1776.42,4647.44c-1.52,1.19-2.28,2.91-2.28,5.14,0,2.09.73,3.79,2.2,5.09,1.47,1.3,3.47,1.95,6,1.95s4.46-.66,5.91-1.98c1.45-1.32,2.17-3,2.17-5.06,0-2.2-.74-3.9-2.23-5.12-1.49-1.21-3.44-1.81-5.86-1.81s-4.39.6-5.91,1.79ZM-1765.23,4629.92c-1.29-1.1-3.05-1.65-5.28-1.65s-3.94.55-5.23,1.65c-1.29,1.1-1.93,2.7-1.93,4.79,0,1.84.67,3.33,2.01,4.49s3.05,1.73,5.14,1.73,3.81-.59,5.17-1.76c1.36-1.17,2.04-2.68,2.04-4.51,0-2.06-.64-3.63-1.93-4.73Z"/>
      <path class="cls-6" d="M-1731.89,4655.34c3.52-3.04,6.3-5.55,8.34-7.51s3.73-4.01,5.09-6.13,2.03-4.25,2.03-6.38-.52-3.93-1.57-5.18c-1.04-1.24-2.69-1.87-4.93-1.87s-3.84.69-5.03,2.06c-1.19,1.38-1.83,3.22-1.9,5.53h-6.05c.11-4.18,1.37-7.38,3.77-9.6,2.4-2.22,5.46-3.33,9.16-3.33,4,0,7.12,1.1,9.38,3.3s3.38,5.14,3.38,8.8c0,2.64-.67,5.18-2.01,7.62s-2.93,4.62-4.79,6.55c-1.85,1.93-4.21,4.16-7.07,6.68l-2.48,2.2h17.44v5.23h-26.74v-4.57l3.96-3.41Z"/>
      <path class="cls-6" d="M-1704.38,4655.5v-4.73l18.49-26.52h7.59v25.8h5.12v5.44h-5.12v8.36h-6.16v-8.36h-19.92ZM-1684.18,4630.64l-12.98,19.42h12.98v-19.42Z"/>
      <path class="cls-6" d="M-1664.55,4655.34c3.52-3.04,6.3-5.55,8.34-7.51s3.73-4.01,5.09-6.13,2.03-4.25,2.03-6.38-.52-3.93-1.57-5.18c-1.04-1.24-2.69-1.87-4.93-1.87s-3.84.69-5.03,2.06c-1.19,1.38-1.83,3.22-1.9,5.53h-6.05c.11-4.18,1.37-7.38,3.77-9.6,2.4-2.22,5.46-3.33,9.16-3.33,4,0,7.12,1.1,9.38,3.3,2.26,2.2,3.38,5.14,3.38,8.8,0,2.64-.67,5.18-2.01,7.62s-2.93,4.62-4.79,6.55c-1.85,1.93-4.21,4.16-7.07,6.68l-2.48,2.2h17.44v5.23h-26.74v-4.57l3.96-3.41Z"/>
      <path class="cls-6" d="M-1596.1,4629.15h-18.43v10.95c.77-1.03,1.92-1.89,3.44-2.59,1.52-.69,3.14-1.04,4.87-1.04,3.08,0,5.58.66,7.51,1.98,1.93,1.32,3.3,2.99,4.13,5.01.82,2.02,1.24,4.15,1.24,6.38,0,2.71-.52,5.12-1.57,7.23-1.05,2.11-2.61,3.77-4.68,4.98-2.07,1.21-4.61,1.82-7.62,1.82-4,0-7.2-.99-9.63-2.97-2.42-1.98-3.87-4.6-4.35-7.87h6.11c.4,1.72,1.3,3.09,2.7,4.1,1.4,1.01,3.14,1.51,5.23,1.51,2.6,0,4.56-.79,5.86-2.37,1.3-1.58,1.96-3.67,1.96-6.27s-.66-4.67-1.98-6.08c-1.32-1.41-3.26-2.12-5.83-2.12-1.8,0-3.31.45-4.54,1.35-1.23.9-2.12,2.12-2.67,3.66h-5.94v-23.17h24.21v5.5Z"/>
      <path class="cls-6" d="M-1587.57,4655.5v-4.73l18.49-26.52h7.59v25.8h5.12v5.44h-5.12v8.36h-6.16v-8.36h-19.92ZM-1567.38,4630.64l-12.98,19.42h12.98v-19.42Z"/>
      <path class="cls-6" d="M-1547.74,4655.34c3.52-3.04,6.3-5.55,8.34-7.51s3.73-4.01,5.09-6.13,2.03-4.25,2.03-6.38-.52-3.93-1.57-5.18c-1.04-1.24-2.69-1.87-4.93-1.87s-3.84.69-5.03,2.06c-1.19,1.38-1.83,3.22-1.9,5.53h-6.05c.11-4.18,1.37-7.38,3.77-9.6,2.4-2.22,5.46-3.33,9.16-3.33,4,0,7.12,1.1,9.38,3.3s3.38,5.14,3.38,8.8c0,2.64-.67,5.18-2.01,7.62-1.34,2.44-2.93,4.62-4.79,6.55-1.85,1.93-4.21,4.16-7.07,6.68l-2.48,2.2h17.44v5.23h-26.74v-4.57l3.96-3.41Z"/>
      <path class="cls-6" d="M-1520.29,4629.48v-5.72h11.44v40.11h-6.33v-34.39h-5.12Z"/>
    </g>
    <path class="cls-12" d="M-188.65,7093.07c-8.85,0-15.08-6.45-15.08-15.51v-60.42h10.81v59.87c0,3.93,2.4,6.77,5.9,6.77,2.18,0,4.92-.44,6.55-1.09l1.42,8.41c-2.3,1.09-6.23,1.97-9.61,1.97Z"/>
    <g>
      <path class="cls-15" d="M-184.12,6950.65c3.91-3.09,8.89-4.64,14.97-4.64,4.16,0,7.76.75,10.8,2.23,3.04,1.49,5.32,3.52,6.87,6.07,1.54,2.56,2.32,5.45,2.32,8.66,0,3.69-.99,6.84-2.95,9.46-1.96,2.62-4.32,4.38-7.05,5.27v.36c3.5,1.07,6.25,3.02,8.21,5.84,1.96,2.83,2.95,6.44,2.95,10.85,0,3.52-.81,6.64-2.41,9.38-1.61,2.74-4,4.9-7.15,6.47-3.15,1.58-6.93,2.36-11.33,2.36-6.42,0-11.71-1.65-15.85-4.95-4.13-3.3-6.35-8.05-6.64-14.24h9.82c.23,3.16,1.45,5.73,3.65,7.72,2.21,2,5.19,2.99,8.94,2.99s6.42-1,8.38-2.99c1.98-1.99,2.95-4.56,2.95-7.72,0-4.16-1.32-7.13-3.97-8.88-2.66-1.76-6.71-2.64-12.19-2.64h-2.32v-8.39h2.41c4.82-.06,8.5-.86,11.03-2.41s3.79-3.99,3.79-7.32c0-2.86-.92-5.14-2.76-6.83-1.85-1.7-4.48-2.55-7.86-2.55s-5.93.85-7.77,2.55c-1.85,1.69-2.94,3.79-3.3,6.29h-9.91c.36-5.54,2.48-9.85,6.38-12.95Z"/>
      <path class="cls-15" d="M-136.26,6974.67c2.05-3.81,4.84-6.77,8.38-8.89,3.55-2.11,7.48-3.17,11.83-3.17,3.21,0,6.38.7,9.5,2.09,3.14,1.4,5.62,3.26,7.47,5.58v-23.74h10.26v66.06h-10.26v-7.41c-1.67,2.38-3.98,4.34-6.93,5.89-2.94,1.55-6.32,2.32-10.13,2.32-4.29,0-8.2-1.09-11.74-3.26-3.55-2.17-6.34-5.21-8.38-9.1-2.06-3.9-3.08-8.32-3.08-13.26s1.02-9.31,3.08-13.12ZM-101.18,6979.13c-1.39-2.5-3.23-4.4-5.49-5.71-2.25-1.31-4.69-1.97-7.32-1.97s-5.06.64-7.31,1.92c-2.27,1.29-4.1,3.16-5.49,5.63-1.39,2.47-2.11,5.4-2.11,8.79s.71,6.37,2.11,8.93,3.24,4.5,5.54,5.85c2.28,1.34,4.71,2.01,7.27,2.01s5.07-.65,7.32-1.96c2.27-1.31,4.1-3.23,5.49-5.76s2.11-5.49,2.11-8.88-.71-6.34-2.11-8.84Z"/>
      <path class="cls-15" d="M-75.96,7011.36c-1.25-1.25-1.87-2.8-1.87-4.64s.62-3.39,1.87-4.64c1.25-1.25,2.79-1.87,4.64-1.87s3.31.62,4.56,1.87c1.25,1.25,1.87,2.8,1.87,4.64s-.62,3.39-1.87,4.64c-1.25,1.25-2.78,1.87-4.56,1.87s-3.39-.62-4.64-1.87Z"/>
      <path class="cls-15" d="M-36.68,6964.94c2.98-1.55,6.34-2.32,10.08-2.32,4.29,0,8.2,1.05,11.74,3.17s6.32,5.07,8.35,8.89c2.02,3.81,3.02,8.18,3.02,13.12s-1,9.36-3.02,13.26c-2.03,3.89-4.81,6.93-8.35,9.1s-7.45,3.26-11.74,3.26c-3.75,0-7.08-.76-10-2.28s-5.3-3.41-7.15-5.67v30.53h-10.17v-72.58h10.17v7.24c1.73-2.27,4.08-4.17,7.06-5.72ZM-15.93,6979c-1.39-2.47-3.24-4.34-5.54-5.63-2.28-1.28-4.74-1.92-7.35-1.92s-5,.65-7.28,1.97c-2.3,1.31-4.14,3.21-5.54,5.71-1.39,2.5-2.11,5.45-2.11,8.84s.71,6.35,2.11,8.88c1.39,2.53,3.24,4.45,5.54,5.76,2.28,1.31,4.71,1.96,7.28,1.96s5.07-.67,7.35-2.01c2.3-1.34,4.14-3.29,5.54-5.85,1.41-2.56,2.11-5.54,2.11-8.93s-.7-6.32-2.11-8.79Z"/>
      <path class="cls-15" d="M22.73,6964.71c2.46-1.39,5.39-2.09,8.79-2.09v10.53h-2.59c-4,0-7.02,1.01-9.07,3.03-2.05,2.03-3.08,5.54-3.08,10.53v25.89H6.62v-49.19h10.17v7.14c1.48-2.5,3.47-4.45,5.94-5.85Z"/>
      <path class="cls-15" d="M41.42,6955.03c-1.25-1.25-1.87-2.8-1.87-4.64s.62-3.39,1.87-4.64c1.25-1.25,2.8-1.87,4.65-1.87s3.3.62,4.55,1.87,1.87,2.8,1.87,4.64-.62,3.39-1.87,4.64c-1.25,1.25-2.76,1.87-4.55,1.87s-3.4-.62-4.65-1.87ZM51.07,6963.42v49.19h-10.17v-49.19h10.17Z"/>
      <path class="cls-15" d="M99.67,6965.02c3.07,1.61,5.46,3.99,7.19,7.15,1.73,3.15,2.59,6.96,2.59,11.42v29.02h-10.08v-27.5c0-4.4-1.1-7.78-3.3-10.13-2.21-2.35-5.22-3.53-9.02-3.53s-6.83,1.18-9.07,3.53c-2.22,2.35-3.34,5.72-3.34,10.13v27.5h-10.17v-49.19h10.17v5.62c1.67-2.02,3.79-3.6,6.38-4.73,2.59-1.13,5.35-1.69,8.27-1.69,3.87,0,7.32.8,10.39,2.4Z"/>
      <path class="cls-15" d="M134.27,6971.72v27.23c0,1.85.44,3.17,1.29,3.97.87.8,2.34,1.21,4.42,1.21h6.25v8.48h-8.02c-4.59,0-8.11-1.07-10.53-3.21-2.44-2.14-3.66-5.63-3.66-10.45v-27.23h-5.81v-8.3h5.81v-12.23h10.26v12.23h11.96v8.3h-11.96Z"/>
    </g>
    <g>
      <g>
        <path class="cls-15" d="M-7595.28,7613.54c-35.03,0-59.67-25.51-59.67-61.4v-239.12h42.8v236.95c0,15.56,9.52,26.81,23.36,26.81,8.65,0,19.46-1.73,25.94-4.32l5.62,33.29c-9.09,4.32-24.65,7.78-38.05,7.78Z"/>
        <path class="cls-15" d="M-7822.72,7541.76c-63.57,0-117.18-53.62-117.18-117.18s53.61-116.75,117.18-116.75,118.04,53.19,118.04,116.75-54.05,117.18-118.04,117.18ZM-7822.72,7504.58c41.08,0,75.23-36.32,75.23-79.99s-34.16-79.56-75.23-79.56-74.38,36.32-74.38,79.56,34.17,79.99,74.38,79.99Z"/>
        <path class="cls-15" d="M-8094.68,7496.36c4.75,4.76,13.4,8.22,22.92,8.22,12.54,0,22.91-11.24,22.91-26.81v-128.42h-52.75v-36.32h52.75v-61.4h41.95v61.4h33.73v36.32h-33.73v131.45c0,35.89-24.22,60.97-58.81,60.97-15.99,0-32.43-6.05-44.54-16l15.56-29.4Z"/>
        <path class="cls-15" d="M-8142.23,7401.23v135.34h-41.94v-30.7c-16.43,23.35-47.13,35.89-74.36,35.89-47.57,0-82.59-27.67-82.59-71.35s40.21-74.37,89.5-74.37c22.06,0,45.84,4.75,67.46,12.11v-6.92c0-28.11-12.97-57.94-57.51-57.94-22.05,0-43.67,8.65-63.13,18.6l-15.56-31.57c31.99-16,60.09-22.48,84.74-22.48,60.1,0,93.4,38.05,93.4,93.4ZM-8184.18,7466.52v-29.84c-18.16-5.62-38.91-8.65-60.97-8.65-29.83,0-54.91,16.86-54.91,41.08s21.62,38.91,49.72,38.91,58.81-13.84,66.16-41.51Z"/>
      </g>
      <path class="cls-15" d="M-7598.56,7288.76l10.6-10.92c7.5,9.13,18.42,15.16,31.3,15.16,14.51,0,23.8-7.66,23.8-18.91s-9.62-17.61-26.41-17.45h-12.23v-14.67l12.23.16c14.18,0,24.13-6.19,24.13-17.44,0-10.43-9.78-17.93-22.82-17.93-11.74,0-20.38,5.87-28.2,15l-10.27-10.11c8.64-11.25,21.36-19.73,39.62-19.73,22.66,0,38.48,12.55,38.48,30.49,0,13.86-9.78,22.5-21.52,26.09,11.74,2.61,23.97,11.09,23.97,26.74,0,18.91-16.14,32.61-40.43,32.61-19.08,0-33.59-8.32-42.23-19.08Z"/>
    </g>
    <g>
      <g>
        <polygon class="cls-12" points="-6667.22 7150.09 -6667.23 7150.1 -6696.37 7179.24 -6740.09 7222.96 -6783.82 7179.23 -6812.96 7150.09 -6812.96 7208.37 -6812.96 7208.37 -6740.1 7281.23 -6740.09 7281.23 -6667.22 7208.78 -6667.22 7150.09"/>
        <polygon class="cls-6" points="-6740.09 7070.62 -6740.1 7070.63 -6812.97 7143.07 -6812.96 7143.48 -6783.82 7172.62 -6740.1 7128.89 -6696.37 7172.62 -6667.23 7143.49 -6667.23 7143.48 -6740.09 7070.62"/>
      </g>
      <g>
        <g>
          <path class="cls-15" d="M-6449.01,7220.28c-9.42,0-16.04-6.86-16.04-16.51v-64.29h11.51v63.7c0,4.18,2.56,7.21,6.28,7.21,2.32,0,5.23-.47,6.97-1.16l1.51,8.95c-2.44,1.16-6.63,2.09-10.23,2.09Z"/>
          <path class="cls-15" d="M-6510.16,7200.99c-17.09,0-31.5-14.41-31.5-31.5s14.41-31.39,31.5-31.39,31.73,14.3,31.73,31.39-14.53,31.5-31.73,31.5ZM-6510.16,7190.99c11.04,0,20.23-9.76,20.23-21.51s-9.18-21.39-20.23-21.39-20,9.76-20,21.39,9.19,21.51,20,21.51Z"/>
          <path class="cls-15" d="M-6583.27,7188.78c1.28,1.28,3.6,2.21,6.16,2.21,3.37,0,6.16-3.02,6.16-7.21v-34.53h-14.18v-9.76h14.18v-16.51h11.28v16.51h9.07v9.76h-9.07v35.34c0,9.65-6.51,16.39-15.81,16.39-4.3,0-8.72-1.63-11.97-4.3l4.18-7.91Z"/>
          <path class="cls-15" d="M-6596.06,7163.21v36.39h-11.28v-8.25c-4.42,6.28-12.67,9.65-19.99,9.65-12.79,0-22.2-7.44-22.2-19.18s10.81-19.99,24.06-19.99c5.93,0,12.32,1.28,18.14,3.25v-1.86c0-7.56-3.49-15.58-15.46-15.58-5.93,0-11.74,2.33-16.97,5l-4.18-8.49c8.6-4.3,16.16-6.04,22.78-6.04,16.16,0,25.11,10.23,25.11,25.11ZM-6607.33,7180.76v-8.02c-4.88-1.51-10.46-2.32-16.39-2.32-8.02,0-14.76,4.53-14.76,11.04s5.81,10.46,13.37,10.46,15.81-3.72,17.79-11.16Z"/>
        </g>
        <path class="cls-15" d="M-6449.89,7132.97l2.85-2.94c2.02,2.45,4.95,4.08,8.42,4.08,3.9,0,6.4-2.06,6.4-5.08s-2.59-4.73-7.1-4.69h-3.29v-3.94l3.29.04c3.81,0,6.49-1.67,6.49-4.69,0-2.81-2.63-4.82-6.14-4.82-3.16,0-5.48,1.58-7.58,4.03l-2.76-2.72c2.32-3.02,5.74-5.3,10.65-5.3,6.09,0,10.34,3.37,10.34,8.2,0,3.73-2.63,6.05-5.79,7.01,3.16.7,6.44,2.98,6.44,7.19,0,5.08-4.34,8.77-10.87,8.77-5.13,0-9.03-2.24-11.35-5.13Z"/>
      </g>
    </g>
    <polygon class="cls-12" points="-7836.73 2411.6 -7836.73 2411.6 -7860.87 2435.74 -7897.1 2471.97 -7933.33 2435.74 -7957.47 2411.6 -7957.47 2459.88 -7957.47 2459.88 -7897.1 2520.25 -7897.1 2520.24 -7836.72 2460.22 -7836.73 2411.6"/>
    <path class="cls-12" d="M-7886.87,2556.11c-8.85,0-15.08-6.45-15.08-15.51v-60.42h10.81v59.87c0,3.93,2.4,6.77,5.9,6.77,2.18,0,4.92-.44,6.55-1.09l1.42,8.41c-2.3,1.09-6.23,1.97-9.61,1.97Z"/>
    <g>
      <g>
        <g>
          <path class="cls-15" d="M-8493.09,222.37c-20.15,0-34.33-14.68-34.33-35.32V49.48h24.62v136.32c0,8.95,5.48,15.42,13.44,15.42,4.97,0,11.19-1,14.92-2.49l3.24,19.15c-5.23,2.49-14.18,4.48-21.89,4.48Z"/>
          <path class="cls-15" d="M-8623.94,181.08c-36.57,0-67.42-30.85-67.42-67.42s30.84-67.17,67.42-67.17,67.91,30.6,67.91,67.17-31.09,67.42-67.91,67.42ZM-8623.94,159.69c23.63,0,43.28-20.9,43.28-46.02s-19.65-45.77-43.28-45.77-42.79,20.9-42.79,45.77,19.66,46.02,42.79,46.02Z"/>
          <path class="cls-15" d="M-8780.41,154.96c2.74,2.74,7.71,4.73,13.19,4.73,7.21,0,13.18-6.47,13.18-15.42v-73.88h-30.35v-20.9h30.35V14.16h24.14v35.33h19.4v20.9h-19.4v75.63c0,20.65-13.93,35.08-33.83,35.08-9.2,0-18.66-3.48-25.62-9.2l8.95-16.92Z"/>
          <path class="cls-15" d="M-8807.76,100.23v77.86h-24.13v-17.66c-9.45,13.43-27.11,20.65-42.78,20.65-27.37,0-47.52-15.92-47.52-41.05s23.14-42.79,51.49-42.79c12.69,0,26.37,2.74,38.81,6.96v-3.98c0-16.17-7.46-33.34-33.09-33.34-12.69,0-25.12,4.98-36.32,10.7l-8.95-18.16c18.4-9.2,34.57-12.94,48.75-12.94,34.58,0,53.73,21.89,53.73,53.73ZM-8831.89,137.79v-17.16c-10.45-3.23-22.39-4.98-35.08-4.98-17.16,0-31.59,9.7-31.59,23.63s12.44,22.39,28.61,22.39,33.83-7.96,38.06-23.88Z"/>
        </g>
        <path class="cls-15" d="M-8494.98,35.52l6.1-6.28c4.31,5.25,10.6,8.72,18.01,8.72,8.35,0,13.69-4.41,13.69-10.88s-5.53-10.13-15.2-10.04h-7.03v-8.44l7.03.09c8.16,0,13.88-3.56,13.88-10.04,0-6-5.63-10.32-13.13-10.32-6.75,0-11.72,3.38-16.23,8.63l-5.91-5.82c4.97-6.47,12.29-11.35,22.79-11.35,13.04,0,22.14,7.22,22.14,17.54,0,7.97-5.63,12.94-12.38,15.01,6.75,1.5,13.79,6.38,13.79,15.38,0,10.88-9.29,18.76-23.26,18.76-10.97,0-19.32-4.78-24.29-10.97Z"/>
      </g>
      <polygon class="cls-12" points="-8959.87 71.99 -8959.88 72 -9022.28 134.4 -9115.91 228.03 -9209.55 134.38 -9271.94 71.99 -9271.94 196.78 -9271.94 196.79 -9115.92 352.81 -9115.91 352.79 -8959.87 197.67 -8959.87 71.99"/>
      <path class="cls-12" d="M-9089.46,445.48c-22.88,0-38.97-16.66-38.97-40.09v-156.15h27.95v154.74c0,10.16,6.22,17.51,15.25,17.51,5.65,0,12.71-1.13,16.94-2.82l3.67,21.74c-5.93,2.82-16.1,5.08-24.85,5.08Z"/>
    </g>
    <g>
      <polygon class="cls-12" points="-7760.77 71.99 -7760.79 72 -7823.18 134.4 -7916.81 228.03 -8010.45 134.38 -8072.84 71.99 -8072.84 196.78 -8072.84 196.79 -7916.83 352.81 -7916.81 352.79 -7760.77 197.67 -7760.77 71.99"/>
      <path class="cls-12" d="M-7890.37,445.48c-22.88,0-38.97-16.66-38.97-40.09v-156.15h27.95v154.74c0,10.16,6.22,17.51,15.25,17.51,5.65,0,12.71-1.13,16.94-2.82l3.67,21.74c-5.93,2.82-16.1,5.08-24.85,5.08Z"/>
    </g>
    <g>
      <g>
        <g>
          <path class="cls-15" d="M-9696.19,222.37c-20.15,0-34.33-14.68-34.33-35.32V49.48h24.62v136.32c0,8.95,5.48,15.42,13.44,15.42,4.97,0,11.19-1,14.92-2.49l3.24,19.15c-5.23,2.49-14.18,4.48-21.89,4.48Z"/>
          <path class="cls-15" d="M-9827.04,181.08c-36.57,0-67.42-30.85-67.42-67.42s30.84-67.17,67.42-67.17,67.91,30.6,67.91,67.17-31.09,67.42-67.91,67.42ZM-9827.04,159.69c23.63,0,43.28-20.9,43.28-46.02s-19.65-45.77-43.28-45.77-42.79,20.9-42.79,45.77,19.66,46.02,42.79,46.02Z"/>
          <path class="cls-15" d="M-9983.5,154.96c2.74,2.74,7.71,4.73,13.19,4.73,7.21,0,13.18-6.47,13.18-15.42v-73.88h-30.35v-20.9h30.35V14.16h24.14v35.33h19.4v20.9h-19.4v75.63c0,20.65-13.93,35.08-33.83,35.08-9.2,0-18.66-3.48-25.62-9.2l8.95-16.92Z"/>
          <path class="cls-15" d="M-10010.86,100.23v77.86h-24.13v-17.66c-9.45,13.43-27.11,20.65-42.78,20.65-27.37,0-47.52-15.92-47.52-41.05s23.14-42.79,51.49-42.79c12.69,0,26.37,2.74,38.81,6.96v-3.98c0-16.17-7.46-33.34-33.09-33.34-12.69,0-25.12,4.98-36.32,10.7l-8.95-18.16c18.4-9.2,34.57-12.94,48.75-12.94,34.58,0,53.73,21.89,53.73,53.73ZM-10034.99,137.79v-17.16c-10.45-3.23-22.39-4.98-35.08-4.98-17.16,0-31.59,9.7-31.59,23.63s12.44,22.39,28.61,22.39,33.83-7.96,38.06-23.88Z"/>
        </g>
        <path class="cls-15" d="M-9698.08,35.52l6.1-6.28c4.31,5.25,10.6,8.72,18.01,8.72,8.35,0,13.69-4.41,13.69-10.88s-5.53-10.13-15.2-10.04h-7.03v-8.44l7.03.09c8.16,0,13.88-3.56,13.88-10.04,0-6-5.63-10.32-13.13-10.32-6.75,0-11.72,3.38-16.23,8.63l-5.91-5.82c4.97-6.47,12.29-11.35,22.79-11.35,13.04,0,22.14,7.22,22.14,17.54,0,7.97-5.63,12.94-12.38,15.01,6.75,1.5,13.79,6.38,13.79,15.38,0,10.88-9.29,18.76-23.26,18.76-10.97,0-19.32-4.78-24.29-10.97Z"/>
      </g>
      <polygon class="cls-12" points="-10162.97 71.99 -10162.98 72 -10225.38 134.4 -10319 228.03 -10412.64 134.38 -10475.04 71.99 -10475.04 196.78 -10475.04 196.79 -10319.02 352.81 -10319 352.79 -10162.97 197.67 -10162.97 71.99"/>
      <path class="cls-12" d="M-10292.56,445.48c-22.88,0-38.97-16.66-38.97-40.09v-156.15h27.95v154.74c0,10.16,6.22,17.51,15.25,17.51,5.65,0,12.71-1.13,16.94-2.82l3.67,21.74c-5.93,2.82-16.1,5.08-24.85,5.08Z"/>
    </g>
    <g>
      <g>
        <polygon class="cls-6" points="-11514.44 -97.9 -11514.46 -97.88 -11670.39 57.14 -11670.38 58.02 -11608.02 120.37 -11514.46 26.81 -11420.88 120.39 -11358.52 58.03 -11358.52 58.02 -11514.44 -97.9"/>
        <g>
          <g>
            <path class="cls-15" d="M-10891.55,222.37c-20.15,0-34.33-14.68-34.33-35.32V49.48h24.62v136.32c0,8.95,5.48,15.42,13.44,15.42,4.97,0,11.19-1,14.92-2.49l3.24,19.15c-5.23,2.49-14.18,4.48-21.89,4.48Z"/>
            <path class="cls-15" d="M-11022.39,181.08c-36.57,0-67.42-30.85-67.42-67.42s30.84-67.17,67.42-67.17,67.91,30.6,67.91,67.17-31.09,67.42-67.91,67.42ZM-11022.39,159.69c23.63,0,43.28-20.9,43.28-46.02s-19.65-45.77-43.28-45.77-42.79,20.9-42.79,45.77,19.66,46.02,42.79,46.02Z"/>
            <path class="cls-15" d="M-11178.86,154.96c2.74,2.74,7.71,4.73,13.19,4.73,7.21,0,13.18-6.47,13.18-15.42v-73.88h-30.35v-20.9h30.35V14.16h24.14v35.33h19.4v20.9h-19.4v75.63c0,20.65-13.93,35.08-33.83,35.08-9.2,0-18.66-3.48-25.62-9.2l8.95-16.92Z"/>
            <path class="cls-15" d="M-11206.21,100.23v77.86h-24.13v-17.66c-9.45,13.43-27.11,20.65-42.78,20.65-27.37,0-47.52-15.92-47.52-41.05s23.14-42.79,51.49-42.79c12.69,0,26.37,2.74,38.81,6.96v-3.98c0-16.17-7.46-33.34-33.09-33.34-12.69,0-25.12,4.98-36.32,10.7l-8.95-18.16c18.4-9.2,34.57-12.94,48.75-12.94,34.58,0,53.73,21.89,53.73,53.73ZM-11230.35,137.79v-17.16c-10.45-3.23-22.39-4.98-35.08-4.98-17.16,0-31.59,9.7-31.59,23.63s12.44,22.39,28.61,22.39,33.83-7.96,38.06-23.88Z"/>
          </g>
          <path class="cls-15" d="M-10893.43,35.52l6.1-6.28c4.31,5.25,10.6,8.72,18.01,8.72,8.35,0,13.69-4.41,13.69-10.88s-5.53-10.13-15.2-10.04h-7.03v-8.44l7.03.09c8.16,0,13.88-3.56,13.88-10.04,0-6-5.63-10.32-13.13-10.32-6.75,0-11.72,3.38-16.23,8.63l-5.91-5.82c4.97-6.47,12.29-11.35,22.79-11.35,13.04,0,22.14,7.22,22.14,17.54,0,7.97-5.63,12.94-12.38,15.01,6.75,1.5,13.79,6.38,13.79,15.38,0,10.88-9.29,18.76-23.26,18.76-10.97,0-19.32-4.78-24.29-10.97Z"/>
        </g>
      </g>
      <polygon class="cls-12" points="-11358.32 71.99 -11358.34 72 -11420.73 134.4 -11514.36 228.03 -11608 134.38 -11670.39 71.99 -11670.39 196.78 -11670.39 196.79 -11514.37 352.81 -11514.36 352.79 -11358.32 197.67 -11358.32 71.99"/>
      <path class="cls-12" d="M-11487.91,445.48c-22.88,0-38.97-16.66-38.97-40.09v-156.15h27.95v154.74c0,10.16,6.22,17.51,15.25,17.51,5.65,0,12.71-1.13,16.94-2.82l3.67,21.74c-5.93,2.82-16.1,5.08-24.85,5.08Z"/>
    </g>
    <g>
      <path class="cls-18" d="M-6620.99,255.63c-14.76,0-25.14-10.75-25.14-25.87v-102.92h18.03v102.01c0,6.56,4.01,11.29,9.84,11.29,3.64,0,8.2-.73,10.93-1.82l2.37,14.03c-3.83,1.82-10.38,3.28-16.03,3.28Z"/>
      <path class="cls-18" d="M-6709.33,225.39c-26.78,0-49.36-22.59-49.36-49.36s22.58-49.18,49.36-49.18,49.73,22.41,49.73,49.18-22.77,49.36-49.73,49.36ZM-6709.33,209.73c17.3,0,31.69-15.3,31.69-33.7s-14.39-33.52-31.69-33.52-31.33,15.3-31.33,33.52,14.39,33.7,31.33,33.7Z"/>
      <path class="cls-18" d="M-6823.36,206.27c2,2,5.65,3.46,9.66,3.46,5.28,0,9.65-4.74,9.65-11.29v-54.1h-22.22v-15.3h22.22v-25.87h17.67v25.87h14.21v15.3h-14.21v55.38c0,15.12-10.2,25.68-24.77,25.68-6.74,0-13.66-2.55-18.76-6.74l6.56-12.39Z"/>
      <path class="cls-18" d="M-6843.39,166.19v59.2h-17.67v-15.12c-6.92,9.84-19.85,15.12-31.33,15.12-20.04,0-34.79-11.66-34.79-30.06s16.94-31.33,37.7-31.33c9.29,0,19.31,2,28.42,5.1v-2.91c0-11.84-5.46-24.41-24.23-24.41-9.29,0-18.4,3.64-26.6,7.83l-6.55-13.3c13.48-6.74,25.32-9.47,35.7-9.47,25.32,0,39.35,16.03,39.35,39.35ZM-6861.06,193.7v-12.57c-7.65-2.37-16.39-3.64-25.69-3.64-12.57,0-23.13,7.1-23.13,17.31s9.11,16.39,20.95,16.39,24.77-5.83,27.87-17.49Z"/>
      <path class="cls-18" d="M-6555.39,229.93c-8.42,0-16.28-1.73-23.36-5.15-6.36-3.07-11.98-7.51-16.27-12.85l-2.51-3.13,15.39-15.86,3.22,3.93c5.99,7.29,14.24,11.3,23.25,11.3,5.01,0,9.15-1.2,11.98-3.48,2.54-2.04,3.82-4.78,3.82-8.15,0-6.89-5.88-10.38-17.48-10.38-.17,0-.34,0-.52,0h-15.03s0-21.68,0-21.68l15.02.2c3.81,0,16.06-.77,16.06-10.37,0-6.25-6.3-10.79-14.97-10.79-7.63,0-14,3.47-20.66,11.24l-3.16,3.69-15.11-14.86,2.45-3.18c4.37-5.69,9.52-10.15,15.29-13.27,6.61-3.56,14.07-5.37,22.17-5.37,5.22,0,10.15.71,14.66,2.12,4.51,1.41,8.5,3.47,11.86,6.14,7.03,5.57,10.9,13.5,10.9,22.33,0,6.64-2.28,12.69-6.6,17.48-1.46,1.62-3.15,3.09-5.03,4.4,2.18,1.27,4.16,2.75,5.87,4.42,5.14,5,7.85,11.52,7.85,18.86,0,9.27-3.96,17.62-11.16,23.51-3.5,2.87-7.67,5.09-12.4,6.6-4.76,1.52-9.99,2.3-15.54,2.3Z"/>
      <path class="cls-18" d="M-6430.89,229.93l.03-8.29c-1.77,1.17-3.59,2.21-5.45,3.13-6.94,3.42-14.6,5.16-22.76,5.16-7.22,0-14.05-1.35-20.31-4-6.25-2.65-12-6.64-17.1-11.86-5.08-5.21-8.96-11.1-11.54-17.51-2.57-6.4-3.87-13.41-3.87-20.82s1.32-14.21,3.92-20.55c2.6-6.34,6.52-12.18,11.65-17.37,5.13-5.2,10.92-9.17,17.2-11.81,6.28-2.64,13.14-3.98,20.38-3.98,8.45,0,16.24,1.85,23.18,5.49,1.62.85,3.2,1.81,4.74,2.87v-31.74h25.96l-.04,131.3h-25.97ZM-6457.82,147.73c-5,0-9.67,1.24-13.88,3.68-4.19,2.44-7.59,5.93-10.1,10.39-2.53,4.5-3.82,9.31-3.82,14.29s1.3,9.74,3.86,14.3c2.54,4.52,5.98,8.07,10.21,10.57,4.22,2.48,8.81,3.74,13.65,3.74s9.68-1.27,14.13-3.77c4.37-2.46,7.76-5.81,10.09-9.96,2.37-4.23,3.58-9.13,3.58-14.55,0-8.44-2.55-14.98-8.03-20.56-5.43-5.54-11.69-8.13-19.69-8.13Z"/>
      <path class="cls-18" d="M-6387.1,229.93c-3.64,0-6.92-1.37-9.48-3.97-2.55-2.58-3.89-5.86-3.89-9.47s1.35-6.97,3.92-9.53c2.56-2.56,5.83-3.92,9.46-3.92s6.9,1.35,9.46,3.92c2.56,2.56,3.92,5.86,3.92,9.53s-1.35,6.89-3.89,9.47c-2.56,2.6-5.84,3.97-9.48,3.97Z"/>
      <path class="cls-18" d="M-6267.09,229.93v-107.62h26.78v6.31c2.17-1.24,4.46-2.31,6.88-3.2,5.54-2.06,11.44-3.1,17.54-3.1h9.26v26.27h-9.26c-14.61,0-24.42,9.41-24.42,23.41v57.94h-26.78Z"/>
      <g>
        <path class="cls-18" d="M-6188.76,117.93c-7.42,0-13.46-6.04-13.46-13.46s6.04-13.32,13.46-13.32c3.51,0,6.85,1.4,9.39,3.94,2.54,2.54,3.94,5.87,3.94,9.39s-1.39,6.9-3.91,9.46c-2.54,2.58-5.88,4-9.41,4Z"/>
        <rect class="cls-18" x="-6202.22" y="122.31" width="26.78" height="107.62"/>
      </g>
      <path class="cls-18" d="M-6036.74,229.93c-7.93,0-15.14-3.25-20.31-9.16-5.02-5.73-7.78-13.65-7.78-22.29v-49.75h-14.79v-26.25h14.79v-23.86h26.75v23.86h22.35v26.25h-22.35v49.75c0,3.58,1.41,5.19,1.84,5.19,1.88,0,3.99-.79,5.5-2.05l7.96-6.65,14.6,22.21-6.75,5.25c-6.22,4.83-13.97,7.5-21.81,7.5Z"/>
      <path class="cls-18" d="M-6369.33,256.42V122.31h26.44v6.17c2.13-1.23,4.37-2.29,6.7-3.17,5.31-1.99,11.03-3,16.99-3,6.52,0,12.85,1.46,18.8,4.32,5.7,2.75,10.81,6.67,15.2,11.65,4.34,4.94,7.75,10.68,10.13,17.06,2.45,6.58,3.69,13.55,3.69,20.73s-1.24,14.19-3.69,20.79c-2.38,6.4-5.78,12.16-10.12,17.11-4.38,5-9.49,8.93-15.2,11.69-5.96,2.88-12.28,4.34-18.8,4.34-5.97,0-11.69-1.02-17.01-3.02-2.33-.88-4.56-1.94-6.69-3.17v32.61h-26.44ZM-6320.85,148.25c-13.18,0-22.04,11.18-22.04,27.83s9.06,27.98,22.04,27.98,22.71-12.55,22.71-27.98-10.19-27.83-22.71-27.83Z"/>
      <path class="cls-18" d="M-6107.32,229.93v-65.15c0-11.79-7.71-19.71-19.18-19.71-12.14,0-21.3,8.4-21.3,19.54v65.32h-23.29v-107.62h23.29v6.13c1.74-1.08,3.6-2.02,5.55-2.84,5.25-2.18,10.96-3.29,16.97-3.29,11.5,0,21.99,4.16,29.54,11.71,7.55,7.55,11.71,18.04,11.71,29.55v66.37h-23.3Z"/>
    </g>
  </g>
  <g id="fondo">
    <path class="cls-12" d="M-4541.81,4189.02h709.52c94.02,0,170.36,76.33,170.36,170.36h0c0,43.98-35.71,79.69-79.68,79.69h-800.19c-28.41,0-51.48-23.07-51.48-51.48v-147.08c0-28.41,23.07-51.48,51.48-51.48Z"/>
    <path class="cls-12" d="M-3898.72,3043.05h1030.42c94.02,0,170.36,76.33,170.36,170.36v86.15c0,43.98-35.71,79.68-79.68,79.68h-1121.09c-28.41,0-51.48-23.07-51.48-51.48v-233.24c0-28.41,23.07-51.48,51.48-51.48Z" transform="translate(-6648.14 6422.3) rotate(180)"/>
  </g>
  <g id="impresora">
    <g>
      <g>
        <path class="cls-17" d="M-4150.54,4385.2c0,2.74-2.26,4.96-5.05,4.96h-220.65c-2.78,0-5.04-2.22-5.04-4.96v-156.65c0-2.74,2.26-4.96,5.04-4.96h220.65c2.79,0,5.05,2.22,5.05,4.96v156.65Z"/>
        <rect class="cls-2" x="-4372.38" y="4232.34" width="212.95" height="134"/>
        <path class="cls-4" d="M-4261.7,4378.03c0,2.29-1.89,4.14-4.2,4.14s-4.21-1.85-4.21-4.14,1.89-4.14,4.21-4.14,4.2,1.85,4.2,4.14Z"/>
      </g>
      <path class="cls-17" d="M-4389.65,4395.45v10.55c0,4.55,3.75,8.24,8.37,8.24h230.73c4.63,0,8.37-3.69,8.37-8.24v-10.55h-247.48Z"/>
      <g>
        <rect class="cls-8" x="-4354.11" y="4390.16" width="21.3" height="5.29"/>
        <rect class="cls-8" x="-4199.01" y="4390.16" width="21.3" height="5.29"/>
      </g>
      <g>
        <polygon class="cls-21" points="-4265.91 4273.69 -4265.91 4354.39 -4308.53 4325 -4308.53 4273.69 -4265.91 4273.69"/>
        <polygon class="cls-4" points="-4223.29 4273.69 -4223.29 4325 -4265.91 4354.39 -4265.91 4273.69 -4223.29 4273.69"/>
        <polygon class="cls-22" points="-4265.91 4244.3 -4308.53 4273.69 -4265.91 4303.08 -4223.29 4273.69 -4265.91 4244.3"/>
      </g>
      <rect class="cls-23" x="-4360.14" y="4244.3" width="43.74" height="4.1"/>
      <rect class="cls-23" x="-4360.14" y="4252.46" width="27.34" height="4.1"/>
      <path class="cls-23" d="M-4199.38,4241.47h-32.73c-2.25,0-4.07,1.82-4.07,4.07v7.92l-8.41,18.18,16.68-10.88h28.54c2.24,0,4.07-1.82,4.07-4.07v-11.15c0-2.25-1.83-4.07-4.07-4.07Z"/>
      <g>
        <rect class="cls-22" x="-4224.8" y="4245.98" width="22.76" height="3.41"/>
        <rect class="cls-22" x="-4224.8" y="4252.77" width="13.76" height="3.41"/>
      </g>
      <g>
        <path class="cls-23" d="M-4190.58,4347.88h-32.73c-2.25,0-4.07-1.82-4.07-4.07v-7.91l-8.42-18.18,16.69,10.88h28.54c2.24,0,4.07,1.82,4.07,4.07v11.15c0,2.25-1.83,4.07-4.07,4.07Z"/>
        <g>
          <rect class="cls-4" x="-4216" y="4339.96" width="22.76" height="3.41"/>
          <rect class="cls-4" x="-4216" y="4333.17" width="13.76" height="3.41"/>
        </g>
      </g>
      <g>
        <path class="cls-23" d="M-4341.24,4347.88h32.74c2.25,0,4.07-1.82,4.07-4.07v-7.91l8.41-18.18-16.68,10.88h-28.54c-2.25,0-4.07,1.82-4.07,4.07v11.15c0,2.25,1.82,4.07,4.07,4.07Z"/>
        <g>
          <rect class="cls-21" x="-4338.58" y="4339.96" width="22.77" height="3.41"/>
          <rect class="cls-21" x="-4329.58" y="4333.17" width="13.76" height="3.41"/>
        </g>
      </g>
    </g>
    <g>
      <g>
        <g>
          <path class="cls-9" d="M-3783.6,3167.88c0,1.4-1.15,2.53-2.58,2.53h-112.58c-1.42,0-2.57-1.13-2.57-2.53v-79.93c0-1.4,1.15-2.53,2.57-2.53h112.58c1.42,0,2.58,1.14,2.58,2.53v79.93Z"/>
          <rect class="cls-1" x="-3896.79" y="3089.88" width="108.65" height="68.37"/>
          <polygon class="cls-1" points="-3833.39 3189.02 -3851.53 3189.02 -3850.25 3170.41 -3834.68 3170.41 -3833.39 3189.02"/>
          <path class="cls-19" d="M-3818.27,3192.78v-3.31c0-2.32-1.91-4.21-4.27-4.21h-39.84c-2.36,0-4.27,1.88-4.27,4.21v3.31h48.39Z"/>
          <path class="cls-4" d="M-3840.32,3164.22c0,1.16-.96,2.11-2.14,2.11s-2.15-.95-2.15-2.11.96-2.11,2.15-2.11,2.14.95,2.14,2.11Z"/>
        </g>
        <g>
          <polygon class="cls-4" points="-3854.43 3154.52 -3880.21 3154.52 -3898.05 3192.78 -3872.27 3192.78 -3854.43 3154.52"/>
          <polygon class="cls-16" points="-3872.27 3192.78 -3854.43 3154.52 -3836.59 3192.78 -3872.27 3192.78"/>
        </g>
        <path class="cls-19" d="M-3829.88,3106.2h-25.15l-17.48,37.48h60.11l-17.48-37.48ZM-3868.28,3140.98l14.96-32.08h20.46l-14.97,32.08h-20.45ZM-3830.74,3110.74l14.1,30.24h-28.21l14.11-30.24Z"/>
        <g>
          <rect class="cls-2" x="-3794.06" y="3112.07" width="74.31" height="64.21"/>
          <rect class="cls-14" x="-3790.77" y="3166.6" width="66.67" height="5.88"/>
          <path class="cls-13" d="M-3729.46,3135.51h-55.91c-2.97,0-5.4-2.42-5.4-5.4v-13.51h2.75v13.51c0,1.46,1.19,2.64,2.64,2.64h55.91c1.46,0,2.64-1.19,2.64-2.64v-13.51h2.75v13.51c0,2.98-2.42,5.4-5.39,5.4Z"/>
          <rect class="cls-3" x="-3758.6" y="3141.61" width="2.37" height="4.43"/>
          <rect class="cls-13" x="-3760.01" y="3138.02" width="5.15" height="5.27"/>
          <path class="cls-11" d="M-3747.82,3135.51h-19.18s-.97,5.03,5.23,5.03h8.72c6.2,0,5.23-5.03,5.23-5.03Z"/>
          <g>
            <polygon class="cls-4" points="-3754.45 3153.62 -3760.5 3166.6 -3776.46 3166.6 -3770.41 3153.62 -3754.45 3153.62"/>
            <polygon class="cls-16" points="-3738.42 3166.6 -3760.5 3166.6 -3754.45 3153.62 -3744.46 3153.62 -3738.42 3166.6"/>
          </g>
          <rect class="cls-4" x="-3758.6" y="3146.05" width="2.37" height="7.58"/>
          <path class="cls-4" d="M-3741.59,3108.64h-3.27v-20.09c0-2.89-2.36-5.25-5.25-5.25h-.43c-2.9,0-5.25,2.35-5.25,5.25v44.21h-3.27v-44.21c0-4.69,3.82-8.51,8.52-8.51h.43c4.7,0,8.52,3.82,8.52,8.51v20.09Z"/>
          <path class="cls-20" d="M-3757.44,3116.6v-7.96h-38.8c-1.81,0-3.27,1.46-3.27,3.27v77.61c0,1.81,1.46,3.27,3.27,3.27h38.8v-20.3h-33.32v-55.88h33.32Z"/>
          <path class="cls-17" d="M-3715.37,3111.9v77.61c0,1.81-1.46,3.27-3.27,3.27h-38.81v-20.3h33.34v-55.88h-33.34v-7.96h38.81c1.81,0,3.27,1.46,3.27,3.27Z"/>
          <g>
            <rect class="cls-14" x="-3737.83" y="3177.53" width="12.09" height="8.17"/>
            <path class="cls-16" d="M-3785.01,3181.62c0,1.14-.92,2.07-2.06,2.07s-2.06-.92-2.06-2.07.92-2.06,2.06-2.06,2.06.92,2.06,2.06Z"/>
            <path class="cls-5" d="M-3776.84,3181.62c0,1.14-.93,2.07-2.07,2.07s-2.06-.92-2.06-2.07.92-2.06,2.06-2.06,2.07.92,2.07,2.06Z"/>
            <path class="cls-14" d="M-3768.68,3181.62c0,1.14-.93,2.07-2.07,2.07s-2.06-.92-2.06-2.07.93-2.06,2.06-2.06,2.07.92,2.07,2.06Z"/>
            <g>
              <rect class="cls-5" x="-3762.12" y="3176.72" width="19.28" height="9.8"/>
              <g>
                <rect class="cls-22" x="-3760.4" y="3176.72" width="1.8" height="9.8"/>
                <rect class="cls-22" x="-3755.72" y="3176.72" width="1.8" height="9.8"/>
                <rect class="cls-22" x="-3751.04" y="3176.72" width="1.8" height="9.8"/>
                <rect class="cls-22" x="-3746.36" y="3176.72" width="1.8" height="9.8"/>
              </g>
            </g>
          </g>
        </g>
      </g>
      <rect class="cls-10" x="-3908.2" y="3192.78" width="199.71" height="6.59"/>
    </g>
  </g>
  <g id="guias" class="cls-26">
    <rect class="cls-12" x="-4447.4" y="4414.25" width="58.84" height="58.84"/>
  </g>
</svg>