<svg width="24" height="25" viewBox="0 0 24 25" fill="none" xmlns="http://www.w3.org/2000/svg">
<g clip-path="url(#clip0_47_9121)">
<path d="M12 4.44998C7.43139 4.44998 3.71997 8.1614 3.71997 12.73C3.71997 14.1985 4.1227 15.5689 4.79435 16.7652L3.73333 20.553C3.71638 20.6136 3.71561 20.6776 3.73111 20.7385C3.7466 20.7996 3.77782 20.8554 3.82164 20.9006C3.86546 20.9458 3.92036 20.9787 3.98087 20.996C4.04137 21.0134 4.10536 21.0146 4.16645 20.9994L8.1159 20.0207C9.27643 20.6402 10.5933 21.01 12 21.01C16.5686 21.01 20.28 17.2986 20.28 12.73C20.28 8.1614 16.5686 4.44998 12 4.44998ZM12 5.16998C16.1794 5.16998 19.56 8.55056 19.56 12.73C19.56 16.9094 16.1794 20.29 12 20.29C10.6601 20.29 9.40513 19.9406 8.31418 19.3302C8.23441 19.2856 8.14063 19.2731 8.05192 19.2951L4.59325 20.1522L5.52067 16.8433C5.53395 16.7965 5.53761 16.7475 5.53145 16.6993C5.52528 16.6511 5.50942 16.6046 5.48481 16.5627C4.82182 15.4385 4.43997 14.1304 4.43997 12.73C4.43997 8.55056 7.82055 5.16998 12 5.16998ZM8.99131 8.40998C8.76051 8.40998 8.43093 8.49584 8.16021 8.78755C7.9976 8.96276 7.31997 9.623 7.31997 10.7838C7.31997 11.9939 8.15928 13.0381 8.26076 13.1722H8.26144V13.173C8.25183 13.1603 8.39025 13.3608 8.57504 13.6011C8.75983 13.8416 9.01824 14.1572 9.34285 14.4991C9.99211 15.1826 10.905 15.9726 12.038 16.4558C12.5597 16.678 12.9713 16.8122 13.2832 16.9101C13.8611 17.0915 14.3875 17.064 14.783 17.0057C15.0789 16.9621 15.4045 16.82 15.7265 16.6161C16.0486 16.4123 16.3643 16.1589 16.5035 15.7738C16.6032 15.4977 16.6539 15.2426 16.6722 15.0327C16.6814 14.9277 16.6826 14.8351 16.6758 14.7494C16.6689 14.6636 16.6762 14.5979 16.5963 14.4667C16.4287 14.1915 16.2389 14.1843 16.0408 14.0863C15.9308 14.0319 15.6175 13.8789 15.3033 13.7291C14.9894 13.5795 14.7176 13.4471 14.5502 13.3874C14.4444 13.3494 14.3153 13.2946 14.129 13.3157C13.9427 13.3368 13.7588 13.4712 13.6516 13.63C13.5501 13.7805 13.1413 14.263 13.0167 14.4048C13.015 14.4038 13.0259 14.4088 12.9766 14.3844C12.8225 14.3082 12.634 14.2433 12.355 14.0961C12.0761 13.949 11.7272 13.7317 11.3453 13.3952V13.3944C10.7771 12.8941 10.379 12.266 10.2534 12.055C10.2619 12.0449 10.2524 12.0571 10.2703 12.0395L10.271 12.0388C10.3993 11.9124 10.5131 11.7614 10.6092 11.6507C10.7455 11.4937 10.8056 11.3553 10.8708 11.226C11.0006 10.9683 10.9283 10.6847 10.8532 10.5355V10.5348C10.8584 10.5451 10.8125 10.4441 10.7632 10.3274C10.7137 10.2105 10.6506 10.0588 10.5832 9.89711C10.4484 9.57368 10.2979 9.21095 10.2084 8.99851V8.99779C10.103 8.74755 9.96036 8.56727 9.77388 8.48029C9.5874 8.39331 9.42266 8.41805 9.416 8.41772H9.41528C9.28222 8.41157 9.13617 8.40998 8.99131 8.40998ZM8.99131 9.12998C9.13009 9.12998 9.26692 9.13167 9.38155 9.137C9.49945 9.14291 9.4921 9.14337 9.46942 9.13279C9.44638 9.12206 9.47763 9.11857 9.54466 9.27765C9.63229 9.48566 9.78352 9.84969 9.91874 10.1741C9.98631 10.3363 10.0496 10.4886 10.1001 10.608C10.1507 10.7273 10.178 10.794 10.2098 10.8576V10.8583L10.2105 10.859C10.2417 10.9204 10.2389 10.8811 10.2281 10.9026C10.1521 11.0534 10.1418 11.0904 10.065 11.1789C9.94797 11.3137 9.82863 11.464 9.76545 11.5262C9.71016 11.5805 9.61044 11.6651 9.54819 11.8307C9.4858 11.9965 9.51493 12.224 9.61497 12.3939C9.74817 12.62 10.1872 13.3345 10.8694 13.9352C11.299 14.3139 11.6992 14.5645 12.0189 14.7332C12.3387 14.9019 12.5991 15.0004 12.6574 15.0292C12.7958 15.0977 12.947 15.1509 13.1228 15.1297C13.2987 15.1086 13.4503 15.0019 13.5469 14.8928L13.5475 14.8921C13.676 14.7465 14.0577 14.3106 14.2408 14.042C14.2486 14.0447 14.246 14.0426 14.3069 14.0645V14.0652H14.3076C14.3354 14.0751 14.6835 14.2309 14.9939 14.3788C15.3042 14.5267 15.6193 14.6804 15.7216 14.7311C15.8693 14.8042 15.9391 14.8518 15.9572 14.852C15.9584 14.8837 15.9596 14.918 15.955 14.9702C15.9424 15.1147 15.9038 15.3149 15.8264 15.5291C15.7885 15.634 15.591 15.8504 15.3419 16.008C15.0929 16.1656 14.7897 16.2769 14.6775 16.2934C14.3399 16.3432 13.9392 16.3613 13.499 16.2231C13.1938 16.1273 12.8133 16.0033 12.3206 15.7935C11.3213 15.3673 10.472 14.6421 9.86528 14.0033C9.56194 13.6839 9.31891 13.3866 9.146 13.1617C8.97342 12.9372 8.89803 12.8204 8.83521 12.7377L8.83449 12.737C8.72296 12.5895 8.03997 11.6395 8.03997 10.7838C8.03997 9.87806 8.46063 9.52289 8.68826 9.27765C8.80774 9.14888 8.93839 9.12998 8.99131 9.12998Z" fill="#062a7b"/>
</g>
<defs>
<clipPath id="clip0_47_9121">
<rect width="18" height="18" fill="white" transform="translate(3 3.72998)"/>
</clipPath>
</defs>
</svg>
